<svg width="100" height="100" viewBox="0 0 100 100" xmlns="http://www.w3.org/2000/svg" xmlns:xlink="http://www.w3.org/1999/xlink"><defs><path d="M39.59 27.869l31.34 19.587a3 3 0 0 1 0 5.088L39.59 72.131A3 3 0 0 1 35 69.587V30.413a3 3 0 0 1 4.59-2.544z" id="a"/></defs><g fill="none" fill-rule="evenodd"><circle stroke="#FFF" stroke-width="2" cx="50" cy="50" r="49"/><use fill="#FFF" xlink:href="#a"/><path stroke="#FFF" stroke-width="2" d="M39.06 28.717A2 2 0 0 0 36 30.413v39.174a2 2 0 0 0 3.06 1.696L70.4 51.696a2 2 0 0 0 0-3.392L39.06 28.717z"/></g></svg>