<svg width="60" height="60" viewBox="0 0 60 60" xmlns="http://www.w3.org/2000/svg" xmlns:xlink="http://www.w3.org/1999/xlink"><title>Play</title><defs><path d="M24.795 18.934l15.67 9.794a1.5 1.5 0 0 1 0 2.544l-15.67 9.794a1.5 1.5 0 0 1-2.295-1.272V20.206a1.5 1.5 0 0 1 2.295-1.272z" id="a"/></defs><g fill="none" fill-rule="evenodd"><circle stroke="#FFF" cx="30" cy="30" r="29.5"/><use fill="#FFF" xlink:href="#a"/><path stroke="#FFF" d="M24.53 19.358a1 1 0 0 0-1.53.848v19.588a1 1 0 0 0 1.53.848l15.67-9.794a1 1 0 0 0 0-1.696l-15.67-9.794z"/></g></svg>