<svg width="30" height="30" viewBox="0 0 30 30" xmlns="http://www.w3.org/2000/svg" xmlns:xlink="http://www.w3.org/1999/xlink"><defs><path d="M11.877 8.36l9.402 5.877a.9.9 0 0 1 0 1.526l-9.402 5.876a.9.9 0 0 1-1.377-.763V9.124a.9.9 0 0 1 1.377-.763z" id="a"/></defs><g fill="none" fill-rule="evenodd"><circle stroke="#FFF" cx="15" cy="15" r="14.5"/><use fill="#FFF" xlink:href="#a"/><path stroke="#FFF" d="M11.612 8.785a.4.4 0 0 0-.612.339v11.752a.4.4 0 0 0 .612.34l9.402-5.877a.4.4 0 0 0 0-.678l-9.402-5.876z"/></g></svg>