<?xml version="1.0" standalone="no"?>
<!DOCTYPE svg PUBLIC "-//W3C//DTD SVG 1.1//EN" "http://www.w3.org/Graphics/SVG/1.1/DTD/svg11.dtd" >
<svg>
<metadata>
Created by FontForge 20090914 at Mon Oct 26 10:56:26 2015
 By www-data
2000 Albert-Jan Pool, published by Fontshop International for the FontFont library.
</metadata>
<defs>
<font id="DINCond-Medium" horiz-adv-x="377" >
  <font-face 
    font-family="DINCond-Medium"
    font-weight="400"
    font-stretch="normal"
    units-per-em="1000"
    panose-1="2 0 5 6 2 0 0 2 0 4"
    ascent="800"
    descent="-200"
    x-height="518"
    cap-height="712"
    bbox="-101 -200 919 949"
    underline-thickness="77"
    underline-position="-39"
    unicode-range="U+0020-U+FB02"
  />
<missing-glyph horiz-adv-x="1000" 
 />
    <glyph glyph-name=".notdef" horiz-adv-x="1000" 
 />
    <glyph glyph-name="space" unicode=" " horiz-adv-x="187" 
 />
    <glyph glyph-name="exclam" unicode="!" horiz-adv-x="242" 
d="M93 193v519h81v-519h-81zM84 0v99h99v-99h-99z" />
    <glyph glyph-name="quotedbl" unicode="&#x22;" horiz-adv-x="395" 
d="M244 520v192h83v-192h-83zM67 520v192h83v-192h-83z" />
    <glyph glyph-name="numbersign" unicode="#" horiz-adv-x="554" 
d="M421 436l-19 -145h72v-76h-84l-29 -215h-82l29 215h-105l-29 -215h-82l29 215h-70v76h82l19 145h-72l-1 76h84l27 200h83l-27 -200h104l27 200h83l-28 -200h70l1 -76h-82zM234 436l-19 -145h104l20 145h-105z" />
    <glyph glyph-name="dollar" unicode="$" horiz-adv-x="434" 
d="M391 191c0 -37.333 -3.16797 -68.167 -9.50098 -92.5s-18.166 -45.166 -35.499 -62.499c-10.667 -10.667 -23.5 -19.5 -38.5 -26.5s-32.5 -11.833 -52.5 -14.5v-109h-77v108c-41.333 4.66699 -73.333 18.667 -96 42c-16.667 16.667 -28.167 36.334 -34.5 59.001
s-9.5 53 -9.5 91h86c0 -23.333 1.66699 -42.166 5 -56.499s9.66602 -26.5 18.999 -36.5c6.66699 -8 16.667 -14 30 -18v262l-38 16c-18 7.33301 -33.333 15.666 -46 24.999s-22.667 20.833 -30 34.5s-12.666 30 -15.999 49s-5 42.167 -5 69.5c0 31.333 4.5 59.333 13.5 84
s22.5 45.334 40.5 62.001c22 20 49 33 81 39v90h77v-90c36.667 -5.33301 65.667 -18.333 87 -39c18 -17.333 30.333 -37.833 37 -61.5s10 -51.834 10 -84.501h-86c0 19.333 -1.33301 35.666 -4 48.999s-8.66699 25.666 -18 36.999c-6.66699 8 -15.334 14.333 -26.001 19
v-235l36 -15c20 -8 36.5 -17.5 49.5 -28.5s23.333 -24.167 31 -39.5s12.834 -33.333 15.501 -54s4 -45 4 -73zM304.999 188.999c0 18 -0.666992 33.332 -2 45.999s-4 23.667 -8 33s-9.16699 17.333 -15.5 24s-14.5 12.667 -24.5 18v-234c10.667 4 19.667 10 27 18
c9.33301 10.667 15.5 23.334 18.5 38.001s4.5 33.667 4.5 57zM177.999 635.998c-9.33301 -4 -17.332 -9.66699 -23.999 -17c-16.667 -18.667 -25 -47 -25 -85c0 -15.333 0.666992 -28.5 2 -39.5s3.66602 -20.5 6.99902 -28.5s8.33301 -15 15 -21s15 -11.667 25 -17v208z" />
    <glyph glyph-name="percent" unicode="%" horiz-adv-x="675" 
d="M624 102c0 -35.333 -10.833 -62.5 -32.5 -81.5s-48.5 -28.5 -80.5 -28.5s-58.833 9.5 -80.5 28.5s-32.5 46.167 -32.5 81.5v154c0 35.333 10.833 62.5 32.5 81.5s48.5 28.5 80.5 28.5s58.833 -9.5 80.5 -28.5s32.5 -46.167 32.5 -81.5v-154zM276 456
c0 -35.333 -10.833 -62.5 -32.5 -81.5s-48.5 -28.5 -80.5 -28.5s-58.667 9.5 -80 28.5s-32 46.167 -32 81.5v154c0 35.333 10.667 62.5 32 81.5s48 28.5 80 28.5s58.833 -9.5 80.5 -28.5s32.5 -46.167 32.5 -81.5v-154zM246 0h-65l248 712h65zM556 254
c0 16.667 -4 29.334 -12 38.001s-19 13 -33 13s-25 -4.33301 -33 -13s-12 -21.334 -12 -38.001v-151c0 -16.667 4 -29.334 12 -38.001s19 -13 33 -13s25 4.33301 33 13s12 21.334 12 38.001v151zM208 609c0 16.667 -4 29.332 -12 37.999s-19 13 -33 13
c-29.333 0 -44 -17 -44 -51v-151c0 -34 14.667 -51 44 -51c14 0 25 4.33301 33 13s12 21.334 12 38.001v151z" />
    <glyph glyph-name="ampersand" unicode="&#x26;" horiz-adv-x="492" 
d="M402 0l-47.9971 73.001c-21.333 -24.667 -43.5 -44.334 -66.5 -59.001s-52.5 -22 -88.5 -22c-23.333 0 -44.833 4 -64.5 12s-36.834 19.667 -51.501 35s-26.167 33.833 -34.5 55.5s-12.5 46.5 -12.5 74.5c0 42 9.5 80 28.5 114s47.833 69.333 86.5 106l-36.5 53
c-10.333 15.333 -18.833 30 -25.5 44s-11.667 27.5 -15 40.5s-5 26.833 -5 41.5c0 46 12.333 82.667 37 110s58 41 100 41c46.667 0 81.5 -13.5 104.5 -40.5s34.5 -60.833 34.5 -101.5c0 -21.333 -2 -40.666 -6 -57.999s-10.167 -33.833 -18.5 -49.5s-18.833 -31 -31.5 -46
s-27.334 -30.5 -44.001 -46.5l109 -165c10 19.333 18.333 42.666 25 69.999s11 54 13 80h72c-2.66699 -40.667 -9.83398 -80.5 -21.501 -119.5s-26.167 -72.833 -43.5 -101.5l90 -141h-87zM191.003 324.001c-26.667 -26.667 -46.167 -51.668 -58.5 -75.001
s-18.5 -47.666 -18.5 -72.999c0 -31.333 8.16699 -57.5 24.5 -78.5s38.833 -31.5 67.5 -31.5c21.333 0 40.5 6.5 57.5 19.5s33.5 30.167 49.5 51.5zM270.003 575c0 21.333 -5.83301 38.499 -17.5 51.499s-26.834 19.5 -45.501 19.5
c-21.333 0 -37.166 -7.83301 -47.499 -23.5s-15.5 -33.167 -15.5 -52.5c0 -17.333 4.5 -35.333 13.5 -54s24.5 -43.334 46.5 -74.001c10.667 10.667 20 20.834 28 30.501s14.833 19.667 20.5 30s10 21.333 13 33s4.5 24.834 4.5 39.501z" />
    <glyph glyph-name="quotesingle" unicode="'" horiz-adv-x="218" 
d="M67 520v192h84v-192h-84z" />
    <glyph glyph-name="parenleft" unicode="(" horiz-adv-x="244" 
d="M148 -94c-14.667 14.667 -28.3311 29.168 -40.998 43.501s-23.334 29.166 -32.001 44.499c-9.33301 17.333 -15.333 35 -18 53s-4 36.333 -4 55v508c0 18.667 1.33301 37 4 55s8.66699 35.667 18 53c9.33301 16.667 20.166 31.834 32.499 45.501
s25.833 27.834 40.5 42.501l55 -55l-30 -30.5c-9.33301 -9.66699 -17.333 -20.834 -24 -33.501c-10 -20 -15 -47.667 -15 -83v-496c0 -35.333 5 -63 15 -83c6.66699 -12.667 14.667 -23.834 24 -33.501l30 -30.5z" />
    <glyph glyph-name="parenright" unicode=")" horiz-adv-x="244" 
d="M191 102c0 -18.667 -1.33008 -37.001 -3.99707 -55.001s-8.66699 -35.667 -18 -53c-8.66699 -15.333 -19.334 -30.166 -32.001 -44.499s-26.334 -28.833 -41.001 -43.5l-55 55l30 30.5c9.33301 9.66699 17.333 20.834 24 33.501c10 20 15 47.667 15 83v496
c0 35.333 -5 63 -15 83c-6.66699 12.667 -14.667 23.834 -24 33.501l-30 30.5l55 55c14.667 -14.667 28.167 -28.834 40.5 -42.501s23.166 -28.834 32.499 -45.501c9.33301 -17.333 15.333 -35 18 -53s4 -36.333 4 -55v-508v0z" />
    <glyph glyph-name="asterisk" unicode="*" horiz-adv-x="393" 
d="M316 440l-92 56l3 -126h-61l4 126l-93 -56l-30 52l95 51l-95 50l30 53l93 -57l-4 126h61l-3 -126l92 57l30 -53l-96 -50l96 -51z" />
    <glyph glyph-name="plus" unicode="+" horiz-adv-x="444" 
d="M261 244v-137h-77v137h-138v77h138v138h77v-138h137v-77h-137z" />
    <glyph glyph-name="comma" unicode="," horiz-adv-x="207" 
d="M57 -124v224h92v-156z" />
    <glyph glyph-name="hyphen" unicode="-" horiz-adv-x="298" 
d="M51 244v77h196v-77h-196z" />
    <glyph glyph-name="period" unicode="." horiz-adv-x="216" 
d="M59 0v99h99v-99h-99z" />
    <glyph glyph-name="slash" unicode="/" horiz-adv-x="272" 
d="M83 -74h-79l185 860h79z" />
    <glyph glyph-name="zero" unicode="0" horiz-adv-x="381" 
d="M333 140c0 -26.667 -3.5 -48.5 -10.5 -65.5s-16.833 -31.833 -29.5 -44.5c-12.667 -12 -28.167 -21.333 -46.5 -28s-37.166 -10 -56.499 -10s-38 3.33301 -56 10s-33.333 16 -46 28c-12.667 12.667 -22.5 27.5 -29.5 44.5s-10.5 38.833 -10.5 65.5v432
c0 26.667 3.5 48.5 10.5 65.5s16.833 31.833 29.5 44.5c12.667 12 28 21.333 46 28s36.667 10 56 10s38.166 -3.33301 56.499 -10s33.833 -16 46.5 -28c12.667 -12.667 22.5 -27.5 29.5 -44.5s10.5 -38.833 10.5 -65.5v-432zM252 575c0 24 -6 42 -18 54s-26.667 18 -44 18
s-31.833 -6 -43.5 -18s-17.5 -30 -17.5 -54v-438c0 -24 5.83301 -42 17.5 -54s26.167 -18 43.5 -18s32 6 44 18s18 30 18 54v438z" />
    <glyph glyph-name="one" unicode="1" horiz-adv-x="381" 
d="M171 0v617l-104 -85v94l104 86h81v-712h-81z" />
    <glyph glyph-name="two" unicode="2" horiz-adv-x="381" 
d="M49 0l0.000976562 68.001l174 369c8 17.333 15.333 37.5 22 60.5s10 48.833 10 77.5c0 24 -5.83301 42 -17.5 54s-26.167 18 -43.5 18s-32 -6 -44 -18s-18 -30 -18 -54v-48h-81v46c0 26 3.5 47.5 10.5 64.5s16.833 31.833 29.5 44.5c12.667 12 28.167 21.333 46.5 28
s37.166 10 56.499 10s37.666 -3 54.999 -9s32.333 -15 45 -27s22.834 -27 30.501 -45s11.5 -40.333 11.5 -67s-4 -54.334 -12 -83.001s-17.667 -54.667 -29 -78l-159 -338h200v-73h-287z" />
    <glyph glyph-name="three" unicode="3" horiz-adv-x="381" 
d="M334 200c0 -21.333 -0.503906 -40.334 -1.50391 -57.001s-3 -31.834 -6 -45.501s-7.33301 -25.834 -13 -36.501s-13.5 -21 -23.5 -31c-12 -12 -27.167 -21.333 -45.5 -28s-37.166 -10 -56.499 -10s-38 3.33301 -56 10s-33.333 16 -46 28
c-12.667 12.667 -22.667 27.334 -30 44.001s-11 38.334 -11 65.001v46h81v-48c0 -24 6 -42 18 -54s26.667 -18 44 -18c18.667 0 33.334 6.33301 44.001 19c8.66699 10 14.334 24.5 17.001 43.5s4 44.5 4 76.5c0 35.333 -1.33301 61.666 -4 78.999
s-8.33398 31.333 -17.001 42c-10 13.333 -24.667 20 -44 20h-38v68h38c15.333 0 28.333 5.33301 39 16c8.66699 9.33301 14.167 22.333 16.5 39s3.5 37.667 3.5 63s-1.16699 45.833 -3.5 61.5s-7.16602 28.167 -14.499 37.5c-10 11.333 -23.667 17 -41 17
c-16.667 0 -30.334 -5.83301 -41.001 -17.5s-16 -29.167 -16 -52.5v-50h-81v46c0 26 3.33301 47.667 10 65s16.334 32.333 29.001 45c26 24.667 59 37 99 37c41.333 0 74 -12 98 -36c14.667 -14.667 25.334 -33.167 32.001 -55.5s10 -53.166 10 -92.499
c0 -29.333 -1.33301 -52.666 -4 -69.999s-7.66699 -33 -15 -47c-9.33301 -16 -22.333 -29.333 -39 -40c18 -12 31.333 -25 40 -39c4.66699 -8 8.5 -16 11.5 -24s5.5 -17.333 7.5 -28s3.33301 -23 4 -37s1 -31 1 -51z" />
    <glyph glyph-name="four" unicode="4" horiz-adv-x="381" 
d="M303 117v-117h-81v117h-193v73l182 522h78l-177 -522h110v163h81v-163h50v-73h-50z" />
    <glyph glyph-name="five" unicode="5" horiz-adv-x="381" 
d="M336 233c0 -26 -0.331055 -48.9961 -0.998047 -68.9961s-2.33398 -37.833 -5.00098 -53.5s-7 -29.834 -13 -42.501s-14 -24.334 -24 -35.001c-12 -13.333 -27.333 -23.5 -46 -30.5s-37.667 -10.5 -57 -10.5s-38 3.16699 -56 9.5s-33.333 15.5 -46 27.5
c-12.667 12.667 -22.667 27.5 -30 44.5s-11 38.833 -11 65.5v41h81v-48c0 -26 6 -45 18 -57s26.667 -18 44 -18c19.333 0 34.333 7.33301 45 22c8.66699 12 14.167 29.833 16.5 53.5s3.5 55.167 3.5 94.5s-1.16699 69.833 -3.5 91.5s-7.5 38.5 -15.5 50.5
c-11.333 16 -26.666 24 -45.999 24c-17.333 0 -32 -6.33301 -44 -19s-18 -30.334 -18 -53.001v-24h-77v415h276v-73h-202v-221c4.66699 6.66699 10 13 16 19s12.333 11 19 15c15.333 8.66699 33 13 53 13c19.333 0 36.166 -3.33301 50.499 -10s27.166 -16.667 38.499 -30
c15.333 -18.667 24.833 -42.834 28.5 -72.501s5.5 -69.5 5.5 -119.5z" />
    <glyph glyph-name="six" unicode="6" horiz-adv-x="381" 
d="M336 213c0 -25.333 -0.666016 -46.9941 -1.99902 -64.9941s-3.5 -33.5 -6.5 -46.5s-6.66699 -24.333 -11 -34s-9.83301 -18.834 -16.5 -27.501c-12.667 -16.667 -28.667 -28.834 -48 -36.501s-40 -11.5 -62 -11.5c-24 0 -45.333 4.16699 -64 12.5
s-33.667 20.166 -45 35.499c-7.33301 9.33301 -13.333 19.166 -18 29.499s-8.33398 22.166 -11.001 35.499s-4.5 28.666 -5.5 45.999s-1.5 38 -1.5 62c0 36 2.5 68.5 7.5 97.5s12.167 56.167 21.5 81.5l120 320h83l-116 -297c14.667 11.333 31.667 17 51 17
c18 0 34.333 -3.5 49 -10.5s27.667 -17.167 39 -30.5c6.66699 -8 12.167 -16.333 16.5 -25s8 -19.667 11 -33s5.16699 -29.5 6.5 -48.5s2 -42.833 2 -71.5zM255.001 214.006c0 31.333 -1.00098 58 -3.00098 80s-7.66699 38.667 -17 50c-11.333 13.333 -26.333 20 -45 20
c-18 0 -32.667 -6.66699 -44 -20c-9.33301 -11.333 -15 -28 -17 -50s-3 -48.667 -3 -80s1 -58 3 -80s7.66699 -38.667 17 -50c10.667 -12.667 25.334 -19 44.001 -19c19.333 0 34.333 6.33301 45 19c9.33301 11.333 15 28 17 50s3 48.667 3 80z" />
    <glyph glyph-name="seven" unicode="7" horiz-adv-x="381" 
d="M151 0h-82l188 639h-138v-105h-79v178h299v-67z" />
    <glyph glyph-name="eight" unicode="8" horiz-adv-x="381" 
d="M336 198c0 -22 -0.500977 -41.334 -1.50098 -58.001s-3 -31.5 -6 -44.5s-7.33301 -24.667 -13 -35s-13.167 -20.166 -22.5 -29.499c-12 -12.667 -27.333 -22.334 -46 -29.001s-37.667 -10 -57 -10s-38.166 3.33301 -56.499 10s-33.5 16.334 -45.5 29.001
c-9.33301 9.33301 -16.833 19.166 -22.5 29.499s-10 22 -13 35s-5 27.833 -6 44.5s-1.5 36 -1.5 58c0 20 0.333008 37 1 51s1.83398 26.167 3.50098 36.5s4 19.5 7 27.5s6.83301 15.667 11.5 23s10.5 14.5 17.5 21.5s14.833 13.167 23.5 18.5
c-17.333 12 -30.333 25.667 -39 41c-7.33301 14 -12.5 29.5 -15.5 46.5s-4.5 40.167 -4.5 69.5c0 38.667 3 69.334 9 92.001s17 42 33 58c24.667 24.667 57.334 37 98.001 37c19.333 0 37.666 -3.16699 54.999 -9.5s32 -15.5 44 -27.5c16 -16 27 -35.333 33 -58
s9 -53.334 9 -92.001c0 -29.333 -1.5 -52.5 -4.5 -69.5s-8.16699 -32.5 -15.5 -46.5c-8.66699 -15.333 -21.667 -29 -39 -41c17.333 -11.333 30.666 -24.666 39.999 -39.999c4.66699 -7.33301 8.5 -15 11.5 -23s5.5 -17.167 7.5 -27.5s3.33301 -22.5 4 -36.5s1 -31 1 -51z
M254.999 201.999c0 34 -1.1709 59.834 -3.50391 77.501s-8.16602 32.167 -17.499 43.5c-10.667 12.667 -25.334 19 -44.001 19c-17.333 0 -31.666 -6.33301 -42.999 -19c-9.33301 -11.333 -15.166 -25.833 -17.499 -43.5s-3.5 -43.5 -3.5 -77.5
c0 -30.667 1.33301 -55.334 4 -74.001s8.33398 -33.667 17.001 -45c5.33301 -6.66699 11.666 -11.334 18.999 -14.001s15.333 -4 24 -4s16.834 1.33301 24.501 4s14.167 7.33398 19.5 14.001c8.66699 10.667 14.334 25.5 17.001 44.5s4 43.833 4 74.5zM249.995 530
c0 25.333 -1.33105 46.168 -3.99805 62.501s-8 29.166 -16 38.499c-10 10.667 -23.333 16 -40 16s-30 -5.33301 -40 -16c-8 -9.33301 -13.167 -22.166 -15.5 -38.499s-3.5 -37.166 -3.5 -62.499s1.16699 -46.833 3.5 -64.5s8.16602 -31.167 17.499 -40.5s22 -14 38 -14
s29 5 39 15c9.33301 9.33301 15.166 22.666 17.499 39.999s3.5 38.666 3.5 63.999z" />
    <glyph glyph-name="nine" unicode="9" horiz-adv-x="381" 
d="M336 499c0 -36 -2.50098 -68.5059 -7.50098 -97.5059s-12.167 -56.167 -21.5 -81.5l-120 -320h-83l116 297c-14.667 -11.333 -31.667 -17 -51 -17c-18 0 -34.333 3.5 -49 10.5s-27.667 17.167 -39 30.5c-6.66699 8 -12.167 16.333 -16.5 25s-8 19.667 -11 33
s-5.16699 29.5 -6.5 48.5s-2 42.833 -2 71.5c0 25.333 0.666992 47 2 65s3.5 33.5 6.5 46.5s6.66699 24.333 11 34s9.83301 18.834 16.5 27.501c12.667 16.667 28.667 28.834 48 36.501s40 11.5 62 11.5c24 0 45.333 -4.16699 64 -12.5s33.667 -20.166 45 -35.499
c7.33301 -9.33301 13.333 -19.166 18 -29.499s8.33398 -22.166 11.001 -35.499s4.5 -28.666 5.5 -45.999s1.5 -38 1.5 -62zM254.999 497.994c0 31.333 -0.999023 58 -2.99902 80s-7.66699 38.667 -17 50c-10.667 12.667 -25.667 19 -45 19
c-18.667 0 -33.334 -6.33301 -44.001 -19c-9.33301 -11.333 -15 -28 -17 -50s-3 -48.667 -3 -80s1 -58 3 -80s7.66699 -38.667 17 -50c11.333 -13.333 26 -20 44 -20c18.667 0 33.667 6.66699 45 20c9.33301 11.333 15 28 17 50s3 48.667 3 80z" />
    <glyph glyph-name="colon" unicode=":" horiz-adv-x="242" 
d="M84 326v99h99v-99h-99zM84 0v99h99v-99h-99z" />
    <glyph glyph-name="semicolon" unicode=";" horiz-adv-x="242" 
d="M88 -124v224h92v-156zM84 326v99h99v-99h-99z" />
    <glyph glyph-name="less" unicode="&#x3c;" horiz-adv-x="381" 
d="M34 257v61l313 183v-90l-216 -123l216 -123v-90z" />
    <glyph glyph-name="equal" unicode="=" horiz-adv-x="444" 
d="M46 320v77h352v-77h-352zM46 158v77h352v-77h-352z" />
    <glyph glyph-name="greater" unicode="&#x3e;" horiz-adv-x="381" 
d="M34 75v90l216 123l-216 123v90l313 -183v-61z" />
    <glyph glyph-name="question" unicode="?" horiz-adv-x="400" 
d="M362 535c0 -25.333 -2.16699 -47.166 -6.5 -65.499s-12.5 -36.166 -24.5 -53.499l-59 -85c-14.667 -21.333 -22 -44.666 -22 -69.999v-68h-81v78c0 15.333 2.66699 30.166 8 44.499s12 27.5 20 39.5l58 85c11.333 16 18.5 31.167 21.5 45.5s4.5 31.5 4.5 51.5
c0 22 -1.66699 39.833 -5 53.5s-9.33301 25.167 -18 34.5c-12 13.333 -28.667 20 -50 20c-19.333 0 -35.333 -6.33301 -48 -19c-10 -10.667 -16.167 -23.334 -18.5 -38.001s-3.5 -29.334 -3.5 -44.001h-81c0 28 3.16699 53.167 9.5 75.5s17.5 41.166 33.5 56.499
c13.333 12.667 28.833 22.834 46.5 30.501s38.167 11.5 61.5 11.5c46 0 82.667 -13.667 110 -41c15.333 -15.333 26.5 -33.833 33.5 -55.5s10.5 -50.5 10.5 -86.5zM160 0v99h99v-99h-99z" />
    <glyph glyph-name="at" unicode="@" horiz-adv-x="562" 
d="M426 0l-0.00488281 40c-3.33301 -6 -8.16602 -12 -14.499 -18s-12.166 -10.667 -17.499 -14c-17.333 -10.667 -36 -16 -56 -16c-19.333 0 -36 3.16699 -50 9.5s-26.667 15.833 -38 28.5c-10.667 11.333 -18.5 25 -23.5 41s-7.5 38 -7.5 66v205c0 28 2.5 50.167 7.5 66.5
s12.833 30.166 23.5 41.499c11.333 12.667 24 22 38 28s30.667 9 50 9c11.333 0 21.333 -1.16699 30 -3.5s17.334 -6.16602 26.001 -11.499c4.66699 -3.33301 9.83398 -7.5 15.501 -12.5s10.167 -10.167 13.5 -15.5v106c0 31.333 -7.5 54.666 -22.5 69.999
s-36.167 23 -63.5 23h-119c-26.667 0 -47.667 -7.66699 -63 -23s-23 -38.666 -23 -69.999v-431c0 -17.333 2.33301 -31.5 7 -42.5s11.667 -21.167 21 -30.5l-58 -57c-19.333 17.333 -32.666 36 -39.999 56s-11 44 -11 72v441c0 28 3.83301 50.667 11.5 68
s18.167 32.666 31.5 45.999c12.667 12.667 28 22.5 46 29.5s38.667 10.5 62 10.5h151c23.333 0 44 -3.5 62 -10.5s33.333 -16.833 46 -29.5c13.333 -13.333 23.833 -28.666 31.5 -45.999s11.5 -40 11.5 -68v-558h-78zM422.995 343c0 24 -5.83301 42 -17.5 54
s-26.167 18 -43.5 18s-32 -6 -44 -18s-18 -30 -18 -54v-206c0 -24 6 -42 18 -54s26.667 -18 44 -18s31.833 6 43.5 18s17.5 30 17.5 54v206z" />
    <glyph glyph-name="A" unicode="A" horiz-adv-x="424" 
d="M328 0l-34 168h-165l-34 -168h-90l166 712h83l165 -712h-91zM212 573l-67 -328h133z" />
    <glyph glyph-name="B" unicode="B" horiz-adv-x="444" 
d="M394 205c0 -42 -3.49902 -75.3301 -10.499 -99.9971s-18.5 -45.334 -34.5 -62.001c-14.667 -15.333 -32.334 -26.333 -53.001 -33s-47 -10 -79 -10h-153v712h154c31.333 0 57.166 -3.33301 77.499 -10s37.833 -17.667 52.5 -33c15.333 -16.667 26 -36.167 32 -58.5
s9 -51.5 9 -87.5c0 -24.667 -2.16699 -47.334 -6.5 -68.001s-15.166 -39.667 -32.499 -57c-6 -6 -12.5 -11.333 -19.5 -16s-14.167 -8.33398 -21.5 -11.001c17.333 -5.33301 32 -14.333 44 -27c18.667 -19.333 30.167 -41.333 34.5 -66s6.5 -49 6.5 -73zM308.001 205.003
c0 46 -8 78.833 -24 98.5s-40 29.5 -72 29.5h-62v-256h62c16 0 30 2 42 6s22 11 30 21s14 23.167 18 39.5s6 36.833 6 61.5zM303.001 521.003c0 43.333 -7.66699 73.166 -23 89.499s-38.333 24.5 -69 24.5h-61v-228h61c31.333 0 54.5 8.83301 69.5 26.5
s22.5 46.834 22.5 87.501z" />
    <glyph glyph-name="C" unicode="C" horiz-adv-x="423" 
d="M386 176c-0.666992 -30 -5.66797 -57.668 -15.001 -83.001s-22.666 -46 -39.999 -62c-14 -13.333 -29.833 -23.166 -47.5 -29.499s-38.5 -9.5 -62.5 -9.5c-28.667 0 -52.834 4.66699 -72.501 14s-36.167 21.666 -49.5 36.999c-12 13.333 -21.5 28.833 -28.5 46.5
s-12.333 38.834 -16 63.501s-5.83398 53.5 -6.50098 86.5s-1 71.833 -1 116.5s0.333008 83.5 1 116.5s2.83398 61.833 6.50098 86.5s9 45.834 16 63.501s16.5 33.167 28.5 46.5c13.333 15.333 29.833 27.666 49.5 36.999s43.834 14 72.501 14
c24.667 0 46.167 -3.66699 64.5 -11s34.5 -17.666 48.5 -30.999c16.667 -16 29.167 -36.167 37.5 -60.5s12.833 -51.5 13.5 -81.5h-86c0 15.333 -1.66699 30.333 -5 45s-9 27 -17 37c-6 7.33301 -13.5 13.333 -22.5 18s-20.167 7 -33.5 7c-14 0 -25.667 -2.5 -35 -7.5
s-17 -11.5 -23 -19.5c-6 -8.66699 -11 -19.167 -15 -31.5s-7.16699 -28.333 -9.5 -48s-3.83301 -44.167 -4.5 -73.5s-1 -65 -1 -107s0.333008 -77.667 1 -107s2.16699 -53.833 4.5 -73.5s5.5 -35.667 9.5 -48s9 -22.833 15 -31.5c6 -8 13.667 -14.5 23 -19.5
s21 -7.5 35 -7.5c13.333 0 24.5 2.5 33.5 7.5s16.5 11.167 22.5 18.5c8 10 13.833 22.167 17.5 36.5s5.5 29.166 5.5 44.499h86v0z" />
    <glyph glyph-name="D" unicode="D" horiz-adv-x="448" 
d="M401 356c0 -44 -0.333008 -82.167 -1 -114.5s-2.5 -60.5 -5.5 -84.5s-8 -44.5 -15 -61.5s-16.5 -32.167 -28.5 -45.5c-13.333 -14.667 -29.833 -26.667 -49.5 -36s-43.834 -14 -72.501 -14h-165v712h165c28.667 0 52.834 -4.66699 72.501 -14s36.167 -21.333 49.5 -36
c12 -13.333 21.5 -28.5 28.5 -45.5s12 -37.5 15 -61.5s4.83301 -52.167 5.5 -84.5s1 -70.5 1 -114.5zM315 356c0 40.667 -0.333008 75.167 -1 103.5s-2 52 -4 71s-4.83301 34.5 -8.5 46.5s-8.83398 22.333 -15.501 31c-6 8 -14 14.5 -24 19.5s-22 7.5 -36 7.5h-76v-558h76
c14 0 26 2.5 36 7.5s18 11.5 24 19.5c6.66699 8.66699 11.834 19 15.501 31s6.5 27.5 8.5 46.5s3.33301 42.667 4 71s1 62.833 1 103.5z" />
    <glyph glyph-name="E" unicode="E" horiz-adv-x="380" 
d="M64 0v712h275v-77h-189v-239h163v-77h-163v-242h189v-77h-275z" />
    <glyph glyph-name="F" unicode="F" horiz-adv-x="375" 
d="M150 635v-239h163v-77h-163v-319h-86v712h275v-77h-189z" />
    <glyph glyph-name="G" unicode="G" horiz-adv-x="434" 
d="M386 171c0 -29.333 -4.16699 -55.168 -12.5 -77.501s-20 -41 -35 -56s-32.5 -26.333 -52.5 -34s-41.667 -11.5 -65 -11.5c-28.667 0 -52.834 4.66699 -72.501 14s-36.167 21.666 -49.5 36.999c-12 13.333 -21.5 28.833 -28.5 46.5s-12.333 38.834 -16 63.501
s-5.83398 53.5 -6.50098 86.5s-1 71.833 -1 116.5s0.333008 83.5 1 116.5s2.83398 61.833 6.50098 86.5s9 45.834 16 63.501s16.5 33.167 28.5 46.5c13.333 15.333 29.833 27.666 49.5 36.999s43.834 14 72.501 14c25.333 0 47.5 -4 66.5 -12s35.167 -18.667 48.5 -32
c16.667 -17.333 29 -37.833 37 -61.5s12.333 -50.167 13 -79.5h-86c0 12 -1 24.333 -3 37s-5.83301 24.334 -11.5 35.001s-13.667 19.334 -24 26.001s-23.833 10 -40.5 10c-14 0 -25.667 -2.5 -35 -7.5s-17 -11.5 -23 -19.5c-6 -8.66699 -11 -19.167 -15 -31.5
s-7.16699 -28.333 -9.5 -48s-3.83301 -44.167 -4.5 -73.5s-1 -65 -1 -107s0.333008 -77.667 1 -107s2.16699 -53.833 4.5 -73.5s5.5 -35.667 9.5 -48s9 -22.833 15 -31.5c6 -8 13.667 -14.5 23 -19.5s21 -7.5 35 -7.5c25.333 0 44.833 9.16699 58.5 27.5
s20.5 42.166 20.5 71.499v142h-79v72h165v-211v0z" />
    <glyph glyph-name="H" unicode="H" horiz-adv-x="458" 
d="M308 0v323h-158v-323h-86v712h86v-311h158v311h86v-712h-86z" />
    <glyph glyph-name="I" unicode="I" horiz-adv-x="215" 
d="M64 0v712h86v-712h-86z" />
    <glyph glyph-name="J" unicode="J" horiz-adv-x="361" 
d="M303 170c0 -27.333 -3.66895 -51.999 -11.002 -73.999s-18.666 -40.667 -33.999 -56c-31.333 -32 -73.333 -48 -126 -48c-26.667 0 -50.667 4.66699 -72 14s-39.666 22.666 -54.999 39.999l61 57c7.33301 -9.33301 16.833 -17.333 28.5 -24s24.167 -10 37.5 -10
c24 0 44.167 8.5 60.5 25.5s24.5 42.167 24.5 75.5v542h86v-542v0z" />
    <glyph glyph-name="K" unicode="K" horiz-adv-x="439" 
d="M338 0l-126 322l-62 -123v-199h-86v712h86v-361l172 361h88l-144 -294l165 -418h-93z" />
    <glyph glyph-name="L" unicode="L" horiz-adv-x="361" 
d="M64 0v712h86v-635h189v-77h-275z" />
    <glyph glyph-name="M" unicode="M" horiz-adv-x="578" 
d="M427 0v507l-113 -333h-53l-111 325v-499h-86v712h81l144 -396l143 396h81v-712h-86z" />
    <glyph glyph-name="N" unicode="N" horiz-adv-x="477" 
d="M334 0l-184 487v-487h-86v712h80l183 -487l-1 487h86v-712h-78z" />
    <glyph glyph-name="O" unicode="O" horiz-adv-x="442" 
d="M395 356c0 -44.667 -0.333008 -83.5 -1 -116.5s-2.66699 -61.833 -6 -86.5s-8.5 -45.834 -15.5 -63.501s-16.5 -33.167 -28.5 -46.5c-13.333 -15.333 -30 -27.666 -50 -36.999s-44.333 -14 -73 -14s-52.834 4.66699 -72.501 14s-36.167 21.666 -49.5 36.999
c-12 13.333 -21.5 28.833 -28.5 46.5s-12.333 38.834 -16 63.501s-5.83398 53.5 -6.50098 86.5s-1 71.833 -1 116.5s0.333008 83.5 1 116.5s2.83398 61.833 6.50098 86.5s9 45.834 16 63.501s16.5 33.167 28.5 46.5c13.333 15.333 29.833 27.666 49.5 36.999
s43.834 14 72.501 14s53 -4.66699 73 -14s36.667 -21.666 50 -36.999c12 -13.333 21.5 -28.833 28.5 -46.5s12.167 -38.834 15.5 -63.501s5.33301 -53.5 6 -86.5s1 -71.833 1 -116.5zM309 356c0 42 -0.333008 77.667 -1 107s-2.16699 53.833 -4.5 73.5s-5.5 35.667 -9.5 48
s-9 22.833 -15 31.5c-6 8 -13.667 14.5 -23 19.5s-21 7.5 -35 7.5s-25.667 -2.5 -35 -7.5s-17 -11.5 -23 -19.5c-6 -8.66699 -11 -19.167 -15 -31.5s-7.16699 -28.333 -9.5 -48s-3.83301 -44.167 -4.5 -73.5s-1 -65 -1 -107s0.333008 -77.667 1 -107
s2.16699 -53.833 4.5 -73.5s5.5 -35.667 9.5 -48s9 -22.833 15 -31.5c6 -8 13.667 -14.5 23 -19.5s21 -7.5 35 -7.5s25.667 2.5 35 7.5s17 11.5 23 19.5c6 8.66699 11 19.167 15 31.5s7.16699 28.333 9.5 48s3.83301 44.167 4.5 73.5s1 65 1 107z" />
    <glyph glyph-name="P" unicode="P" horiz-adv-x="435" 
d="M393 505c0 -74 -13.333 -127.333 -40 -160s-69.667 -49 -129 -49h-74v-296h-86v712h160c26.667 0 50.5 -3.33301 71.5 -10s38.833 -18 53.5 -34s25.667 -37.333 33 -64s11 -59.667 11 -99zM307 504c0 19.333 -1.16797 37 -3.50098 53s-6.5 29.833 -12.5 41.5
s-14.167 20.667 -24.5 27s-23.833 9.5 -40.5 9.5h-76v-262h76c32.667 0 54.334 12 65.001 36s16 55.667 16 95z" />
    <glyph glyph-name="Q" unicode="Q" horiz-adv-x="442" 
d="M380 -24l-57 48c-12.667 -10 -27.5 -17.833 -44.5 -23.5s-36.167 -8.5 -57.5 -8.5c-28.667 0 -52.834 4.66699 -72.501 14s-36.167 21.666 -49.5 36.999c-12 13.333 -21.5 28.833 -28.5 46.5s-12.333 38.834 -16 63.501s-5.83398 53.5 -6.50098 86.5s-1 71.833 -1 116.5
s0.333008 83.5 1 116.5s2.83398 61.833 6.50098 86.5s9 45.834 16 63.501s16.5 33.167 28.5 46.5c13.333 15.333 29.833 27.666 49.5 36.999s43.834 14 72.501 14s53 -4.66699 73 -14s36.667 -21.666 50 -36.999c12 -13.333 21.5 -28.833 28.5 -46.5
s12.167 -38.834 15.5 -63.501s5.33301 -53.5 6 -86.5s1 -71.833 1 -116.5c0 -38 -0.333008 -71.5 -1 -100.5s-2 -54.833 -4 -77.5s-5 -42.5 -9 -59.5s-9.66699 -32.167 -17 -45.5l57 -48zM309 356c0 42 -0.332031 77.667 -0.999023 107s-2 54 -4 74s-5 36.167 -9 48.5
s-9.33301 22.833 -16 31.5c-6 8 -13.667 14.333 -23 19s-21 7 -35 7s-25.667 -2.33301 -35 -7s-17 -11 -23 -19c-6.66699 -8.66699 -12 -19.167 -16 -31.5s-7 -28.5 -9 -48.5s-3.33301 -44.667 -4 -74s-1 -65 -1 -107s0.333008 -77.667 1 -107s2 -54 4 -74
s5 -36.167 9 -48.5s9.33301 -22.833 16 -31.5c6 -8 13.667 -14.333 23 -19s21 -7 35 -7s26 3.33301 36 10l-46 39l41 49l41 -35c3.33301 9.33301 6 20 8 32s3.66699 26.667 5 44s2.16602 38 2.49902 62s0.5 52.667 0.5 86z" />
    <glyph glyph-name="R" unicode="R" horiz-adv-x="455" 
d="M326 0l-97.999 306h-78v-306h-86v712h161c26.667 0 50.5 -3.33301 71.5 -10s38.667 -17.667 53 -33s25.166 -36.166 32.499 -62.499s11 -58.833 11 -97.5c0 -50 -6.5 -89.833 -19.5 -119.5s-35.167 -51.834 -66.5 -66.501l109 -323h-90zM307.001 509
c0 18.667 -1.16699 35.835 -3.5 51.502s-6.5 29 -12.5 40s-14.167 19.5 -24.5 25.5s-23.833 9 -40.5 9h-76v-253h76c16.667 0 30.167 3 40.5 9s18.5 14.667 24.5 26s10.167 24.666 12.5 39.999s3.5 32.666 3.5 51.999z" />
    <glyph glyph-name="S" unicode="S" horiz-adv-x="420" 
d="M377 191c0 -37.333 -3.00195 -68.1689 -9.00195 -92.502s-17.667 -45.166 -35 -62.499c-13.333 -13.333 -30.5 -23.833 -51.5 -31.5s-45.833 -11.5 -74.5 -11.5c-54.667 0 -96.334 14.333 -125.001 43c-16.667 16.667 -28.167 36.334 -34.5 59.001s-9.5 53 -9.5 91h86
c0 -23.333 1.66699 -42.166 5 -56.499s9.66602 -26.5 18.999 -36.5c6 -6.66699 14 -12 24 -16s21.667 -6 35 -6c14.667 0 26.834 2 36.501 6s17.834 9.66699 24.501 17c9.33301 10.667 15.5 23.334 18.5 38.001s4.5 33.667 4.5 57c0 20.667 -1 38 -3 52
s-5.5 25.833 -10.5 35.5s-12 17.834 -21 24.501s-20.833 13 -35.5 19l-81 33c-18 7.33301 -33.333 15.666 -46 24.999s-22.667 20.833 -30 34.5s-12.666 30 -15.999 49s-5 42.167 -5 69.5c0 31.333 4.5 59.333 13.5 84s22.5 45.334 40.5 62.001c29.333 27.333 67 41 113 41
c26 0 48.833 -3.5 68.5 -10.5s36.167 -17.167 49.5 -30.5c18 -17.333 30.333 -37.833 37 -61.5s10 -51.834 10 -84.501h-86c0 19.333 -1.33301 35.666 -4 48.999s-8.66699 25.666 -18 36.999c-12.667 16 -32 24 -58 24c-12.667 0 -23.5 -2 -32.5 -6
s-16.5 -9.33301 -22.5 -16c-16.667 -18.667 -25 -47 -25 -85c0 -17.333 0.833008 -32 2.5 -44s5 -22.333 10 -31s12 -16 21 -22s20.5 -12 34.5 -18l80 -33c20 -8 36.5 -17.5 49.5 -28.5s23.333 -24.167 31 -39.5s12.834 -33.333 15.501 -54s4 -45 4 -73z" />
    <glyph glyph-name="T" unicode="T" horiz-adv-x="367" 
d="M227 635v-635h-86v635h-120v77h325v-77h-119z" />
    <glyph glyph-name="U" unicode="U" horiz-adv-x="445" 
d="M387 162c0 -26 -4.00195 -49.333 -12.002 -70s-19.333 -38.334 -34 -53.001c-15.333 -15.333 -33.166 -27 -53.499 -35s-42.166 -12 -65.499 -12c-47.333 0 -86.666 15.667 -117.999 47c-14.667 14.667 -26 32.334 -34 53.001s-12 44 -12 70v550h86v-555
c0 -28 7.66699 -49.667 23 -65s33.666 -23 54.999 -23s39.833 7.66699 55.5 23s23.5 37 23.5 65v555h86v-550v0z" />
    <glyph glyph-name="V" unicode="V" horiz-adv-x="404" 
d="M246 0h-88l-154 712h95l103 -573l104 573h94z" />
    <glyph glyph-name="W" unicode="W" horiz-adv-x="652" 
d="M526 0h-89l-111 573l-110 -573h-89l-123 712h95l73 -573l106 573h96l108 -573l72 573h94z" />
    <glyph glyph-name="X" unicode="X" horiz-adv-x="403" 
d="M294 0l-93 282l-92 -282h-94l136 370l-125 342h94l81 -260l82 260h94l-129 -342l140 -370h-94z" />
    <glyph glyph-name="Y" unicode="Y" horiz-adv-x="353" 
d="M219 288v-288h-86v288l-131 424h94l80 -304l80 304h95z" />
    <glyph glyph-name="Z" unicode="Z" horiz-adv-x="349" 
d="M31 0v65l198 570h-185v77h274v-65l-197 -570h197v-77h-287z" />
    <glyph glyph-name="bracketleft" unicode="[" horiz-adv-x="259" 
d="M58 -74v860h172v-71h-91v-718h91v-71h-172z" />
    <glyph glyph-name="backslash" unicode="\" horiz-adv-x="272" 
d="M189 -74l-185 860h79l185 -860h-79z" />
    <glyph glyph-name="bracketright" unicode="]" horiz-adv-x="259" 
d="M29 -74v71h91v718h-91v71h172v-860h-172z" />
    <glyph glyph-name="asciicircum" unicode="^" horiz-adv-x="455" 
d="M318 436l-90 199l-90 -199h-81l134 281h73l134 -281h-80z" />
    <glyph glyph-name="underscore" unicode="_" horiz-adv-x="444" 
d="M0 -144v61h444v-61h-444z" />
    <glyph glyph-name="grave" unicode="`" 
d="M163 586l-81 135h74l69 -135h-62z" />
    <glyph glyph-name="a" unicode="a" horiz-adv-x="375" 
d="M245 0l0.000976562 46.0029c-4 -7.33301 -8.66699 -14 -14 -20s-10.666 -11 -15.999 -15c-8 -6 -16.667 -10.667 -26 -14s-21 -5 -35 -5c-19.333 0 -36 3.16699 -50 9.5s-27 16.166 -39 29.499c-10 11.333 -18 26.666 -24 45.999s-9 42.666 -9 69.999
c0 24 3.83301 46.167 11.5 66.5s19.167 37.166 34.5 50.499c13.333 11.333 28.166 20 44.499 26s38.166 9 65.499 9h53v82c0 49.333 -20.333 74 -61 74c-9.33301 0 -17 -1.5 -23 -4.5s-11.667 -7.16699 -17 -12.5c-7.33301 -7.33301 -12.333 -15.666 -15 -24.999
s-4 -21 -4 -35h-81c0 20 2.83301 39.5 8.5 58.5s16.167 36.167 31.5 51.5c11.333 11.333 25.833 20.5 43.5 27.5s36.5 10.5 56.5 10.5c43.333 0 77 -12 101 -36c12.667 -13.333 22.667 -29 30 -47s11 -40.333 11 -67v-376h-77zM241.001 240.003l-46 -0.000976562
c-12.667 0 -23.5 -1.33301 -32.5 -4s-17.5 -7.66699 -25.5 -15c-7.33301 -7.33301 -13.166 -17.5 -17.499 -30.5s-6.5 -26.5 -6.5 -40.5c0 -27.333 5.16699 -48.666 15.5 -63.999s26.166 -23 47.499 -23c19.333 0 35 7.5 47 22.5s18 34.5 18 58.5v96z" />
    <glyph glyph-name="b" unicode="b" horiz-adv-x="387" 
d="M346 259c0 -60 -2 -108.329 -6 -144.996s-14.333 -64.667 -31 -84c-11.333 -13.333 -24.166 -23 -38.499 -29s-30.166 -9 -47.499 -9c-20 0 -38.667 5.33301 -56 16c-5.33301 3.33301 -11.333 8.16602 -18 14.499s-11.334 12.166 -14.001 17.499v-40h-78v712h81v-230
c3.33301 5.33301 7.66602 10.666 12.999 15.999s10.666 9.66602 15.999 12.999c16 10 34.667 15 56 15c19.333 0 35.833 -3.16699 49.5 -9.5s25.834 -15.833 36.501 -28.5c16.667 -19.333 27 -47.333 31 -84s6 -85 6 -145zM265 259.004
c0 46.667 -0.999023 83.832 -2.99902 111.499s-7.66699 48.167 -17 61.5c-10.667 14.667 -25.667 22 -45 22c-17.333 0 -31.333 -5.33301 -42 -16c-13.333 -13.333 -20 -33.333 -20 -60v-237c0 -27.333 6.66699 -47.666 20 -60.999
c5.33301 -5.33301 11.666 -9.16602 18.999 -11.499s15 -3.5 23 -3.5c19.333 0 34.333 7.33301 45 22c9.33301 13.333 15 33.666 17 60.999s3 64.333 3 111z" />
    <glyph glyph-name="c" unicode="c" horiz-adv-x="362" 
d="M329 144c-0.666992 -24.667 -4.16797 -46.8301 -10.501 -66.4971s-16.166 -36.167 -29.499 -49.5c-12 -12.667 -26.667 -21.834 -44 -27.501s-36.666 -8.5 -57.999 -8.5c-22 0 -42.333 3.66699 -61 11s-34.667 19.666 -48 36.999c-16 20.667 -26.333 49.167 -31 85.5
s-7 80.833 -7 133.5s2.33301 97.167 7 133.5s15 64.833 31 85.5c13.333 17.333 29.333 29.666 48 36.999s39 11 61 11c21.333 0 40.166 -2.33301 56.499 -7s31.166 -13.667 44.499 -27c15.333 -15.333 25.833 -33.5 31.5 -54.5s8.83398 -42.167 9.50098 -63.5h-80
c0 10.667 -0.833008 21.167 -2.5 31.5s-6.16699 19.833 -13.5 28.5c-11.333 13.333 -26.333 20 -45 20c-20 0 -35.333 -7.33301 -46 -22c-9.33301 -13.333 -15.166 -33.833 -17.499 -61.5s-3.5 -64.834 -3.5 -111.501s1.16699 -83.667 3.5 -111
s8.16602 -47.666 17.499 -60.999c10.667 -14.667 26 -22 46 -22c18 0 32.667 6.33301 44 19c7.33301 8 12 17 14 27s3 21 3 33h80v0z" />
    <glyph glyph-name="d" unicode="d" horiz-adv-x="387" 
d="M251 0l-0.00195312 39.9961c-2.66699 -5.33301 -7.16699 -11.166 -13.5 -17.499s-12.166 -11.166 -17.499 -14.499c-17.333 -10.667 -36 -16 -56 -16c-17.333 0 -33.166 3 -47.499 9s-27.166 15.667 -38.499 29c-16.667 19.333 -27.167 47.333 -31.5 84s-6.5 85 -6.5 145
s2.16699 108.333 6.5 145s14.833 64.667 31.5 84c10.667 12.667 22.834 22.167 36.501 28.5s30.167 9.5 49.5 9.5c21.333 0 40 -5 56 -15c5.33301 -3.33301 10.666 -7.66602 15.999 -12.999s9.66602 -10.666 12.999 -15.999v230h81v-712h-79zM248.998 377.996
c0 14 -1.83105 25.833 -5.49805 35.5s-8.83398 17.834 -15.501 24.501c-10.667 10.667 -24.667 16 -42 16c-18.667 0 -33.334 -7.33301 -44.001 -22c-9.33301 -13.333 -15.166 -33.833 -17.499 -61.5s-3.5 -64.834 -3.5 -111.501s1.16699 -83.667 3.5 -111
s8.16602 -47.666 17.499 -60.999c10.667 -14.667 25.334 -22 44.001 -22c8 0 15.667 1.16699 23 3.5s13.666 6.16602 18.999 11.499c14 14 21 34.333 21 61v237z" />
    <glyph glyph-name="e" unicode="e" horiz-adv-x="372" 
d="M121 240c0 -41.333 1.33594 -74.334 4.00293 -99.001s8.66699 -42.667 18 -54c5.33301 -6 11.5 -11.167 18.5 -15.5s15.833 -6.5 26.5 -6.5c18.667 0 34 6.66699 46 20c12 14 18 33.667 18 59h80c-0.666992 -23.333 -4.16699 -44.333 -10.5 -63s-16.5 -35.667 -30.5 -51
c-12.667 -13.333 -27.834 -23 -45.501 -29s-36.834 -9 -57.501 -9c-22.667 0 -42 3.16699 -58 9.5s-30.667 16.5 -44 30.5c-20 20.667 -32.667 50 -38 88s-8 84.333 -8 139s2.5 101 7.5 139s17.5 67.333 37.5 88c26 26.667 60 40 102 40c21.333 0 40.333 -3 57 -9
s31.667 -16.333 45 -31c21.333 -23.333 34.166 -56.166 38.499 -98.499s6.5 -91.5 6.5 -147.5h-213zM253.003 300.999c0 35.333 -1.33398 63.666 -4.00098 84.999s-8 36.666 -16 45.999c-5.33301 6 -11.666 11.167 -18.999 15.5s-16.333 6.5 -27 6.5
s-19.5 -2.16699 -26.5 -6.5s-13.167 -9.5 -18.5 -15.5c-8 -9.33301 -13.5 -24.666 -16.5 -45.999s-4.5 -49.666 -4.5 -84.999h132z" />
    <glyph glyph-name="f" unicode="f" horiz-adv-x="254" 
d="M157 455l-0.000976562 -454.999h-81v455h-59v63h59v50c0 27.333 3.83301 50.333 11.5 69s18.834 34 33.501 46c16 13.333 33.833 22.166 53.5 26.499s40.5 6.5 62.5 6.5v-73c-53.333 0 -80 -26 -80 -78v-47h80v-63h-80z" />
    <glyph glyph-name="g" unicode="g" horiz-adv-x="387" 
d="M330 -13c0 -38 -3.32812 -67.835 -9.99512 -89.502s-17.334 -40.167 -32.001 -55.5c-12 -12.667 -27 -22.334 -45 -29.001s-37 -10 -57 -10s-39 3 -57 9s-33.667 15.333 -47 28c-14.667 14.667 -24.834 31.334 -30.501 50.001s-8.5 39.334 -8.5 62.001h80
c0 -12.667 1.16699 -24.334 3.5 -35.001s7.16602 -19.667 14.499 -27c11.333 -11.333 26 -17 44 -17c9.33301 0 17.666 1.83301 24.999 5.5s13.666 8.16699 18.999 13.5c7.33301 8 12.5 19 15.5 33s4.5 33.333 4.5 58v78c-3.33301 -5.33301 -7.66602 -10.833 -12.999 -16.5
s-10.666 -10.167 -15.999 -13.5c-14 -9.33301 -32 -14 -54 -14c-19.333 0 -35.5 2.83301 -48.5 8.5s-25.167 15.167 -36.5 28.5c-16 18.667 -26.833 44.5 -32.5 77.5s-8.5 79.5 -8.5 139.5s2.83301 106.667 8.5 140s16.5 59.333 32.5 78c10.667 12.667 22.5 22 35.5 28
s29.5 9 49.5 9s38.667 -5.33301 56 -16c5.33301 -3.33301 10.666 -7.66602 15.999 -12.999s9.66602 -10.666 12.999 -15.999v37h79v-531zM249.005 377.998c0 14 -1.66699 25.666 -5 34.999s-8.33301 17.333 -15 24c-11.333 11.333 -25.666 17 -42.999 17
c-10 0 -18.5 -2 -25.5 -6s-13.167 -9.33301 -18.5 -16c-9.33301 -12 -15.166 -31.167 -17.499 -57.5s-3.5 -60.833 -3.5 -103.5s1.16699 -77.167 3.5 -103.5s8.16602 -45.5 17.499 -57.5c5.33301 -6.66699 11.5 -12 18.5 -16s15.5 -6 25.5 -6
c17.333 0 31.666 5.66699 42.999 17c6 6.66699 10.833 14.834 14.5 24.501s5.5 21.167 5.5 34.5v214z" />
    <glyph glyph-name="h" unicode="h" horiz-adv-x="395" 
d="M261 0l0.00195312 381.002c0 24 -6 42 -18 54s-26.667 18 -44 18s-31.833 -6 -43.5 -18s-17.5 -30 -17.5 -54v-381h-81v712h81v-231c3.33301 5.33301 7.66602 10.666 12.999 15.999s10.666 9.66602 15.999 12.999c17.333 10.667 36 16 56 16
c19.333 0 36 -3.16699 50 -9.5s26.667 -15.833 38 -28.5c10.667 -11.333 18.5 -25 23.5 -41s7.5 -38 7.5 -66v-381h-81z" />
    <glyph glyph-name="i" unicode="i" horiz-adv-x="195" 
d="M57 0v509h81v-509h-81zM50 610v94h95v-94h-95z" />
    <glyph glyph-name="j" unicode="j" horiz-adv-x="195" 
d="M138 -46c0 -28.667 -4.16602 -52.332 -12.499 -70.999s-19.5 -33.667 -33.5 -45c-15.333 -13.333 -32.5 -22 -51.5 -26s-39.5 -6 -61.5 -6v73c25.333 0 44.666 5.66699 57.999 17s20 31.666 20 60.999v552h81v-555zM50.001 610.002v94h95v-94h-95z" />
    <glyph glyph-name="k" unicode="k" horiz-adv-x="395" 
d="M293 0l-99 244l-56 -89v-155h-81v712h81v-440l147 246h86l-126 -202l138 -316h-90z" />
    <glyph glyph-name="l" unicode="l" horiz-adv-x="228" 
d="M211 0c-22 0 -42.333 1.99902 -61 5.99902s-35.667 12.667 -51 26c-14 11.333 -25.167 26.333 -33.5 45s-12.5 42.334 -12.5 71.001v564h81v-561c0 -52 25.667 -78 77 -78v-73v0z" />
    <glyph glyph-name="m" unicode="m" horiz-adv-x="599" 
d="M464 0l0.00195312 380.999c0 24 -5.83301 42 -17.5 54s-26.167 18 -43.5 18s-31.833 -6 -43.5 -18s-17.5 -30 -17.5 -54v-381h-81v381c0 24 -6 42 -18 54s-26.667 18 -44 18s-31.833 -6 -43.5 -18s-17.5 -30 -17.5 -54v-381h-81v518h78v-40
c3.33301 6 8.16602 12 14.499 18s12.166 10.667 17.499 14c17.333 10.667 36 16 56 16s38.833 -5 56.5 -15s31.834 -23 42.501 -39c5.33301 7.33301 11.666 14.333 18.999 21s14.666 12.334 21.999 17.001c8 5.33301 17.5 9.33301 28.5 12s21.167 4 30.5 4
c22.667 0 41 -3.16699 55 -9.5s26.667 -15.833 38 -28.5c10.667 -11.333 18.334 -25 23.001 -41s7 -38 7 -66v-381h-81z" />
    <glyph glyph-name="n" unicode="n" horiz-adv-x="395" 
d="M261 0l0.00195312 381c0 24 -6 42 -18 54s-26.667 18 -44 18s-31.833 -6 -43.5 -18s-17.5 -30 -17.5 -54v-381h-81v518h78v-40c3.33301 6 8.16602 12 14.499 18s12.166 10.667 17.499 14c17.333 10.667 36 16 56 16c19.333 0 36 -3.16699 50 -9.5
s26.667 -15.833 38 -28.5c10.667 -11.333 18.5 -25 23.5 -41s7.5 -38 7.5 -66v-381h-81z" />
    <glyph glyph-name="o" unicode="o" horiz-adv-x="375" 
d="M334 259c0 -52.667 -2.16699 -97.167 -6.5 -133.5s-14.5 -64.833 -30.5 -85.5c-13.333 -17.333 -29.166 -29.666 -47.499 -36.999s-39.166 -11 -62.499 -11s-44 3.66699 -62 11s-33.667 19.666 -47 36.999c-16 20.667 -26.333 49.167 -31 85.5s-7 80.833 -7 133.5
s2.33301 97.167 7 133.5s15 64.833 31 85.5c13.333 17.333 29 29.666 47 36.999s38.667 11 62 11s44.166 -3.66699 62.499 -11s34.166 -19.666 47.499 -36.999c16 -20.667 26.167 -49.167 30.5 -85.5s6.5 -80.833 6.5 -133.5zM253 259c0 46.667 -1 83.834 -3 111.501
s-7.66699 48.167 -17 61.5c-10.667 14.667 -26 22 -46 22c-19.333 0 -34.333 -7.33301 -45 -22c-9.33301 -13.333 -15.166 -33.833 -17.499 -61.5s-3.5 -64.834 -3.5 -111.501s1.16699 -83.667 3.5 -111s8.16602 -47.666 17.499 -60.999c10.667 -14.667 25.667 -22 45 -22
c20 0 35.333 7.33301 46 22c9.33301 13.333 15 33.666 17 60.999s3 64.333 3 111z" />
    <glyph glyph-name="p" unicode="p" horiz-adv-x="387" 
d="M346 259c0 -60 -2 -108.329 -6 -144.996s-14.333 -64.667 -31 -84c-10.667 -12.667 -22.834 -22.167 -36.501 -28.5s-30.167 -9.5 -49.5 -9.5c-21.333 0 -40 5 -56 15c-5.33301 3.33301 -10.666 7.66602 -15.999 12.999s-9.66602 10.666 -12.999 15.999v-230h-81v712h78
v-40c2.66699 5.33301 7.33398 11.166 14.001 17.499s12.667 11.166 18 14.499c17.333 10.667 36 16 56 16c17.333 0 33.166 -3 47.499 -9s27.166 -15.667 38.499 -29c16.667 -19.333 27 -47.333 31 -84s6 -85 6 -145zM265 259.004
c0 46.667 -0.999023 83.832 -2.99902 111.499s-7.66699 48.167 -17 61.5c-10.667 14.667 -25.667 22 -45 22c-17.333 0 -31.333 -5.33301 -42 -16c-13.333 -13.333 -20 -33.333 -20 -60v-237c0 -27.333 6.66699 -47.666 20 -60.999
c5.33301 -5.33301 11.666 -9.16602 18.999 -11.499s15 -3.5 23 -3.5c19.333 0 34.333 7.33301 45 22c9.33301 13.333 15 33.666 17 60.999s3 64.333 3 111z" />
    <glyph glyph-name="q" unicode="q" horiz-adv-x="387" 
d="M249 -194l0.00195312 229.996c-3.33301 -5.33301 -7.66602 -10.666 -12.999 -15.999s-10.666 -9.66602 -15.999 -12.999c-16 -10 -34.667 -15 -56 -15c-19.333 0 -35.833 3.16699 -49.5 9.5s-25.834 15.833 -36.501 28.5c-16.667 19.333 -27.167 47.333 -31.5 84
s-6.5 85 -6.5 145s2.16699 108.333 6.5 145s14.833 64.667 31.5 84c11.333 13.333 24.166 23 38.499 29s30.166 9 47.499 9c20 0 38.667 -5.33301 56 -16c5.33301 -3.33301 11.166 -8.16602 17.499 -14.499s10.833 -12.166 13.5 -17.499v40h79v-712h-81zM249.002 377.996
c0 14 -1.83105 25.833 -5.49805 35.5s-8.83398 17.834 -15.501 24.501c-10.667 10.667 -24.667 16 -42 16c-18.667 0 -33.334 -7.33301 -44.001 -22c-9.33301 -13.333 -15.166 -33.833 -17.499 -61.5s-3.5 -64.834 -3.5 -111.501s1.16699 -83.667 3.5 -111
s8.16602 -47.666 17.499 -60.999c10.667 -14.667 25.334 -22 44.001 -22c8 0 15.667 1.16699 23 3.5s13.666 6.16602 18.999 11.499c14 14 21 34.333 21 61v237z" />
    <glyph glyph-name="r" unicode="r" horiz-adv-x="272" 
d="M232 448c-28 0 -50.668 -8.33203 -68.001 -24.999s-26 -40 -26 -70v-353h-81v518h78v-55c4 7.33301 9.33301 14.166 16 20.499s13.334 11.833 20.001 16.5c24.667 17.333 53 26 85 26v-78h-24z" />
    <glyph glyph-name="s" unicode="s" horiz-adv-x="359" 
d="M328 141c0 -23.333 -3.99902 -43.8281 -11.999 -61.4951s-18.667 -33.167 -32 -46.5c-14 -14.667 -29.833 -25.167 -47.5 -31.5s-37.167 -9.5 -58.5 -9.5s-40.833 3.33301 -58.5 10s-32.834 16.667 -45.501 30c-29.333 30 -44 68 -44 114h80
c0 -26.667 7.33301 -47.667 22 -63c6 -6 13.167 -10.5 21.5 -13.5s16.5 -4.5 24.5 -4.5c20 0 36.333 6.33301 49 19c13.333 13.333 20 30.666 20 51.999c0 18 -4.33301 33.667 -13 47c-5.33301 7.33301 -11.666 14 -18.999 20s-16.333 11.667 -27 17l-67 34
c-33.333 16.667 -57 36.667 -71 60c-10.667 18.667 -16 41.334 -16 68.001c0 22.667 3.83301 42.5 11.5 59.5s18.167 32.167 31.5 45.5s28.666 23.166 45.999 29.499s36 9.5 56 9.5c42.667 0 76.334 -12.333 101.001 -37c28 -26.667 42 -64.667 42 -114h-80
c0 15.333 -1.5 27.666 -4.5 36.999s-7.83301 17.666 -14.5 24.999c-6 6.66699 -12.833 11.334 -20.5 14.001s-15.5 4 -23.5 4c-18.667 0 -33.667 -5.66699 -45 -17c-12.667 -12.667 -19 -29.334 -19 -50.001c0 -14.667 3 -27.334 9 -38.001
c7.33301 -12.667 21.666 -24 42.999 -34l66 -33c34.667 -16.667 59 -36.334 73 -59.001c14.667 -22 22 -49.667 22 -83z" />
    <glyph glyph-name="t" unicode="t" horiz-adv-x="260" 
d="M240 0c-23.333 0 -44.832 1.83203 -64.499 5.49902s-37.834 12.5 -54.501 26.5c-30 24.667 -45 63.334 -45 116.001v307h-59v63h59v142h81v-142h80v-63h-80v-304c0 -28 7 -48 21 -60s34.667 -18 62 -18v-73v0z" />
    <glyph glyph-name="u" unicode="u" horiz-adv-x="395" 
d="M260 0l-0.00195312 40c-3.33301 -6 -8.16602 -12 -14.499 -18s-12.166 -10.667 -17.499 -14c-17.333 -10.667 -36 -16 -56 -16c-19.333 0 -36 3.16699 -50 9.5s-26.667 15.833 -38 28.5c-10.667 11.333 -18.5 25 -23.5 41s-7.5 38 -7.5 66v381h81v-381
c0 -24 6 -42 18 -54s26.667 -18 44 -18s31.833 6 43.5 18s17.5 30 17.5 54v381h81v-518h-78z" />
    <glyph glyph-name="v" unicode="v" horiz-adv-x="343" 
d="M215 0h-86l-125 518h89l79 -390l78 390h89z" />
    <glyph glyph-name="w" unicode="w" horiz-adv-x="526" 
d="M413 0h-82l-70 379l-68 -379h-82l-107 518h92l59 -390l69 390h73l73 -390l60 390h92z" />
    <glyph glyph-name="x" unicode="x" horiz-adv-x="356" 
d="M253 0l-75 187l-75 -187h-90l118 264l-112 254h90l69 -181l69 181h90l-114 -254l120 -264h-90z" />
    <glyph glyph-name="y" unicode="y" horiz-adv-x="345" 
d="M193 -83c-5.33301 -23.333 -13.3301 -42.166 -23.9971 -56.499s-23.334 -25.5 -38.001 -33.5s-31.334 -13.5 -50.001 -16.5s-38.667 -4.5 -60 -4.5v72c25.333 0 45.666 4.16699 60.999 12.5s26 24.166 32 47.499l16 63l-126 517h89l79 -389l78 389h89z" />
    <glyph glyph-name="z" unicode="z" horiz-adv-x="301" 
d="M24 0v62l163 384h-152v72h242v-62l-163 -383h163v-73h-253z" />
    <glyph glyph-name="braceleft" unicode="{" horiz-adv-x="311" 
d="M240 -74c-17.333 0 -33.833 2.99805 -49.5 8.99805s-29.167 14.667 -40.5 26s-20 24.833 -26 40.5s-9 35.5 -9 59.5v192c0 21.333 -5.5 37.833 -16.5 49.5s-24.833 17.5 -41.5 17.5h-28v72h28c16.667 0 30.5 5.83301 41.5 17.5s16.5 28.167 16.5 49.5v192
c0 24 3 43.833 9 59.5s14.667 29.167 26 40.5s24.833 20 40.5 26s32.167 9 49.5 9h42v-73h-28c-16.667 0 -30.5 -5.66699 -41.5 -17s-16.5 -27.666 -16.5 -48.999v-185c0 -21.333 -2.5 -38.833 -7.5 -52.5s-12.167 -25.167 -21.5 -34.5
c-5.33301 -5.33301 -11 -9.33301 -17 -12l-16 -7c5.33301 -1.33301 10.833 -3.5 16.5 -6.5s11.167 -7.16699 16.5 -12.5c9.33301 -9.33301 16.5 -20.833 21.5 -34.5s7.5 -31.167 7.5 -52.5v-185c0 -21.333 5.5 -37.666 16.5 -48.999s24.833 -17 41.5 -17h28v-73h-42z" />
    <glyph glyph-name="bar" unicode="|" horiz-adv-x="290" 
d="M105 -74v860h81v-860h-81z" />
    <glyph glyph-name="braceright" unicode="}" horiz-adv-x="311" 
d="M254 320c-16.667 0 -30.333 -5.83105 -41 -17.498s-16 -28.167 -16 -49.5v-192c0 -24 -3.16699 -43.833 -9.5 -59.5s-15.166 -29.167 -26.499 -40.5s-24.833 -20 -40.5 -26s-32.167 -9 -49.5 -9h-42v73h28c16.667 0 30.667 5.66699 42 17s17 27.666 17 48.999v185
c0 21.333 2.33301 38.833 7 52.5s11.667 25.167 21 34.5c5.33301 5.33301 11.166 9.33301 17.499 12l16.5 7c-5.33301 1.33301 -11 3.5 -17 6.5s-11.667 7.16699 -17 12.5c-9.33301 9.33301 -16.333 20.833 -21 34.5s-7 31.167 -7 52.5v185
c0 21.333 -5.66699 37.666 -17 48.999s-25.333 17 -42 17h-28v73h42c17.333 0 33.833 -3 49.5 -9s29.167 -14.667 40.5 -26s20.166 -24.833 26.499 -40.5s9.5 -35.5 9.5 -59.5v-192c0 -21.333 5.33301 -37.833 16 -49.5s24.334 -17.5 41.001 -17.5h28v-72h-28z" />
    <glyph glyph-name="asciitilde" unicode="~" horiz-adv-x="444" 
d="M410 285c-22.667 -22.667 -42.333 -38.335 -59 -47.002s-34.667 -13 -54 -13c-16 0 -30.5 2.33301 -43.5 7s-26.5 10.667 -40.5 18c-10.667 5.33301 -20.834 9.83301 -30.501 13.5s-20.5 5.5 -32.5 5.5s-22.667 -2.16699 -32 -6.5s-20.666 -13.166 -33.999 -26.499
l-49 48c22.667 22.667 42.167 38.334 58.5 47.001s34.166 13 53.499 13c16 0 30.667 -2.33301 44 -7s27 -10.667 41 -18c10.667 -5.33301 20.834 -9.83301 30.501 -13.5s20.5 -5.5 32.5 -5.5s22.5 2.33301 31.5 7s20.167 13.667 33.5 27l50 -49v0z" />
    <glyph glyph-name="nonbreakingspace" unicode="&#xa0;" horiz-adv-x="187" 
 />
    <glyph glyph-name="exclamdown" unicode="&#xa1;" horiz-adv-x="242" 
d="M68 -194v519h81v-519h-81zM59 419v99h99v-99h-99z" />
    <glyph glyph-name="cent" unicode="&#xa2;" horiz-adv-x="367" 
d="M332 250c-0.666992 -23.333 -4.16699 -44.168 -10.5 -62.501s-16.166 -34.166 -29.499 -47.499c-17.333 -16 -40.333 -26.667 -69 -32v-108h-64v107c-32.667 5.33301 -58.667 20 -78 44c-16 19.333 -26.167 46.5 -30.5 81.5s-6.5 77.5 -6.5 127.5s2.16699 92.5 6.5 127.5
s14.5 62.167 30.5 81.5c19.333 24 45.333 38.667 78 44v99h64v-99c13.333 -2 25.666 -5.33301 36.999 -10s21.666 -11.667 30.999 -21c15.333 -14.667 25.833 -32 31.5 -52s8.83398 -40.333 9.50098 -61h-80c0 10 -0.833008 20.167 -2.5 30.5s-6.16699 19.5 -13.5 27.5l-6 6
c-2 2 -4.33301 3.66699 -7 5v-355c5.33301 4 9.33301 7.33301 12 10c7.33301 7.33301 12 15.833 14 25.5s3 20.167 3 31.5h80zM159 536.998c-3.33301 -1.33301 -6 -3.16797 -8 -5.50098s-4 -4.83301 -6 -7.5c-9.33301 -12.667 -15 -32 -17 -58s-3 -61.333 -3 -106
s1 -80 3 -106s7.66699 -45.333 17 -58c2 -2.66699 4 -5.16699 6 -7.5s4.66699 -4.16602 8 -5.49902v354z" />
    <glyph glyph-name="sterling" unicode="&#xa3;" horiz-adv-x="427" 
d="M97 0l-0.000976562 337.999h-64v62h64v144c0 27.333 4.5 52 13.5 74s21.167 40.5 36.5 55.5s33.5 26.5 54.5 34.5s43.167 12 66.5 12c25.333 0 49 -4.5 71 -13.5s40.667 -22.167 56 -39.5l-60 -57c-7.33301 8.66699 -16.166 16.334 -26.499 23.001s-23.833 10 -40.5 10
c-23.333 0 -43.333 -8.5 -60 -25.5s-25 -40.833 -25 -71.5v-146h85v-62h-85v-261h212v-77h-298z" />
    <glyph glyph-name="currency" unicode="&#xa4;" horiz-adv-x="596" 
d="M449 76l-56.0029 57c-13.333 -9.33301 -28.166 -16.666 -44.499 -21.999s-33.166 -8 -50.499 -8c-18 0 -35.167 2.66699 -51.5 8s-31.166 12.666 -44.499 21.999l-56 -57l-51 51l57 56c-9.33301 13.333 -16.5 28.166 -21.5 44.499s-7.5 33.166 -7.5 50.499
c0 18 2.5 35.167 7.5 51.5s12.167 31.166 21.5 44.499l-57 56l51 51l56 -56c28 18.667 60 28 96 28c35.333 0 67 -9.33301 95 -28l56 56l51 -51l-57 -56c9.33301 -13.333 16.666 -28.166 21.999 -44.499s8 -33.5 8 -51.5c0 -17.333 -2.66699 -34.166 -8 -50.499
s-12.666 -31.166 -21.999 -44.499l57 -56zM400.997 278c0 14.667 -2.66699 28.334 -8 41.001s-12.666 23.667 -21.999 33s-20.333 16.666 -33 21.999s-26 8 -40 8c-29.333 0 -54 -10 -74 -30s-30 -44.667 -30 -74c0 -14 2.66699 -27.333 8 -40s12.666 -23.667 21.999 -33
s20.333 -16.666 33 -21.999s26.334 -8 41.001 -8c14 0 27.333 2.66699 40 8s23.667 12.666 33 21.999s16.666 20.333 21.999 33s8 26 8 40z" />
    <glyph glyph-name="yen" unicode="&#xa5;" horiz-adv-x="353" 
d="M253 405h55v-62h-74l-17 -55v-40h91v-62h-91v-186h-82v186h-91v62h91v40l-16 55h-75v62h55l-92 307h91l78 -304l79 304h90z" />
    <glyph glyph-name="brokenbar" unicode="&#xa6;" horiz-adv-x="290" 
d="M105 437v348h81v-348h-81zM105 -73v348h81v-348h-81z" />
    <glyph glyph-name="section" unicode="&#xa7;" horiz-adv-x="409" 
d="M357 271c0 -20.667 -0.670898 -38.6709 -2.00391 -54.0039s-3.66602 -29 -6.99902 -41s-7.83301 -22.833 -13.5 -32.5s-13.167 -18.5 -22.5 -26.5c-10.667 -9.33301 -24 -16 -40 -20c12 -7.33301 22.833 -15 32.5 -23s18.167 -18.333 25.5 -31
c6 -10.667 10.667 -22.667 14 -36s5 -26.666 5 -39.999c0 -44.667 -13.667 -80.667 -41 -108c-13.333 -14 -29.166 -24 -47.499 -30s-38.166 -9 -59.499 -9c-20.667 0 -39.834 3.5 -57.501 10.5s-32.834 16.833 -45.501 29.5c-28 28 -42 63 -42 105h82
c0 -22 6.66699 -40 20 -54c5.33301 -6 11.833 -10.5 19.5 -13.5s15.5 -4.5 23.5 -4.5c20 0 36 6 48 18c11.333 12.667 17 29.667 17 51c0 18.667 -4 33.667 -12 45c-5.33301 8 -11.833 14.833 -19.5 20.5s-16.167 10.834 -25.5 15.501l-69 34c-8 4 -15.833 8.33301 -23.5 13
s-14.5 10 -20.5 16c-10 10 -18 20.5 -24 31.5s-10.5 23 -13.5 36s-4.83301 27.5 -5.5 43.5s-1 34 -1 54s0.5 37.5 1.5 52.5s3.16699 28.333 6.5 40s8 22 14 31s13.667 17.833 23 26.5c5.33301 4.66699 11.333 9 18 13s14.334 7 23.001 9
c-12.667 7.33301 -24.167 15.333 -34.5 24s-18.833 18.667 -25.5 30c-11.333 19.333 -17 43.666 -17 72.999c0 21.333 3.66699 40.5 11 57.5s17.666 32.167 30.999 45.5s28.833 23.166 46.5 29.499s36.5 9.5 56.5 9.5c38.667 0 70.667 -11 96 -33
c14.667 -13.333 25.834 -29.333 33.501 -48s11.5 -39 11.5 -61h-81c0 10 -1.33301 19.5 -4 28.5s-7.33398 17.167 -14.001 24.5c-11.333 11.333 -25.333 17 -42 17c-18 0 -32.333 -5.33301 -43 -16c-6.66699 -6 -11.5 -13.167 -14.5 -21.5s-4.5 -17.166 -4.5 -26.499
c0 -17.333 3.33301 -31.666 10 -42.999c8.66699 -13.333 22.334 -24.666 41.001 -33.999l69 -34c8.66699 -4 18 -9 28 -15s18 -12 24 -18c8.66699 -9.33301 15.834 -18.666 21.501 -27.999s9.83398 -20 12.501 -32s4.5 -26.167 5.5 -42.5s1.5 -35.833 1.5 -58.5z
M275.996 270.996c0 29.333 -1.33203 52.668 -3.99902 70.001s-9.66699 31.666 -21 42.999c-12 12 -27.667 18 -47 18c-18 0 -33.333 -5.66699 -46 -17c-10.667 -10 -17.5 -23.667 -20.5 -41s-4.5 -41.666 -4.5 -72.999c0 -28 1.33301 -51.333 4 -70
s9.66699 -33.334 21 -44.001c13.333 -12 28.666 -18 45.999 -18c19.333 0 35 6 47 18c11.333 10.667 18.333 25.167 21 43.5s4 41.833 4 70.5z" />
    <glyph glyph-name="dieresis" unicode="&#xa8;" 
d="M69 601v82h82v-82h-82zM226 601v82h81v-82h-81z" />
    <glyph glyph-name="copyright" unicode="&#xa9;" horiz-adv-x="853" 
d="M788 356c0 -50 -9.5 -97 -28.5 -141s-44.833 -82.333 -77.5 -115s-71 -58.5 -115 -77.5s-91 -28.5 -141 -28.5s-97 9.5 -141 28.5s-82.333 44.833 -115 77.5s-58.5 71 -77.5 115s-28.5 91 -28.5 141s9.5 97 28.5 141s44.833 82.333 77.5 115s71 58.5 115 77.5
s91 28.5 141 28.5s97 -9.5 141 -28.5s82.333 -44.833 115 -77.5s58.5 -71 77.5 -115s28.5 -91 28.5 -141zM730 356c0 43.333 -7.83301 83.833 -23.5 121.5s-37.167 70.334 -64.5 98.001s-59.5 49.5 -96.5 65.5s-76.833 24 -119.5 24s-82.334 -8 -119.001 -24
s-68.667 -37.833 -96 -65.5s-48.833 -60.334 -64.5 -98.001s-23.5 -78.167 -23.5 -121.5s7.83301 -83.833 23.5 -121.5s37.167 -70.334 64.5 -98.001s59.333 -49.5 96 -65.5s76.334 -24 119.001 -24s82.5 8 119.5 24s69.167 37.833 96.5 65.5s48.833 60.334 64.5 98.001
s23.5 78.167 23.5 121.5zM526 265c-1.33301 -39.333 -11.334 -68.3311 -30.001 -86.998c-17.333 -17.333 -40 -26 -68 -26c-17.333 0 -32 3.16699 -44 9.5s-22 14.166 -30 23.499c-13.333 16 -21.5 38.333 -24.5 67s-4.5 63 -4.5 103s1.5 74.5 4.5 103.5
s11.167 51.5 24.5 67.5c8 9.33301 18 17.166 30 23.499s26.667 9.5 44 9.5c27.333 0 50 -9 68 -27c19.333 -19.333 29.333 -48 30 -86h-54c0 10 -0.666992 19 -2 27s-4.66602 15 -9.99902 21c-8 10 -18.667 15 -32 15c-8 0 -14.667 -1.5 -20 -4.5
s-9.66602 -6.83301 -12.999 -11.5c-7.33301 -10 -11.833 -26.5 -13.5 -49.5s-2.5 -52.5 -2.5 -88.5s0.833008 -65.333 2.5 -88s6.16699 -39 13.5 -49c3.33301 -4.66699 7.83301 -8.66699 13.5 -12s12.167 -5 19.5 -5c13.333 0 24 4.66699 32 14
c5.33301 6 8.66602 13.167 9.99902 21.5s2 17.833 2 28.5h54z" />
    <glyph glyph-name="ordfeminine" unicode="&#xaa;" horiz-adv-x="314" 
d="M204 307l0.000976562 33.001c-4 -6 -8.5 -11.167 -13.5 -15.5s-9.16699 -7.5 -12.5 -9.5c-13.333 -8.66699 -29.333 -13 -48 -13c-30.667 0 -55.334 10.333 -74.001 31c-8.66699 9.33301 -15.334 21.166 -20.001 35.499s-7 32.166 -7 53.499
c0 19.333 3.5 36.666 10.5 51.999s16.833 28.666 29.5 39.999c10 8.66699 22 15.334 36 20.001s31.667 7 53 7h42v60c0 16.667 -4.16699 30.167 -12.5 40.5s-20.5 15.5 -36.5 15.5c-13.333 0 -24.666 -4.66699 -33.999 -14c-6.66699 -7.33301 -10.667 -15.166 -12 -23.499
s-2 -16.166 -2 -23.499h-68c0 16.667 2.33301 32.5 7 47.5s13.667 28.833 27 41.5c10 9.33301 22 16.833 36 22.5s29.333 8.5 46 8.5c16 0 31.167 -2.33301 45.5 -7s26.833 -12.334 37.5 -23.001c10 -10 18.167 -22.167 24.5 -36.5s9.5 -32.166 9.5 -53.499v-289h-64z
M200.001 491.001l-37.001 0.00195312c-9.33301 0 -17.833 -0.833008 -25.5 -2.5s-14.167 -5.16699 -19.5 -10.5c-14 -12.667 -21 -30.334 -21 -53.001c0 -18 3.83301 -33.333 11.5 -46s20.834 -19 39.501 -19c14.667 0 27 6.16699 37 18.5s15 28.166 15 47.499v65z" />
    <glyph glyph-name="guillemotleft" unicode="&#xab;" horiz-adv-x="392" 
d="M26 272l148 229v-127l-68 -102l68 -103v-127zM193 272l148 229v-127l-69 -102l69 -103v-127z" />
    <glyph glyph-name="logicalnot" unicode="&#xac;" horiz-adv-x="444" 
d="M317 146v107h-267v77h344v-184h-77z" />
    <glyph glyph-name="registered" unicode="&#xae;" horiz-adv-x="853" 
d="M788 356c0 -50 -9.5 -97 -28.5 -141s-44.833 -82.333 -77.5 -115s-71 -58.5 -115 -77.5s-91 -28.5 -141 -28.5s-97 9.5 -141 28.5s-82.333 44.833 -115 77.5s-58.5 71 -77.5 115s-28.5 91 -28.5 141s9.5 97 28.5 141s44.833 82.333 77.5 115s71 58.5 115 77.5
s91 28.5 141 28.5s97 -9.5 141 -28.5s82.333 -44.833 115 -77.5s58.5 -71 77.5 -115s28.5 -91 28.5 -141zM730 356c0 43.333 -7.83301 83.833 -23.5 121.5s-37.167 70.334 -64.5 98.001s-59.5 49.5 -96.5 65.5s-76.833 24 -119.5 24s-82.334 -8 -119.001 -24
s-68.667 -37.833 -96 -65.5s-48.833 -60.334 -64.5 -98.001s-23.5 -78.167 -23.5 -121.5s7.83301 -83.833 23.5 -121.5s37.167 -70.334 64.5 -98.001s59.333 -49.5 96 -65.5s76.334 -24 119.001 -24s82.5 8 119.5 24s69.167 37.833 96.5 65.5s48.833 60.334 64.5 98.001
s23.5 78.167 23.5 121.5zM488 157l-52.001 167.998h-47v-168h-54v397h102c29.333 0 52 -8 68 -24c10.667 -10.667 17.834 -23.167 21.501 -37.5s5.5 -32.166 5.5 -53.499s-1.66699 -38.666 -5 -51.999s-10.333 -25.333 -21 -36c-5.33301 -5.33301 -12 -10.333 -20 -15
l58 -179h-56zM477.999 438.998c0 13.333 -0.666992 24.168 -2 32.501s-4.66602 15.5 -9.99902 21.5c-7.33301 7.33301 -17 11 -29 11h-48v-130h48c11.333 0 20.666 3.66699 27.999 11c5.33301 6 8.83301 13.167 10.5 21.5s2.5 19.166 2.5 32.499z" />
    <glyph glyph-name="macron" unicode="&#xaf;" 
d="M74 612v57h229v-57h-229z" />
    <glyph glyph-name="degree" unicode="&#xb0;" horiz-adv-x="396" 
d="M347 575c0 -20.667 -4 -40 -12 -58s-18.667 -33.833 -32 -47.5s-29 -24.334 -47 -32.001s-37.333 -11.5 -58 -11.5s-40 3.83301 -58 11.5s-33.833 18.334 -47.5 32.001s-24.334 29.5 -32.001 47.5s-11.5 37.333 -11.5 58s3.83301 40 11.5 58s18.334 33.667 32.001 47
s29.5 23.833 47.5 31.5s37.333 11.5 58 11.5s40 -3.83301 58 -11.5s33.667 -18.167 47 -31.5s24 -29 32 -47s12 -37.333 12 -58zM275 575c0 22 -7.33301 40.501 -22 55.501s-33 22.5 -55 22.5s-40.333 -7.33301 -55 -22s-22 -33.334 -22 -56.001s7.33301 -41.5 22 -56.5
s33 -22.5 55 -22.5s40.333 7.5 55 22.5s22 33.833 22 56.5z" />
    <glyph glyph-name="plusminus" unicode="&#xb1;" horiz-adv-x="444" 
d="M261 301v-137h-77v137h-138v77h138v137h77v-137h137v-77h-137zM46 24v77h352v-77h-352z" />
    <glyph glyph-name="twosuperior" unicode="&#xb2;" horiz-adv-x="318" 
d="M51 285v45.0029l135 212c7.33301 11.333 12.833 23 16.5 35s5.5 25.667 5.5 41s-4.5 27.5 -13.5 36.5s-21.167 13.5 -36.5 13.5c-32.667 0 -49 -18.667 -49 -56v-24h-60v22c0 19.333 2.16699 35.166 6.5 47.499s11.833 23.166 22.5 32.499c20 18 46.667 27 80 27
c17.333 0 32 -1.83301 44 -5.5s23.333 -9.83398 34 -18.501c10 -8 18 -18.5 24 -31.5s9 -28.167 9 -45.5c0 -32 -10 -63.667 -30 -95l-121 -189h151v-47h-218z" />
    <glyph glyph-name="threesuperior" unicode="&#xb3;" horiz-adv-x="318" 
d="M266 402c0 -23.333 -2.00098 -42.1631 -6.00098 -56.4961s-12.667 -27.5 -26 -39.5c-9.33301 -8.66699 -21.166 -15.167 -35.499 -19.5s-29.166 -6.5 -44.499 -6.5c-16 0 -31 2.16699 -45 6.5s-26 11.166 -36 20.499c-9.33301 8.66699 -16.5 19 -21.5 31
s-7.5 29.333 -7.5 52v15h61v-16c0 -13.333 0.833008 -23.333 2.5 -30s5.16699 -12.334 10.5 -17.001c10 -8.66699 22 -13 36 -13c15.333 0 27.333 4.33301 36 13c5.33301 6 9.16602 14.5 11.499 25.5s3.5 23.5 3.5 37.5c0 14.667 -0.833008 27.167 -2.5 37.5
s-5.16699 18.833 -10.5 25.5c-8.66699 10.667 -21.334 16 -38.001 16h-27v47h27c7.33301 0 13.5 1 18.5 3s9.83301 5 14.5 9c8 7.33301 12.667 16.666 14 27.999s2 21.666 2 30.999c0 10 -0.833008 20 -2.5 30s-5.83398 18.333 -12.501 25
c-7.33301 7.33301 -18.666 11 -33.999 11c-14.667 0 -26.334 -4.33301 -35.001 -13c-4.66699 -4.66699 -7.83398 -10.5 -9.50098 -17.5s-2.5 -15.167 -2.5 -24.5v-19h-61v17c0 20 2.33301 36 7 48s11.667 22.333 21 31c20 18 46.667 27 80 27c18 0 33.333 -2.33301 46 -7
s23.334 -11 32.001 -19c20.667 -20 31 -48.667 31 -86c0 -15.333 -1.16699 -28.5 -3.5 -39.5s-6.83301 -21.167 -13.5 -30.5c-4.66699 -6 -9.66699 -11.333 -15 -16s-11.666 -8.66699 -18.999 -12c16.667 -6 29.334 -16 38.001 -30c6.66699 -9.33301 11 -20 13 -32
s3 -26.333 3 -43z" />
    <glyph glyph-name="acute" unicode="&#xb4;" 
d="M213 586h-61l68 135h74z" />
    <glyph glyph-name="mu" unicode="&#xb5;" horiz-adv-x="399" 
d="M262 0l-0.000976562 40c-3.33301 -6 -8 -12 -14 -18s-11.667 -10.667 -17 -14c-17.333 -10.667 -36.666 -16 -57.999 -16c-8.66699 0 -16.667 1.5 -24 4.5s-12.333 6.16699 -15 9.5v-200h-78v712h81v-381c0 -24 5.83301 -42 17.5 -54s26.167 -18 43.5 -18s32 6 44 18
s18 30 18 54v381h81v-518h-79z" />
    <glyph glyph-name="mu" unicode="&#x3bc;" horiz-adv-x="399" 
d="M262 0l-0.000976562 40c-3.33301 -6 -8 -12 -14 -18s-11.667 -10.667 -17 -14c-17.333 -10.667 -36.666 -16 -57.999 -16c-8.66699 0 -16.667 1.5 -24 4.5s-12.333 6.16699 -15 9.5v-200h-78v712h81v-381c0 -24 5.83301 -42 17.5 -54s26.167 -18 43.5 -18s32 6 44 18
s18 30 18 54v381h81v-518h-79z" />
    <glyph glyph-name="paragraph" unicode="&#xb6;" horiz-adv-x="570" 
d="M431 -194v830h-111v-830h-81v490h-54c-45.333 0 -80.666 16 -105.999 48s-38 85.333 -38 160s12.667 128 38 160s60.666 48 105.999 48h327v-906h-81z" />
    <glyph glyph-name="periodcentered" unicode="&#xb7;" horiz-adv-x="266" 
d="M62 233v141h141v-141h-141z" />
    <glyph glyph-name="cedilla" unicode="&#xb8;" 
d="M176 -182h-64l57 144h57z" />
    <glyph glyph-name="onesuperior" unicode="&#xb9;" horiz-adv-x="318" 
d="M140 285v364l-72 -47v61l72 49h60v-427h-60z" />
    <glyph glyph-name="ordmasculine" unicode="&#xba;" horiz-adv-x="313" 
d="M276 508c0 -40.667 -1.83301 -75.167 -5.5 -103.5s-12.167 -50.5 -25.5 -66.5c-11.333 -13.333 -24.333 -22.833 -39 -28.5s-31.334 -8.5 -50.001 -8.5s-35.167 2.83301 -49.5 8.5s-27.166 15.167 -38.499 28.5c-13.333 16 -21.833 38.167 -25.5 66.5
s-5.5 62.833 -5.5 103.5s1.83301 75.167 5.5 103.5s12.167 50.5 25.5 66.5c11.333 13.333 24.166 23 38.499 29s30.833 9 49.5 9s35.334 -3 50.001 -9s27.667 -15.667 39 -29c13.333 -16 21.833 -38.167 25.5 -66.5s5.5 -62.833 5.5 -103.5zM208 508
c0 30 -1.00098 56.667 -3.00098 80s-6.66699 40.333 -14 51c-9.33301 11.333 -21 17 -35 17c-15.333 0 -27 -5.66699 -35 -17c-7.33301 -10.667 -11.833 -27.667 -13.5 -51s-2.5 -50 -2.5 -80s0.833008 -56.667 2.5 -80s6.16699 -40.333 13.5 -51
c8 -10.667 19.667 -16 35 -16c14.667 0 26.334 5.33301 35.001 16c7.33301 10.667 12 27.667 14 51s3 50 3 80z" />
    <glyph glyph-name="guillemotright" unicode="&#xbb;" horiz-adv-x="392" 
d="M218 42v127l68 103l-68 102v127l148 -229zM51 42v127l69 103l-69 102v127l148 -229z" />
    <glyph glyph-name="onequarter" unicode="&#xbc;" horiz-adv-x="793" 
d="M293 0h-64l247 712h64zM710 63v-63h-60v63h-147v49l117 315h59l-115 -315h86v87h60v-87h33v-49h-33zM139 285v364l-71 -47v61l72 49h60v-427h-61z" />
    <glyph glyph-name="onehalf" unicode="&#xbd;" horiz-adv-x="793" 
d="M293 0h-64l247 712h64zM527 0v45.0029l135 212c7.33301 11.333 12.833 23 16.5 35s5.5 25.667 5.5 41s-4.5 27.5 -13.5 36.5s-21.167 13.5 -36.5 13.5c-32.667 0 -49 -18.667 -49 -56v-24h-60v22c0 19.333 2.16699 35.166 6.5 47.499s11.833 23.166 22.5 32.499
c20 18 46.667 27 80 27c17.333 0 32 -1.83301 44 -5.5s23.333 -9.83398 34 -18.501c10 -8 18 -18.5 24 -31.5s9 -28.167 9 -45.5c0 -32 -10 -63.667 -30 -95l-121 -189h151v-47h-218zM139 285.003v364l-71 -47v61l72 49h60v-427h-61z" />
    <glyph glyph-name="threequarters" unicode="&#xbe;" horiz-adv-x="793" 
d="M266 402c0 -23.333 -2.00098 -42.1631 -6.00098 -56.4961s-12.667 -27.5 -26 -39.5c-9.33301 -8.66699 -21.166 -15.167 -35.499 -19.5s-29.166 -6.5 -44.499 -6.5c-16 0 -31 2.16699 -45 6.5s-26 11.166 -36 20.499c-9.33301 8.66699 -16.5 19 -21.5 31
s-7.5 29.333 -7.5 52v15h61v-16c0 -13.333 0.833008 -23.333 2.5 -30s5.16699 -12.334 10.5 -17.001c10 -8.66699 22 -13 36 -13c15.333 0 27.333 4.33301 36 13c5.33301 6 9.16602 14.5 11.499 25.5s3.5 23.5 3.5 37.5c0 14.667 -0.833008 27.167 -2.5 37.5
s-5.16699 18.833 -10.5 25.5c-8.66699 10.667 -21.334 16 -38.001 16h-27v47h27c7.33301 0 13.5 1 18.5 3s9.83301 5 14.5 9c8 7.33301 12.667 16.666 14 27.999s2 21.666 2 30.999c0 10 -0.833008 20 -2.5 30s-5.83398 18.333 -12.501 25
c-7.33301 7.33301 -18.666 11 -33.999 11c-14.667 0 -26.334 -4.33301 -35.001 -13c-4.66699 -4.66699 -7.83398 -10.5 -9.50098 -17.5s-2.5 -15.167 -2.5 -24.5v-19h-61v17c0 20 2.33301 36 7 48s11.667 22.333 21 31c20 18 46.667 27 80 27c18 0 33.333 -2.33301 46 -7
s23.334 -11 32.001 -19c20.667 -20 31 -48.667 31 -86c0 -15.333 -1.16699 -28.5 -3.5 -39.5s-6.83301 -21.167 -13.5 -30.5c-4.66699 -6 -9.66699 -11.333 -15 -16s-11.666 -8.66699 -18.999 -12c16.667 -6 29.334 -16 38.001 -30c6.66699 -9.33301 11 -20 13 -32
s3 -26.333 3 -43zM292.999 0.00292969h-64l247 712h64zM709.999 63.0029v-63h-60v63h-148v49l118 315h59l-115 -315h86v87h60v-87h33v-49h-33z" />
    <glyph glyph-name="questiondown" unicode="&#xbf;" horiz-adv-x="400" 
d="M344 -26c0 -28 -3.16797 -53.167 -9.50098 -75.5s-17.5 -41.166 -33.5 -56.499c-13.333 -12.667 -29 -22.834 -47 -30.501s-38.667 -11.5 -62 -11.5c-46 0 -82.667 13.667 -110 41c-15.333 15.333 -26.5 33.833 -33.5 55.5s-10.5 50.5 -10.5 86.5
c0 25.333 2.16699 47.166 6.5 65.499s12.5 36.166 24.5 53.499l59 85c14.667 21.333 22 44.666 22 69.999v68h81v-78c0 -15.333 -2.66699 -30.166 -8 -44.499s-12 -27.5 -20 -39.5l-58 -85c-11.333 -16 -18.5 -31.167 -21.5 -45.5s-4.5 -31.5 -4.5 -51.5
c0 -22 1.83301 -39.833 5.5 -53.5s9.83398 -25.167 18.501 -34.5c12 -13.333 28.333 -20 49 -20c19.333 0 35.333 6.33301 48 19c10 10.667 16.333 23.334 19 38.001s4 29.334 4 44.001h81zM140.999 419v99h99v-99h-99z" />
    <glyph glyph-name="Agrave" unicode="&#xc0;" horiz-adv-x="424" 
d="M328 0l-34 168h-165l-34 -168h-90l166 712h83l165 -712h-91zM212 573l-67 -328h133zM188 761l-81 135h74l69 -135h-62z" />
    <glyph glyph-name="Aacute" unicode="&#xc1;" horiz-adv-x="424" 
d="M328 0l-34 168h-165l-34 -168h-90l166 712h83l165 -712h-91zM212 573l-67 -328h133zM237 761h-61l68 135h74z" />
    <glyph glyph-name="Acircumflex" unicode="&#xc2;" horiz-adv-x="424" 
d="M328 0l-34 168h-165l-34 -168h-90l166 712h83l165 -712h-91zM212 573l-67 -328h133zM273 761l-60 87l-59 -87h-67l93 135h67l92 -135h-66z" />
    <glyph glyph-name="Atilde" unicode="&#xc3;" horiz-adv-x="424" 
d="M328 0l-34 168h-165l-34 -168h-90l166 712h83l165 -712h-91zM212 573l-67 -328h133zM347 813c-17.333 -17.333 -32.1689 -28.668 -44.502 -34.001s-24.5 -8 -36.5 -8c-11.333 0 -21.166 1.33301 -29.499 4s-17.5 7 -27.5 13c-15.333 10 -29.666 15 -42.999 15
c-6.66699 0 -13.167 -1.16699 -19.5 -3.5s-14.833 -8.83301 -25.5 -19.5l-37 37c17.333 17.333 31.833 28.833 43.5 34.5s23.834 8.5 36.501 8.5c11.333 0 21.166 -1.16699 29.499 -3.5s17.833 -6.83301 28.5 -13.5c7.33301 -4.66699 14.5 -8.5 21.5 -11.5
s14.167 -4.5 21.5 -4.5c6 0 12.167 1.33301 18.5 4s14.833 9.33398 25.5 20.001z" />
    <glyph glyph-name="Adieresis" unicode="&#xc4;" horiz-adv-x="424" 
d="M328 0l-34 168h-165l-34 -168h-90l166 712h83l165 -712h-91zM212 573l-67 -328h133zM94 776v82h82v-82h-82zM251 776v82h81v-82h-81z" />
    <glyph glyph-name="Aring" unicode="&#xc5;" horiz-adv-x="424" 
d="M328 0l-34 168h-165l-34 -168h-90l166 712h83l165 -712h-91zM311 852c0 -27.333 -9.5 -50.5 -28.5 -69.5s-42.167 -28.5 -69.5 -28.5s-50.333 9.5 -69 28.5s-28 42.167 -28 69.5s9.33301 50.333 28 69s41.667 28 69 28s50.5 -9.33301 69.5 -28s28.5 -41.667 28.5 -69z
M212 573l-67 -328h133zM262 852c0 13.333 -4.83301 24.833 -14.5 34.5s-21.167 14.5 -34.5 14.5s-24.833 -4.83301 -34.5 -14.5s-14.5 -21.167 -14.5 -34.5s4.83301 -25 14.5 -35s21.167 -15 34.5 -15s24.833 5 34.5 15s14.5 21.667 14.5 35z" />
    <glyph glyph-name="AE" unicode="&#xc6;" horiz-adv-x="640" 
d="M324 0v172h-163l-61 -172h-95l263 712h330v-77h-188v-239h162v-77h-162v-242h188v-77h-274zM324 635l-136 -385h136v385z" />
    <glyph glyph-name="Ccedilla" unicode="&#xc7;" horiz-adv-x="423" 
d="M386 176c-0.666992 -30 -5.66797 -57.668 -15.001 -83.001s-22.666 -46 -39.999 -62c-14 -13.333 -29.833 -23.166 -47.5 -29.499s-38.5 -9.5 -62.5 -9.5c-28.667 0 -52.834 4.66699 -72.501 14s-36.167 21.666 -49.5 36.999c-12 13.333 -21.5 28.833 -28.5 46.5
s-12.333 38.834 -16 63.501s-5.83398 53.5 -6.50098 86.5s-1 71.833 -1 116.5s0.333008 83.5 1 116.5s2.83398 61.833 6.50098 86.5s9 45.834 16 63.501s16.5 33.167 28.5 46.5c13.333 15.333 29.833 27.666 49.5 36.999s43.834 14 72.501 14
c24.667 0 46.167 -3.66699 64.5 -11s34.5 -17.666 48.5 -30.999c16.667 -16 29.167 -36.167 37.5 -60.5s12.833 -51.5 13.5 -81.5h-86c0 15.333 -1.66699 30.333 -5 45s-9 27 -17 37c-6 7.33301 -13.5 13.333 -22.5 18s-20.167 7 -33.5 7c-14 0 -25.667 -2.5 -35 -7.5
s-17 -11.5 -23 -19.5c-6 -8.66699 -11 -19.167 -15 -31.5s-7.16699 -28.333 -9.5 -48s-3.83301 -44.167 -4.5 -73.5s-1 -65 -1 -107s0.333008 -77.667 1 -107s2.16699 -53.833 4.5 -73.5s5.5 -35.667 9.5 -48s9 -22.833 15 -31.5c6 -8 13.667 -14.5 23 -19.5
s21 -7.5 35 -7.5c13.333 0 24.5 2.5 33.5 7.5s16.5 11.167 22.5 18.5c8 10 13.833 22.167 17.5 36.5s5.5 29.166 5.5 44.499h86zM201.999 -182.001h-64l57 144h57z" />
    <glyph glyph-name="Egrave" unicode="&#xc8;" horiz-adv-x="380" 
d="M64 0v712h275v-77h-189v-239h163v-77h-163v-242h189v-77h-275zM179 761l-81 135h74l69 -135h-62z" />
    <glyph glyph-name="Eacute" unicode="&#xc9;" horiz-adv-x="380" 
d="M64 0v712h275v-77h-189v-239h163v-77h-163v-242h189v-77h-275zM229 761h-61l68 135h74z" />
    <glyph glyph-name="Ecircumflex" unicode="&#xca;" horiz-adv-x="380" 
d="M64 0v712h275v-77h-189v-239h163v-77h-163v-242h189v-77h-275zM264 761l-60 87l-59 -87h-67l93 135h67l92 -135h-66z" />
    <glyph glyph-name="Edieresis" unicode="&#xcb;" horiz-adv-x="380" 
d="M64 0v712h275v-77h-189v-239h163v-77h-163v-242h189v-77h-275zM85 776v82h82v-82h-82zM242 776v82h81v-82h-81z" />
    <glyph glyph-name="Igrave" unicode="&#xcc;" horiz-adv-x="215" 
d="M64 0v712h86v-712h-86zM88 761l-81 135h74l69 -135h-62z" />
    <glyph glyph-name="Iacute" unicode="&#xcd;" horiz-adv-x="215" 
d="M64 0v712h86v-712h-86zM134 761h-61l68 135h74z" />
    <glyph glyph-name="Icircumflex" unicode="&#xce;" horiz-adv-x="215" 
d="M64 0v712h86v-712h-86zM167 761l-60 87l-59 -87h-67l93 135h67l92 -135h-66z" />
    <glyph glyph-name="Idieresis" unicode="&#xcf;" horiz-adv-x="215" 
d="M64 0v712h86v-712h-86zM-11 776v82h82v-82h-82zM146 776v82h81v-82h-81z" />
    <glyph glyph-name="Eth" unicode="&#xd0;" horiz-adv-x="459" 
d="M412 356c0 -44 -0.333008 -82.167 -1 -114.5s-2.66699 -60.5 -6 -84.5s-8.5 -44.5 -15.5 -61.5s-16.5 -32.167 -28.5 -45.5c-13.333 -14.667 -29.833 -26.667 -49.5 -36s-43.834 -14 -72.501 -14h-164v323h-52v69h52v320h164c28.667 0 52.834 -4.66699 72.501 -14
s36.167 -21.333 49.5 -36c12 -13.333 21.5 -28.5 28.5 -45.5s12.167 -37.5 15.5 -61.5s5.33301 -52.167 6 -84.5s1 -70.5 1 -114.5zM326 356c0 40.667 -0.333008 75.167 -1 103.5s-2 52 -4 71s-4.83301 34.5 -8.5 46.5s-8.83398 22.333 -15.501 31
c-6 8 -14.167 14.5 -24.5 19.5s-22.5 7.5 -36.5 7.5h-75v-243h81v-69h-81v-246h75c14 0 26.167 2.5 36.5 7.5s18.5 11.5 24.5 19.5c6.66699 8.66699 11.834 19 15.501 31s6.5 27.5 8.5 46.5s3.33301 42.667 4 71s1 62.833 1 103.5z" />
    <glyph glyph-name="Ntilde" unicode="&#xd1;" horiz-adv-x="477" 
d="M334 0l-184 487v-487h-86v712h80l183 -487l-1 487h86v-712h-78zM376 813c-17.333 -17.333 -32.1689 -28.668 -44.502 -34.001s-24.5 -8 -36.5 -8c-11.333 0 -21.166 1.33301 -29.499 4s-17.5 7 -27.5 13c-15.333 10 -29.666 15 -42.999 15
c-6.66699 0 -13.167 -1.16699 -19.5 -3.5s-14.833 -8.83301 -25.5 -19.5l-37 37c17.333 17.333 31.833 28.833 43.5 34.5s23.834 8.5 36.501 8.5c11.333 0 21.166 -1.16699 29.499 -3.5s17.833 -6.83301 28.5 -13.5c7.33301 -4.66699 14.5 -8.5 21.5 -11.5
s14.167 -4.5 21.5 -4.5c6 0 12.167 1.33301 18.5 4s14.833 9.33398 25.5 20.001z" />
    <glyph glyph-name="Ograve" unicode="&#xd2;" horiz-adv-x="442" 
d="M395 356c0 -44.667 -0.333008 -83.5 -1 -116.5s-2.66699 -61.833 -6 -86.5s-8.5 -45.834 -15.5 -63.501s-16.5 -33.167 -28.5 -46.5c-13.333 -15.333 -30 -27.666 -50 -36.999s-44.333 -14 -73 -14s-52.834 4.66699 -72.501 14s-36.167 21.666 -49.5 36.999
c-12 13.333 -21.5 28.833 -28.5 46.5s-12.333 38.834 -16 63.501s-5.83398 53.5 -6.50098 86.5s-1 71.833 -1 116.5s0.333008 83.5 1 116.5s2.83398 61.833 6.50098 86.5s9 45.834 16 63.501s16.5 33.167 28.5 46.5c13.333 15.333 29.833 27.666 49.5 36.999
s43.834 14 72.501 14s53 -4.66699 73 -14s36.667 -21.666 50 -36.999c12 -13.333 21.5 -28.833 28.5 -46.5s12.167 -38.834 15.5 -63.501s5.33301 -53.5 6 -86.5s1 -71.833 1 -116.5zM309 356c0 42 -0.333008 77.667 -1 107s-2.16699 53.833 -4.5 73.5s-5.5 35.667 -9.5 48
s-9 22.833 -15 31.5c-6 8 -13.667 14.5 -23 19.5s-21 7.5 -35 7.5s-25.667 -2.5 -35 -7.5s-17 -11.5 -23 -19.5c-6 -8.66699 -11 -19.167 -15 -31.5s-7.16699 -28.333 -9.5 -48s-3.83301 -44.167 -4.5 -73.5s-1 -65 -1 -107s0.333008 -77.667 1 -107
s2.16699 -53.833 4.5 -73.5s5.5 -35.667 9.5 -48s9 -22.833 15 -31.5c6 -8 13.667 -14.5 23 -19.5s21 -7.5 35 -7.5s25.667 2.5 35 7.5s17 11.5 23 19.5c6 8.66699 11 19.167 15 31.5s7.16699 28.333 9.5 48s3.83301 44.167 4.5 73.5s1 65 1 107zM192 761l-81 135h74
l69 -135h-62z" />
    <glyph glyph-name="Oacute" unicode="&#xd3;" horiz-adv-x="442" 
d="M395 356c0 -44.667 -0.333008 -83.5 -1 -116.5s-2.66699 -61.833 -6 -86.5s-8.5 -45.834 -15.5 -63.501s-16.5 -33.167 -28.5 -46.5c-13.333 -15.333 -30 -27.666 -50 -36.999s-44.333 -14 -73 -14s-52.834 4.66699 -72.501 14s-36.167 21.666 -49.5 36.999
c-12 13.333 -21.5 28.833 -28.5 46.5s-12.333 38.834 -16 63.501s-5.83398 53.5 -6.50098 86.5s-1 71.833 -1 116.5s0.333008 83.5 1 116.5s2.83398 61.833 6.50098 86.5s9 45.834 16 63.501s16.5 33.167 28.5 46.5c13.333 15.333 29.833 27.666 49.5 36.999
s43.834 14 72.501 14s53 -4.66699 73 -14s36.667 -21.666 50 -36.999c12 -13.333 21.5 -28.833 28.5 -46.5s12.167 -38.834 15.5 -63.501s5.33301 -53.5 6 -86.5s1 -71.833 1 -116.5zM309 356c0 42 -0.333008 77.667 -1 107s-2.16699 53.833 -4.5 73.5s-5.5 35.667 -9.5 48
s-9 22.833 -15 31.5c-6 8 -13.667 14.5 -23 19.5s-21 7.5 -35 7.5s-25.667 -2.5 -35 -7.5s-17 -11.5 -23 -19.5c-6 -8.66699 -11 -19.167 -15 -31.5s-7.16699 -28.333 -9.5 -48s-3.83301 -44.167 -4.5 -73.5s-1 -65 -1 -107s0.333008 -77.667 1 -107
s2.16699 -53.833 4.5 -73.5s5.5 -35.667 9.5 -48s9 -22.833 15 -31.5c6 -8 13.667 -14.5 23 -19.5s21 -7.5 35 -7.5s25.667 2.5 35 7.5s17 11.5 23 19.5c6 8.66699 11 19.167 15 31.5s7.16699 28.333 9.5 48s3.83301 44.167 4.5 73.5s1 65 1 107zM242 761h-61l68 135h74z
" />
    <glyph glyph-name="Ocircumflex" unicode="&#xd4;" horiz-adv-x="442" 
d="M395 356c0 -44.667 -0.333008 -83.5 -1 -116.5s-2.66699 -61.833 -6 -86.5s-8.5 -45.834 -15.5 -63.501s-16.5 -33.167 -28.5 -46.5c-13.333 -15.333 -30 -27.666 -50 -36.999s-44.333 -14 -73 -14s-52.834 4.66699 -72.501 14s-36.167 21.666 -49.5 36.999
c-12 13.333 -21.5 28.833 -28.5 46.5s-12.333 38.834 -16 63.501s-5.83398 53.5 -6.50098 86.5s-1 71.833 -1 116.5s0.333008 83.5 1 116.5s2.83398 61.833 6.50098 86.5s9 45.834 16 63.501s16.5 33.167 28.5 46.5c13.333 15.333 29.833 27.666 49.5 36.999
s43.834 14 72.501 14s53 -4.66699 73 -14s36.667 -21.666 50 -36.999c12 -13.333 21.5 -28.833 28.5 -46.5s12.167 -38.834 15.5 -63.501s5.33301 -53.5 6 -86.5s1 -71.833 1 -116.5zM309 356c0 42 -0.333008 77.667 -1 107s-2.16699 53.833 -4.5 73.5s-5.5 35.667 -9.5 48
s-9 22.833 -15 31.5c-6 8 -13.667 14.5 -23 19.5s-21 7.5 -35 7.5s-25.667 -2.5 -35 -7.5s-17 -11.5 -23 -19.5c-6 -8.66699 -11 -19.167 -15 -31.5s-7.16699 -28.333 -9.5 -48s-3.83301 -44.167 -4.5 -73.5s-1 -65 -1 -107s0.333008 -77.667 1 -107
s2.16699 -53.833 4.5 -73.5s5.5 -35.667 9.5 -48s9 -22.833 15 -31.5c6 -8 13.667 -14.5 23 -19.5s21 -7.5 35 -7.5s25.667 2.5 35 7.5s17 11.5 23 19.5c6 8.66699 11 19.167 15 31.5s7.16699 28.333 9.5 48s3.83301 44.167 4.5 73.5s1 65 1 107zM277 761l-60 87l-59 -87
h-67l93 135h67l92 -135h-66z" />
    <glyph glyph-name="Otilde" unicode="&#xd5;" horiz-adv-x="442" 
d="M395 356c0 -44.667 -0.333008 -83.5 -1 -116.5s-2.66699 -61.833 -6 -86.5s-8.5 -45.834 -15.5 -63.501s-16.5 -33.167 -28.5 -46.5c-13.333 -15.333 -30 -27.666 -50 -36.999s-44.333 -14 -73 -14s-52.834 4.66699 -72.501 14s-36.167 21.666 -49.5 36.999
c-12 13.333 -21.5 28.833 -28.5 46.5s-12.333 38.834 -16 63.501s-5.83398 53.5 -6.50098 86.5s-1 71.833 -1 116.5s0.333008 83.5 1 116.5s2.83398 61.833 6.50098 86.5s9 45.834 16 63.501s16.5 33.167 28.5 46.5c13.333 15.333 29.833 27.666 49.5 36.999
s43.834 14 72.501 14s53 -4.66699 73 -14s36.667 -21.666 50 -36.999c12 -13.333 21.5 -28.833 28.5 -46.5s12.167 -38.834 15.5 -63.501s5.33301 -53.5 6 -86.5s1 -71.833 1 -116.5zM309 356c0 42 -0.333008 77.667 -1 107s-2.16699 53.833 -4.5 73.5s-5.5 35.667 -9.5 48
s-9 22.833 -15 31.5c-6 8 -13.667 14.5 -23 19.5s-21 7.5 -35 7.5s-25.667 -2.5 -35 -7.5s-17 -11.5 -23 -19.5c-6 -8.66699 -11 -19.167 -15 -31.5s-7.16699 -28.333 -9.5 -48s-3.83301 -44.167 -4.5 -73.5s-1 -65 -1 -107s0.333008 -77.667 1 -107
s2.16699 -53.833 4.5 -73.5s5.5 -35.667 9.5 -48s9 -22.833 15 -31.5c6 -8 13.667 -14.5 23 -19.5s21 -7.5 35 -7.5s25.667 2.5 35 7.5s17 11.5 23 19.5c6 8.66699 11 19.167 15 31.5s7.16699 28.333 9.5 48s3.83301 44.167 4.5 73.5s1 65 1 107zM351 813
c-17.333 -17.333 -32.1689 -28.668 -44.502 -34.001s-24.5 -8 -36.5 -8c-11.333 0 -21.166 1.33301 -29.499 4s-17.5 7 -27.5 13c-15.333 10 -29.666 15 -42.999 15c-6.66699 0 -13.167 -1.16699 -19.5 -3.5s-14.833 -8.83301 -25.5 -19.5l-37 37
c17.333 17.333 31.833 28.833 43.5 34.5s23.834 8.5 36.501 8.5c11.333 0 21.166 -1.16699 29.499 -3.5s17.833 -6.83301 28.5 -13.5c7.33301 -4.66699 14.5 -8.5 21.5 -11.5s14.167 -4.5 21.5 -4.5c6 0 12.167 1.33301 18.5 4s14.833 9.33398 25.5 20.001z" />
    <glyph glyph-name="Odieresis" unicode="&#xd6;" horiz-adv-x="442" 
d="M395 356c0 -44.667 -0.333008 -83.5 -1 -116.5s-2.66699 -61.833 -6 -86.5s-8.5 -45.834 -15.5 -63.501s-16.5 -33.167 -28.5 -46.5c-13.333 -15.333 -30 -27.666 -50 -36.999s-44.333 -14 -73 -14s-52.834 4.66699 -72.501 14s-36.167 21.666 -49.5 36.999
c-12 13.333 -21.5 28.833 -28.5 46.5s-12.333 38.834 -16 63.501s-5.83398 53.5 -6.50098 86.5s-1 71.833 -1 116.5s0.333008 83.5 1 116.5s2.83398 61.833 6.50098 86.5s9 45.834 16 63.501s16.5 33.167 28.5 46.5c13.333 15.333 29.833 27.666 49.5 36.999
s43.834 14 72.501 14s53 -4.66699 73 -14s36.667 -21.666 50 -36.999c12 -13.333 21.5 -28.833 28.5 -46.5s12.167 -38.834 15.5 -63.501s5.33301 -53.5 6 -86.5s1 -71.833 1 -116.5zM309 356c0 42 -0.333008 77.667 -1 107s-2.16699 53.833 -4.5 73.5s-5.5 35.667 -9.5 48
s-9 22.833 -15 31.5c-6 8 -13.667 14.5 -23 19.5s-21 7.5 -35 7.5s-25.667 -2.5 -35 -7.5s-17 -11.5 -23 -19.5c-6 -8.66699 -11 -19.167 -15 -31.5s-7.16699 -28.333 -9.5 -48s-3.83301 -44.167 -4.5 -73.5s-1 -65 -1 -107s0.333008 -77.667 1 -107
s2.16699 -53.833 4.5 -73.5s5.5 -35.667 9.5 -48s9 -22.833 15 -31.5c6 -8 13.667 -14.5 23 -19.5s21 -7.5 35 -7.5s25.667 2.5 35 7.5s17 11.5 23 19.5c6 8.66699 11 19.167 15 31.5s7.16699 28.333 9.5 48s3.83301 44.167 4.5 73.5s1 65 1 107zM98 776v82h82v-82h-82z
M255 776v82h81v-82h-81z" />
    <glyph glyph-name="multiply" unicode="&#xd7;" horiz-adv-x="444" 
d="M339 109l-117 116l-116 -116l-53 52l117 117l-117 116l53 53l116 -117l117 117l52 -53l-116 -116l116 -117z" />
    <glyph glyph-name="Oslash" unicode="&#xd8;" horiz-adv-x="431" 
d="M395 356c0 -44.667 -0.335938 -83.501 -1.00293 -116.501s-2.66699 -61.833 -6 -86.5s-8.5 -45.834 -15.5 -63.501s-16.5 -33.167 -28.5 -46.5c-13.333 -15.333 -30 -27.666 -50 -36.999s-44.333 -14 -73 -14c-34 0 -61.667 6.33301 -83 19l-19 -55h-62l34 96
c-10.667 13.333 -18.834 29 -24.501 47s-10 39.333 -13 64s-4.83301 52.834 -5.5 84.501s-1 67.834 -1 108.501c0 44.667 0.333008 83.5 1 116.5s2.83398 61.833 6.50098 86.5s9 45.834 16 63.501s16.5 33.167 28.5 46.5c13.333 15.333 29.833 27.666 49.5 36.999
s43.834 14 72.501 14c32.667 0 60.334 -6.66699 83.001 -20l19 56h62l-33 -97c10 -13.333 18 -29 24 -47s10.333 -39.333 13 -64s4.33398 -52.834 5.00098 -84.501s1 -67.5 1 -107.5zM276.997 619.999c-13.333 15.333 -31.999 23 -55.999 23c-14 0 -25.667 -2.5 -35 -7.5
s-17 -11.5 -23 -19.5c-6 -8.66699 -11 -19.167 -15 -31.5s-7.16699 -28.333 -9.5 -48s-3.83301 -44.167 -4.5 -73.5s-1 -65 -1 -107c0 -24.667 0.166992 -46.167 0.5 -64.5s0.666016 -34.5 0.999023 -48.5s1 -26 2 -36s2.5 -19 4.5 -27zM308.998 355.999
c0 48 -0.500977 85.333 -1.50098 112s-3.16699 47.667 -6.5 63l-136 -440c12.667 -14.667 31.334 -22 56.001 -22c14 0 25.667 2.5 35 7.5s17 11.5 23 19.5c6 8.66699 11 19.167 15 31.5s7.16699 28.333 9.5 48s3.83301 44.167 4.5 73.5s1 65 1 107z" />
    <glyph glyph-name="Ugrave" unicode="&#xd9;" horiz-adv-x="445" 
d="M387 162c0 -26 -4.00195 -49.333 -12.002 -70s-19.333 -38.334 -34 -53.001c-15.333 -15.333 -33.166 -27 -53.499 -35s-42.166 -12 -65.499 -12c-47.333 0 -86.666 15.667 -117.999 47c-14.667 14.667 -26 32.334 -34 53.001s-12 44 -12 70v550h86v-555
c0 -28 7.66699 -49.667 23 -65s33.666 -23 54.999 -23s39.833 7.66699 55.5 23s23.5 37 23.5 65v555h86v-550zM199.998 761l-81 135h74l69 -135h-62z" />
    <glyph glyph-name="Uacute" unicode="&#xda;" horiz-adv-x="445" 
d="M387 162c0 -26 -4.00195 -49.333 -12.002 -70s-19.333 -38.334 -34 -53.001c-15.333 -15.333 -33.166 -27 -53.499 -35s-42.166 -12 -65.499 -12c-47.333 0 -86.666 15.667 -117.999 47c-14.667 14.667 -26 32.334 -34 53.001s-12 44 -12 70v550h86v-555
c0 -28 7.66699 -49.667 23 -65s33.666 -23 54.999 -23s39.833 7.66699 55.5 23s23.5 37 23.5 65v555h86v-550zM249.998 761h-61l68 135h74z" />
    <glyph glyph-name="Ucircumflex" unicode="&#xdb;" horiz-adv-x="445" 
d="M387 162c0 -26 -4.00195 -49.333 -12.002 -70s-19.333 -38.334 -34 -53.001c-15.333 -15.333 -33.166 -27 -53.499 -35s-42.166 -12 -65.499 -12c-47.333 0 -86.666 15.667 -117.999 47c-14.667 14.667 -26 32.334 -34 53.001s-12 44 -12 70v550h86v-555
c0 -28 7.66699 -49.667 23 -65s33.666 -23 54.999 -23s39.833 7.66699 55.5 23s23.5 37 23.5 65v555h86v-550zM284.998 761l-60 87l-59 -87h-67l93 135h67l92 -135h-66z" />
    <glyph glyph-name="Udieresis" unicode="&#xdc;" horiz-adv-x="445" 
d="M387 162c0 -26 -4.00195 -49.333 -12.002 -70s-19.333 -38.334 -34 -53.001c-15.333 -15.333 -33.166 -27 -53.499 -35s-42.166 -12 -65.499 -12c-47.333 0 -86.666 15.667 -117.999 47c-14.667 14.667 -26 32.334 -34 53.001s-12 44 -12 70v550h86v-555
c0 -28 7.66699 -49.667 23 -65s33.666 -23 54.999 -23s39.833 7.66699 55.5 23s23.5 37 23.5 65v555h86v-550zM105.998 776v82h82v-82h-82zM262.998 776v82h81v-82h-81z" />
    <glyph glyph-name="Yacute" unicode="&#xdd;" horiz-adv-x="353" 
d="M219 288v-288h-86v288l-131 424h94l80 -304l80 304h95zM203 761h-61l68 135h74z" />
    <glyph glyph-name="Thorn" unicode="&#xde;" horiz-adv-x="435" 
d="M393 360c0 -74 -13.333 -127.167 -40 -159.5s-69.667 -48.5 -129 -48.5h-74v-152h-86v712h86v-144h74c26.667 0 50.5 -3.5 71.5 -10.5s38.833 -18.5 53.5 -34.5s25.667 -37.333 33 -64s11 -59.667 11 -99zM307 360c0 19.333 -1.16797 37.001 -3.50098 53.001
s-6.5 29.667 -12.5 41s-14.167 20.166 -24.5 26.499s-23.833 9.5 -40.5 9.5h-76v-261h76c32.667 0 54.334 12 65.001 36s16 55.667 16 95z" />
    <glyph glyph-name="germandbls" unicode="&#xdf;" horiz-adv-x="394" 
d="M355 219c0 -21.333 -0.333008 -40.6689 -1 -58.002s-2.5 -33.5 -5.5 -48.5s-7.33301 -28.667 -13 -41s-13.834 -23.833 -24.501 -34.5c-15.333 -14.667 -32.5 -24.5 -51.5 -29.5s-38.5 -7.5 -58.5 -7.5v73c10 0 19.667 1.16699 29 3.5s17 7.16602 23 14.499
c9.33301 11.333 15.166 27.5 17.499 48.5s3.5 49.5 3.5 85.5c0 33.333 -1.16699 60.5 -3.5 81.5s-7.83301 37.167 -16.5 48.5c-10 13.333 -25 20 -45 20h-8v69h7c15.333 0 28 6 38 18c9.33301 11.333 14.833 24.5 16.5 39.5s2.5 29.5 2.5 43.5c0 18 -1.16699 34 -3.5 48
s-7.5 25.667 -15.5 35c-10.667 12.667 -25.667 19 -45 19c-17.333 0 -32.166 -5.83301 -44.499 -17.5s-18.5 -30.167 -18.5 -55.5v-574h-81v571c0 27.333 3.66699 49.333 11 66s17.333 31.334 30 44.001c12.667 12 27.834 21.5 45.501 28.5s36.5 10.5 56.5 10.5s39 -3 57 -9
s33.667 -15.667 47 -29c17.333 -17.333 28.666 -36.5 33.999 -57.5s8 -45.5 8 -73.5c0 -17.333 -1 -34.5 -3 -51.5s-7 -33.167 -15 -48.5s-20 -28.333 -36 -39c14.667 -9.33301 26.334 -20.333 35.001 -33c6 -8 10.833 -16.667 14.5 -26s6.5 -20.166 8.5 -32.499
s3.33301 -26.666 4 -42.999s1 -35.833 1 -58.5z" />
    <glyph glyph-name="agrave" unicode="&#xe0;" horiz-adv-x="375" 
d="M244 0l-0.000976562 46.001c-4 -7.33301 -8.66699 -14 -14 -20s-10.666 -11 -15.999 -15c-8 -6 -16.833 -10.667 -26.5 -14s-21.167 -5 -34.5 -5c-19.333 0 -36 3.16699 -50 9.5s-27 16.166 -39 29.499c-22 24 -33 62.667 -33 116c0 24 3.83301 46.167 11.5 66.5
s19.167 37.166 34.5 50.499c12.667 11.333 27.334 20 44.001 26s38.667 9 66 9h53v82c0 49.333 -20.333 74 -61 74c-16.667 0 -30 -5.66699 -40 -17c-7.33301 -7.33301 -12.333 -15.666 -15 -24.999s-4 -21 -4 -35h-81c0 20 2.83301 39.5 8.5 58.5s16.167 36.167 31.5 51.5
c11.333 11.333 25.666 20.5 42.999 27.5s36.333 10.5 57 10.5s39.667 -3 57 -9s32 -15 44 -27c12.667 -13.333 22.667 -29 30 -47s11 -40.333 11 -67v-376h-77zM239.999 240.001l-45.999 -0.000976562c-12.667 0 -23.5 -1.33301 -32.5 -4s-17.5 -7.66699 -25.5 -15
s-14 -17.5 -18 -30.5s-6 -26.5 -6 -40.5c0 -27.333 5.16699 -48.666 15.5 -63.999s26.166 -23 47.499 -23c19.333 0 35 7.5 47 22.5s18 34.5 18 58.5v96zM160 586l-81 135h74l69 -135h-62z" />
    <glyph glyph-name="aacute" unicode="&#xe1;" horiz-adv-x="375" 
d="M245 0l0.000976562 46.0029c-4 -7.33301 -8.66699 -14 -14 -20s-10.666 -11 -15.999 -15c-8 -6 -16.667 -10.667 -26 -14s-21 -5 -35 -5c-19.333 0 -36 3.16699 -50 9.5s-27 16.166 -39 29.499c-10 11.333 -18 26.666 -24 45.999s-9 42.666 -9 69.999
c0 24 3.83301 46.167 11.5 66.5s19.167 37.166 34.5 50.499c13.333 11.333 28.166 20 44.499 26s38.166 9 65.499 9h53v82c0 49.333 -20.333 74 -61 74c-9.33301 0 -17 -1.5 -23 -4.5s-11.667 -7.16699 -17 -12.5c-7.33301 -7.33301 -12.333 -15.666 -15 -24.999
s-4 -21 -4 -35h-81c0 20 2.83301 39.5 8.5 58.5s16.167 36.167 31.5 51.5c11.333 11.333 25.833 20.5 43.5 27.5s36.5 10.5 56.5 10.5c43.333 0 77 -12 101 -36c12.667 -13.333 22.667 -29 30 -47s11 -40.333 11 -67v-376h-77zM241.001 240.003l-46 -0.000976562
c-12.667 0 -23.5 -1.33301 -32.5 -4s-17.5 -7.66699 -25.5 -15c-7.33301 -7.33301 -13.166 -17.5 -17.499 -30.5s-6.5 -26.5 -6.5 -40.5c0 -27.333 5.16699 -48.666 15.5 -63.999s26.166 -23 47.499 -23c19.333 0 35 7.5 47 22.5s18 34.5 18 58.5v96zM210.001 586.002h-61
l68 135h74z" />
    <glyph glyph-name="acircumflex" unicode="&#xe2;" horiz-adv-x="375" 
d="M245 0l0.000976562 46.0029c-4 -7.33301 -8.66699 -14 -14 -20s-10.666 -11 -15.999 -15c-8 -6 -16.667 -10.667 -26 -14s-21 -5 -35 -5c-19.333 0 -36 3.16699 -50 9.5s-27 16.166 -39 29.499c-10 11.333 -18 26.666 -24 45.999s-9 42.666 -9 69.999
c0 24 3.83301 46.167 11.5 66.5s19.167 37.166 34.5 50.499c13.333 11.333 28.166 20 44.499 26s38.166 9 65.499 9h53v82c0 49.333 -20.333 74 -61 74c-9.33301 0 -17 -1.5 -23 -4.5s-11.667 -7.16699 -17 -12.5c-7.33301 -7.33301 -12.333 -15.666 -15 -24.999
s-4 -21 -4 -35h-81c0 20 2.83301 39.5 8.5 58.5s16.167 36.167 31.5 51.5c11.333 11.333 25.833 20.5 43.5 27.5s36.5 10.5 56.5 10.5c43.333 0 77 -12 101 -36c12.667 -13.333 22.667 -29 30 -47s11 -40.333 11 -67v-376h-77zM241.001 240.003l-46 -0.000976562
c-12.667 0 -23.5 -1.33301 -32.5 -4s-17.5 -7.66699 -25.5 -15c-7.33301 -7.33301 -13.166 -17.5 -17.499 -30.5s-6.5 -26.5 -6.5 -40.5c0 -27.333 5.16699 -48.666 15.5 -63.999s26.166 -23 47.499 -23c19.333 0 35 7.5 47 22.5s18 34.5 18 58.5v96zM243.001 586.002
l-60 87l-59 -87h-67l93 135h67l92 -135h-66z" />
    <glyph glyph-name="atilde" unicode="&#xe3;" horiz-adv-x="375" 
d="M245 0l0.000976562 46.0029c-4 -7.33301 -8.66699 -14 -14 -20s-10.666 -11 -15.999 -15c-8 -6 -16.667 -10.667 -26 -14s-21 -5 -35 -5c-19.333 0 -36 3.16699 -50 9.5s-27 16.166 -39 29.499c-10 11.333 -18 26.666 -24 45.999s-9 42.666 -9 69.999
c0 24 3.83301 46.167 11.5 66.5s19.167 37.166 34.5 50.499c13.333 11.333 28.166 20 44.499 26s38.166 9 65.499 9h53v82c0 49.333 -20.333 74 -61 74c-9.33301 0 -17 -1.5 -23 -4.5s-11.667 -7.16699 -17 -12.5c-7.33301 -7.33301 -12.333 -15.666 -15 -24.999
s-4 -21 -4 -35h-81c0 20 2.83301 39.5 8.5 58.5s16.167 36.167 31.5 51.5c11.333 11.333 25.833 20.5 43.5 27.5s36.5 10.5 56.5 10.5c43.333 0 77 -12 101 -36c12.667 -13.333 22.667 -29 30 -47s11 -40.333 11 -67v-376h-77zM241.001 240.003l-46 -0.000976562
c-12.667 0 -23.5 -1.33301 -32.5 -4s-17.5 -7.66699 -25.5 -15c-7.33301 -7.33301 -13.166 -17.5 -17.499 -30.5s-6.5 -26.5 -6.5 -40.5c0 -27.333 5.16699 -48.666 15.5 -63.999s26.166 -23 47.499 -23c19.333 0 35 7.5 47 22.5s18 34.5 18 58.5v96zM317.001 638.002
c-17.333 -17.333 -32.1689 -28.668 -44.502 -34.001s-24.5 -8 -36.5 -8c-11.333 0 -21.166 1.33301 -29.499 4s-17.5 7 -27.5 13c-15.333 10 -29.666 15 -42.999 15c-6.66699 0 -13.167 -1.16699 -19.5 -3.5s-14.833 -8.83301 -25.5 -19.5l-37 37
c17.333 17.333 31.833 28.833 43.5 34.5s23.834 8.5 36.501 8.5c11.333 0 21.166 -1.16699 29.499 -3.5s17.833 -6.83301 28.5 -13.5c7.33301 -4.66699 14.5 -8.5 21.5 -11.5s14.167 -4.5 21.5 -4.5c6 0 12.167 1.33301 18.5 4s14.833 9.33398 25.5 20.001z" />
    <glyph glyph-name="adieresis" unicode="&#xe4;" horiz-adv-x="375" 
d="M245 0l0.000976562 46.0029c-4 -7.33301 -8.66699 -14 -14 -20s-10.666 -11 -15.999 -15c-8 -6 -16.667 -10.667 -26 -14s-21 -5 -35 -5c-19.333 0 -36 3.16699 -50 9.5s-27 16.166 -39 29.499c-10 11.333 -18 26.666 -24 45.999s-9 42.666 -9 69.999
c0 24 3.83301 46.167 11.5 66.5s19.167 37.166 34.5 50.499c13.333 11.333 28.166 20 44.499 26s38.166 9 65.499 9h53v82c0 49.333 -20.333 74 -61 74c-9.33301 0 -17 -1.5 -23 -4.5s-11.667 -7.16699 -17 -12.5c-7.33301 -7.33301 -12.333 -15.666 -15 -24.999
s-4 -21 -4 -35h-81c0 20 2.83301 39.5 8.5 58.5s16.167 36.167 31.5 51.5c11.333 11.333 25.833 20.5 43.5 27.5s36.5 10.5 56.5 10.5c43.333 0 77 -12 101 -36c12.667 -13.333 22.667 -29 30 -47s11 -40.333 11 -67v-376h-77zM241.001 240.003l-46 -0.000976562
c-12.667 0 -23.5 -1.33301 -32.5 -4s-17.5 -7.66699 -25.5 -15c-7.33301 -7.33301 -13.166 -17.5 -17.499 -30.5s-6.5 -26.5 -6.5 -40.5c0 -27.333 5.16699 -48.666 15.5 -63.999s26.166 -23 47.499 -23c19.333 0 35 7.5 47 22.5s18 34.5 18 58.5v96zM64.001 601.002v82h82
v-82h-82zM221.001 601.002v82h81v-82h-81z" />
    <glyph glyph-name="aring" unicode="&#xe5;" horiz-adv-x="375" 
d="M245 0l0.000976562 46.0029c-4 -7.33301 -8.66699 -14 -14 -20s-10.666 -11 -15.999 -15c-8 -6 -16.667 -10.667 -26 -14s-21 -5 -35 -5c-19.333 0 -36 3.16699 -50 9.5s-27 16.166 -39 29.499c-10 11.333 -18 26.666 -24 45.999s-9 42.666 -9 69.999
c0 24 3.83301 46.167 11.5 66.5s19.167 37.166 34.5 50.499c13.333 11.333 28.166 20 44.499 26s38.166 9 65.499 9h53v82c0 49.333 -20.333 74 -61 74c-9.33301 0 -17 -1.5 -23 -4.5s-11.667 -7.16699 -17 -12.5c-7.33301 -7.33301 -12.333 -15.666 -15 -24.999
s-4 -21 -4 -35h-81c0 20 2.83301 39.5 8.5 58.5s16.167 36.167 31.5 51.5c11.333 11.333 25.833 20.5 43.5 27.5s36.5 10.5 56.5 10.5c43.333 0 77 -12 101 -36c12.667 -13.333 22.667 -29 30 -47s11 -40.333 11 -67v-376h-77zM281.001 682.003
c0 -27.333 -9.5 -50.5 -28.5 -69.5s-42.167 -28.5 -69.5 -28.5s-50.333 9.5 -69 28.5s-28 42.167 -28 69.5s9.33301 50.333 28 69s41.667 28 69 28s50.5 -9.33301 69.5 -28s28.5 -41.667 28.5 -69zM241.001 240.003l-46 -0.000976562c-12.667 0 -23.5 -1.33301 -32.5 -4
s-17.5 -7.66699 -25.5 -15c-7.33301 -7.33301 -13.166 -17.5 -17.499 -30.5s-6.5 -26.5 -6.5 -40.5c0 -27.333 5.16699 -48.666 15.5 -63.999s26.166 -23 47.499 -23c19.333 0 35 7.5 47 22.5s18 34.5 18 58.5v96zM232.001 682.002c0 13.333 -4.83301 24.833 -14.5 34.5
s-21.167 14.5 -34.5 14.5s-24.833 -4.83301 -34.5 -14.5s-14.5 -21.167 -14.5 -34.5s4.83301 -25 14.5 -35s21.167 -15 34.5 -15s24.833 5 34.5 15s14.5 21.667 14.5 35z" />
    <glyph glyph-name="ae" unicode="&#xe6;" horiz-adv-x="573" 
d="M322 240c0 -41.333 1.17285 -74.3262 3.50586 -98.9932s8.16602 -42.667 17.499 -54c5.33301 -6 11.666 -11.167 18.999 -15.5s16.333 -6.5 27 -6.5c18.667 0 34 6.66699 46 20c12 14 18 33.667 18 59h80c-0.666992 -23.333 -4.16699 -44.333 -10.5 -63
s-16.5 -35.667 -30.5 -51c-12.667 -13.333 -27.834 -23 -45.501 -29s-36.834 -9 -57.501 -9c-33.333 0 -62 9.33301 -86 28c-14.667 11.333 -26.667 26 -36 44c-5.33301 -10.667 -11.333 -20.334 -18 -29.001s-13.667 -15.667 -21 -21
c-18.667 -14.667 -43.334 -22 -74.001 -22c-19.333 0 -36 3.16699 -50 9.5s-27 16.166 -39 29.499c-10 11.333 -18 26.666 -24 45.999s-9 42.666 -9 69.999c0 24 3.83301 46.167 11.5 66.5s19.167 37.166 34.5 50.499c13.333 11.333 28.166 20 44.499 26s38.166 9 65.499 9
h53v82c0 49.333 -20.333 74 -61 74c-16.667 0 -30.334 -6 -41.001 -18c-12 -14 -18 -33.667 -18 -59h-81c0 20 2.83301 39.5 8.5 58.5s16.167 36.167 31.5 51.5c11.333 11.333 25.833 20.5 43.5 27.5s36.5 10.5 56.5 10.5c17.333 0 33.333 -2 48 -6
s27.334 -10.667 38.001 -20c6.66699 -6 13 -13.667 19 -23c4 6.66699 9 12.667 15 18c22.667 20.667 52 31 88 31c21.333 0 40.333 -3 57 -9s31.667 -16.333 45 -31c10.667 -12 19 -26.333 25 -43s10.333 -35.334 13 -56.001s4.33398 -43.334 5.00098 -68.001s1 -51 1 -79
h-212zM241.006 240.007l-46 -0.000976562c-12.667 0 -23.5 -1.33301 -32.5 -4s-17.5 -7.66699 -25.5 -15c-7.33301 -7.33301 -13.166 -17.5 -17.499 -30.5s-6.5 -26.5 -6.5 -40.5c0 -27.333 5.16699 -48.666 15.5 -63.999s26.166 -23 47.499 -23c19.333 0 35 7.5 47 22.5
s18 34.5 18 58.5v96zM453.006 301.006c0 35.333 -1.33301 63.666 -4 84.999s-8 36.666 -16 45.999c-5.33301 6 -11.5 11.167 -18.5 15.5s-15.833 6.5 -26.5 6.5s-19.5 -2.16699 -26.5 -6.5s-13.167 -9.5 -18.5 -15.5c-8 -9.33301 -13.5 -24.666 -16.5 -45.999
s-4.5 -49.666 -4.5 -84.999h131z" />
    <glyph glyph-name="ccedilla" unicode="&#xe7;" horiz-adv-x="362" 
d="M329 144c-0.666992 -24.667 -4.16797 -46.8301 -10.501 -66.4971s-16.166 -36.167 -29.499 -49.5c-12 -12.667 -26.667 -21.834 -44 -27.501s-36.666 -8.5 -57.999 -8.5c-22 0 -42.333 3.66699 -61 11s-34.667 19.666 -48 36.999c-16 20.667 -26.333 49.167 -31 85.5
s-7 80.833 -7 133.5s2.33301 97.167 7 133.5s15 64.833 31 85.5c13.333 17.333 29.333 29.666 48 36.999s39 11 61 11c21.333 0 40.166 -2.33301 56.499 -7s31.166 -13.667 44.499 -27c15.333 -15.333 25.833 -33.5 31.5 -54.5s8.83398 -42.167 9.50098 -63.5h-80
c0 10.667 -0.833008 21.167 -2.5 31.5s-6.16699 19.833 -13.5 28.5c-11.333 13.333 -26.333 20 -45 20c-20 0 -35.333 -7.33301 -46 -22c-9.33301 -13.333 -15.166 -33.833 -17.499 -61.5s-3.5 -64.834 -3.5 -111.501s1.16699 -83.667 3.5 -111
s8.16602 -47.666 17.499 -60.999c10.667 -14.667 26 -22 46 -22c18 0 32.667 6.33301 44 19c7.33301 8 12 17 14 27s3 21 3 33h80zM175.999 -181.996h-64l57 144h57z" />
    <glyph glyph-name="egrave" unicode="&#xe8;" 
d="M163 240c0 -41.333 1.33594 -74.334 4.00293 -99.001s8.66699 -42.667 18 -54c5.33301 -6 11.5 -11.167 18.5 -15.5s15.833 -6.5 26.5 -6.5c18.667 0 34 6.66699 46 20c12 14 18 33.667 18 59h80c-0.666992 -23.333 -4.16699 -44.333 -10.5 -63s-16.5 -35.667 -30.5 -51
c-12.667 -13.333 -27.834 -23 -45.501 -29s-36.834 -9 -57.501 -9c-22.667 0 -42 3.16699 -58 9.5s-30.667 16.5 -44 30.5c-20 20.667 -32.667 50 -38 88s-8 84.333 -8 139s2.5 101 7.5 139s17.5 67.333 37.5 88c26 26.667 60 40 102 40c21.333 0 40.333 -3 57 -9
s31.667 -16.333 45 -31c21.333 -23.333 34.166 -56.166 38.499 -98.499s6.5 -91.5 6.5 -147.5h-213zM295.003 300.999c0 35.333 -1.33398 63.666 -4.00098 84.999s-8 36.666 -16 45.999c-5.33301 6 -11.666 11.167 -18.999 15.5s-16.333 6.5 -27 6.5
s-19.5 -2.16699 -26.5 -6.5s-13.167 -9.5 -18.5 -15.5c-8 -9.33301 -13.5 -24.666 -16.5 -45.999s-4.5 -49.666 -4.5 -84.999h132zM196.002 585.999l-81 135h74l69 -135h-62z" />
    <glyph glyph-name="eacute" unicode="&#xe9;" horiz-adv-x="372" 
d="M121 240c0 -41.333 1.33594 -74.334 4.00293 -99.001s8.66699 -42.667 18 -54c5.33301 -6 11.5 -11.167 18.5 -15.5s15.833 -6.5 26.5 -6.5c18.667 0 34 6.66699 46 20c12 14 18 33.667 18 59h80c-0.666992 -23.333 -4.16699 -44.333 -10.5 -63s-16.5 -35.667 -30.5 -51
c-12.667 -13.333 -27.834 -23 -45.501 -29s-36.834 -9 -57.501 -9c-22.667 0 -42 3.16699 -58 9.5s-30.667 16.5 -44 30.5c-20 20.667 -32.667 50 -38 88s-8 84.333 -8 139s2.5 101 7.5 139s17.5 67.333 37.5 88c26 26.667 60 40 102 40c21.333 0 40.333 -3 57 -9
s31.667 -16.333 45 -31c21.333 -23.333 34.166 -56.166 38.499 -98.499s6.5 -91.5 6.5 -147.5h-213zM253.003 300.999c0 35.333 -1.33398 63.666 -4.00098 84.999s-8 36.666 -16 45.999c-5.33301 6 -11.666 11.167 -18.999 15.5s-16.333 6.5 -27 6.5
s-19.5 -2.16699 -26.5 -6.5s-13.167 -9.5 -18.5 -15.5c-8 -9.33301 -13.5 -24.666 -16.5 -45.999s-4.5 -49.666 -4.5 -84.999h132zM213.002 585.999h-61l68 135h74z" />
    <glyph glyph-name="ecircumflex" unicode="&#xea;" horiz-adv-x="372" 
d="M121 240c0 -41.333 1.33594 -74.334 4.00293 -99.001s8.66699 -42.667 18 -54c5.33301 -6 11.5 -11.167 18.5 -15.5s15.833 -6.5 26.5 -6.5c18.667 0 34 6.66699 46 20c12 14 18 33.667 18 59h80c-0.666992 -23.333 -4.16699 -44.333 -10.5 -63s-16.5 -35.667 -30.5 -51
c-12.667 -13.333 -27.834 -23 -45.501 -29s-36.834 -9 -57.501 -9c-22.667 0 -42 3.16699 -58 9.5s-30.667 16.5 -44 30.5c-20 20.667 -32.667 50 -38 88s-8 84.333 -8 139s2.5 101 7.5 139s17.5 67.333 37.5 88c26 26.667 60 40 102 40c21.333 0 40.333 -3 57 -9
s31.667 -16.333 45 -31c21.333 -23.333 34.166 -56.166 38.499 -98.499s6.5 -91.5 6.5 -147.5h-213zM253.003 300.999c0 35.333 -1.33398 63.666 -4.00098 84.999s-8 36.666 -16 45.999c-5.33301 6 -11.666 11.167 -18.999 15.5s-16.333 6.5 -27 6.5
s-19.5 -2.16699 -26.5 -6.5s-13.167 -9.5 -18.5 -15.5c-8 -9.33301 -13.5 -24.666 -16.5 -45.999s-4.5 -49.666 -4.5 -84.999h132zM248.002 585.999l-60 87l-59 -87h-67l93 135h67l92 -135h-66z" />
    <glyph glyph-name="edieresis" unicode="&#xeb;" horiz-adv-x="372" 
d="M121 240c0 -41.333 1.33594 -74.334 4.00293 -99.001s8.66699 -42.667 18 -54c5.33301 -6 11.5 -11.167 18.5 -15.5s15.833 -6.5 26.5 -6.5c18.667 0 34 6.66699 46 20c12 14 18 33.667 18 59h80c-0.666992 -23.333 -4.16699 -44.333 -10.5 -63s-16.5 -35.667 -30.5 -51
c-12.667 -13.333 -27.834 -23 -45.501 -29s-36.834 -9 -57.501 -9c-22.667 0 -42 3.16699 -58 9.5s-30.667 16.5 -44 30.5c-20 20.667 -32.667 50 -38 88s-8 84.333 -8 139s2.5 101 7.5 139s17.5 67.333 37.5 88c26 26.667 60 40 102 40c21.333 0 40.333 -3 57 -9
s31.667 -16.333 45 -31c21.333 -23.333 34.166 -56.166 38.499 -98.499s6.5 -91.5 6.5 -147.5h-213zM253.003 300.999c0 35.333 -1.33398 63.666 -4.00098 84.999s-8 36.666 -16 45.999c-5.33301 6 -11.666 11.167 -18.999 15.5s-16.333 6.5 -27 6.5
s-19.5 -2.16699 -26.5 -6.5s-13.167 -9.5 -18.5 -15.5c-8 -9.33301 -13.5 -24.666 -16.5 -45.999s-4.5 -49.666 -4.5 -84.999h132zM69.002 600.999v82h82v-82h-82zM226.002 600.999v82h81v-82h-81z" />
    <glyph glyph-name="igrave" unicode="&#xec;" horiz-adv-x="195" 
d="M58 0v518h81v-518h-81zM75 586l-81 135h74l69 -135h-62z" />
    <glyph glyph-name="iacute" unicode="&#xed;" horiz-adv-x="195" 
d="M58 0v518h81v-518h-81zM124 586h-62l69 135h74z" />
    <glyph glyph-name="icircumflex" unicode="&#xee;" horiz-adv-x="195" 
d="M58 0v518h81v-518h-81zM158 586l-60 87l-60 -87h-66l93 135h66l93 -135h-66z" />
    <glyph glyph-name="idieresis" unicode="&#xef;" horiz-adv-x="195" 
d="M58 0v518h81v-518h-81zM-21 601v82h82v-82h-82zM135 601v82h82v-82h-82z" />
    <glyph glyph-name="eth" unicode="&#xf0;" 
d="M335 246c0 -50.667 -2.33105 -93.335 -6.99805 -128.002s-15 -61.667 -31 -81c-13.333 -16 -29 -27.5 -47 -34.5s-38.667 -10.5 -62 -10.5s-43.833 3.5 -61.5 10.5s-33.167 18.5 -46.5 34.5c-16 19.333 -26.5 46.333 -31.5 81s-7.5 77.334 -7.5 128.001
c0 58 2.16699 104 6.5 138s14.833 60.333 31.5 79c11.333 12 24.166 21.167 38.499 27.5s31.166 9.5 50.499 9.5c9.33301 0 19.333 -1.33301 30 -4s20 -6.66699 28 -12l-31 91h-78v61h58l-27 76h82l27 -76h71v-61h-52l35 -108c4 -13.333 7.5 -27.166 10.5 -41.499
s5.5 -30 7.5 -47s3.5 -36.333 4.5 -58s1.5 -46.5 1.5 -74.5zM254.002 246.999c0 44.667 -1 79.834 -3 105.501s-7.66699 44.5 -17 56.5c-10.667 14 -26 21 -46 21c-19.333 0 -34.333 -7 -45 -21c-9.33301 -12 -15.166 -30.833 -17.499 -56.5s-3.5 -60.834 -3.5 -105.501
s1.16699 -79.667 3.5 -105s8.16602 -44 17.499 -56c10.667 -14 25.667 -21 45 -21c20 0 35.333 7 46 21c9.33301 12 15 30.667 17 56s3 60.333 3 105z" />
    <glyph glyph-name="ntilde" unicode="&#xf1;" horiz-adv-x="395" 
d="M261 0l0.00195312 381c0 24 -6 42 -18 54s-26.667 18 -44 18s-31.833 -6 -43.5 -18s-17.5 -30 -17.5 -54v-381h-81v518h78v-40c3.33301 6 8.16602 12 14.499 18s12.166 10.667 17.499 14c17.333 10.667 36 16 56 16c19.333 0 36 -3.16699 50 -9.5
s26.667 -15.833 38 -28.5c10.667 -11.333 18.5 -25 23.5 -41s7.5 -38 7.5 -66v-381h-81zM335.002 638c-17.333 -17.333 -32.1689 -28.668 -44.502 -34.001s-24.5 -8 -36.5 -8c-11.333 0 -21.166 1.33301 -29.499 4s-17.5 7 -27.5 13c-15.333 10 -29.666 15 -42.999 15
c-6.66699 0 -13.167 -1.16699 -19.5 -3.5s-14.833 -8.83301 -25.5 -19.5l-37 37c17.333 17.333 31.833 28.833 43.5 34.5s23.834 8.5 36.501 8.5c11.333 0 21.166 -1.16699 29.499 -3.5s17.833 -6.83301 28.5 -13.5c7.33301 -4.66699 14.5 -8.5 21.5 -11.5
s14.167 -4.5 21.5 -4.5c6 0 12.167 1.33301 18.5 4s14.833 9.33398 25.5 20.001z" />
    <glyph glyph-name="ograve" unicode="&#xf2;" 
d="M376 259c0 -52.667 -2.16699 -97.167 -6.5 -133.5s-14.5 -64.833 -30.5 -85.5c-13.333 -17.333 -29.166 -29.666 -47.499 -36.999s-39.166 -11 -62.499 -11s-44 3.66699 -62 11s-33.667 19.666 -47 36.999c-16 20.667 -26.333 49.167 -31 85.5s-7 80.833 -7 133.5
s2.33301 97.167 7 133.5s15 64.833 31 85.5c13.333 17.333 29 29.666 47 36.999s38.667 11 62 11s44.166 -3.66699 62.499 -11s34.166 -19.666 47.499 -36.999c16 -20.667 26.167 -49.167 30.5 -85.5s6.5 -80.833 6.5 -133.5zM295 259c0 46.667 -1 83.834 -3 111.501
s-7.66699 48.167 -17 61.5c-10.667 14.667 -26 22 -46 22c-19.333 0 -34.333 -7.33301 -45 -22c-9.33301 -13.333 -15.166 -33.833 -17.499 -61.5s-3.5 -64.834 -3.5 -111.501s1.16699 -83.667 3.5 -111s8.16602 -47.666 17.499 -60.999c10.667 -14.667 25.667 -22 45 -22
c20 0 35.333 7.33301 46 22c9.33301 13.333 15 33.666 17 60.999s3 64.333 3 111zM202 586l-81 135h74l69 -135h-62z" />
    <glyph glyph-name="oacute" unicode="&#xf3;" horiz-adv-x="375" 
d="M334 259c0 -52.667 -2.16699 -97.167 -6.5 -133.5s-14.5 -64.833 -30.5 -85.5c-13.333 -17.333 -29.166 -29.666 -47.499 -36.999s-39.166 -11 -62.499 -11s-44 3.66699 -62 11s-33.667 19.666 -47 36.999c-16 20.667 -26.333 49.167 -31 85.5s-7 80.833 -7 133.5
s2.33301 97.167 7 133.5s15 64.833 31 85.5c13.333 17.333 29 29.666 47 36.999s38.667 11 62 11s44.166 -3.66699 62.499 -11s34.166 -19.666 47.499 -36.999c16 -20.667 26.167 -49.167 30.5 -85.5s6.5 -80.833 6.5 -133.5zM253 259c0 46.667 -1 83.834 -3 111.501
s-7.66699 48.167 -17 61.5c-10.667 14.667 -26 22 -46 22c-19.333 0 -34.333 -7.33301 -45 -22c-9.33301 -13.333 -15.166 -33.833 -17.499 -61.5s-3.5 -64.834 -3.5 -111.501s1.16699 -83.667 3.5 -111s8.16602 -47.666 17.499 -60.999c10.667 -14.667 25.667 -22 45 -22
c20 0 35.333 7.33301 46 22c9.33301 13.333 15 33.666 17 60.999s3 64.333 3 111zM213 586h-61l68 135h74z" />
    <glyph glyph-name="ocircumflex" unicode="&#xf4;" horiz-adv-x="375" 
d="M334 259c0 -52.667 -2.16699 -97.167 -6.5 -133.5s-14.5 -64.833 -30.5 -85.5c-13.333 -17.333 -29.166 -29.666 -47.499 -36.999s-39.166 -11 -62.499 -11s-44 3.66699 -62 11s-33.667 19.666 -47 36.999c-16 20.667 -26.333 49.167 -31 85.5s-7 80.833 -7 133.5
s2.33301 97.167 7 133.5s15 64.833 31 85.5c13.333 17.333 29 29.666 47 36.999s38.667 11 62 11s44.166 -3.66699 62.499 -11s34.166 -19.666 47.499 -36.999c16 -20.667 26.167 -49.167 30.5 -85.5s6.5 -80.833 6.5 -133.5zM253 259c0 46.667 -1 83.834 -3 111.501
s-7.66699 48.167 -17 61.5c-10.667 14.667 -26 22 -46 22c-19.333 0 -34.333 -7.33301 -45 -22c-9.33301 -13.333 -15.166 -33.833 -17.499 -61.5s-3.5 -64.834 -3.5 -111.501s1.16699 -83.667 3.5 -111s8.16602 -47.666 17.499 -60.999c10.667 -14.667 25.667 -22 45 -22
c20 0 35.333 7.33301 46 22c9.33301 13.333 15 33.666 17 60.999s3 64.333 3 111zM248 586l-60 87l-59 -87h-67l93 135h67l92 -135h-66z" />
    <glyph glyph-name="otilde" unicode="&#xf5;" horiz-adv-x="375" 
d="M334 259c0 -52.667 -2.16699 -97.167 -6.5 -133.5s-14.5 -64.833 -30.5 -85.5c-13.333 -17.333 -29.166 -29.666 -47.499 -36.999s-39.166 -11 -62.499 -11s-44 3.66699 -62 11s-33.667 19.666 -47 36.999c-16 20.667 -26.333 49.167 -31 85.5s-7 80.833 -7 133.5
s2.33301 97.167 7 133.5s15 64.833 31 85.5c13.333 17.333 29 29.666 47 36.999s38.667 11 62 11s44.166 -3.66699 62.499 -11s34.166 -19.666 47.499 -36.999c16 -20.667 26.167 -49.167 30.5 -85.5s6.5 -80.833 6.5 -133.5zM253 259c0 46.667 -1 83.834 -3 111.501
s-7.66699 48.167 -17 61.5c-10.667 14.667 -26 22 -46 22c-19.333 0 -34.333 -7.33301 -45 -22c-9.33301 -13.333 -15.166 -33.833 -17.499 -61.5s-3.5 -64.834 -3.5 -111.501s1.16699 -83.667 3.5 -111s8.16602 -47.666 17.499 -60.999c10.667 -14.667 25.667 -22 45 -22
c20 0 35.333 7.33301 46 22c9.33301 13.333 15 33.666 17 60.999s3 64.333 3 111zM321 638c-17.333 -17.333 -32.1689 -28.668 -44.502 -34.001s-24.5 -8 -36.5 -8c-11.333 0 -21.166 1.33301 -29.499 4s-17.5 7 -27.5 13c-15.333 10 -29.666 15 -42.999 15
c-6.66699 0 -13.167 -1.16699 -19.5 -3.5s-14.833 -8.83301 -25.5 -19.5l-37 37c17.333 17.333 31.833 28.833 43.5 34.5s23.834 8.5 36.501 8.5c11.333 0 21.166 -1.16699 29.499 -3.5s17.833 -6.83301 28.5 -13.5c7.33301 -4.66699 14.5 -8.5 21.5 -11.5
s14.167 -4.5 21.5 -4.5c6 0 12.167 1.33301 18.5 4s14.833 9.33398 25.5 20.001z" />
    <glyph glyph-name="odieresis" unicode="&#xf6;" horiz-adv-x="375" 
d="M334 259c0 -52.667 -2.16699 -97.167 -6.5 -133.5s-14.5 -64.833 -30.5 -85.5c-13.333 -17.333 -29.166 -29.666 -47.499 -36.999s-39.166 -11 -62.499 -11s-44 3.66699 -62 11s-33.667 19.666 -47 36.999c-16 20.667 -26.333 49.167 -31 85.5s-7 80.833 -7 133.5
s2.33301 97.167 7 133.5s15 64.833 31 85.5c13.333 17.333 29 29.666 47 36.999s38.667 11 62 11s44.166 -3.66699 62.499 -11s34.166 -19.666 47.499 -36.999c16 -20.667 26.167 -49.167 30.5 -85.5s6.5 -80.833 6.5 -133.5zM253 259c0 46.667 -1 83.834 -3 111.501
s-7.66699 48.167 -17 61.5c-10.667 14.667 -26 22 -46 22c-19.333 0 -34.333 -7.33301 -45 -22c-9.33301 -13.333 -15.166 -33.833 -17.499 -61.5s-3.5 -64.834 -3.5 -111.501s1.16699 -83.667 3.5 -111s8.16602 -47.666 17.499 -60.999c10.667 -14.667 25.667 -22 45 -22
c20 0 35.333 7.33301 46 22c9.33301 13.333 15 33.666 17 60.999s3 64.333 3 111zM69 601v82h82v-82h-82zM226 601v82h81v-82h-81z" />
    <glyph glyph-name="divide" unicode="&#xf7;" horiz-adv-x="444" 
d="M46 238v78h352v-78h-352zM173 394v99h99v-99h-99zM173 61v99h99v-99h-99z" />
    <glyph glyph-name="oslash" unicode="&#xf8;" horiz-adv-x="370" 
d="M302 471c14 -21.333 22.8311 -50 26.498 -86s5.5 -78 5.5 -126c0 -52.667 -2.16699 -97.167 -6.5 -133.5s-14.5 -64.833 -30.5 -85.5c-13.333 -17.333 -29.166 -29.666 -47.499 -36.999s-39.166 -11 -62.499 -11c-28 0 -52.333 5.66699 -73 17l-20 -53h-58l36 91
c-13.333 21.333 -22 50 -26 86s-6 78 -6 126c0 52.667 2.33301 97.167 7 133.5s15 64.833 31 85.5c13.333 17.333 29 29.666 47 36.999s38.667 11 62 11c28 0 52.333 -5.66699 73 -17l21 53h58zM253.998 259c0 22 -0.331055 41.5 -0.998047 58.5
s-2.33398 30.167 -5.00098 39.5l-103 -277c10.667 -12 24.667 -18 42 -18c20 0 35.333 7.33301 46 22c9.33301 13.333 15.166 33.833 17.499 61.5s3.5 65.5 3.5 113.5zM230 438c-10.667 12 -25.001 18 -43.001 18c-19.333 0 -34.333 -7.33301 -45 -22
c-9.33301 -13.333 -15.166 -33.833 -17.499 -61.5s-3.5 -65.5 -3.5 -113.5c0 -22 0.166992 -41.5 0.5 -58.5s1.83301 -30.167 4.5 -39.5z" />
    <glyph glyph-name="ugrave" unicode="&#xf9;" horiz-adv-x="395" 
d="M260 0l-0.00195312 40c-3.33301 -6 -8.16602 -12 -14.499 -18s-12.166 -10.667 -17.499 -14c-17.333 -10.667 -36 -16 -56 -16c-19.333 0 -36 3.16699 -50 9.5s-26.667 15.833 -38 28.5c-10.667 11.333 -18.5 25 -23.5 41s-7.5 38 -7.5 66v381h81v-381
c0 -24 6 -42 18 -54s26.667 -18 44 -18s31.833 6 43.5 18s17.5 30 17.5 54v381h81v-518h-78zM169.998 586l-81 135h74l69 -135h-62z" />
    <glyph glyph-name="uacute" unicode="&#xfa;" horiz-adv-x="395" 
d="M260 0l-0.00195312 40c-3.33301 -6 -8.16602 -12 -14.499 -18s-12.166 -10.667 -17.499 -14c-17.333 -10.667 -36 -16 -56 -16c-19.333 0 -36 3.16699 -50 9.5s-26.667 15.833 -38 28.5c-10.667 11.333 -18.5 25 -23.5 41s-7.5 38 -7.5 66v381h81v-381
c0 -24 6 -42 18 -54s26.667 -18 44 -18s31.833 6 43.5 18s17.5 30 17.5 54v381h81v-518h-78zM229.998 586h-61l68 135h74z" />
    <glyph glyph-name="ucircumflex" unicode="&#xfb;" horiz-adv-x="395" 
d="M260 0l-0.00195312 40c-3.33301 -6 -8.16602 -12 -14.499 -18s-12.166 -10.667 -17.499 -14c-17.333 -10.667 -36 -16 -56 -16c-19.333 0 -36 3.16699 -50 9.5s-26.667 15.833 -38 28.5c-10.667 11.333 -18.5 25 -23.5 41s-7.5 38 -7.5 66v381h81v-381
c0 -24 6 -42 18 -54s26.667 -18 44 -18s31.833 6 43.5 18s17.5 30 17.5 54v381h81v-518h-78zM258.998 586l-60 87l-59 -87h-67l93 135h67l92 -135h-66z" />
    <glyph glyph-name="udieresis" unicode="&#xfc;" horiz-adv-x="395" 
d="M260 0l-0.00195312 40c-3.33301 -6 -8.16602 -12 -14.499 -18s-12.166 -10.667 -17.499 -14c-17.333 -10.667 -36 -16 -56 -16c-19.333 0 -36 3.16699 -50 9.5s-26.667 15.833 -38 28.5c-10.667 11.333 -18.5 25 -23.5 41s-7.5 38 -7.5 66v381h81v-381
c0 -24 6 -42 18 -54s26.667 -18 44 -18s31.833 6 43.5 18s17.5 30 17.5 54v381h81v-518h-78zM78.998 601v82h82v-82h-82zM235.998 601v82h81v-82h-81z" />
    <glyph glyph-name="yacute" unicode="&#xfd;" horiz-adv-x="345" 
d="M193 -83c-5.33301 -23.333 -13.3301 -42.166 -23.9971 -56.499s-23.334 -25.5 -38.001 -33.5s-31.334 -13.5 -50.001 -16.5s-38.667 -4.5 -60 -4.5v72c25.333 0 45.666 4.16699 60.999 12.5s26 24.166 32 47.499l16 63l-126 517h89l79 -389l78 389h89zM200.003 586h-61
l68 135h74z" />
    <glyph glyph-name="thorn" unicode="&#xfe;" horiz-adv-x="389" 
d="M347 259c0 -60 -2 -108.329 -6 -144.996s-14.333 -64.667 -31 -84c-10.667 -12.667 -22.834 -22.167 -36.501 -28.5s-30.167 -9.5 -49.5 -9.5c-21.333 0 -40 5 -56 15c-5.33301 3.33301 -10.666 7.66602 -15.999 12.999s-9.66602 10.666 -12.999 15.999v-230h-81v906h78
v-234c2.66699 5.33301 7.33398 11.166 14.001 17.499s12.667 11.166 18 14.499c17.333 10.667 36 16 56 16c17.333 0 33.166 -3 47.499 -9s27.166 -15.667 38.499 -29c16.667 -19.333 27 -47.333 31 -84s6 -85 6 -145zM266 259.004
c0 46.667 -0.999023 83.832 -2.99902 111.499s-7.66699 48.167 -17 61.5c-10.667 14.667 -25.667 22 -45 22c-17.333 0 -31.333 -5.33301 -42 -16c-13.333 -13.333 -20 -33.333 -20 -60v-237c0 -27.333 6.66699 -47.666 20 -60.999
c5.33301 -5.33301 11.666 -9.16602 18.999 -11.499s15 -3.5 23 -3.5c19.333 0 34.333 7.33301 45 22c9.33301 13.333 15 33.666 17 60.999s3 64.333 3 111z" />
    <glyph glyph-name="ydieresis" unicode="&#xff;" horiz-adv-x="345" 
d="M193 -83c-5.33301 -23.333 -13.3301 -42.166 -23.9971 -56.499s-23.334 -25.5 -38.001 -33.5s-31.334 -13.5 -50.001 -16.5s-38.667 -4.5 -60 -4.5v72c25.333 0 45.666 4.16699 60.999 12.5s26 24.166 32 47.499l16 63l-126 517h89l79 -389l78 389h89zM56.0029 601v82h82
v-82h-82zM213.003 601v82h81v-82h-81z" />
    <glyph glyph-name="dotlessi" unicode="&#x131;" horiz-adv-x="195" 
d="M58 0v518h81v-518h-81z" />
    <glyph glyph-name="Lslash" unicode="&#x141;" horiz-adv-x="368" 
d="M71 0v275l-48 -43v85l48 44v351h86v-280l94 84v-85l-94 -84v-270h188v-77h-274z" />
    <glyph glyph-name="lslash" unicode="&#x142;" horiz-adv-x="255" 
d="M235 0c-22 0 -42.5 1.99902 -61.5 5.99902s-36.167 12.667 -51.5 26c-14 11.333 -25.167 26.333 -33.5 45s-12.5 42.334 -12.5 71.001v161l-57 -56v82l57 55v322h81v-252l58 56v-81l-58 -57v-227c0 -52 26 -78 78 -78v-73v0z" />
    <glyph glyph-name="OE" unicode="&#x152;" horiz-adv-x="622" 
d="M313 0l-0.000976562 33.002c-11.333 -13.333 -25.166 -23.5 -41.499 -30.5s-34.5 -10.5 -54.5 -10.5c-26.667 0 -49.667 4.66699 -69 14s-35.666 21.666 -48.999 36.999c-11.333 13.333 -20.333 28.833 -27 46.5s-11.834 38.834 -15.501 63.501s-6.16699 53.5 -7.5 86.5
s-2 71.833 -2 116.5s0.666992 83.667 2 117s3.83301 62.333 7.5 87s8.83398 45.667 15.501 63s15.667 32.666 27 45.999c13.333 15.333 29.666 27.666 48.999 36.999s42.333 14 69 14c20 0 38.5 -3.66699 55.5 -11s30.5 -17.333 40.5 -30v33h267v-77h-188v-239h162v-77h-162
v-242h188v-77h-267zM308.999 356.002c0 42 -0.333008 77.667 -1 107s-2.16699 53.833 -4.5 73.5s-5.5 35.667 -9.5 48s-9 22.833 -15 31.5c-6 8 -13.667 14.5 -23 19.5s-21 7.5 -35 7.5s-25.667 -2.5 -35 -7.5s-17 -11.5 -23 -19.5c-6 -8.66699 -11 -19.167 -15 -31.5
s-7.16699 -28.333 -9.5 -48s-3.83301 -44.167 -4.5 -73.5s-1 -65 -1 -107s0.333008 -77.667 1 -107s2.16699 -53.833 4.5 -73.5s5.5 -35.667 9.5 -48s9 -22.833 15 -31.5c6 -8 13.667 -14.5 23 -19.5s21 -7.5 35 -7.5s25.667 2.5 35 7.5s17 11.5 23 19.5
c6 8.66699 11 19.167 15 31.5s7.16699 28.333 9.5 48s3.83301 44.167 4.5 73.5s1 65 1 107z" />
    <glyph glyph-name="oe" unicode="&#x153;" horiz-adv-x="586" 
d="M334 240c0 -41.333 1.33789 -74.3311 4.00488 -98.998s8.66699 -42.667 18 -54c5.33301 -6 11.5 -11.167 18.5 -15.5s15.833 -6.5 26.5 -6.5c18.667 0 34 6.66699 46 20c12 14 18 33.667 18 59h80c-0.666992 -23.333 -4.16699 -44.333 -10.5 -63s-16.5 -35.667 -30.5 -51
c-12.667 -13.333 -27.834 -23 -45.501 -29s-36.834 -9 -57.501 -9c-18.667 0 -35.334 2.83301 -50.001 8.5s-27.334 13.5 -38.001 23.5c-3.33301 3.33301 -6.5 7.16602 -9.5 11.499s-5.83301 8.83301 -8.5 13.5c-4.66699 -9.33301 -10.667 -17.666 -18 -24.999
c-11.333 -9.33301 -24.5 -17 -39.5 -23s-31.833 -9 -50.5 -9c-23.333 0 -44 3.66699 -62 11s-33.667 19.666 -47 36.999c-16 20.667 -26.333 49.167 -31 85.5s-7 80.833 -7 133.5s2.33301 97.167 7 133.5s15 64.833 31 85.5c13.333 17.333 29 29.666 47 36.999
s38.667 11 62 11c37.333 0 67.666 -11 90.999 -33c3.33301 -3.33301 6.33301 -6.83301 9 -10.5s5.33398 -7.83398 8.00098 -12.501c2.66699 4.66699 5.5 9 8.5 13s6.16699 7.66699 9.5 11c23.333 21.333 52.333 32 87 32c21.333 0 40.333 -3 57 -9s31.667 -16.333 45 -31
c21.333 -23.333 34.166 -56.166 38.499 -98.499s6.5 -91.5 6.5 -147.5h-213zM253.005 259.002c0 46.667 -1 83.834 -3 111.501s-7.66699 48.167 -17 61.5c-10.667 14.667 -26 22 -46 22c-19.333 0 -34.333 -7.33301 -45 -22c-9.33301 -13.333 -15.166 -33.833 -17.499 -61.5
s-3.5 -64.834 -3.5 -111.501s1.16699 -83.667 3.5 -111s8.16602 -47.666 17.499 -60.999c10.667 -14.667 25.667 -22 45 -22c20 0 35.333 7.33301 46 22c9.33301 13.333 15 33.666 17 60.999s3 64.333 3 111zM466.005 301.002c0 35.333 -1.33398 63.666 -4.00098 84.999
s-8 36.666 -16 45.999c-5.33301 6 -11.666 11.167 -18.999 15.5s-16.333 6.5 -27 6.5s-19.5 -2.16699 -26.5 -6.5s-13.167 -9.5 -18.5 -15.5c-8 -9.33301 -13.5 -24.666 -16.5 -45.999s-4.5 -49.666 -4.5 -84.999h132z" />
    <glyph glyph-name="Scaron" unicode="&#x160;" horiz-adv-x="420" 
d="M377 191c0 -37.333 -3.00195 -68.1689 -9.00195 -92.502s-17.667 -45.166 -35 -62.499c-13.333 -13.333 -30.5 -23.833 -51.5 -31.5s-45.833 -11.5 -74.5 -11.5c-54.667 0 -96.334 14.333 -125.001 43c-16.667 16.667 -28.167 36.334 -34.5 59.001s-9.5 53 -9.5 91h86
c0 -23.333 1.66699 -42.166 5 -56.499s9.66602 -26.5 18.999 -36.5c6 -6.66699 14 -12 24 -16s21.667 -6 35 -6c14.667 0 26.834 2 36.501 6s17.834 9.66699 24.501 17c9.33301 10.667 15.5 23.334 18.5 38.001s4.5 33.667 4.5 57c0 20.667 -1 38 -3 52
s-5.5 25.833 -10.5 35.5s-12 17.834 -21 24.501s-20.833 13 -35.5 19l-81 33c-18 7.33301 -33.333 15.666 -46 24.999s-22.667 20.833 -30 34.5s-12.666 30 -15.999 49s-5 42.167 -5 69.5c0 31.333 4.5 59.333 13.5 84s22.5 45.334 40.5 62.001c29.333 27.333 67 41 113 41
c26 0 48.833 -3.5 68.5 -10.5s36.167 -17.167 49.5 -30.5c18 -17.333 30.333 -37.833 37 -61.5s10 -51.834 10 -84.501h-86c0 19.333 -1.33301 35.666 -4 48.999s-8.66699 25.666 -18 36.999c-12.667 16 -32 24 -58 24c-12.667 0 -23.5 -2 -32.5 -6
s-16.5 -9.33301 -22.5 -16c-16.667 -18.667 -25 -47 -25 -85c0 -17.333 0.833008 -32 2.5 -44s5 -22.333 10 -31s12 -16 21 -22s20.5 -12 34.5 -18l80 -33c20 -8 36.5 -17.5 49.5 -28.5s23.333 -24.167 31 -39.5s12.834 -33.333 15.501 -54s4 -45 4 -73zM245.998 756.997
h-68l-92 135h67l59 -87l60 87h67z" />
    <glyph glyph-name="scaron" unicode="&#x161;" horiz-adv-x="359" 
d="M328 141c0 -23.333 -3.99902 -43.8281 -11.999 -61.4951s-18.667 -33.167 -32 -46.5c-14 -14.667 -29.833 -25.167 -47.5 -31.5s-37.167 -9.5 -58.5 -9.5s-40.833 3.33301 -58.5 10s-32.834 16.667 -45.501 30c-29.333 30 -44 68 -44 114h80
c0 -26.667 7.33301 -47.667 22 -63c6 -6 13.167 -10.5 21.5 -13.5s16.5 -4.5 24.5 -4.5c20 0 36.333 6.33301 49 19c13.333 13.333 20 30.666 20 51.999c0 18 -4.33301 33.667 -13 47c-5.33301 7.33301 -11.666 14 -18.999 20s-16.333 11.667 -27 17l-67 34
c-33.333 16.667 -57 36.667 -71 60c-10.667 18.667 -16 41.334 -16 68.001c0 22.667 3.83301 42.5 11.5 59.5s18.167 32.167 31.5 45.5s28.666 23.166 45.999 29.499s36 9.5 56 9.5c42.667 0 76.334 -12.333 101.001 -37c28 -26.667 42 -64.667 42 -114h-80
c0 15.333 -1.5 27.666 -4.5 36.999s-7.83301 17.666 -14.5 24.999c-6 6.66699 -12.833 11.334 -20.5 14.001s-15.5 4 -23.5 4c-18.667 0 -33.667 -5.66699 -45 -17c-12.667 -12.667 -19 -29.334 -19 -50.001c0 -14.667 3 -27.334 9 -38.001
c7.33301 -12.667 21.666 -24 42.999 -34l66 -33c34.667 -16.667 59 -36.334 73 -59.001c14.667 -22 22 -49.667 22 -83zM217.001 582.005h-68l-92 135h67l59 -87l60 87h67z" />
    <glyph glyph-name="Ydieresis" unicode="&#x178;" horiz-adv-x="353" 
d="M219 288v-288h-86v288l-131 424h94l80 -304l80 304h95zM59 776v82h82v-82h-82zM216 776v82h81v-82h-81z" />
    <glyph glyph-name="Zcaron" unicode="&#x17d;" horiz-adv-x="349" 
d="M31 0v65l198 570h-185v77h274v-65l-197 -570h197v-77h-287zM212 757h-68l-92 135h67l59 -87l60 87h67z" />
    <glyph glyph-name="zcaron" unicode="&#x17e;" horiz-adv-x="301" 
d="M24 0v62l163 384h-152v72h242v-62l-163 -383h163v-73h-253zM191 582h-68l-92 135h67l59 -87l60 87h67z" />
    <glyph glyph-name="florin" unicode="&#x192;" horiz-adv-x="351" 
d="M299 644c-19.333 0 -35.833 -5.66797 -49.5 -17.001s-22.5 -27.666 -26.5 -48.999l-35 -193h79v-62h-90l-97 -517h-80l96 517h-54v62h66l35 197c8 46 26.5 79.833 55.5 101.5s62.5 32.5 100.5 32.5h30v-72h-30z" />
    <glyph glyph-name="circumflex" unicode="&#x2c6;" 
d="M248 586l-60 87l-59 -87h-67l93 135h67l92 -135h-66z" />
    <glyph glyph-name="caron" unicode="&#x2c7;" 
d="M222 582h-68l-92 135h67l59 -87l60 87h67z" />
    <glyph glyph-name="breve" unicode="&#x2d8;" 
d="M306 696c-2.66699 -39.333 -14.668 -67.666 -36.001 -84.999s-48.666 -26 -81.999 -26s-60.5 8.66699 -81.5 26s-32.833 45.666 -35.5 84.999h58c2 -18.667 8.33301 -32.167 19 -40.5s24 -12.5 40 -12.5s29.333 4.16699 40 12.5s17 21.833 19 40.5h59v0z" />
    <glyph glyph-name="dotaccent" unicode="&#x2d9;" 
d="M148 619v81h81v-81h-81z" />
    <glyph glyph-name="ring" unicode="&#x2da;" 
d="M286 682c0 -27.333 -9.5 -50.5 -28.5 -69.5s-42.167 -28.5 -69.5 -28.5s-50.333 9.5 -69 28.5s-28 42.167 -28 69.5s9.33301 50.333 28 69s41.667 28 69 28s50.5 -9.33301 69.5 -28s28.5 -41.667 28.5 -69zM237 682c0 13.333 -4.83301 24.833 -14.5 34.5
s-21.167 14.5 -34.5 14.5s-24.833 -4.83301 -34.5 -14.5s-14.5 -21.167 -14.5 -34.5s4.83301 -25 14.5 -35s21.167 -15 34.5 -15s24.833 5 34.5 15s14.5 21.667 14.5 35z" />
    <glyph glyph-name="ogonek" unicode="&#x2db;" 
d="M201 -182l-50 144h57l57 -144h-64z" />
    <glyph glyph-name="tilde" unicode="&#x2dc;" 
d="M322 638c-17.333 -17.333 -32.1689 -28.668 -44.502 -34.001s-24.5 -8 -36.5 -8c-11.333 0 -21.166 1.33301 -29.499 4s-17.5 7 -27.5 13c-15.333 10 -29.666 15 -42.999 15c-6.66699 0 -13.167 -1.16699 -19.5 -3.5s-14.833 -8.83301 -25.5 -19.5l-37 37
c17.333 17.333 31.833 28.833 43.5 34.5s23.834 8.5 36.501 8.5c11.333 0 21.166 -1.16699 29.499 -3.5s17.833 -6.83301 28.5 -13.5c7.33301 -4.66699 14.5 -8.5 21.5 -11.5s14.167 -4.5 21.5 -4.5c6 0 12.167 1.33301 18.5 4s14.833 9.33398 25.5 20.001l38 -38v0z" />
    <glyph glyph-name="hungarumlaut" unicode="&#x2dd;" 
d="M283 582h-59l52 135h75zM132 582h-59l53 135h75z" />
    <glyph glyph-name="endash" unicode="&#x2013;" horiz-adv-x="444" 
d="M46 244v77h352v-77h-352z" />
    <glyph glyph-name="emdash" unicode="&#x2014;" horiz-adv-x="691" 
d="M51 244v77h589v-77h-589z" />
    <glyph glyph-name="quoteleft" unicode="&#x2018;" horiz-adv-x="207" 
d="M57 615v97l92 68v-165h-92z" />
    <glyph glyph-name="quoteright" unicode="&#x2019;" horiz-adv-x="207" 
d="M57 547v165h92v-97z" />
    <glyph glyph-name="quotesinglbase" unicode="&#x201a;" horiz-adv-x="207" 
d="M57 -68v165h92v-97z" />
    <glyph glyph-name="quotedblleft" unicode="&#x201c;" horiz-adv-x="373" 
d="M224 615v97l92 68v-165h-92zM57 615v97l92 68v-165h-92z" />
    <glyph glyph-name="quotedblright" unicode="&#x201d;" horiz-adv-x="373" 
d="M224 547v165h92v-97zM57 547v165h92v-97z" />
    <glyph glyph-name="quotedblbase" unicode="&#x201e;" horiz-adv-x="373" 
d="M224 -68v165h92v-97zM57 -68v165h92v-97z" />
    <glyph glyph-name="dagger" unicode="&#x2020;" horiz-adv-x="443" 
d="M260 450v-450h-77v450h-137v68h137v194h77v-194h136v-68h-136z" />
    <glyph glyph-name="daggerdbl" unicode="&#x2021;" horiz-adv-x="443" 
d="M260 0v-194h-77v194h-137v68h137v382h-137v68h137v194h77v-194h136v-68h-136v-382h136v-68h-136z" />
    <glyph glyph-name="bullet" unicode="&#x2022;" horiz-adv-x="455" 
d="M390 334c0 -22.667 -4.33301 -43.834 -13 -63.501s-20.334 -36.834 -35.001 -51.501s-31.834 -26.334 -51.501 -35.001s-40.834 -13 -63.501 -13s-43.834 4.33301 -63.501 13s-36.834 20.334 -51.501 35.001s-26.334 31.834 -35.001 51.501s-13 40.834 -13 63.501
s4.33301 43.834 13 63.501s20.334 36.834 35.001 51.501s31.834 26.334 51.501 35.001s40.834 13 63.501 13s43.834 -4.33301 63.501 -13s36.834 -20.334 51.501 -35.001s26.334 -31.834 35.001 -51.501s13 -40.834 13 -63.501z" />
    <glyph glyph-name="ellipsis" unicode="&#x2026;" horiz-adv-x="601" 
d="M444 0v99h99v-99h-99zM251 0v99h99v-99h-99zM59 0v99h99v-99h-99z" />
    <glyph glyph-name="perthousand" unicode="&#x2030;" horiz-adv-x="970" 
d="M624 102c0 -35.333 -10.833 -62.5 -32.5 -81.5s-48.5 -28.5 -80.5 -28.5s-58.833 9.5 -80.5 28.5s-32.5 46.167 -32.5 81.5v154c0 35.333 10.833 62.5 32.5 81.5s48.5 28.5 80.5 28.5s58.833 -9.5 80.5 -28.5s32.5 -46.167 32.5 -81.5v-154zM919 102
c0 -35.333 -10.833 -62.5 -32.5 -81.5s-48.5 -28.5 -80.5 -28.5s-58.667 9.5 -80 28.5s-32 46.167 -32 81.5v154c0 35.333 10.667 62.5 32 81.5s48 28.5 80 28.5s58.833 -9.5 80.5 -28.5s32.5 -46.167 32.5 -81.5v-154zM276 456c0 -35.333 -10.833 -62.5 -32.5 -81.5
s-48.5 -28.5 -80.5 -28.5s-58.667 9.5 -80 28.5s-32 46.167 -32 81.5v154c0 35.333 10.667 62.5 32 81.5s48 28.5 80 28.5s58.833 -9.5 80.5 -28.5s32.5 -46.167 32.5 -81.5v-154zM246 0h-65l248 712h65zM556 254c0 16.667 -4 29.334 -12 38.001s-19 13 -33 13
s-25 -4.33301 -33 -13s-12 -21.334 -12 -38.001v-151c0 -16.667 4 -29.334 12 -38.001s19 -13 33 -13s25 4.33301 33 13s12 21.334 12 38.001v151zM851 254c0 16.667 -4 29.332 -12 37.999s-19 13 -33 13c-29.333 0 -44 -17 -44 -51v-151c0 -34 14.667 -51 44 -51
c14 0 25 4.33301 33 13s12 21.334 12 38.001v151zM208 608.998c0 16.667 -4 29.332 -12 37.999s-19 13 -33 13c-29.333 0 -44 -17 -44 -51v-151c0 -34 14.667 -51 44 -51c14 0 25 4.33301 33 13s12 21.334 12 38.001v151z" />
    <glyph glyph-name="guilsinglleft" unicode="&#x2039;" horiz-adv-x="225" 
d="M26 272l148 229v-127l-68 -102l68 -103v-127z" />
    <glyph glyph-name="guilsinglright" unicode="&#x203a;" horiz-adv-x="225" 
d="M51 42v127l68 103l-68 102v127l148 -229z" />
    <glyph glyph-name="fraction" unicode="&#x2044;" horiz-adv-x="108" 
d="M-37 0h-64l246 712h65z" />
    <glyph glyph-name="Euro" unicode="&#x20ac;" horiz-adv-x="474" 
d="M431 176c-0.666992 -30 -5.66992 -57.6699 -15.0029 -83.0029s-22.666 -46 -39.999 -62c-14 -13.333 -29.833 -23.166 -47.5 -29.499s-38.5 -9.5 -62.5 -9.5c-28.667 0 -52.834 4.66699 -72.501 14s-36.167 21.666 -49.5 36.999c-8.66699 9.33301 -16 19.833 -22 31.5
s-11 25.5 -15 41.5s-7 34.667 -9 56s-3.33301 47 -4 77h-61v62h59v90h-59v62h61c0.666992 30 2 55.667 4 77s5 40 9 56s9 29.833 15 41.5s13.333 22.167 22 31.5c13.333 15.333 29.833 27.666 49.5 36.999s43.834 14 72.501 14c24.667 0 46.167 -3.66699 64.5 -11
s34.5 -17.666 48.5 -30.999c16.667 -16 29.334 -36.167 38.001 -60.5s13.334 -51.5 14.001 -81.5h-86c0 13.333 -1.16699 26.333 -3.5 39s-6.5 24 -12.5 34s-14 18.167 -24 24.5s-23 9.5 -39 9.5c-14 0 -25.833 -2.5 -35.5 -7.5s-17.5 -11.5 -23.5 -19.5
c-4.66699 -6 -8.66699 -12.667 -12 -20s-6 -16.666 -8 -27.999s-3.66699 -25.333 -5 -42s-2 -37.667 -2 -63h120v-62h-121v-90h121v-62h-120c0 -25.333 0.666992 -46.333 2 -63s3 -30.667 5 -42s4.66699 -20.666 8 -27.999s7.33301 -14 12 -20
c6 -7.33301 13.833 -13.666 23.5 -18.999s21.5 -8 35.5 -8c16 0 29 3.16699 39 9.5s18 14.5 24 24.5s10.167 21.333 12.5 34s3.5 25.667 3.5 39h86v0z" />
    <glyph glyph-name="trademark" unicode="&#x2122;" horiz-adv-x="616" 
d="M506 279v292l-65 -188h-35l-65 184v-288h-56v433h52l87 -233l86 233h53v-433h-57zM158 660v-381h-56v381h-73v52h202v-52h-73z" />
    <glyph glyph-name="minus" unicode="&#x2212;" horiz-adv-x="298" 
d="M51 244v77h196v-77h-196z" />
    <glyph glyph-name="fi" unicode="&#xfb01;" horiz-adv-x="431" 
d="M157 455v-455.001h-81v455h-59v63h59v51c0 52.667 15 91.334 45 116.001c16 13.333 33.833 22 53.5 26s40.5 6 62.5 6v-73c-27.333 0 -47.5 -6 -60.5 -18s-19.5 -32 -19.5 -60v-48h80v-63h-80zM293 -0.000976562v518h81v-518h-81zM286 609.999v94h95v-94h-95z" />
    <glyph glyph-name="fl" unicode="&#xfb02;" horiz-adv-x="468" 
d="M157 455v-455.001h-81v455h-59v63h59v51c0 52.667 15 91.334 45 116.001c16 13.333 33.833 22 53.5 26s40.5 6 62.5 6v-73c-53.333 0 -80 -26 -80 -78v-48h80v-63h-80zM452 -0.000976562c-22 0 -42.5 1.99902 -61.5 5.99902s-36.167 12.667 -51.5 26
c-14 11.333 -25.167 26.333 -33.5 45s-12.5 42.334 -12.5 71.001v564h81v-561c0 -52 26 -78 78 -78v-73z" />
    <glyph glyph-name=".null" horiz-adv-x="0" 
 />
    <glyph glyph-name="nonmarkingreturn" horiz-adv-x="187" 
 />
    </font>
</defs>
</svg>
