<?xml version="1.0" encoding="utf-8"?>
<!-- Generator: Adobe Illustrator 16.0.4, SVG Export Plug-In . SVG Version: 6.00 Build 0)  -->
<!DOCTYPE svg PUBLIC "-//W3C//DTD SVG 1.1//EN" "http://www.w3.org/Graphics/SVG/1.1/DTD/svg11.dtd">
<svg version="1.1" id="Layer_1" xmlns="http://www.w3.org/2000/svg" xmlns:xlink="http://www.w3.org/1999/xlink" x="0px" y="0px"
	 width="40px" height="40px" viewBox="0 0 40 40" enable-background="new 0 0 40 40" xml:space="preserve">
<path fill="#FFFFFF" d="M19.999,40C8.971,40,0,31.025,0,20C0,8.973,8.971,0,19.999,0C31.027,0,40,8.973,40,20
	C40,31.025,31.027,40,19.999,40z M19.999,4.845C11.643,4.845,4.845,11.644,4.845,20c0,8.357,6.798,15.152,15.154,15.152
	c8.354,0,15.157-6.795,15.157-15.152C35.156,11.644,28.354,4.845,19.999,4.845z"/>
<path fill="#C7CBB6" d="M20,11.232c-4.834,0-8.768,3.934-8.768,8.768c0,4.833,3.934,8.771,8.768,8.771s8.77-3.938,8.77-8.771
	C28.77,15.166,24.834,11.232,20,11.232z"/>
</svg>
