<?xml version="1.0" encoding="utf-8"?>
<!-- Generator: Adobe Illustrator 16.0.4, SVG Export Plug-In . SVG Version: 6.00 Build 0)  -->
<!DOCTYPE svg PUBLIC "-//W3C//DTD SVG 1.1//EN" "http://www.w3.org/Graphics/SVG/1.1/DTD/svg11.dtd">
<svg version="1.1" id="Layer_1" xmlns="http://www.w3.org/2000/svg" xmlns:xlink="http://www.w3.org/1999/xlink" x="0px" y="0px"
	 width="120px" height="120px" viewBox="0 0 120 120" enable-background="new 0 0 120 120" xml:space="preserve">
<g>
	<path fill="#3B5999" d="M112.473,1c1.789,0,3.327,0.642,4.609,1.921C118.362,4.201,119,5.738,119,7.53v104.942
		c0,1.791-0.638,3.329-1.918,4.607c-1.282,1.282-2.82,1.92-4.609,1.92h-30.04V73.292h15.29l2.302-17.823H82.433V44.098
		c0-2.868,0.601-5.02,1.807-6.453c1.199-1.433,3.544-2.151,7.03-2.151l9.371-0.077V19.515c-3.228-0.46-7.786-0.691-13.676-0.691
		c-6.966,0-12.536,2.049-16.709,6.146c-4.177,4.099-6.263,9.884-6.263,17.362v13.137H48.63v17.823h15.363V119H7.53
		c-1.793,0-3.331-0.638-4.61-1.92C1.64,115.802,1,114.264,1,112.473V7.53c0-1.792,0.64-3.329,1.92-4.609C4.199,1.642,5.737,1,7.53,1
		H112.473z"/>
</g>
<text transform="matrix(1 0 0 1 -67.5449 52.2256)" font-family="'FontAwesome'" font-size="60"></text>
</svg>
