<?xml version="1.0" encoding="utf-8"?>
<!-- Generator: Adobe Illustrator 16.0.4, SVG Export Plug-In . SVG Version: 6.00 Build 0)  -->
<svg version="1.2" baseProfile="tiny" id="Layer_1" xmlns="http://www.w3.org/2000/svg" xmlns:xlink="http://www.w3.org/1999/xlink"
	 x="0px" y="0px" width="75px" height="60px" viewBox="0 0 75 60" xml:space="preserve">
<path fill="#FFFFFF" d="M72.845,11.969c0.004-0.99,0.045-1.958-0.203-2.926c-0.469-1.819-2.946-1.502-4.335-1.463
	c-2.54,0.071-5.013-0.188-7.474,0.458c0.032-1.985,0.327-3.96-0.063-5.934c-0.24-1.212-1.75-1.331-2.712-1.283
	c-1.165,0.057-3.582,0.076-4.438,0.858c-1.157,1.055-0.442,3.262-0.324,4.59c0.06,0.66-0.003,1.354-0.01,2.033
	c-1.065-0.097-2.186,0.001-3.23,0.071c-0.721,0.05-1.607,0.072-2.337,0.337c-0.002-1.565-0.257-3.113-0.295-4.677
	c-0.039-1.522-1.304-1.978-2.608-1.939c-1.218,0.036-3.464-1.025-4.399,0.236c-0.501,0.675-0.367,1.597-0.04,2.371
	c-0.064,1.39-0.05,2.798,0.096,4.163c-0.068-0.02-0.14-0.035-0.22-0.038c-1.378-0.041-2.934-0.352-4.295-0.108
	c-0.695,0.124-1.521,0.142-2.243,0.331c0.027-1.574,0.003-3.172-0.168-4.656c-0.221-1.937-1.283-2.657-3.069-3.093
	c-1.48-0.36-4.039-0.766-5.159,0.593c-0.439,0.533-0.478,1.279-0.365,2.073c-0.227,1.127,0.015,2.803,0.046,3.347
	c0.038,0.66,0.031,1.367,0.037,2.08c-0.059-0.01-0.121-0.016-0.189-0.013c-1.176,0.065-2.604-0.262-3.808,0.01
	c-0.073-1.362-0.094-2.726-0.283-4.073c-0.636-4.545-4.304-3.159-7.632-2.265c-0.442,0.12-0.852,0.583-0.811,1.064
	c0.152,1.75,0.434,3.495,0.851,5.206C11.521,8.58,9.008,8.678,7.443,8.708c-1.564,0.031-4.545,0.344-5.195,2.11
	c-0.374,1.018-0.12,2.298-0.082,3.359c0.058,1.614,0.159,3.227,0.257,4.84c0.006,0.099,0.009,0.197,0.015,0.298
	c-0.202,2.965-0.32,5.915-0.234,8.891C2.372,33.985,2.53,39.753,2.671,45.54c0.066,2.73,0.243,5.447,0.357,8.176
	c0.063,1.506-0.11,3.096,0.776,4.412c1.017,1.512,3.198,1.004,4.7,0.861c3.099-0.295,6.182-0.166,9.287-0.207
	c5.991-0.074,12.008-0.277,17.995-0.484c5.988-0.207,12.002-0.207,17.979-0.635c2.991-0.215,5.973-0.527,8.961-0.771
	c1.378-0.113,2.757-0.225,4.135-0.33c0.94-0.074,2.213-0.039,3.037-0.574c1.767-1.146,1.433-2.951,1.433-4.826
	c0-3.043,0.253-6.059,0.385-9.098c0.17-3.922,0.049-7.832,0.457-11.746c0.244-2.352,0.631-4.72,0.641-7.064
	c0.036-0.513,0.04-1.035,0.057-1.568c0.055-1.588,0.093-3.183,0.081-4.772C72.939,15.264,72.839,13.621,72.845,11.969 M56.128,2.676
	c0.504-0.092,1.015-0.144,1.521-0.204c0.931-0.113,1.548-0.306,1.675,0.918c0.121,1.176-0.043,2.391-0.112,3.565
	c-0.039,0.661-0.029,1.324-0.021,1.986c0.012,0.442,0.033,0.884,0.064,1.324c0.094,0.262,0.036,0.294-0.173,0.098
	c-1.161,0.149-2.378-0.029-3.545-0.051c-0.715-0.014-0.438,0.512-0.762-0.344c-0.099-0.262-0.17-0.527-0.232-0.796
	c0.024-0.125,0.018-0.257-0.024-0.375c0.034-1.331,0.132-2.658-0.033-3.996C54.3,3.293,54.76,2.927,56.128,2.676 M41.588,3.688
	c0.248-0.55,2.16,0.081,2.884,0.171c0.416,0.051,1.182-0.301,1.202,0.542c0.013,0.58,0.122,1.175,0.187,1.75
	c0.103,0.929,0.123,1.861,0.145,2.792c0.031,1.329-0.267,1.986-1.723,1.986c-0.813,0-1.889,0.543-2.269-0.815
	c-0.112-0.4-0.137-0.846-0.201-1.257c-0.079-0.504-0.021-3.312-0.398-4.676C41.461,4.015,41.515,3.851,41.588,3.688 M26.907,3.792
	c0.005-0.83,0.032-0.743,0.97-0.779c0.817-0.03,1.634,0.128,2.423,0.321c1.744,0.428,1.336,2.318,1.281,3.854
	c-0.061,1.707,0.113,3.389,0.079,5.093c0.265,0.315,0.19,0.428-0.224,0.336c-0.409,0.022-0.824,0.013-1.233,0.021
	c-0.814,0.017-1.565,0.244-2.389,0.091c-1.306-0.242-0.87-2.733-0.952-3.689c-0.03-0.351-0.051-1.551-0.146-2.798
	C26.882,5.442,26.902,4.616,26.907,3.792 M17.703,4.241c1.125-0.069,0.871,2.613,0.873,3.192c0.006,1.191,0.127,2.367,0.307,3.543
	c0.178,1.167,0.543,1.479-0.714,1.668c-0.723,0.109-1.422,0.33-2.156,0.413c-0.384,0.042-0.764,0.046-1.146,0.036
	c-0.036-0.001,0.134-1.691,0.139-1.731c0.289-2.148-0.177-4.256-0.523-6.376C15.546,4.687,16.581,4.31,17.703,4.241 M71.183,10.904
	c-0.004,2.455,0.004,4.915-0.021,7.37c-0.016,1.593-0.25,3.39-0.043,5.049c-0.03,1.106-0.073,2.212-0.184,3.318
	c-0.312,3.065-0.71,6.086-0.797,9.172c-0.162,5.707-0.667,11.482-0.469,17.186c0.079,2.258-2.818,1.861-4.186,1.98
	c-1.417,0.123-2.834,0.225-4.25,0.346c-3.236,0.277-6.465,0.609-9.708,0.805c-5.943,0.355-11.939,0.412-17.891,0.57
	c-5.996,0.162-12.015,0.453-18.013,0.453c-2.852,0-5.642,0.051-8.486,0.262c-1.59,0.119-2.201-0.225-2.33-1.805
	c-0.079-0.971-0.014-1.951-0.082-2.924c-0.201-2.855-0.243-5.719-0.315-8.58c-0.077-3.076-0.434-6.166-0.37-9.242
	c0.118-5.726-0.329-11.479-0.35-17.22c-0.001-0.27-0.004-0.539-0.008-0.81c0.004-0.19,0.01-0.381,0.013-0.57
	c0.015-1.117,0.044-2.233,0.08-3.351c0.062-1.903,1.405-2.217,3.065-2.344c2.006-0.152,4.223-0.029,6.16,0.537
	c-0.224,1.177-0.495,2.677,0.426,3.596c1.317,1.318,5.57,0.37,6.991-0.44c0.966-0.55,0.953-1.729,0.817-2.681
	c-0.039-0.276-0.071-0.555-0.099-0.834c0.274,0.033,0.553,0.036,0.831,0.042c0.955,0.019,1.931,0.145,2.879,0.128
	c0.09-0.002,0.169-0.02,0.243-0.046c0.052,0.68,0.151,1.34,0.355,1.944c0.637,1.882,2.757,1.909,4.39,1.723
	c0.917-0.104,1.854,0.105,2.756-0.158c0.977-0.287,1.008-1.765,1.038-2.569c0.021-0.51,0.039-1.035,0.056-1.566
	c0.479,0.151,1.082,0.083,1.559,0.025c1.679-0.206,3.327,0.058,5.01,0.081c0.16,0.002,0.292-0.039,0.4-0.105
	c0.146,0.743,0.422,1.394,1.134,1.909c0.987,0.716,3.259,0.397,4.386,0.183c1.052-0.201,1.37-1.345,1.48-2.317
	c0.612,0.091,1.398-0.122,1.928-0.173c1.219-0.115,2.472,0.027,3.691-0.078c0.021,0.823,0.167,1.647,0.695,1.957
	c0.637,0.373,1.502,0.194,2.195,0.213c1.16,0.034,2.286,0.146,3.444-0.001c1.695-0.214,1.308-1.561,1.24-2.872
	c1.559,0.293,3.22-0.062,4.812-0.05c1.134,0.008,2.257,0.166,3.39,0.137c0.548-0.014,1.084-0.008,1.623,0.084
	C71.29,9.342,71.184,10.495,71.183,10.904"/>
<path fill="#FFFFFF" d="M16.3,17.369c-0.005-0.024-0.011-0.05-0.016-0.075c-0.175-0.781-1.003-1.113-1.69-0.931
	c-2.5,0.077-4.991,0.551-7.483,0.525c-1.72-0.017-1.687,2.537,0,2.646c2.603,0.168,5.239-0.382,7.85-0.407
	C15.897,19.119,16.496,18.251,16.3,17.369"/>
<path fill="#FFFFFF" d="M66.222,19.792c-1.471-1.139-4.676-0.353-6.35-0.329c-4.146,0.053-8.266,0.307-12.406,0.479
	c-4.412,0.186-8.841,0.025-13.256,0.154c-4.182,0.122-8.305,0.58-12.464,0.957c-4.151,0.375-8.288,0.957-12.46,0.8
	c-0.371-0.013-0.66,0.258-0.774,0.59c-0.477,1.386-0.393,2.803-0.198,4.238c0.062,0.451,0.121,0.905,0.181,1.36
	c0.003,1.094,0.006,2.188-0.032,3.275c-0.046,1.281,0.195,2.572,0.185,3.859c-0.013,1.613-0.05,3.225-0.027,4.838
	c0.039,2.893,0.117,5.777,0.137,8.672c0.012,1.727-0.005,3.502,1.646,4.438c1.698,0.959,4.375,0.521,6.204,0.434
	c2.961-0.141,5.933-0.158,8.888-0.391c5.824-0.457,11.64-1.156,17.473-1.48c5.932-0.328,11.835-0.637,17.772-0.838
	c1.024-0.035,3.51,0.596,4.133-0.656c1.061-2.135,0.878-4.896,0.997-7.215c0.299-5.885,0.613-11.744,1.038-17.625
	C67.026,23.71,67.746,20.971,66.222,19.792 M42.276,41.659c-0.221,0.012-0.441,0.025-0.662,0.039c0.09-0.105,0.176-0.221,0.258-0.34
	c0.089-0.068,0.175-0.141,0.25-0.221c0.057-0.062,0.104-0.125,0.152-0.189C42.274,41.187,42.276,41.423,42.276,41.659
	 M23.646,22.449c-0.092,0.253-0.139,0.55-0.161,0.867c-0.011,0.069-0.023,0.14-0.035,0.208c-0.03-0.204-0.07-0.388-0.122-0.546
	c-0.067-0.202-0.178-0.351-0.311-0.457C23.227,22.497,23.437,22.473,23.646,22.449 M21.926,28.759
	c0.554,0.026,1.107-0.042,1.602-0.247c0.115,0.061,0.228,0.13,0.34,0.204c0.019,0.019,0.036,0.041,0.057,0.057
	c-0.688,0.01-1.374,0.02-2.06,0.024C21.884,28.784,21.904,28.772,21.926,28.759 M21.698,22.676c-0.161,0.197-0.24,0.466-0.158,0.795
	c0.026,0.11,0.048,0.222,0.071,0.333c0.008,0.046,0.011,0.102,0.016,0.152c-0.128-0.021-0.259-0.036-0.395-0.045
	c0.014-0.234,0.013-0.465-0.005-0.688c-0.014-0.173-0.086-0.333-0.19-0.47C21.257,22.728,21.477,22.704,21.698,22.676
	 M20.903,25.602c0.222,0.015,0.441,0.039,0.659,0.063c-0.04,0.245-0.095,0.478-0.162,0.693c-0.195-0.035-0.389-0.077-0.576-0.123
	c-0.006-0.122-0.008-0.244-0.007-0.363C20.851,25.783,20.874,25.691,20.903,25.602 M19.537,22.927
	c-0.048,0.119-0.095,0.254-0.14,0.399c-0.038-0.125-0.081-0.248-0.132-0.368C19.355,22.948,19.445,22.937,19.537,22.927
	 M19.06,28.277c0.11-0.075,0.216-0.157,0.319-0.247c0.165,0.334,0.391,0.609,0.692,0.787c-0.699,0.009-1.398,0.024-2.097,0.06
	c0.01-0.262,0.021-0.538,0.03-0.818C18.249,28.367,18.712,28.514,19.06,28.277 M9.877,23.478c2.138,0.066,4.283-0.04,6.43-0.225
	c0.286,0.547,0.176,2.767,0.197,3.233c0.035,0.834-0.002,1.664-0.044,2.496c-0.413,0.039-0.826,0.084-1.24,0.143
	c-1.737,0.246-3.699,0.147-5.432,0.573c0.035-0.506,0.062-1.011,0.066-1.517C9.869,26.596,9.515,25.02,9.877,23.478 M9.921,35.177
	c0.003-1.449-0.061-2.887-0.158-4.322c1.854-0.268,3.772-0.121,5.641-0.373c0.33-0.043,0.66-0.076,0.991-0.102
	c-0.087,2.032-0.148,4.063-0.128,6.096c-0.309,0.041-0.617,0.082-0.927,0.117c-1.736,0.203-3.698,0.266-5.404,0.717
	C9.929,36.599,9.92,35.888,9.921,35.177 M9.948,38.612c0.121-0.027,0.228-0.092,0.31-0.18c1.619-0.348,3.461-0.324,5.082-0.486
	c0.318-0.031,0.635-0.068,0.954-0.104c0.052,1.762,0.166,3.516,0.305,5.268c-2.234,0.271-4.465,0.666-6.523,1.309
	C10.029,42.483,9.979,40.548,9.948,38.612 M13.765,44.95c0.16-0.016,0.32-0.033,0.48-0.053c-0.092,0.123-0.169,0.254-0.229,0.385
	c-0.149,0.33-0.257,0.738-0.325,1.182c-0.22,0.02-0.412,0.086-0.575,0.182c0.198-0.357,0.403-0.697,0.6-1.004
	C13.878,45.386,13.869,45.142,13.765,44.95 M10.242,50.233c-0.1-0.562-0.1-1.186-0.099-1.777c0.049,0.039,0.093,0.078,0.152,0.111
	c0.099,0.059,0.202,0.084,0.306,0.098C10.421,49.208,10.289,49.747,10.242,50.233 M10.116,46.456
	c-0.009-0.391-0.015-0.781-0.022-1.172c0.315-0.021,0.63-0.049,0.945-0.074C10.734,45.536,10.38,45.983,10.116,46.456
	 M12.509,47.878c0.012,0.26,0.079,0.539,0.215,0.828c0.037,0.076,0.08,0.154,0.124,0.23c-0.154-0.008-0.303-0.008-0.44,0
	c-0.104,0.004-0.197,0.027-0.285,0.059C12.219,48.62,12.353,48.245,12.509,47.878 M12.739,52.175c-0.144-0.006-0.287-0.01-0.43-0.02
	c-0.039-0.004-0.068-0.01-0.105-0.014c0.261-0.084,0.516-0.223,0.763-0.404C12.833,51.853,12.759,52.009,12.739,52.175
	 M13.807,51.435c-0.16,0.045-0.32,0.09-0.482,0.129c-0.11,0.025-0.2,0.066-0.278,0.115c0.205-0.16,0.405-0.35,0.598-0.559
	c0.204,0.033,0.409,0.068,0.614,0.105C14.122,51.313,13.967,51.382,13.807,51.435 M16.316,52.138
	c0.181-0.143,0.331-0.301,0.433-0.477c0.179-0.049,0.35-0.131,0.505-0.268c0.021-0.02,0.034-0.039,0.053-0.059
	c0.021,0.254,0.04,0.508,0.06,0.762C17.017,52.11,16.667,52.124,16.316,52.138 M18.026,23.087c0.002,0.005,0.003,0.008,0.004,0.014
	c0.143,0.469,0.176,0.97,0.152,1.48c-0.108,0.06-0.209,0.122-0.303,0.187c-0.092-0.574-0.236-1.124-0.461-1.617
	C17.622,23.131,17.825,23.109,18.026,23.087 M17.927,30.302c1.34-0.031,2.685,0.016,4.017,0.013
	c0.919-0.002,1.841-0.013,2.761-0.025c-0.076,1.491-0.152,2.981-0.184,4.473c-0.005,0.229-0.006,0.455-0.007,0.682
	c-0.671,0.07-1.342,0.139-2.013,0.213c-1.562,0.172-3.115,0.398-4.67,0.613C17.794,34.282,17.86,32.29,17.927,30.302 M17.872,37.665
	c1.543-0.188,3.085-0.385,4.629-0.559c0.672-0.076,1.346-0.143,2.019-0.215c0.033,1.854,0.152,3.705,0.305,5.557
	c-0.833,0.043-1.666,0.09-2.497,0.15c-1.336,0.096-2.727,0.199-4.131,0.338C18.058,41.183,17.938,39.427,17.872,37.665
	 M25.548,51.716c-0.475,0.037-0.951,0.076-1.427,0.109c-1.711,0.117-3.431,0.166-5.149,0.219c-0.188-2.547-0.435-5.082-0.651-7.621
	c1.333-0.154,2.669-0.299,4.007-0.404c0.872-0.07,1.744-0.121,2.618-0.166c0.223,2.492,0.482,4.982,0.655,7.467
	C25.548,51.438,25.525,51.573,25.548,51.716 M25.521,22.242c0.441-0.046,0.883-0.095,1.324-0.138
	c2.275-0.213,4.557-0.345,6.841-0.426c-0.083,2.229,0.343,4.457,0.234,6.703c-2.615,0.184-5.235,0.294-7.856,0.354
	c0.002-0.234,0.004-0.47,0.004-0.705c-0.001-1.126-0.023-2.253-0.112-3.376C25.903,23.991,25.479,22.951,25.521,22.242
	 M26.047,30.265c2.611-0.057,5.22-0.166,7.827-0.335c-0.016,1.547,0.078,3.1,0.128,4.651c-2.665,0.193-5.326,0.434-7.984,0.705
	C25.984,33.612,26.02,31.938,26.047,30.265 M26.065,36.728c2.651-0.266,5.307-0.494,7.963-0.68c0,0.064,0.004,0.129,0.004,0.195
	c-0.003,1.955,0.031,3.912,0.07,5.867c-2.543,0.1-5.089,0.158-7.631,0.262C26.304,40.493,26.15,38.612,26.065,36.728 M27.178,51.583
	c-0.103-2.607-0.342-5.207-0.58-7.807c2.51-0.098,5.024-0.146,7.534-0.234c0.004,0.221,0.009,0.441,0.013,0.662
	c0.044,2.195-0.157,4.521,0.139,6.705C31.915,51.134,29.548,51.376,27.178,51.583 M34.856,21.643
	c2.307-0.064,4.615-0.085,6.922-0.093c0.124,2.009,0.214,4.019,0.285,6.029c-1.988,0.233-3.978,0.459-5.974,0.634
	c-0.257,0.021-0.515,0.038-0.773,0.06C35.245,26.058,35.109,23.846,34.856,21.643 M35.358,29.822
	c0.492-0.036,0.985-0.07,1.478-0.111c1.766-0.149,3.524-0.348,5.283-0.555c0.048,1.662,0.082,3.322,0.106,4.984
	c-1.384,0.051-2.767,0.113-4.149,0.184c-0.888,0.049-1.773,0.107-2.659,0.166C35.404,32.935,35.392,31.378,35.358,29.822
	 M40.511,35.679c0.198-0.01,0.397-0.018,0.594-0.025c-0.086,0.127-0.146,0.275-0.167,0.436c-0.004,0.033-0.003,0.066-0.007,0.1
	c-0.148-0.008-0.298,0.021-0.432,0.082c0.009-0.02,0.019-0.039,0.026-0.061C40.602,36.013,40.585,35.833,40.511,35.679 M40,37.247
	c-0.025,0.357-0.084,0.725-0.154,1.096c-0.108-0.041-0.231-0.053-0.365-0.023c-0.137,0.033-0.269,0.068-0.396,0.107
	C39.423,38.056,39.731,37.671,40,37.247 M38.326,40.405c-0.026,0.01-0.053,0.016-0.078,0.023c-0.074-0.002-0.15-0.004-0.226-0.004
	c0.023-0.113,0.051-0.23,0.084-0.357C38.167,40.188,38.244,40.302,38.326,40.405 M35.459,38.589
	c0.075-0.033,0.146-0.068,0.216-0.107c-0.081,0.188-0.152,0.369-0.211,0.543C35.462,38.878,35.461,38.733,35.459,38.589
	 M35.489,40.38c0.076,0.086,0.18,0.152,0.316,0.197c-0.105,0.031-0.21,0.07-0.312,0.117C35.492,40.589,35.489,40.483,35.489,40.38
	 M42.271,50.269c-0.248,0.014-0.495,0.029-0.742,0.043c-1.988,0.123-3.976,0.291-5.961,0.477c0.268-2.146,0.029-4.436-0.01-6.584
	c-0.004-0.238-0.008-0.479-0.013-0.717c0.479-0.02,0.958-0.043,1.437-0.068c1.766-0.096,3.532-0.199,5.298-0.297
	C42.279,45.505,42.272,47.886,42.271,50.269 M51.902,32.024c0.035-0.178,0.083-0.357,0.142-0.535
	c0.121,0.143,0.248,0.281,0.381,0.41c-0.128,0.145-0.247,0.273-0.349,0.381c-0.06,0.061-0.125,0.113-0.188,0.17
	C51.894,32.308,51.898,32.167,51.902,32.024 M53.002,33.884c0.011,0.033,0.025,0.061,0.04,0.094c-0.319,0-0.639-0.002-0.956-0.002
	c0.006-0.002,0.012-0.004,0.019-0.006c0.298-0.131,0.57-0.324,0.825-0.549C52.931,33.579,52.952,33.733,53.002,33.884
	 M52.958,29.472c0.062-0.116,0.126-0.233,0.188-0.349c0.07-0.133,0.235-0.57,0.38-0.911c0.021,0.051,0.041,0.102,0.063,0.153
	c0.019,0.043,0.097,0.043,0.115,0c0.06-0.139,0.115-0.276,0.171-0.415c0.112-0.011,0.227-0.022,0.34-0.033
	c-0.211,0.422-0.433,0.969-0.626,1.566C53.374,29.469,53.162,29.465,52.958,29.472 M52.012,28.721
	c0.006-0.195,0.015-0.391,0.019-0.585c0.136-0.013,0.27-0.027,0.402-0.039C52.295,28.303,52.153,28.511,52.012,28.721
	 M43.833,50.175c-0.009-2.379-0.035-4.758-0.062-7.135c1.957-0.105,3.914-0.193,5.873-0.26c-0.126,2.287,0.087,4.561-0.022,6.832
	c-0.004,0.078,0.009,0.16,0.033,0.24C47.716,49.954,45.775,50.062,43.833,50.175 M49.757,41.3c-2,0.062-4,0.162-5.999,0.273
	c-0.021-2.004-0.04-4.008-0.045-6.012c2.162-0.062,4.325-0.096,6.488-0.105C50.121,37.415,49.926,39.351,49.757,41.3 M50.274,33.972
	c-2.186,0.01-4.371,0.055-6.555,0.123c0.017-1.709,0.059-3.424-0.007-5.127c2.289-0.272,4.58-0.537,6.882-0.712
	C50.551,30.163,50.379,32.065,50.274,33.972 M50.604,26.647c-2.321,0.205-4.637,0.473-6.951,0.745
	c-0.062-1.956-0.092-3.972-0.595-5.846c0.724-0.001,1.446-0.002,2.169-0.003c1.807-0.002,3.609-0.104,5.411-0.215
	C50.538,23.096,50.593,24.875,50.604,26.647 M57.279,49.503c-1.994,0.078-3.988,0.166-5.98,0.264
	c0.006-0.043,0.014-0.084,0.013-0.129c-0.001-0.039-0.002-0.078-0.004-0.119c-0.002-0.09-0.021-0.172-0.049-0.248
	c0.031-0.91-0.099-1.799-0.136-2.713c-0.047-1.189,0.106-2.408,0.127-3.6c0.002-0.076,0.007-0.154,0.009-0.232
	c1.98-0.055,3.986-0.127,5.994-0.166c-0.017,0.566-0.031,1.131-0.042,1.695c-0.02,1.037,0.123,2.055,0.146,3.088
	C57.376,48.091,57.142,48.753,57.279,49.503 M57.555,36.218c-0.112,1.625-0.193,3.254-0.253,4.885
	c-1.895,0.043-3.788,0.111-5.661,0.148c-0.1,0-0.199,0.004-0.299,0.006c0.147-1.785,0.419-3.562,0.448-5.357
	c0.002-0.15,0.008-0.299,0.011-0.449c0.136,0,0.272-0.002,0.408-0.002c1.797,0.006,3.601-0.006,5.396,0.094
	C57.589,35.767,57.57,35.993,57.555,36.218 M57.712,34.091c-0.183-0.01-0.365-0.012-0.546-0.021
	c0.078-0.059,0.152-0.127,0.217-0.215c0.139-0.193,0.271-0.414,0.396-0.654C57.757,33.497,57.733,33.796,57.712,34.091
	 M58.189,26.068c-0.012-0.001-0.024-0.002-0.038-0.002c-2.058-0.06-4.06,0.231-6.089,0.444c0.02-1.749-0.014-3.502-0.142-5.263
	c0.719-0.047,1.438-0.092,2.158-0.127c1.335-0.07,2.672-0.091,4.008-0.107C58.211,22.68,58.23,24.37,58.189,26.068 M64.282,45.042
	c-0.032,0.709,0.036,4.34-0.97,4.402c-1.271,0.08-2.608-0.07-3.896-0.023c-0.167,0.004-0.334,0.012-0.501,0.018
	c0.347-1.723,0.058-3.445,0.065-5.184c0.002-0.572,0.016-1.145,0.029-1.717c1.797-0.012,3.588,0.02,5.357,0.131
	C64.344,43.46,64.316,44.251,64.282,45.042 M64.562,36.704c-0.07,1.488-0.111,2.982-0.151,4.475
	c-1.771-0.107-3.561-0.127-5.354-0.107c0.066-1.801,0.164-3.602,0.254-5.398c1.645,0.168,3.618,0.127,5.282,0.508
	C64.583,36.354,64.57,36.53,64.562,36.704 M64.677,34.688c-1.327-0.232-2.777-0.188-4.08-0.35c-0.407-0.049-0.814-0.09-1.22-0.127
	c0.094-2.154,0.157-4.309,0.151-6.464c1.888,0.081,3.77,0.241,5.657,0.272C65.007,30.239,64.818,32.464,64.677,34.688
	 M65.494,23.394c-0.087,0.987-0.13,1.982-0.188,2.973c-1.918-0.019-3.831-0.153-5.745-0.242c0.073-1.714,0.21-3.559-0.366-5.124
	c1.431-0.018,2.859-0.043,4.287-0.134c0.525-0.032,1.082-0.032,1.601,0.052C65.854,21.042,65.536,22.907,65.494,23.394"/>
</svg>
