<?xml version="1.0" encoding="utf-8"?>
<!-- Generator: Adobe Illustrator 16.0.4, SVG Export Plug-In . SVG Version: 6.00 Build 0)  -->
<!DOCTYPE svg PUBLIC "-//W3C//DTD SVG 1.1//EN" "http://www.w3.org/Graphics/SVG/1.1/DTD/svg11.dtd">
<svg version="1.1" id="Layer_1" xmlns="http://www.w3.org/2000/svg" xmlns:xlink="http://www.w3.org/1999/xlink" x="0px" y="0px"
	 width="32px" height="32px" viewBox="0 0 32 32" enable-background="new 0 0 32 32" xml:space="preserve">
<path fill="#3B4566" d="M30.434,31.851H1.565c-0.783,0-1.417-0.635-1.417-1.416V1.566c0-0.783,0.634-1.417,1.417-1.417h28.868
	c0.783,0,1.418,0.634,1.418,1.417v28.868C31.852,31.216,31.217,31.851,30.434,31.851"/>
<path fill="#F0F0F0" d="M7.57,21.704c1.585-0.186,3.184-0.338,4.343-1.357c-0.786-0.57-1.621-1.027-2.265-1.678
	c-0.737-0.744-0.623-0.971,0.406-1.309c-0.938-0.518-1.675-1.157-2.035-2.146c-0.411-1.13-0.348-1.233,0.938-1.168
	c-0.191-0.269-0.336-0.466-0.474-0.669c-0.682-1.011-0.881-2.101-0.51-3.274C8.188,9.42,8.345,9.376,8.833,9.892
	c1.321,1.396,2.885,2.393,4.742,2.906c0.375,0.104,0.767,0.146,1.143,0.247c0.653,0.176,0.905,0.01,0.916-0.731
	c0.032-2.277,1.792-3.856,4.028-3.615c0.557,0.06,1.16,0.29,1.604,0.625c0.553,0.417,1.029,0.45,1.609,0.182
	c0.32-0.148,0.66-0.254,0.99-0.379c0.057,0.056,0.113,0.11,0.168,0.165c-0.262,0.452-0.523,0.903-0.854,1.472
	c0.439-0.069,0.779-0.122,1.117-0.176l0.133,0.151c-0.32,0.368-0.604,0.784-0.973,1.092c-0.434,0.362-0.58,0.76-0.596,1.32
	c-0.131,4.337-2.736,8.081-6.768,9.552c-2.739,0.998-5.471,0.777-8.098-0.52c-0.147-0.072-0.275-0.184-0.413-0.277
	C7.579,21.839,7.574,21.772,7.57,21.704"/>
</svg>
