<svg version="1" xmlns="http://www.w3.org/2000/svg" width="426.667" height="426.667" viewBox="0 0 320.000000 320.000000"><path d="M155.5 8.4c-4.9.7-11 1.8-13.5 2.4-2.5.6-10.1 1.3-17 1.6-17.1.7-30.5 3.7-42 9.6-19 9.6-35.5 28.2-44.3 49.8-2.4 5.7-5.1 10-9.4 14.9-11.9 13.5-19.9 28-24.9 44.8-3.5 12-4.5 35.2-2 49.1 5.4 31.3 24.5 63.9 50.8 87.2 22.2 19.6 53.4 34.9 83.3 41 31.9 6.5 59.4 4.4 86.6-6.8 15.7-6.5 33.3-18.9 44.1-31.2 3.5-3.9 7.9-8.5 9.8-10.1 18.8-16.6 32.7-38.7 38.6-61.4 3.5-13.2 4.3-32.9 2.1-46.9-.9-5.4-1.9-12.6-2.2-15.9-1.7-16.1-8.2-33.6-18.5-49.9-13.3-21.2-26.1-33.7-44.8-43.3-13.1-6.9-25.4-10.6-45.7-13.8-13-2.1-19.5-3.6-27.3-6.7-10.7-4.1-27.7-8.8-31.8-8.8-1.2 0-2.5-.4-2.8-.9-1-1.5 15.4-3.5 27.9-3.4 13.3.1 27.5 2.6 39.7 6.9 11.1 4 29.2 13.6 39.7 21.2 8.9 6.3 29.5 25.6 35.5 33.1 1.5 1.8 3 3.1 3.3 2.8 1-1-4.5-7.6-15.1-18.3-19.6-19.5-40-32.6-63.4-40.8-18.8-6.5-39.3-8.8-56.7-6.2zm-37.1 11.5c-13 6.4-24.2 14.2-35 24.3-3.8 3.6-9.7 8.1-13.1 10.2-3.4 2-11.9 7.9-18.8 13.1-6.9 5.2-12.5 8.9-12.5 8.4 0-.6 2.3-5.6 5.2-11.1 16.6-32.5 44.3-49.7 81.3-50.7l4.9-.1-12 5.9zm32.4-3.3c4.2.9 12.7 3.2 18.7 5.2 10.7 3.6 10.9 3.7 6.5 4-12.5.7-35.8 3.6-46.5 5.7-12.1 2.4-32.4 8.9-39.7 12.6-2.2 1.1-4.2 1.8-4.5 1.6-.6-.7 10.2-9.6 17.5-14.5 9-6.1 14.4-9.1 23.4-12.7 9.4-3.9 13.4-4.2 24.6-1.9zM169 30c-1.9.5-5.5 1.3-8 1.8-3.9.8-4.1 1-1.5 1.2 1.8.1-.7.9-6.2 2.1-5 1-12.4 3-16.5 4.3l-7.3 2.3 15.5.1c29.1.2 53.5 4.7 80.7 15.2 6.6 2.6 7.3 2.7 5.7.9-1-1.1-5.2-4.5-9.3-7.6-9.7-7.3-10.3-7.9-6.1-5.8 6 2.9 1.5-.7-8.4-6.9-10.5-6.6-9.5-7 7.4-2.7 19 4.8 30.8 9.9 45.6 19.6 17 11.3 30.6 26.8 39.4 44.9 4.4 9 8.8 22.2 7.7 23.2-.2.2-2.6-3.1-5.2-7.4-5.8-9.1-21.1-25.2-31-32.7-10.9-8.1-18.6-12.8-17.8-10.8.6 1.4.1 1.3-3-.6-2-1.2-3.7-1.9-3.7-1.6 0 .4 2.5 3.5 5.6 6.8 7.2 7.8 14.8 17.9 21.8 29.1 3.1 4.9 5.6 8.5 5.6 8 0-2.3-10.6-21.8-16-29.2-3.2-4.5-5.6-8.2-5.2-8.2 1.6.1 18.5 13.5 25.3 20.2 8.7 8.5 14.8 16.4 21 26.8l4.4 7.5-.1 17.5c-.1 15.8-.3 18.3-2.7 26-1.4 4.7-3.6 10.7-4.8 13.5l-2.3 5-.7-12.5c-1-17.8-4.6-33.3-11.6-50-3.3-7.9-6.7-13.9-4.4-7.8 1.9 5 .2 2.9-3.3-4-7.2-14.3-21.1-33.5-34-47.1-5.6-5.9-13-9.8-29.5-15.5-24.8-8.6-46.7-11.9-75-11.4l-20.6.3-9.8 4.7c-12.4 6-24.6 13.3-33.8 20.5-6.1 4.6-7 5.1-5.5 2.7l1.9-2.9-3.4 3c-1.9 1.6-5.8 5.2-8.7 7.9-5.4 5.3-6.2 5.4-3.7.7 3.8-7.4 32.7-29.4 42.6-32.4 2.4-.8 6.1-2.5 8.2-3.9 10.3-7.1 42.2-15.5 59.2-15.6 4.8 0 4.8 0 1.5.8zm31.3 5.5c4.2 2.5 7.7 4.7 7.7 5 0 .2-2.6-.5-5.7-1.6-6.6-2.2-23.4-5.8-28.5-6-3.3-.2-3.3-.2.7-.9 2.2-.4 7.2-.8 11-.9 6.7-.1 7.5.1 14.8 4.4zM127 34.4c0 .2-3.5 1.6-7.7 3.1-4.3 1.5-10.8 4.3-14.5 6.1-3.7 1.9-10.9 4.8-16 6.5-5.1 1.6-10 3.3-10.8 3.5-.8.3-.5-.3.7-1.4 3.5-3 22.6-11 35.3-14.7 11.8-3.5 13-3.8 13-3.1zm119.6 8.1c7.3 3.3 20.3 11.4 22.4 14 .7.8-1.9-.6-5.6-3.2-3.8-2.5-11.8-7-17.9-10-11.6-5.7-10.9-6.2 1.1-.8zM81.3 57c-3.2 2.1-8 5.8-10.6 8.1-2.7 2.3-5 4-5.2 3.7-.2-.2 1.5-2.9 3.9-5.9 3.4-4.3 5.6-6 9.7-7.6 8.2-3.1 8.7-2.7 2.2 1.7zM62.2 69.9c-3.7 5.4-8.8 12.6-11.5 15.9-2.6 3.4-8.1 12.1-12.3 19.4-4.2 7.3-8 13.7-8.6 14.3-2 2.1 3.2-27.7 5.7-32.5 2.5-4.8 18-18.7 25.6-22.9 4.1-2.2 7.5-4.1 7.6-4.1.1 0-2.8 4.4-6.5 9.9zm77.4-5.6c.2.2-.3 3.7-1.1 7.7s-1.4 7.4-1.2 7.6c.1.2 2.2-2.8 4.6-6.6 4.4-7.2 5.3-7.7 10.9-6.2 2.2.7 2.1.9-3.4 9.7l-5.6 9 1.1 11c.7 6 1.4 12 1.7 13.3.4 2.2.2 2.3-3.3 1.6-2.1-.4-4.3-1.1-4.9-1.6-.7-.4-1.5-5.6-1.9-11.4-.4-5.8-.9-10.4-1.1-10.2-.2.2-1.3 5-2.5 10.6-2.1 10.1-2.2 10.2-4.8 9.6-5.8-1.3-6.1-1.5-5.6-3.7 1-4.5 8.5-40.8 8.5-41.4 0-.6 7.9.3 8.6 1zm31.8 5.7c4.2 1.5 6.6 4.7 6.6 8.5 0 5.3-5.7 31.4-7.4 34-4.1 6.3-19.4 3.2-21-4.3-.6-2.4 2.7-21.2 5.4-31.3 1.8-6.8 8.9-9.8 16.4-6.9zm27.1 6.3c4.4 2.1 5.5 3.9 5.5 8.6 0 6.5-.9 7.6-5.6 6.4-3.6-.8-3.9-1.1-3.6-4 .4-3.5-2.5-5.5-4.3-2.9-1.6 2.2-6 24.9-5.2 27 1 2.6 3.9 1.5 5-1.8.7-2 .6-3-.2-3.6-.9-.5-1-1.7-.4-4.1.5-1.9 1.1-3.3 1.4-3.2.2 0 2.5.4 5.2.8s4.7 1.2 4.7 2c0 4.5-3.5 15.6-5.5 17.5-5.1 4.8-17 1.9-19.6-4.8-.9-2.4 3.9-28.6 6.3-34.6 2-5 9.8-6.6 16.3-3.3zm18.6 4.3c.4.2-.8 7.6-2.7 16.5-4 19-4.1 20.9-1.5 20.9 1.1 0 2.2-.4 2.5-.9.5-.8 3.6-14.6 6.6-29.4l1.2-5.9 3.6.7c2.1.4 4 1 4.4 1.3.9.9-6.7 36.5-8.4 39.1-4 6.4-18.1 4.6-20.9-2.6-.8-2.1-.2-6.7 2.6-20.2 4.9-23.5 4-21.4 8.3-20.6 2 .4 4 .9 4.3 1.1zM59.4 87.7C54.1 95.5 49.2 105 46 113.8c-2.8 7.7-3.8 7.4-1.5-.5 4.1-14.7 6.6-19.6 12.8-26.1 3.4-3.4 6.3-6.2 6.4-6.2.2 0-1.8 3-4.3 6.7zm-31.7 6C14 113.5 7.1 131.6 4.9 153.1c-1.1 11.3-.1 27.4 2.2 36.3.6 2.1.8 4 .6 4.3-.9.8-3.7-13.4-4.8-23.8-1.9-19.1 1.7-38.3 10.6-56.4 4.6-9.2 17.2-27.5 19-27.5.3 0-1.9 3.5-4.8 7.7zm23.4-3.9c-.5 1-1.8 2.5-2.8 3.3-1.2 1-1.1.5.6-1.9 2.4-3.5 3.8-4.3 2.2-1.4zm-20.6 8.5c-2.2 9.5-3.8 23.3-3 26.4l.7 2.8 1.9-3.5 2-3.5-.6 3c-.3 1.6-.8 3.8-1.1 4.7-.3 1-.1 1.8.4 1.8s1.5-2.1 2.1-4.6c2-7.7 5.8-16.2 9.7-21.5 2-2.7 3.8-4.9 4-4.7.1.2-.8 3.6-2.1 7.6-2.1 6.5-4.2 15.7-6 26.3-.5 3.6-.4 3.7 4.1 5.9 10.2 4.7 26.9 6.2 39 3.4 8.4-1.9 14.4-4.9 21.7-10.9 4.8-3.9 5.8-4.4 6.4-2.9.3.9.1 2.5-.6 3.6-1.2 1.9-.6 5.8.9 6.8.5.3 1.3 4 1.9 8.3.8 5.8.8 8.2-.1 9.6-.9 1.5-.8 2.4.5 4.5.9 1.4 1.7 2.8 1.7 3 0 1.2-8 4.5-14.9 6.2-14.3 3.4-34.7-.7-51.9-10.4-4.1-2.3-7.5-4.2-7.6-4.2-.1 0 .2 4 .6 8.8 4.6 52.2 44.1 92.4 101.1 102.9 12.8 2.4 39.8 2.3 52.7-.1 18.4-3.5 39.9-11.9 57-22.2 4.3-2.6 4.4-2.7 2.5-.4l-2 2.4 3.5-2.4c8.8-6 16.1-12.1 23.5-19.5 4.4-4.4 6.6-6.2 4.8-4-7.8 10.1-26.4 26.1-37.8 32.6l-4 2.2 4-3.7 4-3.7-7.5 4c-17.3 9.2-39.3 16.1-58.2 18.1-33 3.5-66.1-3.7-92.4-20.1-10.1-6.3-24.2-19.3-31.4-28.7-7.2-9.5-14.9-25.4-18.1-37.4-2.9-10.9-3.9-10.8-1.4.2 2.6 10.8 5.5 19 10.6 29.2 2.6 5.4 4.6 9.8 4.4 9.8-1.1 0-10.2-15.2-14.5-24.2-6.7-14.2-10.1-27.2-10.7-42.3-.7-14.7-2.2-18.8-2.3-5.9 0 22.5 7.7 46.7 21.4 67.2C55 227 65.8 239.2 67 238.5c.4-.2 4.1 2.5 8.1 6.1 16.1 14.2 34.7 24.7 56.4 32 16.8 5.6 23.6 6.3 39 4 20.7-3.2 42.8-9.8 58.6-17.5 6.3-3.1 6.3-3.1 3.4-.6-3 2.6-3 2.6 3.1-.4 12.7-6.2 27.6-17.2 38.9-28.5 13.3-13.4 19.3-21.6 17.9-24.7-.9-1.9-1.1-1.8-4.1 2.3-5 6.9-14.9 17.3-21.7 22.7-3.5 2.8-6.6 5.1-6.9 5.1-.4 0 1.9-3.5 5-7.8 6-8.3 12.2-20 16-30l2.3-6.3-2.2-2c-3.5-2.9-14.2-7.9-21.6-10-7.9-2.3-21.3-2.5-28.7-.5-2.7.7-7.3 2.5-10.2 3.9-2.9 1.5-5.5 2.7-5.8 2.7-1 0-.5-3.6.7-4.8.9-.9 1.3-5 1.4-12.4.1-9.1.4-11.3 1.7-12.3 1.9-1.4 2.2-4.6.7-6.1-3.4-3.4 13.3-5.8 23.8-3.4 13 2.9 27.5 10.7 38.3 20.7l5.7 5.4.8-5.8c.6-5.3 0-26.2-1.1-34.3l-.5-3.5 1.5 3.3c4.8 10.3 9.3 32.1 9.7 46.7.3 12.8-1.7 38.4-2.9 37.1-.3-.3-1.9 1.5-3.5 4-4.2 6.7-20.1 22-30.9 29.7-18.7 13.4-46.3 25-70.6 29.7-12.7 2.4-17 2.6-29.8 1.1-5.5-.6-16.1-1.3-23.5-1.6-16.3-.6-28.3-2.5-37-5.8-33.9-12.8-61-38.1-73-68-8.8-22.1-9.9-43.2-3.3-65.6 1.4-4.7 2.8-9.4 3-10.4.3-.9.1-1.7-.4-1.7-1.3 0-6.1 15.8-7.5 24.5-1.7 11.5-.5 32.3 2.7 43 8.3 28.5 27.2 52.1 55.6 69.6 9.1 5.6 8.9 5.6-2.6.8-11-4.5-24.4-13.7-33.9-23.2C21.7 228.1 10.3 204.2 7 178c-2.7-22.1 1.2-44.4 11.5-65.1 4.1-8.3 12.3-21.4 13-20.7.2.2-.3 2.9-1 6.1zM145 130.1l5 1.1.1 10.6c.1 5.9.1 11 0 11.4 0 .5.2.8.7.8.4 0 2.8-4.6 5.4-10.1l4.8-10.2 4.1.7c2.3.4 4.7 1 5.4 1.4.8.5 0 6.5-3.4 22.5l-4.5 21.9-3.4-.6c-1.9-.3-3.7-.8-4-1.1-.3-.3.4-5.1 1.6-10.7 1.2-5.6 2-10.3 1.8-10.5-.1-.2-2.4 4.2-4.9 9.8-4.4 9.5-4.8 10-7.4 9.7l-2.8-.3-.5-12c-.5-12.8-.8-12.7-3.8 1.5l-1.8 8.5-3.4-.3c-1.9-.1-3.6-.4-3.8-.7-.6-.5 8.7-44.5 9.4-44.5.1 0 2.6.5 5.4 1.1zm43.1 9l5.1 1.1-.7 3.6c-.9 5.1-1 5.1-5.5 4-2.3-.6-4.2-.9-4.4-.7-.3.2-.7 2.1-1.1 4.1l-.7 3.7 4.1.7c2.3.4 4.3 1 4.6 1.4.2.4 0 2.4-.6 4.4-1.1 4-1.3 4-8 2-1.9-.5-2.5.6-3.4 6.8l-.7 4.5 3.8.8c2.2.4 4.2.9 4.5 1.1.6.4-.5 7.1-1.3 7.9-.4.4-16.6-3-17.2-3.6-.3-.3 1.5-9.9 4-21.4 2.4-11.6 4.4-21.4 4.4-21.9 0-.9 4.2-.4 13.1 1.5zm126.3 14.2c-.2 12.4-2.4 25.5-6.2 36.8-2.9 8.4-10.2 24.2-10.9 23.5-1-1 2-12.8 5.2-20.1 1.9-4.4 4.6-12.3 5.9-17.5 2.6-9.7 4.9-29.2 3.9-33.2-.5-1.9-.3-2.1.8-1 1 1 1.4 4 1.3 11.5zm2.6 26.8c-2.5 26.2-13.2 50.2-30.9 68.9l-6.2 6.5 4.6-8.6c2.5-4.8 5.9-12.4 7.6-17 1.7-4.6 5-11.8 7.4-15.9 8.1-13.9 14.4-33.2 16.1-49.1l.8-7.4.8 6c.4 3.3.3 10.8-.2 16.6zm-203.2 8.4c.2.2-1.2 8.1-3.2 17.5s-3.6 17.5-3.6 18c0 .4 1.4 1.1 3 1.5 2.9.6 3 .9 2.4 4.3-.4 2.1-.8 3.9-1 4.1-.6.6-14.3-2-14.8-2.7-.2-.4 1.7-10.5 4.2-22.5l4.6-21.8 4 .7c2.3.3 4.3.8 4.4.9zm17 4c.3.3-1 8.4-3 17.9-1.9 9.6-3.2 18-2.8 18.6.4.7 1.6 1 2.6.8 1.6-.3 2.5-3.1 5.5-17.6 2-9.5 3.9-17.6 4.2-17.9.4-.3 2.2-.2 4.2.1 2.5.5 3.5 1.2 3.5 2.6 0 4-7.2 35.6-8.6 37.8-3 4.6-8.8 5.3-15.4 1.9-6.7-3.3-6.8-5-2.5-25.7 2-9.6 3.8-18.1 4.1-18.9.3-1 1.5-1.2 4-.8 2 .4 3.9.9 4.2 1.2zm31.1 5.5c5.2 1.5 8.1 4.7 8.1 8.9 0 6.5-.9 8.2-3.9 7.5-5.7-1.3-5.8-1.3-5.3-4.4.5-3.4-2.1-5.2-4.2-2.9-1.3 1.5-5.6 20.7-5.6 25.1 0 3.7 2.6 4.3 4.7 1.2 1.3-2.1 1.4-3 .5-4.5-1-1.5-.7-7.9.4-7.9.2 0 2.6.5 5.4 1.1l5.2 1.1-.7 3.7c-1.4 8-3.6 14.1-5.7 15.6-3.2 2.1-10.6 1.9-14.6-.5-5.5-3.4-5.7-5.5-2.2-22.3 1.7-8.3 3.8-16.3 4.6-17.9 2.3-4.4 6.7-5.7 13.3-3.8zm21.7 5.3c.1.1-1.4 7.4-3.2 16.2-3.8 17.8-3.9 21-.9 21 2.1 0 1.7 1.4 8.2-28.4l1.5-7.3 4.1.6c2.3.4 4.2.8 4.3.9.7.7-7.8 37.3-9.1 39.4-3 4.5-9.8 5.3-16.6 1.8-5.2-2.7-5.4-5.7-1.9-22.7 1.7-8.4 3.6-17 4.2-19.2l.9-3.8 4.2.6c2.3.4 4.2.8 4.3.9zm23.5 4.7c2.5 0 2.5.8-1.3 18.8l-3.2 15.3-3-.7c-1.7-.3-3.5-1-3.9-1.4-.8-.7 4.8-30.2 6-32.3.3-.5 1.2-.6 2-.3s2.3.6 3.4.6zm83 22.3c-5.5 14.5-14.2 28.3-20.8 33.1-16.5 12.1-45.8 21.4-69.8 22.1-7.1.2-11.9.2-10.5-.1 6.9-1.4 25.3-6.6 31.5-8.9 24.4-9.2 49.6-26 65-43.3 2.6-2.8 4.9-5.2 5.1-5.2.2 0 0 1-.5 2.3zm-223.1 7c0 1.3-2.9-1.2-4.2-3.7-1-1.9-.8-1.8 1.6.3 1.4 1.4 2.6 2.9 2.6 3.4zm-16.5 20.6c8.3 6.2 25.8 15 37 18.5 11.5 3.6 35.7 9.3 45 10.6 5.2.8 20.6 1 44.5.7 33-.4 37.4-.6 45.5-2.6 13.3-3.1 22.9-6.5 34-12 5.5-2.7 10.1-4.8 10.3-4.6.7.6-16 15.2-22.3 19.5-15.2 10.3-34.1 17.7-52.5 20.6-14.1 2.2-40.3 1.5-54.5-1.6-39.4-8.4-76.1-29.5-99-57.1-10.3-12.3-10.8-13.3-2.5-4.8 4.1 4.2 10.7 9.9 14.5 12.8zM200 246c3.8 3.8-1.4 9.4-5.6 6-1.9-1.7-1.8-5.7.4-6.9 2.4-1.5 2.9-1.4 5.2.9zm-47.7 39.7c-2.9.2-7.7.2-10.5 0-2.9-.2-.6-.3 5.2-.3s8.1.1 5.3.3z"/><path d="M226 50.7c1.9 1.5 5.5 4.6 8 6.9 4.5 4.1 13.9 10.4 15.6 10.4 1.9 0-19-16.1-24-18.6-3.1-1.5-3.1-1.5.4 1.3zM163.6 79.7c-1.3 4.1-4.6 21.8-4.6 24.5 0 2.5.4 2.9 2.2 2.6 2-.3 2.6-1.6 5.1-13.3 1.5-7.1 2.5-13.5 2.3-14.2-.8-1.9-4.4-1.6-5 .4zM100.3 138.7c-1.5.5-1.7 3.9-.4 4.7.5.4 2.1.2 3.4-.3 1.9-.7 2.4-1.5 2-3-.5-2-2.4-2.5-5-1.4zM90.2 142.8c-1.6.3-2.2.8-1.8 1.9.3.8.6 1.7.6 1.9 0 .9 3.9.4 4.5-.6 1-1.7-.9-3.5-3.3-3.2zM44 144c0 .5.5 1 1 1 .6 0 1-.5 1-1 0-.6-.4-1-1-1-.5 0-1 .4-1 1zM53 146.4c0 .9.7 1.6 1.6 1.6.9 0 1.4-.5 1.2-1.2-.6-1.8-2.8-2.1-2.8-.4zM80.7 145.6c-.9 1 .2 2.4 1.9 2.4.8 0 1.4-.7 1.4-1.5 0-1.5-2.1-2.1-3.3-.9zM61 147.4c0 .9.7 1.6 1.6 1.6.9 0 1.4-.5 1.2-1.2-.6-1.8-2.8-2.1-2.8-.4zM75.4 156c0 5.8.1 8.1.3 5.2.2-2.8.2-7.6 0-10.5-.2-2.8-.3-.5-.3 5.3zM68.2 148.2c.7 1.9 3.8 2.2 3.8.4 0-1-.9-1.6-2.1-1.6-1.2 0-1.9.5-1.7 1.2zM42 154c0 .5.7 1 1.5 1s1.5-.5 1.5-1c0-.6-.7-1-1.5-1s-1.5.4-1.5 1zM224.4 154.4c-1.1 2.8.4 4.8 3.3 4.4 2.2-.2 2.8-.8 2.8-2.8 0-2-.6-2.6-2.8-2.8-1.8-.2-2.9.2-3.3 1.2zM236 156c0 1.5.7 2 2.5 2s2.5-.5 2.5-2-.7-2-2.5-2-2.5.5-2.5 2zM50 157.5c0 .8.7 1.5 1.5 1.5s1.5-.4 1.5-.9-.7-1.1-1.5-1.5c-.9-.3-1.5 0-1.5.9zM247 157.4c0 1.9 2.7 2.8 3.3 1.1.7-1.5-.1-2.5-2-2.5-.7 0-1.3.6-1.3 1.4zM102.7 159.7c-2.7.7-1.8 4.7 1.2 5.1 3 .5 4.2-.8 3.5-3.6-.6-2.2-1.3-2.4-4.7-1.5zM255.6 160.1c-.9 2.5-4.6 17.3-4.6 18.3 0 .5.3.7.6.3.8-.8 5.4-19.1 4.9-19.6-.3-.2-.7.2-.9 1zM57.2 161.2c.5 1.5 2.8 1.8 2.9.3 0-.6-.7-1.2-1.7-1.3-1-.3-1.5.1-1.2 1zM261.7 161.7c-.4.3-.7 1.2-.7 2 0 1.5 2.6 1.8 3.4.4.7-1.1-1.8-3.3-2.7-2.4zM67.2 163.7c.5 2.5 2.8 2.8 2.8.4 0-1.2-.6-2.1-1.6-2.1-.9 0-1.4.7-1.2 1.7zM92.3 162.7c-.7.2-1.3 1.3-1.3 2.4 0 1.3.7 1.9 2.3 1.9 3 0 3.6-.6 3-3.1-.5-1.9-1.6-2.2-4-1.2zM81.7 164.6c-.9 1 .2 2.4 1.9 2.4.8 0 1.4-.7 1.4-1.5 0-1.5-2.1-2.1-3.3-.9zM270.2 168.1c.2.6.8 1 1.3 1s1.1-.4 1.3-1c.2-.6-.4-1.1-1.3-1.1s-1.5.5-1.3 1.1zM38.1 170.6c0 1.1.3 1.4.6.6.3-.7.2-1.6-.1-1.9-.3-.4-.6.2-.5 1.3zM276.5 172c-.7 1.2.2 3 1.6 3 1.2 0 1.2-2.7 0-3.5-.5-.3-1.2-.1-1.6.5zM233.5 175c-1 1.6.4 3 3.1 3 1.7 0 2.4-.5 2.4-2s-.7-2-2.4-2c-1.4 0-2.8.4-3.1 1zM221 177.5c0 2.1.5 2.5 2.8 2.5 3.5 0 4.1-.6 3.5-3.1-.4-1.3-1.4-1.9-3.4-1.9-2.4 0-2.9.4-2.9 2.5zM243 176.5c0 .8.9 1.5 2 1.5s2-.7 2-1.5-.9-1.5-2-1.5-2 .7-2 1.5zM256.2 177.4c.1 1 .8 1.7 1.3 1.7 1.5-.1 1.2-2.4-.3-2.9-.9-.3-1.3.2-1 1.2zM283 179c0 .5.7 1 1.5 1s1.5-.5 1.5-1c0-.6-.7-1-1.5-1s-1.5.4-1.5 1zM263.2 180.2c.6 1.8 2.8 2.1 2.8.4 0-.9-.7-1.6-1.6-1.6-.9 0-1.4.5-1.2 1.2zM271 183.4c0 .9.7 1.6 1.6 1.6 1.7 0 1.4-2.2-.4-2.8-.7-.2-1.2.3-1.2 1.2zM279 188c0 .5.7 1 1.5 1s1.5-.5 1.5-1c0-.6-.7-1-1.5-1s-1.5.4-1.5 1zM80.5 252.6c10.4 9.7 27.8 19.7 42.9 24.8 10.9 3.6 11.9 3.2 1.6-.7-12.9-5-29.8-14.1-40.2-21.8-7.8-5.8-8.5-6.2-4.3-2.3zM211 272.7c-8.4 3.2-27 7.9-37.4 9.5-4.4.6-7.3 1.4-6.4 1.6 6.6 1.4 38-6.2 48.5-11.7 5-2.7 3.3-2.4-4.7.6z"/></svg>