<?xml version="1.0" encoding="utf-8"?>
    <!-- Generator: Adobe Illustrator 16.0.4, SVG Export Plug-In . SVG Version: 6.00 Build 0)  -->
    <svg version="1.2" baseProfile="tiny" id="Layer_1" xmlns="http://www.w3.org/2000/svg" xmlns:xlink="http://www.w3.org/1999/xlink" x="0px" y="0px" width="40px" height="40px" viewBox="0 0 40 40" xml:space="preserve">
        <path fill="#FFFFFF" d="M15.999,32C7.177,32,0,24.821,0,16C0,7.178,7.177,0,15.999,0C24.822,0,32,7.178,32,16
	C32,24.821,24.822,32,15.999,32z M15.999,3.876C9.314,3.876,3.876,9.315,3.876,16c0,6.686,5.438,12.123,12.123,12.123
	S28.124,22.686,28.124,16C28.124,9.315,22.684,3.876,15.999,3.876z" />
        <path fill="#FFFFFF" d="M22.876,16c0,3.798-3.078,6.876-6.876,6.876S9.125,19.798,9.125,16c0-3.797,3.078-6.875,6.875-6.875
	S22.876,12.203,22.876,16" />
        <path fill="#FFFFFF" d="M16,23.015c-3.867,0-7.014-3.148-7.014-7.015c0-3.867,3.147-7.014,7.014-7.014
	c3.867,0,7.015,3.147,7.015,7.014C23.015,19.866,19.867,23.015,16,23.015z M16,9.263c-3.715,0-6.738,3.022-6.738,6.737
	c0,3.716,3.023,6.738,6.738,6.738c3.716,0,6.738-3.022,6.738-6.738C22.738,12.285,19.716,9.263,16,9.263z" />
    </svg>
