<?xml version="1.0" encoding="utf-8"?>
<!-- Generator: Adobe Illustrator 16.0.4, SVG Export Plug-In . SVG Version: 6.00 Build 0)  -->
<svg version="1.2" baseProfile="tiny" id="Layer_1" xmlns="http://www.w3.org/2000/svg" xmlns:xlink="http://www.w3.org/1999/xlink"
	 x="0px" y="0px" width="640px" height="640px" viewBox="0 0 640 640" xml:space="preserve">
<path fill="#FFFFFF" d="M571.284,154.773c-3.409-3.7-6.953-7.162-10.527-10.461c22.293,36.045,34.439,78.832,35.088,122.17
	c3.598,8.843,6.719,17.779,9.165,26.792C608.024,245.45,595.759,196.018,571.284,154.773z M397.474,554.366
	c-55.898,18.99-115.286,16.926-168.164-3.15c3.073,1.171,6.181,2.276,9.302,3.31c34.854,8.711,71.948,11.643,109.55,8.194
	C365.007,560.992,381.442,558.14,397.474,554.366z M347.416,558.768c23.495-2.402,46.223-6.943,67.996-13.298
	c34.139-20.87,66.394-47.711,95.383-79.854c12.659-14.51,23.836-29.33,33.56-44.435c4.339-9.611,8.068-19.468,11.153-29.542
	c-32.864,57.832-83.164,103.975-143.57,131.067c-78.677,35.459-162.421,34.287-229.75-3.218
	c-32.704-17.766-60.926-46.169-82.224-80.628c25.674,46.605,64.148,81.728,108.702,103.412c-2.588-1.252-5.161-2.516-7.703-3.859
	C245.735,556.332,296.152,563.461,347.416,558.768z M377.08,84.285c31.554,9.737,62.115,23.177,90.988,40.149
	c6.182,3.601,12.209,7.41,18.09,11.392c5.587,5.124,10.945,10.531,16.091,16.214c-27.797-30.812-62.386-53.583-100.194-67.195
	C393.823,84.401,385.507,84.196,377.08,84.285z M513.588,468.528c-25.109,27.847-52.669,51.683-81.767,71.203
	c1.323-0.695,2.664-1.311,3.998-2.032c40.06-21.611,71.742-52.662,93.913-88.883C524.622,455.449,519.268,462.021,513.588,468.528z
	 M629.96,298.357c0.629,34.431-6.208,67.712-19.54,96.904c-5.447,34.175-18.113,67.344-37.643,97.104
	c-33.146,50.478-83.667,88.354-146.103,109.515c-60,20.479-124.069,25.352-185.159,14.06
	c-50.111-9.85-121.459-35.016-177.077-98.852c-25.14-29.654-42.364-63.803-49.781-98.712c-7.628-35.208-5.865-72.659,5.143-108.322
	c0.573-1.913,1.248-3.813,1.89-5.729c-2.387-14.046-3.69-27.731-3.647-40.917c-0.533-43.882,14.493-87.182,41.233-118.749
	c22.158-25.199,48.211-42.694,75.283-54.701c14.015-14.168,29.532-26.351,46.29-36.23c74.649-45.583,179.385-47.513,280.117-5.14
	c0.982,0.4,1.549,1.539,1.271,2.582c-0.271,1.003-1.311,1.512-2.294,1.112c-99.701-41.926-203.237-40.086-277.03,4.961
	c-13.563,7.996-26.295,17.534-38.065,28.406c31.307-12.232,63.478-17.587,92.333-19.371c13.318-5.789,26.655-10.343,39.748-13.887
	c44.66-17.826,89.72-22.886,132.368-14.585c23.815,4.352,46.986,13.325,68.466,25.947c18.62,8.962,35.833,20.423,51.104,34.347
	c17.825,15.347,33.02,33.884,45.256,54.433c3.806,4.13,7.499,8.492,11.041,13.146C613.147,202.117,629.061,249.226,629.96,298.357z
	 M313.786,44.722c9.646-1.417,19.012-2.379,27.958-2.962c31.805-3.147,62.508-1.105,91.004,5.888
	c-7.814-2.462-15.73-4.448-23.703-5.921C378.226,35.707,346.112,36.772,313.786,44.722z M238.762,75.462
	c-10.846,6.338-21.276,13.219-31.344,20.506c-2.606,1.294-5.203,2.555-7.779,3.945c-5.671,3.062-11.095,6.358-16.432,9.777
	c12.298-10.296,25.229-19.908,38.845-28.691c-12.975,6.334-25.598,13.41-37.825,21.175c-2.625,2.009-5.209,4.051-7.789,6.189
	c-25.291,20.549-47.364,43.729-65.704,68.777c1.905-1.612,3.932-3.181,5.881-4.756c-2.939,4.044-5.728,8.191-8.394,12.388
	c-2.484,2.184-4.966,4.326-7.437,6.623c-11.885,18.07-21.905,37.021-29.768,56.561c-3.998,10.064-7.225,20.274-9.826,30.538
	c-0.07,2.621-0.111,5.246-0.089,7.86c-0.071,3.373-0.035,6.722,0.089,10.058c5.085-18.209,11.736-36.002,19.662-53.249
	c-2.778,8.691-5.105,17.508-6.909,26.451c-4.819,12.897-8.896,26.05-12.153,39.4c1.86,25.939,7.448,51.47,16.08,75.537
	c4.92,17.818,11.812,35.38,20.963,52.345c0.338,0.629,0.727,1.211,1.062,1.84c-21.466-34.784-35.888-75.71-40.718-118.108
	c-1.221,5.899-2.337,11.817-3.226,17.754c-0.585,3.567-1.074,7.148-1.489,10.723c1.594,25.047,7.492,49.24,17.743,71.303
	c23.02,50.299,67.624,92.391,122.381,115.505c2.08,0.887,4.227,1.621,6.328,2.455c12.118,6.454,24.764,11.836,37.738,16.191
	c-15.537-3.873-30.675-8.777-45.108-14.986c-55.714-23.518-101.138-66.417-124.613-117.735
	c-7.715-16.608-13.023-34.387-15.947-52.809c-0.255,7.513-0.147,14.986,0.304,22.393c0.679,1.477,1.292,2.926,1.982,4.429
	c0.47,0.999,0.152,2.145-0.754,2.549c-0.208,0.099-0.434,0.125-0.646,0.132c3.232,34.691,14.172,67.304,32.206,94.032
	c26.706,40.278,69.316,70.68,120.006,85.64c46.498,12.954,89.803,12.133,127.873,4.494c23.111-7.195,45.871-17.038,67.966-29.356
	c-1.476,0.364-2.962,0.669-4.428,1.014c11.63-3.945,23.094-8.824,34.327-14.622c-0.497,0.324-0.979,0.675-1.47,1.006
	c7.629-2.581,15.139-5.335,22.485-8.399c1.417-0.927,2.794-1.874,4.141-2.8c72.662-50.505,123.16-120.768,142.098-197.763
	c2.277-9,3.862-18.168,4.921-27.425c-0.715-3.144-1.413-6.301-2.243-9.439c-1.665-6.195-3.724-12.361-5.951-18.484
	c-0.314,12.239-1.539,24.474-3.763,36.581c-8.347,47.216-29.257,92.69-62.147,135.529c5.573-9.107,10.515-18.526,14.854-28.23
	c22.28-34.771,37.03-71.044,43.68-108.454c1.949-10.707,3.058-21.512,3.515-32.338c-2.78,31.935-11.815,63.937-26.443,93.247
	c-3.104,6.44-6.487,12.729-9.995,18.911c1.688-5.521,3.177-11.101,4.475-16.72c0.708-1.437,1.479-2.854,2.19-4.329
	c16.32-32.606,25.57-68.514,26.874-103.894c0.08-2.247,0.136-4.491,0.133-6.715c-18.282-40.453-48.664-78.133-86.891-107.962
	c-5.13-5.699-10.511-11.101-16.101-16.227c44.934,30.286,81.042,71.13,102.885,115.697c-0.992-32.269-8.886-63.002-23.16-89.637
	c-4.908-9.545-10.548-18.667-16.703-27.371c-25.216-19.589-52.613-30.849-74.139-37.216c-23.035-6.858-47.477-10.995-73.003-12.444
	c-4.422-1.585-8.863-3.075-13.345-4.418c30.574,0.646,59.722,4.951,86.943,13.043c19.262,5.719,43.17,15.303,66.139,31.13
	c-5.252-6.722-10.882-13.116-16.812-19.189C484.92,66.774,428.25,44.547,367.985,44.977c-8.28-0.046-17.153,0.192-26.464,0.804
	c-13.291,1.36-26.763,3.627-40.369,6.841c-14.646,3.413-29.098,7.771-43.254,12.977c1.175,0.003,2.343-0.006,3.49-0.01
	c17.951,0.321,35.866,1.854,53.627,4.524c-7.594,0.073-15.242,0.49-22.879,1.281c-10.107-0.947-20.233-1.658-30.382-1.844
	c-4.101-0.013-8.322,0.057-12.633,0.186C245.659,71.57,242.191,73.483,238.762,75.462z M417.073,549.217
	c-13.582,8.273-27.463,15.635-41.545,22.002c22.905-8.068,43.028-18.063,59.632-27.82
	C429.207,545.496,423.183,547.416,417.073,549.217z M49.709,392.149c-10.712-23.538-18.756-46.302-24.021-68.171
	c-5.095,29.727-5.429,62.551,2.53,97.666c10.25,46.017,37.92,90.915,75.977,123.131c36.798,31.699,84.789,50.26,135.253,52.205
	c19.891,0.226,39.907-1.661,59.799-5.514c-29.17,2.092-60.646-0.231-93.726-9.466c-51.645-15.224-95.09-46.241-122.356-87.387
	C63.604,465.636,52.172,429.938,49.709,392.149z M58.068,308.319c-0.283-4.071-0.499-8.148-0.612-12.222
	c-1.744,10.121-2.866,20.238-3.263,30.284C55.322,320.313,56.625,314.296,58.068,308.319z M62.162,261.438
	c1.663-5.17,3.425-10.286,5.461-15.383c5.946-14.797,13.144-29.224,21.428-43.236c-7.655,7.857-15.092,16.386-22.138,25.507
	C64.687,239.237,63.088,250.292,62.162,261.438z M64.131,223.037c-1.88,3.124-3.77,6.407-5.611,9.74
	c1.592-2.201,3.271-4.362,4.949-6.53C63.679,225.172,63.919,224.109,64.131,223.037z M97.977,188.448
	c14.195-21.506,31.039-41.787,50.245-60.437c-17.756,14.331-34.36,30.174-49.402,47.45c-7.75,8.833-17.923,21.516-28.349,37.501
	c-0.561,2.151-1.108,4.29-1.62,6.444C77.647,208.653,87.386,198.314,97.977,188.448z M92.867,154.359
	c-7.612,14.678-13.881,30.071-18.822,45.977c6.733-9.475,14.054-18.752,21.971-27.768c24.966-28.688,54.065-53.486,85.846-73.711
	c14.607-11.209,29.707-20.348,44.967-27.768c-28.659,2.634-59.938,9.065-89.948,22.287
	C119.661,110.868,104.771,131.401,92.867,154.359z M24.164,297.023c4.141-11.355,9.072-22.439,14.878-33.238
	c7.44-18.279,16.842-36.161,28.153-53.387c5.355-20.238,12.854-39.828,22.399-58.246c10.384-20.01,22.999-38.193,37.427-54.162
	c-23.344,11.6-45.641,27.625-64.934,49.528c-26.116,30.905-40.866,73.298-40.371,116.312
	C21.702,274.584,22.564,285.671,24.164,297.023z M25.607,305.777c0.237-1.026,0.485-2.075,0.73-3.087
	c-0.3,0.82-0.566,1.661-0.839,2.482C25.534,305.374,25.574,305.582,25.607,305.777z M27.386,315.018
	c4.541,21.551,11.842,44.042,21.87,67.329c-0.248-11.107,0.222-22.347,1.506-33.626c-1.461-23.333,0.803-47.398,6.738-71.168
	c0.402-14.297,1.842-28.529,4.294-42.521c-6.868,9.406-13.199,19.493-19,30.207C36.476,280.499,31.107,297.162,27.386,315.018z
	 M604.258,407.612c-4.27,7.837-9.009,15.33-14.251,22.379c-32.679,46.414-79.669,82.767-135.243,105.96
	c-27.139,18.098-68.734,40.404-119.715,50.631c-31.442,9.77-63.495,14.721-95.264,14.344
	c-51.329-1.985-100.25-20.851-137.698-53.133c-38.745-32.87-66.973-78.676-77.484-125.619c-7.958-35.333-8.13-71.673-0.968-107.368
	c-0.159-0.781-0.368-1.569-0.523-2.347c-10.591,34.753-12.28,71.191-4.897,105.466c7.306,34.168,24.162,67.582,48.817,96.646
	c54.8,62.896,125.282,87.705,174.796,97.462c60.44,11.206,123.884,6.374,183.41-13.967c61.777-20.924,111.702-58.355,144.451-108.23
	C586.356,464.438,597.957,436.524,604.258,407.612z M606.217,315.693c-0.946,5.877-2.124,11.721-3.561,17.493
	c-18.041,73.195-64.16,140.294-130.61,190.441c46.758-22.936,86.378-55.694,114.942-96.257
	c7.691-10.359,14.324-21.671,19.852-33.652C610.877,367.937,610.725,341.579,606.217,315.693z M582.904,168.644
	c20.738,41.721,29.932,89.853,24.842,135.869c5.573,25.145,7.01,50.874,4.531,76.226c9.634-25.524,14.506-53.715,13.996-82.739
	C625.406,250.126,609.983,204.242,582.904,168.644z M146.775,150.348c0.601-0.394,1.185-0.817,1.805-1.218
	c60.169-38.898,130.405-62.277,203.427-67.807c-19.686-4.815-39.715-8.052-59.871-9.929c-31.492,3.243-62.894,12.55-92.497,28.519
	c2.577-1.39,5.176-2.647,7.797-3.955C185.214,112.033,164.858,130.285,146.775,150.348z M315.015,70.113
	c16.697,2.512,33.251,6.011,49.588,10.512c8.121-0.334,16.15-0.351,24.09-0.189c-30.994-9.234-63.799-12.414-96.473-9.062
	C299.819,70.6,307.423,70.189,315.015,70.113z M536.623,200.714c29.972,55.558,36.538,117.411,23.273,174.397
	c-32.074,63.908-85.014,114.916-149.7,143.922c-77.7,35.009-160.296,33.93-226.637-3.025
	c-47.375-25.716-85.077-74.261-105.552-131.113c-10.612-38.392-11.58-78.022-3.882-115.738
	c14.421-38.438,35.523-74.555,62.116-106.659c4.953-3.551,9.813-6.874,14.516-9.912c60.809-39.344,132.005-62.72,205.922-67.615
	c2.701-0.179,5.312-0.222,7.977-0.341c35.433,9.83,69.733,24.309,101.916,43.24c12.517,7.271,24.435,15.393,35.703,24.174
	C515.339,166.539,526.942,182.769,536.623,200.714z"/>
<g>
	<path fill="#121212" d="M189.341,189.266l10.321,34.84l2.348-38.593l16.445-4.872l-2.591,42.244l29.968,43.465l-17.42,5.16
		l-26.694-40.459l13.172,44.464l-16.813,4.984l-25.55-86.252L189.341,189.266z M227.812,198.808
		c-2.091-7.066-1.736-12.871,1.073-17.412c2.805-4.541,8.188-7.993,16.147-10.349c4.383-1.301,8.386-1.734,12.004-1.304
		c3.616,0.43,6.581,1.717,8.895,3.859c0.855,0.808,1.625,1.685,2.303,2.628c0.68,0.946,1.352,2.098,2.016,3.445
		c0.664,1.35,1.311,2.949,1.948,4.792c0.632,1.844,1.349,4.104,2.143,6.785l10.789,36.426c0.842,2.843,1.509,5.163,1.998,6.96
		c0.488,1.8,0.811,3.339,0.968,4.617c0.157,1.278,0.194,2.439,0.106,3.482c-0.091,1.042-0.28,2.267-0.568,3.68
		c-0.668,3.111-2.553,5.921-5.651,8.43c-3.102,2.509-7.329,4.557-12.691,6.146c-13.808,4.09-22.782-0.407-26.92-13.494l-2.216-7.029
		L227.812,198.808z M257.327,236.709c1.107,3.736,2.242,6.159,3.412,7.268c1.168,1.112,2.85,1.343,5.042,0.695
		c3.574-1.059,4.662-3.942,3.267-8.655l-12.703-42.879c-0.769-2.598-1.724-4.329-2.859-5.183c-1.138-0.857-2.681-0.996-4.63-0.42
		c-3.737,1.108-4.93,3.935-3.583,8.485L257.327,236.709z M308.891,183.534l-2.129-7.185c-1.058-3.575-3.414-4.822-7.068-3.74
		c-3.738,1.109-4.943,3.902-3.616,8.377l0.844,2.403l11.646,39.311c0.939,3.174,2.054,5.302,3.346,6.381
		c1.291,1.079,2.994,1.304,5.104,0.679c1.868-0.553,3.012-1.536,3.432-2.956c0.42-1.417,0.276-3.621-0.437-6.616l-0.607-2.496
		l-0.035-0.123c-0.049-0.165-0.147-0.423-0.298-0.781c-0.15-0.357-0.271-0.702-0.367-1.026l-0.599-1.559l-0.146-0.493l-4.261,1.261
		l-4.117-13.884l20.958-6.209l6.566,22.171c1.131,3.819,1.773,6.828,1.945,9.032c0.166,2.201-0.093,4.375-0.781,6.523
		c-0.953,2.757-2.945,5.335-5.99,7.738c-3.048,2.406-6.758,4.256-11.145,5.554c-4.224,1.251-8.109,1.694-11.663,1.337
		c-3.553-0.361-6.542-1.509-8.969-3.442c-1.91-1.374-3.436-3.088-4.571-5.136c-1.137-2.049-2.282-5.024-3.437-8.923l-13.245-44.706
		c-2.307-7.797-2.191-13.95,0.362-18.461c2.55-4.508,7.847-7.957,15.886-10.336c4.389-1.301,8.779-1.675,13.184-1.125
		c2.004,0.202,3.756,0.679,5.26,1.423c1.501,0.748,2.86,1.827,4.071,3.233c1.213,1.41,2.297,3.207,3.253,5.398
		c0.958,2.191,1.906,4.869,2.849,8.036l1.585,5.358L308.891,183.534z M387.254,201.134c0.603,2.032,1.053,3.796,1.367,5.292
		c0.308,1.499,0.52,2.869,0.619,4.11c0.102,1.241,0.072,2.413-0.083,3.508c-0.162,1.102-0.414,2.271-0.751,3.508
		c-0.884,2.979-2.807,5.656-5.772,8.023c-2.966,2.37-6.762,4.239-11.392,5.613c-4.061,1.202-7.87,1.605-11.438,1.215
		c-3.558-0.391-6.493-1.513-8.813-3.369c-1.85-1.47-3.355-3.283-4.523-5.438c-1.169-2.154-2.344-5.222-3.521-9.204l-19.199-64.809
		l16.936-5.017l18.547,62.618l0.47,1.582c0.817,2.763,1.854,4.617,3.107,5.573c1.255,0.953,2.896,1.128,4.925,0.53
		c3.412-1.013,4.396-3.952,2.952-8.827l-19.166-64.686l16.575-4.908L387.254,201.134z M248.704,302.884l20.831-6.169l24.414,42.593
		l-2.606-49.054l20.71-6.136l25.552,86.253l-15.228,4.508l-14.4-48.604l3.07,51.961l-10.477,3.104l-26.215-45.103l14.4,48.604
		l-14.498,4.296L248.704,302.884z M319.238,281.991l34.721-10.286l4.727,15.959l-18.031,5.342l4.693,15.836l18.031-5.338
		l4.726,15.956l-18.03,5.34l6.679,22.539l18.03-5.342l4.727,15.959l-34.725,10.286L319.238,281.991z M294.468,496.732l4.799,16.197
		l-29.601,8.771l-25.548-86.248l16.934-5.018l20.75,70.045L294.468,496.732z M341.525,477.094c0.603,2.025,1.056,3.793,1.367,5.289
		c0.311,1.495,0.52,2.866,0.622,4.11c0.099,1.237,0.072,2.409-0.087,3.508c-0.162,1.099-0.41,2.271-0.751,3.509
		c-0.884,2.979-2.81,5.652-5.771,8.022c-2.962,2.369-6.762,4.242-11.389,5.612c-4.065,1.205-7.874,1.608-11.437,1.219
		c-3.561-0.391-6.498-1.517-8.815-3.376c-1.85-1.47-3.359-3.276-4.527-5.435c-1.167-2.158-2.34-5.223-3.518-9.201l-19.199-64.814
		l16.932-5.011l18.548,62.61l0.47,1.589c0.819,2.76,1.852,4.62,3.108,5.566c1.254,0.96,2.896,1.132,4.926,0.53
		c3.412-1.013,4.396-3.952,2.949-8.824l-19.163-64.689l16.571-4.904L341.525,477.094z M364.64,429.429l-2.132-7.188
		c-1.056-3.574-3.412-4.818-7.065-3.733c-3.74,1.105-4.941,3.899-3.614,8.374l0.844,2.402l11.646,39.312
		c0.939,3.177,2.052,5.302,3.346,6.381c1.291,1.079,2.992,1.304,5.101,0.682c1.873-0.556,3.012-1.542,3.436-2.959
		c0.417-1.416,0.271-3.62-0.438-6.619l-0.605-2.488l-0.036-0.126c-0.05-0.166-0.152-0.424-0.298-0.781
		c-0.152-0.357-0.274-0.701-0.371-1.026l-0.596-1.562l-0.146-0.49l-4.263,1.265l-4.117-13.887l20.956-6.209l6.566,22.167
		c1.132,3.819,1.781,6.831,1.946,9.035c0.165,2.205-0.093,4.376-0.781,6.527c-0.953,2.753-2.945,5.335-5.99,7.737
		c-3.045,2.403-6.758,4.25-11.14,5.554c-4.227,1.251-8.115,1.694-11.663,1.33c-3.555-0.357-6.544-1.502-8.97-3.435
		c-1.912-1.377-3.435-3.092-4.573-5.137c-1.136-2.052-2.28-5.024-3.436-8.923l-13.245-44.713c-2.311-7.791-2.191-13.946,0.36-18.461
		c2.552-4.508,7.848-7.949,15.89-10.332c4.382-1.305,8.777-1.675,13.183-1.126c2.002,0.205,3.756,0.676,5.259,1.424
		c1.502,0.747,2.859,1.826,4.07,3.236c1.212,1.403,2.297,3.204,3.257,5.395c0.953,2.191,1.906,4.865,2.843,8.036l1.589,5.361
		L364.64,429.429z M443.001,447.029c0.603,2.032,1.059,3.793,1.37,5.295c0.312,1.496,0.517,2.866,0.619,4.104
		c0.103,1.244,0.069,2.416-0.083,3.508c-0.162,1.105-0.414,2.277-0.755,3.515c-0.88,2.979-2.807,5.653-5.771,8.022
		c-2.966,2.37-6.758,4.236-11.392,5.606c-4.062,1.205-7.87,1.608-11.432,1.219c-3.562-0.391-6.5-1.517-8.816-3.37
		c-1.847-1.469-3.356-3.282-4.528-5.44c-1.164-2.151-2.336-5.216-3.518-9.201l-19.199-64.809l16.932-5.017l18.551,62.617
		l0.467,1.582c0.82,2.767,1.854,4.62,3.111,5.573c1.251,0.953,2.893,1.125,4.924,0.529c3.412-1.013,4.396-3.951,2.953-8.83
		l-19.163-64.683l16.567-4.911L443.001,447.029z M454.273,459.593c-0.695-2.356-0.483-4.607,0.648-6.752s2.876-3.567,5.232-4.27
		c2.273-0.668,4.472-0.417,6.586,0.768c2.119,1.186,3.525,2.953,4.227,5.31c0.672,2.276,0.443,4.414-0.682,6.427
		c-1.129,2.013-2.866,3.369-5.223,4.071c-2.356,0.694-4.573,0.509-6.655-0.55C456.325,463.537,454.945,461.869,454.273,459.593z
		 M431.354,379.983l15.228-4.508l19.017,64.2l-15.224,4.507L431.354,379.983z M150.103,442.178c-0.515-0.06-1.052-0.245-1.539-0.152
		c-8.029,1.516-16.093,2.138-24.284,1.714c-5.762-0.305-11.569,0.231-17.326-0.132c-5.265-0.331-10.551-1.066-15.701-2.204
		c-3.705-0.814-7.216-2.549-10.779-3.945c-2.426-0.946-4.855-1.906-7.172-3.071c-3.662-1.847-6.328-4.911-9.023-7.877
		c-6.729-7.407-13.562-14.734-20.028-22.366c-3.233-3.812-5.752-8.234-8.6-12.371c-0.779-1.132-1.575-2.244-1.91-3.688
		c0.654,0.781,1.245,1.635,1.979,2.33c2.821,2.694,5.476,5.62,8.59,7.917c3.338,2.455,7.001,4.573,10.761,6.341
		c4.349,2.046,8.91,3.674,13.455,5.263c6.52,2.276,13.144,3.283,20.094,1.84c5.183-1.079,10.569-1.218,15.701-2.449
		c5.565-1.337,10.973-3.383,16.396-5.269c3.742-1.305,7.522-2.608,11.051-4.376c6-3.005,11.941-6.169,17.663-9.664
		c3.257-1.992,6.085-4.706,9.007-7.201c3.542-3.031,7.068-6.09,10.43-9.307c1.978-1.887,3.869-3.958,5.378-6.222
		c3.871-5.812,7.673-11.689,11.172-17.733c1.557-2.694,2.341-5.838,3.429-8.797c1.178-3.197,2.354-6.4,3.42-9.638
		c0.492-1.489,0.711-3.071,1.11-4.871c2.166,2.865,4.223,5.493,6.134,8.221c0.371,0.522,0.232,1.456,0.202,2.19
		c-0.019,0.457-0.293,0.9-0.431,1.357c-0.744,2.43-1.668,4.613,1.75,6.235c2.082,0.986,3.538,3.296,5.436,5.17
		c0.553-0.563,1.228-1.258,1.982-2.032c4.347,5.911,8.762,11.921,13.179,17.938c1.786,2.43,3.518,4.905,5.363,7.288
		c1.243,1.608,1.779,2.979-0.278,4.408c-1.648,1.152-1.378,2.416,0.057,3.688c1.304,1.158,2.565,2.389,3.687,3.727
		c1.95,2.31,2.772,2.476,5.456,0.615c0.497,0.86,0.925,1.768,1.504,2.568c0.89,1.231,0.763,2.31-0.098,3.515
		c-3.482,4.885-6.227,10.286-11.185,14.086c-3.308,2.535-6.104,5.731-9.163,8.598c-5.708,5.329-12.341,9.413-19.263,12.775
		c-7.617,3.693-15.689,6.467-23.591,9.585c-2.401,0.946-4.887,1.688-7.334,2.528C161.225,439.867,155.663,441.019,150.103,442.178z
		 M220.144,385.153c-3.068,2.879-5.784,5.288-8.286,7.903c-0.412,0.43-0.217,1.985,0.247,2.614c1.171,1.582,2.792,2.826,3.983,4.396
		c1.276,1.668,2.635,1.37,3.914,0.384c1.95-1.489,3.849-3.092,5.522-4.879c0.67-0.715,1.292-2.476,0.902-3.019
		C224.693,390.11,222.582,387.946,220.144,385.153z M186.891,359.371c2.312,2.099,4.542,4.223,6.917,6.176
		c0.343,0.278,1.597-0.046,2.047-0.477c1.994-1.946,3.72-4.17,5.795-6.004c1.412-1.251,1.034-2.185,0.089-3.224
		c-1.283-1.403-2.679-2.707-4.023-4.063c-1.536-1.549-3.015-1.146-4.314,0.258C191.25,354.367,189.181,356.783,186.891,359.371z
		 M173.917,427.556c-0.18-0.583-0.231-1.086-0.47-1.477c-1.372-2.217-2.956-4.315-4.149-6.612
		c-2.188-4.203-3.988-8.611-6.258-12.762c-2.5-4.567-5.338-8.956-8.049-13.41c-1.058-1.728-2.095-1.655-2.941-0.166
		c6.586,12.04,13.07,23.889,19.55,35.744C172.631,428.29,173.172,427.979,173.917,427.556z M209.638,408.208
		c-1.355-1.946-2.403-4.66-4.377-5.944c-1.935-1.251-3.848,1.118-5.562,2.363c-0.256,0.185-0.508,0.384-0.759,0.582
		c-2.863,2.284-2.89,2.456-0.705,5.229c0.591,0.755,1.396,1.396,1.775,2.237c1.013,2.23,2.212,1.496,3.543,0.417
		C205.386,411.604,207.235,410.134,209.638,408.208z M180.152,369.77c-0.296,0.14-0.468,0.179-0.583,0.278
		c-2.211,1.92-4.432,3.826-6.588,5.805c-0.188,0.173-0.104,0.96,0.131,1.212c1.251,1.37,2.707,2.562,3.871,3.998
		c1.191,1.476,2.252,1.185,3.405,0.139c1.642-1.482,3.325-2.933,4.816-4.561c0.438-0.483,0.665-1.827,0.329-2.23
		c-1.254-1.51-2.758-2.82-4.218-4.157C180.996,369.969,180.472,369.902,180.152,369.77z M162.059,432.731
		c-0.427-2.038-0.738-3.779-1.178-5.493c-0.111-0.424-0.687-1.105-0.952-1.06c-1.931,0.298-3.854,0.688-5.727,1.231
		c-0.333,0.093-0.655,1.059-0.581,1.568c0.177,1.172,0.68,2.297,0.903,3.476c0.258,1.356,0.97,1.701,2.25,1.39
		C158.417,433.44,160.083,433.143,162.059,432.731z M184.105,423.743c1.943-0.993,4.018-2.059,6.525-3.343
		c-0.963-1.813-1.929-3.634-3.182-5.997c-2.555,1.621-4.736,3.012-6.875,4.375C181.845,420.572,182.846,421.976,184.105,423.743z
		 M161.072,387.165c0.495,0.503,0.884,0.854,1.215,1.258c0.914,1.118,1.863,3.224,2.686,3.171c1.321-0.086,2.562-1.569,3.81-2.502
		c2.922-2.198,2.834-2.125,0.187-4.865c-1.188-1.231-2.224-1.298-3.46-0.424C164.031,384.849,162.616,385.987,161.072,387.165z
		 M141.571,400.364c0.621,1.575,1.09,3.091,1.833,4.461c0.233,0.431,1.249,0.761,1.795,0.636c1.378-0.312,2.704-0.874,4.02-1.417
		c0.402-0.165,1.052-0.655,1.002-0.841c-0.434-1.661-0.789-3.415-1.653-4.852c-0.268-0.437-2.105-0.192-3.093,0.126
		C144.078,398.935,142.8,399.748,141.571,400.364z M136.141,409.465c-0.422-5.679-0.768-5.917-6.002-3.898
		c-0.432,0.166-0.84,0.431-1.209,0.715c-0.224,0.172-0.544,0.529-0.49,0.688c0.612,1.834,1.289,3.647,1.964,5.501
		C132.5,411.372,134.301,410.432,136.141,409.465z M125.139,432.566c-2.294,0.483-4.323,0.9-6.332,1.317
		c0.331,5.785,0.375,5.824,5.622,4.673c0.607-0.133,1.191-0.338,1.845-0.529C125.885,436.167,125.531,434.453,125.139,432.566z
		 M138.339,431.745c-2.122,0.285-3.986,0.345-3.217,3.449c0.584,2.343,1.309,3.058,3.722,2.423c3.635-0.967,3.513-0.795,3.125-3.7
		C141.622,431.295,140.379,430.846,138.339,431.745z M112.665,411.821c0.511,1.808,0.723,2.992,1.198,4.058
		c0.22,0.497,1.016,1.126,1.444,1.053c1.314-0.219,2.646-0.603,3.823-1.205c0.576-0.291,1.252-1.33,1.125-1.847
		c-0.286-1.197-1.054-3.25-1.597-3.243C116.611,410.67,114.576,411.392,112.665,411.821z M88.756,434.704
		c0.336,0.014,0.67,0.026,1.008,0.047c-0.01-0.98,0.321-2.139-0.081-2.906c-2.264-4.349-4.738-8.578-7.064-12.888
		c-0.844-1.568-1.822-1.356-2.77-0.841C82.872,423.743,85.813,429.224,88.756,434.704z M108.195,438.55
		c0.197-4.938-0.883-5.56-6.157-3.501c0.303,1.449,0.605,2.905,0.953,4.58C104.765,439.259,106.388,438.921,108.195,438.55z
		 M100.641,415.31c-1.719,0.352-3.331,0.688-4.976,1.033c0.331,1.582,0.631,3.038,0.925,4.461c1.767-0.37,3.381-0.708,4.981-1.039
		C101.243,418.196,100.952,416.8,100.641,415.31z M66.613,418.447c0.926,0.1,1.787,0.159,2.634,0.298
		c0.889,0.14,1.771,0.352,2.709,0.55c0.025-5.137-0.587-5.673-4.888-4.481C66.931,415.919,66.785,417.07,66.613,418.447z
		 M507.141,236.424c0.483,0.179,0.96,0.493,1.453,0.523c8.158,0.497,16.125,1.88,23.958,4.303
		c5.515,1.711,11.276,2.614,16.771,4.378c5.017,1.618,9.965,3.627,14.678,5.994c3.389,1.701,6.367,4.24,9.482,6.474
		c2.114,1.512,4.232,3.038,6.191,4.739c3.102,2.684,4.932,6.312,6.818,9.85c4.703,8.833,9.525,17.61,13.92,26.599
		c2.201,4.491,3.558,9.393,5.302,14.109c0.477,1.284,0.977,2.562,0.94,4.041c-0.438-0.923-0.801-1.893-1.337-2.75
		c-2.079-3.3-3.936-6.788-6.388-9.78c-2.631-3.204-5.666-6.159-8.873-8.793c-3.717-3.052-7.734-5.746-11.756-8.4
		c-5.762-3.806-11.938-6.411-19.027-6.715c-5.288-0.228-10.541-1.419-15.819-1.486c-5.726-0.066-11.465,0.583-17.184,1.085
		c-3.948,0.341-7.937,0.679-11.789,1.522c-6.56,1.443-13.089,3.051-19.5,5.034c-3.647,1.132-7.056,3.068-10.498,4.772
		c-4.177,2.065-8.347,4.164-12.397,6.457c-2.377,1.344-4.72,2.886-6.738,4.713c-5.184,4.68-10.31,9.446-15.185,14.443
		c-2.171,2.23-3.7,5.087-5.484,7.693c-1.93,2.807-3.855,5.613-5.683,8.499c-0.841,1.323-1.442,2.8-2.271,4.448
		c-1.394-3.316-2.747-6.361-3.932-9.473c-0.225-0.603,0.133-1.469,0.345-2.178c0.132-0.437,0.503-0.794,0.751-1.204
		c1.32-2.177,2.75-4.066-0.162-6.479c-1.78-1.466-2.621-4.061-4.001-6.344c-0.679,0.41-1.5,0.92-2.423,1.482
		c-2.761-6.794-5.563-13.708-8.37-20.625c-1.132-2.793-2.204-5.616-3.409-8.383c-0.811-1.864-0.993-3.323,1.351-4.204
		c1.88-0.708,1.93-2.002,0.851-3.587c-0.977-1.446-1.896-2.949-2.657-4.514c-1.324-2.724-2.082-3.084-5.144-1.939
		c-0.269-0.96-0.457-1.939-0.821-2.856c-0.562-1.413-0.175-2.429,0.953-3.386c4.574-3.882,8.565-8.442,14.305-10.912
		c3.829-1.642,7.32-4.054,10.991-6.077c6.841-3.772,14.274-6.1,21.813-7.658c8.294-1.714,16.8-2.419,25.219-3.498
		c2.562-0.331,5.156-0.44,7.731-0.652C495.792,235.931,501.465,236.18,507.141,236.424z M425.241,274.501
		c3.684-2.039,6.904-3.707,9.969-5.623c0.51-0.318,0.705-1.876,0.41-2.598c-0.751-1.82-2.019-3.425-2.786-5.239
		c-0.824-1.929-2.214-1.976-3.7-1.337c-2.257,0.973-4.488,2.055-6.547,3.376c-0.827,0.529-1.863,2.082-1.618,2.71
		C422.048,268.581,423.563,271.195,425.241,274.501z M451.146,307.664c-1.724-2.604-3.365-5.213-5.189-7.685
		c-0.261-0.357-1.556-0.354-2.102-0.04c-2.409,1.39-4.626,3.124-7.096,4.398c-1.668,0.86-1.535,1.863-0.874,3.098
		c0.9,1.675,1.934,3.287,2.906,4.928c1.105,1.876,2.638,1.85,4.24,0.811C445.691,311.443,448.29,309.609,451.146,307.664z
		 M480.462,244.755c0.037,0.605-0.043,1.105,0.097,1.542c0.787,2.482,1.804,4.908,2.399,7.427c1.082,4.61,1.751,9.327,2.929,13.91
		c1.304,5.044,2.979,9.992,4.515,14.973c0.599,1.939,1.621,2.118,2.81,0.884c-3.432-13.285-6.805-26.368-10.177-39.447
		C481.889,244.361,481.286,244.523,480.462,244.755z M441.081,254.74c0.841,2.217,1.191,5.104,2.79,6.831
		c1.565,1.691,4.002-0.136,5.971-0.923c0.295-0.119,0.586-0.249,0.877-0.377c3.34-1.509,3.409-1.675,1.97-4.898
		c-0.388-0.877-1.01-1.695-1.175-2.605c-0.431-2.413-1.771-1.996-3.33-1.274C446.043,252.482,443.888,253.456,441.081,254.74z
		 M460.23,299.237c0.321-0.063,0.5-0.06,0.636-0.126c2.614-1.32,5.235-2.625,7.811-4.008c0.226-0.123,0.338-0.907,0.172-1.211
		c-0.88-1.631-1.995-3.15-2.773-4.825c-0.791-1.724-1.893-1.701-3.267-0.973c-1.956,1.036-3.944,2.029-5.788,3.244
		c-0.546,0.357-1.093,1.605-0.867,2.078c0.844,1.774,1.985,3.413,3.068,5.067C459.46,298.837,459.953,299.029,460.23,299.237z
		 M493.23,242.646c-0.086,2.075-0.215,3.846-0.208,5.616c0,0.434,0.397,1.238,0.662,1.261c1.949,0.179,3.908,0.274,5.857,0.208
		c0.341-0.013,0.894-0.867,0.946-1.377c0.113-1.182-0.092-2.399-0.022-3.587c0.083-1.387-0.52-1.893-1.837-1.903
		C496.935,242.852,495.246,242.732,493.23,242.646z M469.649,245.943c-2.128,0.49-4.398,1.009-7.142,1.642
		c0.486,1.992,0.973,3.998,1.611,6.593c2.876-0.95,5.329-1.757,7.738-2.555C471.066,249.573,470.438,247.968,469.649,245.943z
		 M482.994,287.058c-0.348-0.612-0.643-1.046-0.867-1.516c-0.609-1.311-1.01-3.584-1.823-3.733c-1.298-0.242-2.87,0.894-4.306,1.493
		c-3.376,1.406-3.271,1.36-1.377,4.667c0.851,1.486,1.84,1.807,3.25,1.261C479.559,288.577,481.21,287.822,482.994,287.058z
		 M505.142,279.052c-0.212-1.685-0.294-3.267-0.682-4.772c-0.119-0.477-1.022-1.049-1.582-1.066
		c-1.416-0.03-2.839,0.192-4.242,0.391c-0.431,0.06-1.179,0.377-1.179,0.566c0.01,1.721-0.079,3.511,0.41,5.11
		c0.152,0.493,1.992,0.708,3.028,0.636C502.362,279.823,503.799,279.347,505.142,279.052z M512.642,271.559
		c-0.986,5.613-0.708,5.928,4.862,5.256c0.459-0.057,0.92-0.215,1.347-0.394c0.258-0.109,0.655-0.38,0.646-0.549
		c-0.143-1.93-0.357-3.853-0.553-5.815C516.64,270.609,514.664,271.076,512.642,271.559z M528.981,251.87
		c2.34,0.096,4.411,0.189,6.463,0.275c1.093-5.683,1.062-5.736-4.302-5.911c-0.623-0.02-1.241,0.04-1.927,0.066
		C529.14,248.197,529.063,249.947,528.981,251.87z M515.98,249.431c2.129,0.238,3.952,0.635,3.969-2.562
		c0.007-2.416-0.52-3.283-3.019-3.257c-3.76,0.04-3.598-0.093-3.932,2.816C512.688,249.054,513.787,249.798,515.98,249.431z
		 M535.978,275.044c-0.05-1.88,0.036-3.081-0.162-4.233c-0.093-0.529-0.715-1.333-1.146-1.37c-1.327-0.112-2.714-0.069-3.998,0.229
		c-0.635,0.142-1.542,0.983-1.549,1.516c-0.013,1.231,0.226,3.406,0.755,3.531C531.87,275.19,534.019,274.991,535.978,275.044z
		 M564.774,258.728c-0.324-0.092-0.642-0.188-0.967-0.288c-0.231,0.95-0.837,1.992-0.635,2.836
		c1.128,4.769,2.481,9.479,3.687,14.228c0.431,1.725,1.43,1.761,2.476,1.493C567.786,270.801,566.28,264.765,564.774,258.728z
		 M546.873,250.232c-1.407,4.739-0.507,5.603,5.106,4.905c0.066-1.482,0.133-2.969,0.205-4.676
		C550.371,250.381,548.716,250.312,546.873,250.232z M548.491,274.617c1.754,0.073,3.402,0.146,5.077,0.218
		c0.072-1.618,0.136-3.098,0.198-4.551c-1.804-0.076-3.452-0.149-5.083-0.222C548.617,271.668,548.551,273.091,548.491,274.617z
		 M582.246,279.929c-0.871-0.328-1.691-0.596-2.479-0.937c-0.827-0.357-1.632-0.778-2.492-1.198
		c-1.284,4.968-0.823,5.643,3.638,5.543C581.315,282.302,581.739,281.22,582.246,279.929z"/>
</g>
</svg>
