<?xml version="1.0" encoding="utf-8"?>
<!-- Generator: Adobe Illustrator 16.0.4, SVG Export Plug-In . SVG Version: 6.00 Build 0)  -->
<svg version="1.2" baseProfile="tiny" id="Layer_1" xmlns="http://www.w3.org/2000/svg" xmlns:xlink="http://www.w3.org/1999/xlink"
	 x="0px" y="0px" width="75px" height="70px" viewBox="0 0 75 70" xml:space="preserve">
<path fill="#FFFFFF" d="M69.807,51.327c-0.139-1.672-1.119-2.897-2.43-3.66c1.792-1.377,3.116-3.247,2.556-5.732
	c-0.497-2.211-1.841-3.798-3.619-4.617c1.311-1.759,1.368-4.213,0.223-6.46c-0.248-0.66-0.635-1.316-1.191-1.952
	c-1.594-1.826-3.893-2.504-6.375-2.715c-2.428-0.494-4.975-0.671-7.428-0.288c1.617-5.607,3.442-11.667,0.867-17.18
	c-1.663-3.561-7.012-7.952-10.485-3.678c-2.866,3.527-0.859,8.8-1.569,12.997c-0.521,1.463-1.243,2.853-2.152,4.133
	c-0.376,0.532-0.792,1.021-1.231,1.48c-1.366,1.199-2.981,2.145-4.548,2.804c-1.735,0.731-3.611,1.092-5.44,1.498
	c-1.166,0.259-2.47,0.306-3.609,0.726c-0.004-0.011-0.007-0.021-0.012-0.032c-0.285-0.611-0.779-0.995-1.367-1.227
	c-2.355-1.53-7.862-1.851-9.69,0.269c-1.032,1.197-1.299,3.056-1.267,4.994c-0.296-0.074-0.606-0.126-0.926-0.145
	c-1.735-0.324-3.655-0.275-4.473,0.815c-0.681,0.905-0.6,2.018-0.522,3.098c0.167,2.328,0.205,4.639,0.168,6.974
	c-0.037,2.313-0.076,4.61-0.239,6.919c-0.128,1.833-0.279,3.844,0.431,5.579c1.006,2.465,4.085,1.927,6.396,1.759
	c0.012,1.497,0.061,2.949,1.227,4.083c1.213,1.181,3.678,1.253,5.263,1.367c2.121,0.151,3.361-0.498,4.079-1.588
	c1.304,0.245,2.607,0.503,3.91,0.765c3.639,1.078,7.557,1.495,11.18,2.284c6.017,1.31,12.313,1.956,18.466,2.114
	c4.025,0.104,10.34-0.57,12.828-4.305c1.639-2.461,0.944-5.09-1.023-6.414C69.114,54.837,69.981,53.407,69.807,51.327
	 M10.204,35.545c-0.088,0.169-0.18,0.337-0.272,0.504c-0.034-0.125-0.065-0.251-0.091-0.377
	C9.961,35.63,10.082,35.586,10.204,35.545 M9.894,41.075c0.084-0.027,0.166-0.057,0.248-0.088c0.179,0.92,0.269,1.823,0.247,2.746
	c-0.293-0.203-0.583-0.324-0.865-0.373C9.581,42.583,9.68,41.792,9.894,41.075 M9.425,45.261c0.01-0.169,0.018-0.344,0.026-0.523
	c0.178,0.072,0.371,0.217,0.58,0.451c-0.21,0.064-0.421,0.125-0.627,0.182C9.412,45.333,9.423,45.301,9.425,45.261 M8.961,51.274
	c0.21-0.445,0.365-0.885,0.455-1.322c0.128,0.367,0.301,0.692,0.531,0.936c-0.005,0.037-0.009,0.076-0.008,0.118
	c0.019,0.935-0.179,1.778-0.505,2.59c0.034-0.483,0.163-0.969,0.288-1.478C9.851,51.591,9.389,51.221,8.961,51.274 M9.237,39.306
	c-0.195-0.277-0.685-0.33-0.907-0.062c-0.031,0.039-0.063,0.076-0.095,0.115c-0.007-0.285,0.035-0.582,0.106-0.885
	c0.303,0.314,0.626,0.553,0.961,0.719C9.281,39.231,9.258,39.268,9.237,39.306 M7.763,51.479c0.166,0.172,0.41,0.266,0.643,0.244
	c-0.29,0.494-0.521,1.008-0.78,1.502c0.04-0.535,0.107-1.064,0.144-1.599C7.773,51.575,7.771,51.524,7.763,51.479 M8.264,42.839
	c-0.195-0.407-0.42-0.803-0.737-1.162c-0.199-0.225-0.561-0.244-0.823-0.105c-0.009-0.496-0.019-0.99-0.033-1.483
	c0.201,0.385,0.484,0.671,0.823,0.858c0.068,0.09,0.16,0.16,0.265,0.205c0.212,0.266,0.421,0.533,0.631,0.801
	C8.34,42.247,8.298,42.542,8.264,42.839 M9.195,36.962c-0.159,0.066-0.315,0.146-0.466,0.236c0.101-0.312,0.193-0.617,0.252-0.91
	C9.038,36.513,9.108,36.737,9.195,36.962 M7.327,33.995c0.39-0.168,0.883-0.226,1.427-0.223c-0.369,0.486-0.727,0.975-1.102,1.45
	c-0.217,0.093-0.348,0.278-0.388,0.476c-0.029,0.037-0.061,0.074-0.092,0.11C7.122,35.2,7.178,34.596,7.327,33.995 M7.186,37.012
	c0.209-0.188,0.402-0.386,0.591-0.588c-0.152,0.819-0.5,1.563-0.664,2.31c-0.177-0.012-0.354,0.067-0.482,0.196
	c-0.023-0.667-0.049-1.335-0.077-2.003C6.685,37.138,6.964,37.212,7.186,37.012 M6.575,47.28c0.337,0.318,0.98,0.272,1.13-0.287
	c0.042-0.154,0.108-0.408,0.201-0.691C7.895,46.446,7.922,46.589,8,46.698c0.047,0.067,0.096,0.121,0.143,0.181
	c-0.134,0.024-0.262,0.086-0.366,0.194c-0.576,0.605-1.012,1.293-1.313,2.025C6.498,48.493,6.536,47.886,6.575,47.28 M7.46,55.754
	c0.027-0.021,0.059-0.036,0.084-0.06c0.271-0.252,0.494-0.527,0.691-0.814c0.086,0.322,0.217,0.645,0.41,0.966
	c0.252,0.421,0.862,0.431,1.132,0.028c0.237,0.08,0.496,0.148,0.744,0.209c0.041,0.072,0.09,0.138,0.149,0.197
	C9.417,56.366,8.254,56.378,7.46,55.754 M10.78,36.653c0.139-0.236,0.272-0.475,0.402-0.713c0.041,0.07,0.09,0.141,0.136,0.213
	c0.024,0.203,0.051,0.402,0.076,0.599C11.203,36.698,10.999,36.661,10.78,36.653 M11.692,44.331
	c0.017-0.268,0.027-0.534,0.029-0.799c0.011,0.016,0.019,0.031,0.029,0.047c0.036,0.053,0.082,0.097,0.133,0.137
	c0.002,0.117,0.002,0.234,0.004,0.352C11.833,44.161,11.767,44.251,11.692,44.331 M21.126,55.868
	c-0.064,1.115-0.066,2.219-0.065,3.334c0,0.301-0.029,0.547-0.08,0.761c-0.028,0.071-0.057,0.144-0.089,0.215
	c-0.435,0.937-2.314,0.653-3.101,0.592c-0.709-0.055-1.416-0.222-2.108-0.379c-1.391-0.313-1.447-1.146-1.467-2.368
	c-0.037-2.434-0.041-4.871-0.031-7.306c0.014-3.856,0.231-7.735-0.118-11.581c-0.004-0.048-0.01-0.098-0.015-0.146
	c-0.005-0.437-0.013-0.873-0.014-1.309c-0.007-2.441,0.137-4.819-0.274-7.193c0.026-0.154,0.053-0.309,0.084-0.461
	c0.069-0.335,0.215-0.572,0.411-0.741c1.918-0.623,3.899-0.374,5.897-0.127c0.334,0.161,0.615,0.39,0.819,0.707
	c0.204,4.579,0.118,9.107,0.178,13.702c0.032,2.539,0.203,5.074,0.234,7.613C21.305,52.743,21.216,54.306,21.126,55.868
	 M67.109,43.79c-0.363,1.634-2.542,2.498-3.873,3.143c-1.287,0.623-0.604,2.561,0.699,2.577c1.869,0.024,3.871,1.321,2.927,3.478
	c-0.488,1.112-1.948,1.744-2.931,2.324c-1.166,0.693-0.7,2.624,0.702,2.59c1.782-0.045,2.453,0.955,2.19,2.055
	c-0.805,0.959-2.032,1.67-3.07,2.261c-1.604,0.916-3.429,1.409-5.315,1.677c-3.565,0.318-7.356-0.261-10.825-0.604
	c-4.243-0.422-8.362-1.293-12.536-2.115c-3.87-0.764-8.136-1.176-11.645-3.105c-0.026-0.016-0.054-0.022-0.08-0.035
	c0.052-0.978,0.021-2.004-0.012-3c-0.106-3.151,0.287-6.395,0.401-9.549c0.133-3.644,0.201-7.283,0.254-10.929
	c0.019-1.355,0.113-2.677-0.081-3.97c0.915-0.163,1.956-0.107,2.848-0.23c1.679-0.233,3.317-0.598,4.945-1.067
	c2.588-0.748,4.918-2.106,6.966-3.835c3.967-3.346,4.534-7.632,4.417-12.467c-0.046-1.902-0.315-4.754,0.96-6.346
	c1.799-2.242,4.771,1.017,5.609,2.461c3.259,5.621,0.224,12.625-1.359,18.285c-0.271,0.971,0.676,1.98,1.669,1.669
	c3.636-1.134,9.059-0.947,12.396,1.073c1.787,1.082,2.653,3.238,2.041,4.833c-0.636,0.773-1.523,1.4-2.332,1.835
	c-1.668,0.5-0.86,2.897,0.832,2.659C65.446,39.101,67.683,41.211,67.109,43.79"/>
<path fill="#FFFFFF" d="M17.625,45.939c-0.739,0.13-1.324,0.646-1.705,1.298c-0.462,0.502-0.709,1.225-0.779,1.996
	c-0.079,0.881,0.329,1.777,1.128,2.189c1.535,0.793,3.643-0.145,4.54-1.485C22.174,47.898,19.655,45.583,17.625,45.939 M19.212,49.3
	c-0.538,0.595-1.501,0.925-2.174,0.736c-0.201-0.057-0.342-0.209-0.373-0.559c-0.014-0.161-0.005-0.329,0.014-0.498
	c0.271-0.73,0.925-1.385,1.646-1.361c0.452,0.014,1.021,0.58,1.139,0.928C19.548,48.796,19.454,49.034,19.212,49.3"/>
</svg>
