<?xml version="1.0" encoding="utf-8"?>
<!-- Generator: Adobe Illustrator 16.0.4, SVG Export Plug-In . SVG Version: 6.00 Build 0)  -->
<svg version="1.2" baseProfile="tiny" id="Layer_1" xmlns="http://www.w3.org/2000/svg" xmlns:xlink="http://www.w3.org/1999/xlink"
	 x="0px" y="0px" width="32px" height="32px" viewBox="0 0 32 32" xml:space="preserve">
<g>
	<path fill="#FFFFFF" d="M32,6.102c-0.813,1.266-1.898,2.396-3.254,3.39v0.813c0,4.746-1.707,9.05-5.119,12.916
		c-3.413,3.864-7.944,5.796-13.593,5.796c-3.616,0-6.961-0.993-10.034-2.982c0.723,0.091,1.242,0.136,1.559,0.136
		c3.028,0,5.74-0.949,8.136-2.848C8.293,23.277,7.028,22.837,5.898,22C4.768,21.163,4,20.091,3.593,18.779
		c0.542,0.091,0.949,0.136,1.22,0.136c0.452,0,1.039-0.089,1.763-0.271c-1.491-0.316-2.746-1.074-3.763-2.271
		s-1.525-2.587-1.525-4.169v-0.068c0.994,0.542,1.988,0.813,2.983,0.813c-1.944-1.265-2.915-3.096-2.915-5.492
		c0-1.129,0.293-2.214,0.881-3.254c3.479,4.294,7.977,6.576,13.492,6.847c-0.091-0.316-0.136-0.813-0.136-1.492
		c0-1.853,0.632-3.412,1.898-4.678c1.266-1.265,2.825-1.898,4.679-1.898c1.852,0,3.435,0.701,4.745,2.102
		c1.356-0.226,2.757-0.769,4.203-1.627c-0.452,1.583-1.423,2.803-2.915,3.661C29.604,6.983,30.869,6.644,32,6.102z"/>
</g>
</svg>
