<?xml version="1.0" encoding="utf-8"?>
<!-- Generator: Adobe Illustrator 16.0.4, SVG Export Plug-In . SVG Version: 6.00 Build 0)  -->
<!DOCTYPE svg PUBLIC "-//W3C//DTD SVG 1.1//EN" "http://www.w3.org/Graphics/SVG/1.1/DTD/svg11.dtd">
<svg version="1.1" id="Layer_1" xmlns="http://www.w3.org/2000/svg" xmlns:xlink="http://www.w3.org/1999/xlink" x="0px" y="0px"
	 width="32px" height="32px" viewBox="0 0 32 32" enable-background="new 0 0 32 32" xml:space="preserve">
<g>
	<path fill="#FFFFFF" d="M28.291,8.396c-0.624,0.973-1.459,1.841-2.5,2.604v0.625c0,3.646-1.312,6.952-3.933,9.921
		C19.237,24.516,15.756,26,11.417,26c-2.778,0-5.347-0.764-7.708-2.291c0.556,0.069,0.955,0.104,1.198,0.104
		c2.326,0,4.409-0.729,6.25-2.188c-1.077-0.036-2.049-0.374-2.917-1.017c-0.868-0.644-1.458-1.467-1.771-2.475
		c0.416,0.07,0.729,0.104,0.937,0.104c0.348,0,0.798-0.068,1.354-0.208c-1.146-0.243-2.109-0.825-2.891-1.745
		c-0.781-0.92-1.171-1.987-1.171-3.203v-0.052c0.764,0.416,1.527,0.625,2.292,0.625c-1.494-0.972-2.239-2.378-2.239-4.219
		c0-0.867,0.225-1.701,0.676-2.5c2.673,3.298,6.128,5.051,10.365,5.259c-0.07-0.243-0.105-0.625-0.105-1.146
		c0-1.423,0.486-2.621,1.458-3.594C18.118,6.486,19.315,6,20.739,6c1.423,0,2.64,0.539,3.646,1.615
		c1.042-0.174,2.117-0.591,3.229-1.25c-0.348,1.216-1.093,2.153-2.239,2.812C26.45,9.073,27.422,8.813,28.291,8.396z"/>
</g>
</svg>
