<?xml version="1.0" encoding="utf-8"?>
<!-- Generator: Adobe Illustrator 16.0.4, SVG Export Plug-In . SVG Version: 6.00 Build 0)  -->
<!DOCTYPE svg PUBLIC "-//W3C//DTD SVG 1.1//EN" "http://www.w3.org/Graphics/SVG/1.1/DTD/svg11.dtd">
<svg version="1.1" id="Layer_1" xmlns="http://www.w3.org/2000/svg" xmlns:xlink="http://www.w3.org/1999/xlink" x="0px" y="0px"
	 width="32px" height="32px" viewBox="0 0 32 32" enable-background="new 0 0 32 32" xml:space="preserve">
<path fill="#3B4566" d="M30.434,31.852H1.565c-0.783,0-1.417-0.635-1.417-1.418V1.565c0-0.782,0.634-1.417,1.417-1.417h28.869
	c0.782,0,1.418,0.635,1.418,1.417v28.869C31.852,31.217,31.217,31.852,30.434,31.852"/>
<path fill="#F1F2E1" d="M17.396,20.43c0,1.148-0.023,2.299,0.01,3.447c0.016,0.562-0.137,0.826-0.754,0.775
	c-0.591-0.047-1.191-0.039-1.784,0c-0.557,0.037-0.749-0.168-0.743-0.728c0.023-2.231,0.013-4.467,0.012-6.698
	c-0.001-1.016-0.003-1.016-1.012-1.016c-0.426-0.001-0.852-0.018-1.275,0.003c-0.396,0.018-0.602-0.121-0.593-0.541
	c0.013-0.616,0.013-1.233,0.005-1.851c-0.004-0.377,0.163-0.542,0.541-0.53c0.425,0.013,0.85,0.001,1.275,0.001
	c1.052,0,1.043,0,1.054-1.028c0.01-0.98,0.062-1.948,0.562-2.843c0.751-1.342,1.859-2.063,3.41-2.075
	c0.701-0.006,1.403,0.011,2.104-0.007c0.388-0.01,0.535,0.157,0.53,0.528c-0.01,0.682-0.012,1.362,0,2.042
	c0.007,0.366-0.17,0.484-0.508,0.481c-0.639-0.007-1.276,0.006-1.914,0.007c-0.541,0.001-0.846,0.281-0.883,0.805
	c-0.039,0.551-0.029,1.104-0.033,1.657c-0.004,0.381,0.242,0.438,0.556,0.436c0.724-0.008,1.446,0.014,2.17-0.007
	c0.433-0.014,0.629,0.14,0.615,0.586c-0.017,0.595-0.015,1.191,0,1.786c0.01,0.412-0.171,0.564-0.576,0.553
	c-0.701-0.021-1.403,0.021-2.104-0.012c-0.496-0.022-0.685,0.146-0.672,0.651C17.416,18.047,17.398,19.238,17.396,20.43"/>
</svg>
