<?xml version="1.0" encoding="utf-8"?>
<!-- Generator: Adobe Illustrator 16.0.4, SVG Export Plug-In . SVG Version: 6.00 Build 0)  -->
<!DOCTYPE svg PUBLIC "-//W3C//DTD SVG 1.1//EN" "http://www.w3.org/Graphics/SVG/1.1/DTD/svg11.dtd">
<svg version="1.1" id="Layer_1" xmlns="http://www.w3.org/2000/svg" xmlns:xlink="http://www.w3.org/1999/xlink" x="0px" y="0px"
	 width="120px" height="120px" viewBox="0 0 120 120" enable-background="new 0 0 120 120" xml:space="preserve">
<g>
	<path fill="#DC4E41" d="M119,23.126v73.75c0,6.095-2.164,11.304-6.493,15.631c-4.329,4.328-9.538,6.493-15.633,6.493H23.126
		c-6.097,0-11.306-2.165-15.635-6.493C3.165,108.18,1,102.971,1,96.876v-73.75c0-6.095,2.165-11.305,6.491-15.633
		c4.329-4.328,9.538-6.492,15.635-6.492h73.748c6.095,0,11.304,2.164,15.633,6.492C116.836,11.821,119,17.031,119,23.126z"/>
</g>
<path fill="#FFFFFF" d="M42.91,54.726v10.258h16.967c-0.685,4.397-5.132,12.903-16.967,12.903c-10.214,0-18.542-8.46-18.542-18.887
	c0-10.425,8.331-18.886,18.542-18.886c5.811,0,9.696,2.48,11.923,4.616l8.116-7.82c-5.211-4.869-11.961-7.82-20.036-7.82
	C26.375,29.09,13,42.466,13,59s13.375,29.909,29.91,29.909c17.261,0,28.714-12.135,28.714-29.225c0-1.965-0.216-3.459-0.474-4.958
	H42.91L42.91,54.726L42.91,54.726z"/>
<polygon fill="#FFFFFF" points="107,54.726 98.454,54.726 98.454,46.181 89.908,46.181 89.908,54.726 81.36,54.726 81.36,63.271 
	89.908,63.271 89.908,71.817 98.454,71.817 98.454,63.271 107,63.271 "/>
</svg>
