<?xml version="1.0" encoding="utf-8"?>
<!-- Generator: Adobe Illustrator 16.0.4, SVG Export Plug-In . SVG Version: 6.00 Build 0)  -->
<svg version="1.2" baseProfile="tiny" id="Layer_1" xmlns="http://www.w3.org/2000/svg" xmlns:xlink="http://www.w3.org/1999/xlink"
	 x="0px" y="0px" width="70px" height="75px" viewBox="0 0 70 75" xml:space="preserve">
<path fill="#FFFFFF" d="M61.072,45.65c-0.168-0.082,0.793-2.352,0.793-2.785c0.002-1.291-1.448-1.914-2.521-1.934
	c-0.24,0.031-0.48,0.066-0.721,0.109c-0.829,0.133-0.973-0.527-0.485-1.121c0.468-0.568,0.621-1.115,0.658-1.834
	c0.063-1.192-0.743-2.089-1.876-2.279c-0.602-0.101-3.952,0.635-3.7-0.493c0.328-1.472,1.442-2.575,0.394-4.043
	c-0.752-1.055-2.146-1.211-3.327-1.254c-1.3-0.045-1.707-0.285-1.181-1.658c0.309-0.808,0.545-1.573,0.633-2.432
	c0.152-1.451-1.068-2.267-2.258-2.662c-0.832-0.273-1.729-0.227-2.584-0.353c-0.373-0.054-0.173-2.754-0.221-3.1
	c-0.162-1.177-0.748-2.448-2.027-2.759c-0.953-0.232-1.867-0.143-2.84-0.129c-1.611,0.022-1.033-1.35-0.759-2.421
	c0.722-2.809-3.008-5.349-4.635-2.495c-0.146,0.256,0.091,0.536,0.365,0.477c5.498-1.208,0.324,4.223,3.25,5.669
	c1.403,0.693,2.98-0.041,4.358,0.577c1.532,0.686,0.117,3.521,0.667,4.719c0.377,0.818,1.108,1.102,1.969,1.182
	c0.809,0.074,2.918,0.021,2.987,1.295c0.04,0.772-0.471,1.699-0.741,2.403c-0.358,0.93-0.315,1.613-0.027,2.118
	c-0.25,0.482-0.447,0.992-0.715,1.49c-0.582,1.089-1.437,1.975-2.35,2.789c-2.062,1.844-4.789,2.952-7.443,3.588
	c-5.314,1.27-11.45-1.431-14.055-6.27c1.521-0.596,2.835-1.466,1.889-3.481c-0.504-1.072-2.478-1.739-1.428-3.043
	c0.89-1.104,2.982-0.979,4.128-1.829c0.691-0.512,1.072-1.585,0.521-2.349c-0.271-0.376-1.918-1.75-0.715-2.154
	c0.861-0.287,1.795-0.282,2.686-0.413c1.115-0.162,1.901-1.5,1.194-2.499c-0.401-0.566-0.866-0.992-1.393-1.441
	c-0.462-0.395,1.978-1.571,2.226-1.688c0.121-0.061,0.067-0.221-0.035-0.261c-1.61-0.625-5.769,0.739-3.697,2.923
	c0.549,0.576,1.879,1.169,0.468,1.302c-0.662,0.062-1.278,0.202-1.919,0.376c-1.143,0.312-2.224,1.271-1.887,2.575
	c0.148,0.562,0.417,0.911,0.837,1.308c1.111,1.043,0.38,1.305-0.675,1.629c-1.221,0.374-2.623,0.706-3.321,1.9
	c-0.574,0.978-0.579,1.908,0.1,2.836c0.849,1.159,2.572,2.3,0.155,2.893c-1.059,0.261-2.286,0.428-2.991,1.357
	c-0.591,0.774-0.905,2.224-0.051,2.969c0.529,0.46,3.103,1.227,2.045,1.963c-1.112,0.776-2.417,1.153-3.476,2.03
	c-0.801,0.666-0.972,1.662-0.752,2.623c0.102,0.436,0.47,0.879,0.856,1.096c0.365,0.207,0.743,0.387,1.115,0.582
	c1.22,0.637-1.65,1.41-1.726,1.42c-1.088,0.15-3.016,1.574-2.531,2.893c0.249,0.67,0.638,1.037,1.078,1.609
	c0.872,1.135-1.445,1.502-1.969,1.553c-1.038,0.1-1.08,1.635,0,1.646c1.816,0.018,4.893-1.273,3.755-3.617
	c-0.438-0.904-1.939-1.816,0.146-2.352c0.849-0.219,1.337-0.264,2.093-0.764c1.128-0.742,1.551-2.268,0.713-3.375
	c-0.352-0.465-0.902-0.701-1.416-0.945c-1.289-0.615,0.576-1.562,0.971-1.779c0.974-0.533,2.457-0.947,3.05-1.981
	c0.431-0.751,0.471-1.855-0.201-2.509c-0.749-0.731-3.826-1.579-1.413-2.444c0.179-0.065,0.368-0.129,0.559-0.194
	c0.017,2.079,2.602,4.036,4.037,5.136c1.905,1.459,4.197,2.389,6.57,2.686c-0.09,0.389,0.026,0.863,0.016,1.24
	c-0.015,0.523-0.053,1.049-0.086,1.572c-2.29,0.01-4.553,0.234-6.713,1.076c-4.405,1.719-6.301,6.598-8.157,10.555
	c-1.204,2.568-2.296,5.193-3.377,7.816c-0.597,1.441-1.138,2.904-1.641,4.381c-0.409,1.203-1.211,2.193-1.575,3.42
	c-1.374,4.633,6.635,3.422,8.783,3.193c3.033-0.322,6.026-0.844,9.082-0.881c3.46-0.043,6.908,0.408,10.382,0.324
	c2.561-0.062,5.111-0.25,7.674-0.215c1.861,0.025,3.66-0.057,5.391-0.797c4.439-1.9,2.618-8.775,1.684-12.17
	c-1.361-4.945-3.143-9.615-7.11-13.049c-1.753-1.516-3.621-2.504-5.638-3.066c-0.051-0.068-0.125-0.125-0.225-0.146
	c-0.669-0.15-1.351-0.244-2.037-0.305c-0.029-0.002-0.059-0.002-0.086-0.006c0.176-0.527,0.125-1.168,0.076-1.686
	c-0.061-0.631-0.186-1.242-0.314-1.857c2.188-0.619,4.291-1.604,6.067-2.986c1.396-1.085,3.627-3.143,4.083-5.22
	c0.625,0.221,1.367,0.317,2.094,0.344c2.56,0.092,1.107,2.104,0.801,3.47c-0.215,0.965,0.225,1.839,1.096,2.257
	c0.955,0.459,2.143,0.168,3.143,0.054c2.414-0.273,0.479,1.748,0.07,2.906c-0.322,0.92,0.493,2.027,1.281,2.363
	c1.062,0.457,3.689-0.777,2.703,1.223c-0.396,0.799-0.59,1.496-0.219,2.334c0.153,0.348,0.6,0.615,0.928,0.752
	c0.271,0.133,0.555,0.227,0.853,0.279c0.419,0.109,3.526,0.363,0.95,2.098c-0.568,0.381-0.215,1.459,0.493,1.17
	c1.135-0.467,1.946-1.555,1.552-2.863C63.775,46.074,62.475,46.326,61.072,45.65 M50.307,56.99c1.11,3.461,4.877,12.15-0.73,13.258
	c-1.85,0.367-3.855,0.059-5.729,0.133c-3.256,0.129-6.497,0.299-9.757,0.213c-2.851-0.078-5.606-0.414-8.463-0.176
	c-2.736,0.229-5.457,0.67-8.182,0.984c-1.07,0.123-2.143,0.162-3.22,0.092c-1.966-0.127-0.471-2.141-0.018-2.971
	c0.647-1.184,0.944-2.705,1.429-3.971c0.616-1.607,1.305-3.186,1.986-4.768c1.839-4.26,3.64-10.262,7.656-12.984
	c0.067-0.045,0.135-0.084,0.205-0.127c0.358-0.08,0.716-0.135,1.074-0.195c-0.567,0.264-0.969,0.838-0.969,1.494
	c0,0.898,0.749,1.648,1.65,1.648c0.897,0,1.649-0.75,1.649-1.648c0-0.828-0.644-1.525-1.45-1.629
	c0.666-0.084,1.335-0.148,2.006-0.197c0.346,0.811,1.785,2.938,2.113,3.238c1.303,1.201,3.276,1.709,5.009,1.545
	c1.518-0.143,3.344-1.443,4.316-3.035c-0.032,0.15-0.046,0.301-0.036,0.455c0.001,0.033,0.011,0.062,0.015,0.094
	c0.017,0.346,0.147,0.689,0.416,0.965c0.002,0,0.002,0,0.004,0.002c0,0.004,0.006,0.006,0.008,0.01
	c0.087,0.088,0.185,0.16,0.289,0.223c0.006,0.004,0.012,0.01,0.017,0.014c0.177,0.104,0.37,0.166,0.569,0.193
	c0.197,0.025,0.402,0.014,0.598-0.039c0.021-0.008,0.039-0.018,0.059-0.023c0.049-0.016,0.1-0.033,0.148-0.055
	c0.031-0.014,0.059-0.029,0.088-0.043c0.02-0.012,0.045-0.021,0.065-0.033c0.016-0.01,0.03-0.021,0.046-0.031
	c0.031-0.02,0.061-0.041,0.091-0.062c0.044-0.033,0.086-0.068,0.126-0.105c0.008-0.008,0.018-0.016,0.025-0.025
	c0.218-0.211,0.352-0.473,0.408-0.752c0.027-0.107,0.047-0.217,0.054-0.33c0.01-0.154-0.005-0.307-0.038-0.461
	C46.947,50.006,49.204,53.549,50.307,56.99 M41.432,46.629c0.133,0.051,0.264,0.102,0.393,0.156
	c-0.234,0.09-0.436,0.244-0.601,0.436C41.309,47.025,41.378,46.828,41.432,46.629 M39.254,46.057
	c-0.441,1.434-1.748,2.691-3.225,2.861c-2.216,0.252-3.661-1.258-4.791-2.893c0.188-0.012,0.374-0.023,0.563-0.035
	C34.243,45.836,36.822,45.66,39.254,46.057 M37.102,40.848c0.057,0.617,0.203,1.432-0.115,1.994
	c-0.043,0.074-0.059,0.146-0.078,0.217c-0.398-0.01-0.799-0.018-1.208-0.004c-0.077,0.002-0.15,0.01-0.224,0.016
	c-0.559-0.002-1.111-0.006-1.661-0.014c0.006-0.662,0.02-1.324-0.072-1.986c-0.023-0.168-0.093-0.463-0.205-0.744
	c0.674,0.018,1.35,0,2.022-0.092c0.495-0.068,0.99-0.16,1.485-0.266C37.053,40.262,37.074,40.555,37.102,40.848"/>
<path fill="#FFFFFF" d="M8.114,36.944c0.939-0.675,2.769-0.691,3.025-2.17c0.21-1.2-0.388-1.91-0.826-2.972
	c-0.412-1,2.735-1.272,3.273-1.481c0.703-0.275,1.303-0.866,1.355-1.653c0.032-0.544-0.072-1.062-0.297-1.562
	c-0.168-0.372-1.531-2.012-0.274-2.105c2.374-0.172,4.623-1.168,3.396-3.88c-0.537-1.186-1.091-1.6,0.671-1.669
	c1.043-0.04,2.169,0.102,3.065-0.535c0.886-0.63,0.759-1.769,0.55-2.698c-0.109-0.267-0.235-0.527-0.379-0.776
	c-0.722-1.419,0.043-1.503,0.913-1.881c0.874-0.376,1.778-0.387,2.633-0.789c0.131-0.062,0.131-0.284,0-0.346
	c-2.011-0.948-5.335-0.224-5.461,2.364c-0.022,0.458,0.362,1.054,0.565,1.44c0.956,1.834-0.567,1.518-1.5,1.495
	c-0.927-0.024-2.347-0.049-3.017,0.753c-0.517,0.615-0.635,1.228-0.391,1.998c0.364,1.142,1.98,2.536-0.406,2.704
	c-1.37,0.098-2.46,0.088-3.31,1.306c-0.703,1.01,0.725,2.286,1.133,3.048c0.801,1.498-1.484,1.321-2.432,1.562
	c-0.816,0.209-1.833,0.867-2.023,1.754c-0.213,1.008,0.11,1.774,0.594,2.65c0.616,1.121-2.419,1.869-3.003,2.864
	c-0.49,0.838-0.214,1.929,0.415,2.601c0.412,0.443,1.644,1.402,0.686,1.918c-0.514,0.277-1.136,0.375-1.672,0.613
	c-0.923,0.412-1.52,0.979-1.831,1.945c-0.143,0.445-0.095,1.1,0.124,1.512c0.084,0.16,1.685,2.283,0.185,1.838
	c-1.185-0.354-1.673,1.469-0.507,1.844c2.515,0.811,4.205-2.078,2.491-4.01c-1.114-1.254,1.426-1.717,2.199-2.047
	c0.971-0.414,1.428-1.305,1.44-2.312C9.509,39.482,7.465,37.41,8.114,36.944"/>
<path fill="#FFFFFF" d="M4.479,31.513c0.367-0.726,0.373-1.391,0.361-2.196c-0.02-1.261,1.367-1.251,2.255-1.635
	c1.587-0.685,1.364-2.821,1.213-4.147c-0.014-0.122,2.124-0.325,2.397-0.497c0.591-0.371,1.165-0.948,1.332-1.659
	c0.129-0.555-0.081-2.98,0.239-3.211c0.486-0.352,1.562-0.25,2.153-0.418c1.49-0.422,1.835-1.888,1.554-3.222
	c-0.274-1.304,1.635-0.592,2.44-0.541c0.588,0.036,1.341-0.22,1.769-0.627c0.509-0.484,0.817-1.06,1.134-1.681
	c0.795-1.552,2.345-1.203,3.794-1.189c0.785,0.007,0.832-1.037,0.174-1.291c-1.601-0.618-3.287-0.602-4.649,0.502
	c-0.439,0.355-0.73,0.958-0.994,1.441c-0.734,1.332-1.733,0.966-2.954,0.546c-1.12-0.384-2.955,0.559-2.923,1.863
	c0.02,0.753,0.761,2.105-0.208,2.376c-0.664,0.188-1.349,0.115-1.996,0.393c-1.213,0.516-1.708,1.876-1.49,3.142
	c0.516,3.032-2.961,1.075-3.64,3.17c-0.169,0.526-0.149,1.004-0.063,1.547c0.258,1.66-0.767,1.684-1.987,2.233
	c-0.605,0.273-1.244,0.689-1.42,1.385c-0.144,0.567-0.471,2.604-0.001,2.979c-0.265-0.212-0.636-0.401-0.988-0.261
	c-0.039,0.016-0.079,0.03-0.117,0.048c-1.179,0.47-0.693,2.365,0.475,1.975C3.154,32.649,4.104,32.261,4.479,31.513"/>
<path fill="#FFFFFF" d="M1.869,19.304c1.663,0.545,3.005-0.133,3.596-1.749c0.157-0.431-0.484-2.065-0.12-1.844
	c0.551,0.334,1.29,0.655,1.951,0.414c0.731-0.266,1.362-0.61,1.793-1.292c0.234-0.366,1.01-2.021,1.021-2.021
	c1.905-0.171,3.134-0.653,3.924-2.492c1.251-2.902,3.112-0.058,5.06-1.312c1.426-0.921,2.528-3.506,4.396-1.825
	c0.844,0.761,1.869,1.71,3.126,1.322c1.148-0.355,1.899-1.023,2.832,0.38c0.361,0.542,0.962,0.547,1.514,0.448
	c0.278-0.05,0.342-0.431,0.16-0.611c-1.041-1.043-1.543-2.469-3.248-2.591c-0.684-0.048-1.154,0.714-1.838,0.771
	c-0.625,0.055-1.402-1.031-1.834-1.399c-1.111-0.943-2.325-0.839-3.585-0.286c-0.728,0.322-1.237,0.95-1.738,1.543
	c-1.015,1.207-1.977,0.269-3.154-0.007c-1.696-0.396-2.884,0.959-3.344,2.386c-0.52,1.616-1.43,1.404-2.825,1.761
	c-0.516,0.134-0.804,0.4-1.106,0.827c-0.547,0.778-0.902,2.963-2.406,2.029c-0.487-0.303-1.364-0.436-1.873-0.123
	C3.597,13.986,3,14.404,2.967,15.156C2.938,15.8,3.686,17.103,3.074,17.38c-0.177-0.17-0.438-0.257-0.717-0.19
	c-0.278,0.066-0.477,0.155-0.726,0.296C0.85,17.929,1.074,19.044,1.869,19.304"/>
<path fill="#FFFFFF" d="M65.556,34.531c-0.53,0.115-1.038,0.279-1.585,0.299c-0.848,0.028-0.045-1.737,0.053-2.126
	c0.291-1.173-0.092-2.819-1.332-3.346c-1.353-0.571-2.361-0.136-3.609,0.505c-1.79,0.92-0.35-2.091-0.264-2.879
	c0.117-1.088-0.988-1.762-1.912-1.871c-0.827-0.099-1.512,0.116-2.299,0.375c-0.277,0.092,0.461-2.663,0.478-2.915
	c0.084-1.485-0.534-2.431-1.823-3.127c-0.555-0.3-1.218-0.314-1.822-0.217c-1.49,0.241-2.106,0.154-1.627-1.26
	c0.406-1.203,0.728-2.229,0.172-3.432c-0.766-1.658-4.006-0.462-3.983-2.151c0.041-2.832-1.604-5.208-4.666-3.85
	c-1.948,0.863-3.078-1.317-4.998-1.476c-1.37-0.113-2.622,0.796-3.011,2.049c-0.111,0.357,0.386,0.529,0.577,0.243
	c1.653-2.456,3.755-0.154,5.369,0.76c1.154,0.655,2.353-0.206,3.508-0.354c2.072-0.27,1.211,2.678,1.478,3.784
	c0.313,1.289,1.425,1.801,2.679,1.795c2.387-0.014,1.067,1.787,0.789,3.13c-0.164,0.786,0.051,1.637,0.713,2.127
	c0.885,0.657,4.668,0.429,4.779,1.532c0.168,1.64-1.162,2.657-0.4,4.359c0.508,1.14,1.856,0.983,2.793,0.676
	c0.758-0.248,1.451-0.528,1.121,0.453c-0.186,0.557-0.416,1.072-0.531,1.652c-0.487,2.502,2.057,3.098,3.854,2.259
	c0.564-0.265,1.24-0.848,1.846-0.374c0.726,0.567,0.028,2.017-0.129,2.688c-0.201,0.869,0.01,1.803,0.762,2.335
	c0.691,0.485,1.455,0.454,2.246,0.271c1.457-0.334,2.453-1.457,2.053,0.877c-0.143,0.832,1.109,1.201,1.281,0.354
	C68.58,35.393,68.031,34,65.556,34.531"/>
<path fill="#FFFFFF" d="M32.746,6.981c0.047,0.018,0.092,0.036,0.138,0.054c0.013,0.004,0.027,0.002,0.041,0.005
	c0.005,0.002,0.009,0.003,0.015,0.005c0.01,0.004,0.018-0.001,0.027,0.001c0.022,0.002,0.042,0.005,0.065,0.003
	c0.01-0.003,0.019-0.004,0.027-0.007c0.119-0.022,0.238-0.095,0.287-0.196c0.767-1.592,2.865-0.172,4.096-0.574
	c0.562-0.185,1.03-0.565,1.498-0.911c1.154-0.848,1.694,0.188,2.258,0.917c0.613,0.79,1.623,1.015,2.539,0.859
	c0.553-0.093,1.078-0.585,1.608-0.762c2.192-0.728,1.933,1.36,2.112,2.697c0.301,2.238,2.578,2.126,4.274,1.85
	c2.334-0.378,0.74,0.995,0.444,2.302c-0.178,0.776,0.234,1.83,1.055,2.056c0.465,0.129,3.786-0.724,3.657,0.08
	c-0.226,1.383-0.808,2.063,0.012,3.417c1.222,2.012,3.695,0.176,5.25-0.015c1.61-0.198,0.681,1.669,0.448,2.554
	c-0.212,0.807-0.456,1.928-0.006,2.704c1.085,1.87,3.957,1.1,5.061-0.335c0.316-0.411-0.387-0.951-0.719-0.555
	c-0.829,0.994-3.188,1.165-2.947-0.623c0.07-0.521,0.249-1.036,0.396-1.539c0.252-0.874,0.526-1.843,0.179-2.726
	c-0.831-2.107-3.611-0.804-5.04-0.366c-1.966,0.604-0.785-2.413-1.014-3.376c-0.275-1.155-1.675-1.495-2.658-1.384
	c-0.526,0.06-1.045,0.222-1.552,0.379c-1.053,0.325,0.367-1.175,0.477-1.562c0.25-0.873,0.049-1.803-0.691-2.379
	c-1.943-1.515-5.143,1.669-4.972-2.156c0.13-2.937-3.239-3.271-5.233-2.169c-1.467,0.806-1.83-1.057-2.926-1.558
	c-0.961-0.438-2.156-0.166-2.94,0.484c-0.837,0.693-1.32,0.914-2.24,0.498c-0.505-0.228-1.032-0.127-1.554-0.028
	c-0.455,0.087-0.839,0.456-1.182,0.735c-0.312,0.258-0.27,0.939-0.432,1.077C32.404,6.605,32.533,6.909,32.746,6.981"/>
<path fill="#FFFFFF" d="M30.313,26.467c0.31-0.525,0.21-1.184-0.208-1.617c-0.164-0.171-0.343-0.337-0.563-0.428
	c-0.08-0.04-0.161-0.072-0.248-0.098c-0.11-0.028-0.227-0.037-0.344-0.035c-0.119-0.002-0.236,0.007-0.348,0.035
	c-0.098,0.028-0.19,0.07-0.278,0.119c-0.055,0.028-0.105,0.062-0.156,0.098c-0.005,0.004-0.009,0.005-0.012,0.009
	c-0.213,0.151-0.374,0.359-0.441,0.614v0.003c-0.004,0.023-0.017,0.043-0.021,0.067c-0.036,0.185-0.073,0.372-0.075,0.559
	c-0.014,0.736,0.616,1.318,1.331,1.332c0.07,0.001,0.142,0.002,0.212,0.003C29.629,27.138,30.08,26.868,30.313,26.467"/>
<path fill="#FFFFFF" d="M39.165,27.47c0.796,0,1.462-0.666,1.462-1.464c0-0.797-0.666-1.462-1.462-1.462
	c-0.798,0-1.464,0.665-1.464,1.462C37.701,26.804,38.367,27.47,39.165,27.47"/>
<path fill="#FFFFFF" d="M29.946,32.491c-0.761,0.369-0.062,1.227,0.275,1.624c1.03,1.222,2.201,1.988,3.792,2.247
	c2.287,0.37,5.21-1.658,4.854-4.122c-0.101-0.689-1.068-0.438-1.127,0.151c-0.281,2.77-3.509,3.226-5.487,2.07
	C31.929,34.273,30.265,32.333,29.946,32.491"/>
<path fill="#FFFFFF" d="M29.22,51.76c0-0.844-0.705-1.545-1.548-1.545c-0.843,0-1.546,0.701-1.546,1.545
	c0,0.842,0.703,1.545,1.546,1.545C28.515,53.305,29.22,52.602,29.22,51.76"/>
<path fill="#FFFFFF" d="M29.712,55.58c0-0.734-0.613-1.348-1.347-1.348c-0.734,0-1.347,0.613-1.347,1.348
	c0,0.732,0.613,1.346,1.347,1.346C29.1,56.926,29.712,56.312,29.712,55.58"/>
<path fill="#FFFFFF" d="M30.979,58.994c0-0.873-0.731-1.604-1.605-1.604s-1.604,0.73-1.604,1.604c0,0.877,0.73,1.605,1.604,1.605
	S30.979,59.871,30.979,58.994"/>
<path fill="#FFFFFF" d="M30.493,64.271c0.526-0.049,0.978-0.244,1.258-0.721c0.254-0.434,0.279-1.039,0-1.471l-0.011-0.014
	c-0.286-0.441-0.731-0.729-1.266-0.729c-0.519,0-1.008,0.281-1.269,0.729c-0.264,0.453-0.264,1.029,0,1.48
	c0.243,0.414,0.767,0.775,1.269,0.729C30.479,64.273,30.485,64.273,30.493,64.271"/>
<path fill="#FFFFFF" d="M34.629,65.25c-0.028-0.004-0.05-0.008-0.076-0.01c-0.072-0.02-0.15-0.031-0.226-0.039
	c-0.287-0.057-0.574-0.031-0.86,0.137c-0.152,0.088-0.27,0.213-0.37,0.352c-0.001-0.225-0.042-0.449-0.159-0.65
	c-0.258-0.438-0.784-0.707-1.291-0.637c-0.427-0.004-0.781,0.283-1.023,0.613c-0.226,0.305-0.206,0.773-0.05,1.113
	c0.107,0.289,0.322,0.547,0.577,0.697c0.507,0.297,1.168,0.209,1.583-0.203c0.048-0.049,0.076-0.109,0.115-0.162
	c0.001,0.105,0.003,0.213,0.032,0.318c0.298,1.084,1.753,1.232,2.328,0.303c0.154-0.244,0.234-0.57,0.196-0.871
	C35.415,65.801,35.027,65.307,34.629,65.25"/>
<path fill="#FFFFFF" d="M37.893,64.135c-0.096-0.127-0.204-0.244-0.348-0.328c-0.229-0.135-0.455-0.148-0.711-0.176
	c-0.535-0.053-0.979,0.354-1.254,0.756c-0.286,0.414-0.247,1.035,0,1.455c0.257,0.439,0.736,0.715,1.244,0.715
	c1.072,0,1.827-1.232,1.245-2.17C38.016,64.299,37.957,64.215,37.893,64.135"/>
<path fill="#FFFFFF" d="M40.18,61.869c0.008-0.088,0.008-0.176-0.004-0.266c-0.011-0.172-0.059-0.344-0.156-0.512
	c-0.182-0.311-0.465-0.488-0.781-0.559h0.014c-0.359-0.15-0.854-0.049-1.165,0.174c-0.239,0.17-0.415,0.311-0.565,0.568
	c-0.166,0.277-0.188,0.525-0.219,0.842c-0.078,0.781,0.715,1.438,1.439,1.438c0.378,0,0.748-0.152,1.017-0.422
	c0.289-0.289,0.382-0.621,0.421-1.016c0.006-0.072,0.002-0.141-0.004-0.209c0.004,0.014,0.006,0.027,0.006,0.041
	C40.18,61.922,40.177,61.895,40.18,61.869"/>
<path fill="#FFFFFF" d="M41.089,57.381c-0.19-0.188-0.412-0.318-0.669-0.391c-0.605-0.166-1.434,0.088-1.711,0.697
	c-0.016,0.031-0.029,0.062-0.043,0.094c-0.141,0.244-0.214,0.506-0.214,0.789c0,0.281,0.073,0.545,0.214,0.789
	c0.277,0.475,0.799,0.773,1.35,0.773s1.071-0.299,1.351-0.773c0.141-0.244,0.211-0.508,0.213-0.789
	c-0.002-0.279-0.07-0.541-0.21-0.785C41.296,57.639,41.209,57.5,41.089,57.381"/>
<path fill="#FFFFFF" d="M41.081,53.521c-0.778,0-1.431,0.65-1.431,1.43s0.652,1.432,1.431,1.432c0.779,0,1.429-0.652,1.429-1.432
	S41.86,53.521,41.081,53.521"/>
<path fill="#FFFFFF" d="M41.719,50.129c-0.888,0-1.63,0.742-1.63,1.631s0.742,1.629,1.63,1.629c0.889,0,1.629-0.74,1.629-1.629
	S42.607,50.129,41.719,50.129"/>
</svg>
