<?xml version="1.0" encoding="utf-8"?>
<!-- Generator: Adobe Illustrator 16.0.4, SVG Export Plug-In . SVG Version: 6.00 Build 0)  -->
<svg version="1.2" baseProfile="tiny" id="Layer_1" xmlns="http://www.w3.org/2000/svg" xmlns:xlink="http://www.w3.org/1999/xlink"
	 x="0px" y="0px" width="32px" height="32px" viewBox="0 0 32 32" xml:space="preserve">
<path fill-rule="evenodd" fill="#FFFFFF" d="M10.182,14.545v3.492h5.776c-0.233,1.497-1.747,4.392-5.776,4.392
	c-3.477,0-6.312-2.879-6.312-6.429c0-3.549,2.836-6.429,6.312-6.429c1.978,0,3.301,0.844,4.059,1.571l2.763-2.662
	c-1.774-1.658-4.072-2.662-6.821-2.662C4.553,5.818,0,10.371,0,16c0,5.629,4.553,10.182,10.182,10.182
	c5.876,0,9.775-4.131,9.775-9.949c0-0.669-0.073-1.178-0.161-1.688H10.182L10.182,14.545L10.182,14.545z M10.182,14.545"/>
<polygon fill-rule="evenodd" fill="#FFFFFF" points="32,14.545 29.091,14.545 29.091,11.636 26.182,11.636 26.182,14.545 
	23.272,14.545 23.272,17.454 26.182,17.454 26.182,20.363 29.091,20.363 29.091,17.454 32,17.454 "/>
</svg>
