<?xml version="1.0" encoding="utf-8"?>
<!-- Generator: Adobe Illustrator 16.0.4, SVG Export Plug-In . SVG Version: 6.00 Build 0)  -->
<!DOCTYPE svg PUBLIC "-//W3C//DTD SVG 1.1//EN" "http://www.w3.org/Graphics/SVG/1.1/DTD/svg11.dtd">
<svg version="1.1" id="Layer_1" xmlns="http://www.w3.org/2000/svg" xmlns:xlink="http://www.w3.org/1999/xlink" x="0px" y="0px"
	 width="2445.6px" height="408.926px" viewBox="0 0 2445.6 408.926" enable-background="new 0 0 2445.6 408.926"
	 xml:space="preserve">
<path fill="#3B4566" d="M1175.933,141.383l27.828-0.116l14.744,61.131l14.387-61.255l27.668-0.115l0.484,115.222l-20.341,0.086
	l-0.274-64.936l-14.861,65l-13.996,0.061l-16.06-64.87l0.275,64.935l-19.367,0.084L1175.933,141.383z M1270.159,140.987
	l46.383-0.198l0.088,21.322l-24.085,0.101l0.091,21.157l24.083-0.101l0.094,21.316l-24.089,0.104l0.128,30.107l24.089-0.105
	l0.088,21.323l-46.385,0.197L1270.159,140.987z"/>
<g>
	<path d="M714.331,253.377c-0.549-0.483-1.018-1.133-1.651-1.422c-10.496-4.726-20.306-10.52-29.412-17.625
		c-6.408-4.999-13.546-9.065-19.896-14.134c-5.809-4.634-11.317-9.75-16.344-15.218c-3.615-3.937-6.271-8.769-9.253-13.26
		c-2.037-3.051-4.067-6.117-5.798-9.335c-2.739-5.082-3.341-10.773-4.059-16.373c-1.784-13.984-3.757-27.955-5.06-41.985
		c-0.655-7.011,0.005-14.145,0.062-21.224c0.013-1.932-0.006-3.862,0.773-5.796c0.123,1.432,0.115,2.893,0.399,4.292
		c1.085,5.38,1.785,10.902,3.527,16.066c1.867,5.535,4.385,10.935,7.298,16.011c3.368,5.872,7.321,11.428,11.287,16.929
		c5.685,7.895,12.519,14.402,21.706,18.346c6.853,2.94,13.179,7.131,20.098,9.851c7.504,2.949,15.393,4.957,23.177,7.153
		c5.371,1.518,10.788,3.064,16.284,3.875c9.354,1.375,18.766,2.517,28.194,3.099c5.363,0.335,10.82-0.517,16.211-1.041
		c6.529-0.634,13.067-1.319,19.548-2.318c3.806-0.584,7.658-1.445,11.229-2.84c9.16-3.582,18.291-7.296,27.208-11.448
		c3.973-1.85,7.417-4.85,11.062-7.387c3.944-2.741,7.884-5.484,11.727-8.362c1.771-1.322,3.3-2.969,5.213-4.723
		c0.184,5.056,0.441,9.747,0.448,14.435c0.002,0.906-0.908,1.867-1.538,2.692c-0.391,0.513-1.063,0.802-1.591,1.218
		c-2.825,2.208-5.651,3.979-3.017,8.61c1.608,2.821,1.425,6.659,2.102,10.354c1.094-0.204,2.433-0.459,3.928-0.742
		c0.249,10.327,0.49,20.833,0.732,31.341c0.098,4.246,0.103,8.5,0.304,12.745c0.136,2.86-0.349,4.871-3.878,4.859
		c-2.83-0.004-3.541,1.675-2.912,4.303c0.569,2.392,1.031,4.829,1.25,7.273c0.38,4.247,1.198,5.101,5.801,5.115
		c-0.124,1.397-0.361,2.789-0.336,4.178c0.029,2.144-0.989,3.287-2.957,3.983c-7.961,2.83-15.486,6.844-24.279,7.23
		c-5.863,0.255-11.672,1.685-17.515,2.522c-10.889,1.547-21.842,0.902-32.545-0.806c-11.779-1.881-23.333-5.197-34.968-7.981
		c-3.537-0.841-7.006-1.991-10.507-2.999C729.032,259.687,721.681,256.531,714.331,253.377 M841.204,244.104
		c-5.867,0.846-10.946,1.434-15.942,2.432c-0.826,0.165-1.856,2.118-1.829,3.218c0.078,2.77,0.942,5.516,1.052,8.288
		c0.124,2.956,1.933,3.71,4.206,3.604c3.454-0.15,6.937-0.461,10.311-1.176c1.353-0.283,3.492-1.812,3.481-2.759
		C842.451,253.499,841.762,249.294,841.204,244.104 M823.636,187.5c0.974,4.29,1.834,8.542,3.001,12.71
		c0.168,0.599,1.876,1.239,2.75,1.101c3.865-0.63,7.655-1.805,11.535-2.251c2.636-0.3,2.955-1.688,2.7-3.643
		c-0.343-2.659-0.903-5.292-1.361-7.941c-0.52-3.027-2.554-3.757-5.184-3.186C832.708,185.241,828.372,186.358,823.636,187.5
		 M753.623,255.721c0.26-0.814,0.609-1.438,0.647-2.082c0.205-3.66,0.071-7.36,0.548-10.978c0.87-6.616,2.349-13.158,3.079-19.784
		c0.804-7.293,1.067-14.645,1.533-21.972c0.179-2.855-1.08-3.604-3.26-2.566c-2.116,19.211-4.2,38.123-6.289,57.037
		C751.544,255.533,752.419,255.611,753.623,255.721 M810.471,262.227c0.006-3.341,0.987-7.316-0.26-10.39
		c-1.219-3.007-5.338-1.821-8.322-1.767c-0.448,0.008-0.897,0.034-1.346,0.06c-5.148,0.323-5.322,0.506-5.038,5.469
		c0.074,1.347,0.486,2.739,0.243,4.017c-0.634,3.394,1.343,3.515,3.753,3.343C802.818,262.72,806.138,262.516,810.471,262.227
		 M807.465,194.061c-0.454-0.079-0.683-0.173-0.896-0.15c-4.1,0.431-8.205,0.839-12.288,1.381c-0.357,0.046-0.898,1.024-0.832,1.507
		c0.341,2.587,1.058,5.142,1.243,7.736c0.183,2.666,1.64,3.19,3.815,2.915c3.093-0.388,6.207-0.704,9.243-1.381
		c0.895-0.2,2.241-1.572,2.18-2.307c-0.227-2.757-0.905-5.486-1.513-8.203C808.281,194.97,807.729,194.469,807.465,194.061
		 M735.756,252.124c1.148-2.692,2.2-4.96,3.073-7.289c0.217-0.582,0.1-1.832-0.242-1.994c-2.473-1.21-5.006-2.315-7.604-3.202
		c-0.463-0.156-1.615,0.698-1.936,1.341c-0.745,1.5-1.073,3.205-1.763,4.739c-0.801,1.783-0.257,2.752,1.473,3.427
		C730.976,250.006,733.144,251.002,735.756,252.124 M768.458,259.549c3.045,0.42,6.299,0.866,10.232,1.405
		c0.353-2.87,0.707-5.75,1.166-9.489c-4.261-0.185-7.896-0.344-11.468-0.497C768.412,254.062,768.433,256.49,768.458,259.549
		 M771.401,198.736c0.162,0.983,0.33,1.701,0.39,2.431c0.148,2.03-0.456,5.226,0.538,5.827c1.594,0.968,4.224,0.257,6.419,0.188
		c5.143-0.172,4.983-0.162,4.143-5.465c-0.379-2.38-1.522-3.292-3.653-3.28C776.686,198.452,774.134,198.622,771.401,198.736
		 M738.236,198.226c-0.557,2.323-1.236,4.451-1.482,6.629c-0.08,0.686,0.824,1.892,1.554,2.189c1.846,0.75,3.831,1.168,5.783,1.608
		c0.597,0.134,1.744,0.093,1.838-0.161c0.84-2.271,1.848-4.583,2.008-6.937c0.045-0.723-2.273-1.923-3.673-2.351
		C742.285,198.601,740.152,198.511,738.236,198.226 M724.621,204.354c4.101-6.903,3.892-7.452-3.779-9.348
		c-0.634-0.156-1.319-0.178-1.974-0.153c-0.393,0.015-1.052,0.17-1.123,0.403c-0.773,2.61-1.453,5.247-2.168,7.931
		C718.88,203.611,721.719,203.977,724.621,204.354 M693.275,222.131c-3.037-1.299-5.717-2.45-8.374-3.591
		c-4.284,6.939-4.266,7.024,2.716,9.936c0.807,0.336,1.649,0.568,2.561,0.871C691.231,226.887,692.206,224.619,693.275,222.131
		 M709.175,231.836c-2.681-1.379-4.884-2.816-6.501,1.386c-1.218,3.179-0.956,4.588,2.344,5.799
		c4.977,1.821,4.695,1.918,6.593-1.744C713.329,233.969,712.257,232.443,709.175,231.836 M695.623,188.119
		c-0.87,2.499-1.58,4.038-1.894,5.652c-0.143,0.745,0.269,2.112,0.819,2.376c1.693,0.812,3.54,1.445,5.384,1.697
		c0.902,0.125,2.521-0.527,2.794-1.226c0.636-1.615,1.402-4.599,0.769-5.028C701.108,189.975,698.178,189.162,695.623,188.119
		 M649.555,195.227c0.378,0.288,0.75,0.576,1.128,0.865c0.78-1.138,2.095-2.206,2.252-3.42c0.894-6.843,1.457-13.723,2.25-20.578
		c0.291-2.489-1.01-3.033-2.521-3.201C651.611,177.826,650.581,186.529,649.555,195.227 M668.891,215.355
		c4.213-5.538,3.463-7.123-4.281-9.011c-0.823,1.922-1.649,3.845-2.6,6.059C664.354,213.41,666.5,214.33,668.891,215.355
		 M678.932,182.434c-2.273-0.977-4.403-1.89-6.579-2.824c-0.898,2.099-1.724,4.015-2.532,5.895c2.337,1.003,4.47,1.919,6.585,2.827
		C677.295,186.253,678.087,184.406,678.932,182.434 M637.124,158.586c0.989,0.866,1.931,1.629,2.8,2.47
		c0.912,0.882,1.757,1.84,2.684,2.82c4.172-5.902,3.899-7.018-2.025-9.116C639.53,155.925,638.433,157.139,637.124,158.586"/>
	<path d="M1761.314,144.92c0.542,0.485,1.005,1.139,1.637,1.434c10.439,4.848,20.177,10.758,29.203,17.966
		c6.348,5.076,13.438,9.226,19.733,14.366c5.749,4.7,11.202,9.881,16.163,15.407c3.57,3.975,6.174,8.837,9.104,13.366
		c1.996,3.072,3.994,6.16,5.686,9.398c2.683,5.115,3.215,10.813,3.869,16.421c1.623,14.005,3.433,27.991,4.575,42.039
		c0.575,7.02-0.168,14.149-0.307,21.225c-0.039,1.93-0.037,3.863-0.843,5.784c-0.101-1.433-0.078-2.893-0.346-4.294
		c-1.024-5.396-1.665-10.927-3.345-16.108c-1.8-5.556-4.256-10.987-7.109-16.093c-3.3-5.911-7.186-11.516-11.092-17.062
		c-5.595-7.955-12.354-14.546-21.494-18.592c-6.819-3.021-13.092-7.284-19.98-10.085c-7.474-3.033-15.333-5.132-23.092-7.416
		c-5.352-1.583-10.754-3.193-16.238-4.065c-9.344-1.484-18.734-2.734-28.157-3.428c-5.364-0.395-10.829,0.392-16.225,0.854
		c-6.537,0.561-13.08,1.169-19.575,2.094c-3.807,0.54-7.674,1.354-11.261,2.712c-9.2,3.471-18.372,7.081-27.336,11.126
		c-3.991,1.811-7.474,4.77-11.148,7.265c-3.974,2.694-7.944,5.386-11.822,8.226c-1.784,1.302-3.338,2.931-5.267,4.661
		c-0.122-5.06-0.33-9.75-0.281-14.436c0.013-0.906,0.927-1.858,1.568-2.676c0.399-0.512,1.072-0.792,1.606-1.202
		c2.851-2.174,5.694-3.914,3.119-8.575c-1.58-2.838-1.351-6.674-1.981-10.379c-1.102,0.192-2.441,0.435-3.939,0.7
		c-0.126-10.329-0.248-20.838-0.37-31.349c-0.05-4.246-0.002-8.501-0.154-12.748c-0.106-2.859,0.402-4.868,3.932-4.813
		c2.826,0.037,3.559-1.634,2.96-4.269c-0.537-2.399-0.973-4.842-1.167-7.287c-0.327-4.252-1.138-5.116-5.739-5.184
		c0.138-1.399,0.393-2.783,0.388-4.173c-0.008-2.142,1.021-3.271,2.998-3.948c7.993-2.737,15.567-6.667,24.366-6.951
		c5.863-0.183,11.686-1.549,17.537-2.315c10.911-1.425,21.854-0.65,32.537,1.178c11.757,2.02,23.272,5.47,34.872,8.388
		c3.527,0.883,6.982,2.072,10.471,3.118C1746.688,138.438,1753.997,141.681,1761.314,144.92 M1634.343,152.723
		c5.877-0.775,10.958-1.308,15.962-2.247c0.832-0.154,1.89-2.094,1.871-3.196c-0.044-2.771-0.88-5.527-0.954-8.299
		c-0.09-2.957-1.89-3.729-4.164-3.655c-3.459,0.113-6.944,0.384-10.325,1.057c-1.354,0.271-3.511,1.771-3.512,2.722
		C1633.2,143.316,1633.842,147.525,1634.343,152.723 M1651.253,209.529c-0.925-4.303-1.737-8.565-2.854-12.744
		c-0.156-0.603-1.858-1.263-2.732-1.134c-3.877,0.585-7.677,1.715-11.567,2.116c-2.633,0.272-2.972,1.657-2.74,3.614
		c0.319,2.658,0.846,5.301,1.272,7.956c0.485,3.03,2.511,3.783,5.145,3.242C1642.156,211.68,1646.504,210.611,1651.253,209.529
		 M1722.048,142.121c-0.265,0.812-0.624,1.43-0.67,2.073c-0.244,3.659-0.156,7.362-0.672,10.972
		c-0.951,6.604-2.499,13.128-3.31,19.746c-0.887,7.284-1.234,14.632-1.788,21.954c-0.21,2.85,1.04,3.614,3.231,2.605
		c2.335-19.184,4.642-38.076,6.946-56.961C1724.124,142.337,1723.249,142.241,1722.048,142.121 M1665.279,134.958
		c-0.041,3.338-1.063,7.305,0.141,10.393c1.185,3.021,5.314,1.882,8.305,1.86c0.448-0.002,0.894-0.023,1.346-0.042
		c5.152-0.265,5.326-0.443,5.099-5.41c-0.053-1.352-0.45-2.744-0.197-4.021c0.672-3.385-1.299-3.528-3.716-3.387
		C1672.941,134.553,1669.617,134.719,1665.279,134.958 M1667.498,203.154c0.453,0.082,0.685,0.178,0.896,0.16
		c4.108-0.384,8.215-0.748,12.3-1.238c0.361-0.042,0.911-1.012,0.851-1.498c-0.314-2.59-0.994-5.156-1.154-7.751
		c-0.149-2.668-1.604-3.207-3.779-2.959c-3.1,0.353-6.219,0.632-9.262,1.274c-0.898,0.191-2.26,1.546-2.201,2.283
		c0.193,2.759,0.844,5.494,1.414,8.222C1666.693,202.234,1667.24,202.741,1667.498,203.154 M1739.874,145.924
		c-1.18,2.676-2.256,4.933-3.16,7.258c-0.224,0.57-0.114,1.825,0.223,1.993c2.46,1.236,4.979,2.37,7.569,3.285
		c0.455,0.161,1.619-0.674,1.949-1.317c0.76-1.492,1.112-3.194,1.813-4.715c0.825-1.776,0.29-2.751-1.428-3.444
		C1744.629,148.099,1742.475,147.076,1739.874,145.924 M1707.258,138.119c-3.038-0.452-6.284-0.939-10.21-1.522
		c-0.384,2.864-0.776,5.742-1.276,9.475c4.262,0.233,7.893,0.435,11.461,0.63C1707.245,143.607,1707.25,141.178,1707.258,138.119
		 M1703.612,198.895c-0.145-0.985-0.31-1.703-0.359-2.433c-0.127-2.034,0.52-5.223-0.472-5.838c-1.577-0.98-4.22-0.303-6.415-0.257
		c-5.146,0.112-4.984,0.104-4.202,5.416c0.349,2.384,1.479,3.31,3.608,3.321C1698.324,199.12,1700.876,198.977,1703.612,198.895
		 M1736.771,199.789c0.587-2.318,1.291-4.437,1.559-6.61c0.091-0.687-0.801-1.9-1.528-2.21c-1.839-0.769-3.818-1.21-5.763-1.673
		c-0.596-0.141-1.741-0.112-1.84,0.138c-0.868,2.259-1.905,4.562-2.088,6.911c-0.054,0.728,2.249,1.954,3.645,2.393
		C1732.727,199.367,1734.857,199.48,1736.771,199.789 M1750.458,193.82c-4.183,6.854-3.98,7.407,3.671,9.391
		c0.631,0.165,1.313,0.193,1.969,0.177c0.394-0.012,1.057-0.161,1.129-0.389c0.805-2.604,1.51-5.233,2.263-7.907
		C1756.188,194.628,1753.356,194.227,1750.458,193.82 M1782.008,176.405c3.018,1.333,5.687,2.518,8.333,3.688
		c4.358-6.891,4.345-6.975-2.602-9.966c-0.805-0.342-1.646-0.584-2.557-0.903C1784.104,171.672,1783.107,173.929,1782.008,176.405
		 M1766.219,166.52c2.663,1.409,4.852,2.868,6.519-1.315c1.251-3.164,1.009-4.573-2.28-5.823c-4.951-1.881-4.671-1.972-6.61,1.67
		C1762.091,164.335,1763.147,165.875,1766.219,166.52 M1779.265,210.392c0.898-2.491,1.629-4.021,1.965-5.633
		c0.147-0.742-0.253-2.117-0.797-2.388c-1.684-0.83-3.523-1.482-5.36-1.756c-0.906-0.136-2.529,0.496-2.813,1.193
		c-0.649,1.606-1.456,4.583-0.825,5.018C1773.803,208.47,1776.721,209.317,1779.265,210.392 M1825.414,203.811
		c-0.38-0.292-0.745-0.582-1.118-0.878c-0.797,1.128-2.123,2.186-2.293,3.394c-0.976,6.836-1.619,13.708-2.487,20.553
		c-0.32,2.485,0.974,3.045,2.481,3.231C1823.152,221.19,1824.283,212.501,1825.414,203.811 M1806.311,183.461
		c-4.279,5.492-3.546,7.086,4.176,9.062c0.846-1.913,1.697-3.829,2.67-6.03C1810.823,185.458,1808.69,184.514,1806.311,183.461
		 M1795.89,216.268c2.265,1,4.384,1.94,6.545,2.898c0.926-2.086,1.773-3.992,2.601-5.866c-2.324-1.027-4.449-1.969-6.549-2.903
		C1797.571,212.465,1796.754,214.299,1795.89,216.268 M1837.417,240.595c-0.976-0.876-1.912-1.652-2.771-2.502
		c-0.899-0.895-1.736-1.859-2.649-2.853c-4.239,5.854-3.979,6.975,1.916,9.141C1834.98,243.228,1836.094,242.027,1837.417,240.595"
		/>
	<path d="M927.968,141.46l0.044,46.685l16.933-46.699l22.038-0.023l-18.562,51.112l21.117,64.459l-23.342,0.021l-18.175-59.566
		l0.057,59.583l-22.53,0.021l-0.107-115.572L927.968,141.46z M971.902,167.21c-0.009-9.466,2.541-16.488,7.654-21.063
		c5.108-4.575,12.997-6.868,23.662-6.878c5.875-0.006,10.964,0.916,15.266,2.761c4.299,1.848,7.483,4.51,9.556,7.989
		c0.762,1.306,1.388,2.668,1.882,4.079c0.494,1.415,0.901,3.079,1.23,4.978c0.327,1.907,0.543,4.109,0.656,6.613
		c0.109,2.503,0.169,5.548,0.175,9.139l0.043,48.808c0.002,3.811-0.021,6.911-0.07,9.306c-0.056,2.395-0.218,4.407-0.488,6.04
		c-0.272,1.632-0.65,3.077-1.136,4.327c-0.49,1.254-1.17,2.693-2.038,4.328c-1.955,3.594-5.301,6.371-10.03,8.334
		c-4.732,1.963-10.688,2.948-17.873,2.956c-18.502,0.016-27.924-8.791-28.263-26.421l-0.173-9.467L971.902,167.21z M994.483,224.649
		c0.004,5.008,0.521,8.407,1.558,10.201c1.035,1.794,3.024,2.691,5.962,2.688c4.789-0.006,7.178-3.162,7.173-9.474l-0.054-57.461
		c-0.003-3.48-0.55-5.958-1.637-7.427c-1.093-1.468-2.941-2.2-5.553-2.198c-5.007,0.005-7.507,3.056-7.501,9.15L994.483,224.649z
		 M1077.363,177.886l-0.011-9.629c-0.001-4.79-2.452-7.183-7.348-7.179c-5.008,0.006-7.509,3.01-7.502,9.009l0.167,3.268
		l0.048,52.675c0.005,4.253,0.603,7.281,1.803,9.082c1.198,1.797,3.213,2.693,6.042,2.689c2.502-0.001,4.269-0.798,5.302-2.392
		c1.034-1.595,1.658-4.362,1.871-8.312l0.158-3.294l0.003-0.167c-0.002-0.221-0.028-0.573-0.084-1.068
		c-0.055-0.495-0.08-0.962-0.08-1.4l-0.171-2.139l0.002-0.66l-5.711,0.005l-0.021-18.605l28.08-0.026l0.027,29.707
		c0.004,5.117-0.295,9.061-0.887,11.836c-0.594,2.777-1.706,5.361-3.335,7.756c-2.179,3.052-5.573,5.504-10.198,7.354
		c-4.629,1.855-9.873,2.786-15.752,2.792c-5.659,0.004-10.607-0.862-14.855-2.6c-4.247-1.734-7.512-4.236-9.801-7.499
		c-1.854-2.392-3.11-5.058-3.763-7.996c-0.655-2.937-0.984-7.018-0.99-12.242l-0.056-59.908
		c-0.006-10.447,2.374-17.984,7.162-22.615c4.782-4.627,12.563-6.949,23.336-6.959c5.879-0.006,11.427,1.132,16.654,3.413
		c2.395,0.977,4.382,2.199,5.963,3.667c1.579,1.467,2.858,3.291,3.839,5.465c0.982,2.177,1.665,4.788,2.047,7.833
		c0.383,3.048,0.577,6.692,0.583,10.937l0.008,7.181L1077.363,177.886z M1167.52,228.08c0,2.722-0.082,5.062-0.242,7.02
		c-0.163,1.961-0.403,3.723-0.729,5.289c-0.328,1.565-0.791,2.999-1.381,4.292c-0.602,1.298-1.334,2.65-2.202,4.052
		c-2.173,3.35-5.517,5.945-10.031,7.785c-4.517,1.841-9.874,2.765-16.075,2.771c-5.445,0.005-10.286-0.885-14.537-2.66
		c-4.243-1.776-7.455-4.23-9.634-7.362c-1.746-2.481-2.941-5.265-3.598-8.346c-0.657-3.078-0.988-7.287-0.992-12.62l-0.08-86.843
		l22.69-0.021l0.078,83.904l0.001,2.122c0.003,3.701,0.604,6.364,1.801,7.997c1.2,1.633,3.161,2.446,5.878,2.444
		c4.573-0.005,6.854-3.271,6.847-9.803l-0.082-86.679l22.207-0.02L1167.52,228.08z"/>
	<path d="M1365.967,234.524l0.019,21.71l-39.663,0.035l-0.106-115.57l22.69-0.021l0.088,93.861L1365.967,234.524z M1431.096,227.444
		c0.003,2.72-0.079,5.06-0.238,7.019c-0.162,1.96-0.407,3.721-0.732,5.289c-0.325,1.566-0.787,2.998-1.381,4.293
		c-0.601,1.299-1.332,2.65-2.202,4.053c-2.172,3.349-5.518,5.942-10.031,7.783c-4.515,1.841-9.871,2.767-16.076,2.77
		c-5.444,0.005-10.285-0.885-14.531-2.659c-4.247-1.776-7.458-4.233-9.637-7.361c-1.744-2.485-2.945-5.265-3.6-8.348
		c-0.655-3.078-0.984-7.287-0.988-12.618l-0.082-86.844l22.689-0.021l0.078,83.905l0.002,2.121c0.004,3.699,0.603,6.366,1.802,7.996
		c1.199,1.635,3.159,2.443,5.879,2.444c4.571-0.006,6.853-3.272,6.846-9.8l-0.081-86.681l22.204-0.021L1431.096,227.444z
		 M1476.915,177.125l-0.011-9.634c-0.003-4.786-2.453-7.182-7.348-7.175c-5.01,0.004-7.507,3.008-7.501,9.007l0.165,3.271
		l0.048,52.672c0.005,4.257,0.605,7.281,1.805,9.081c1.197,1.8,3.214,2.693,6.041,2.692c2.506-0.002,4.271-0.803,5.306-2.393
		c1.031-1.594,1.652-4.364,1.868-8.313l0.16-3.292l0.001-0.168c-0.001-0.219-0.031-0.575-0.084-1.07
		c-0.058-0.493-0.083-0.961-0.082-1.4l-0.167-2.137l0.001-0.66l-5.713,0.006l-0.019-18.609l28.078-0.025l0.027,29.707
		c0.006,5.117-0.294,9.063-0.89,11.839c-0.595,2.773-1.707,5.363-3.336,7.755c-2.178,3.051-5.574,5.503-10.198,7.356
		c-4.622,1.853-9.874,2.783-15.747,2.789c-5.662,0.006-10.613-0.863-14.857-2.599c-4.246-1.734-7.513-4.236-9.802-7.498
		c-1.854-2.392-3.107-5.06-3.765-7.994c-0.653-2.939-0.981-7.021-0.988-12.246l-0.057-59.906
		c-0.009-10.447,2.376-17.983,7.162-22.616c4.784-4.627,12.562-6.947,23.336-6.956c5.877-0.007,11.428,1.131,16.654,3.411
		c2.395,0.977,4.38,2.198,5.963,3.665c1.577,1.471,2.859,3.291,3.842,5.468c0.979,2.176,1.66,4.788,2.048,7.831
		c0.38,3.049,0.577,6.693,0.58,10.937l0.007,7.183L1476.915,177.125z M1567.072,227.318c0,2.721-0.078,5.059-0.242,7.02
		c-0.159,1.959-0.402,3.723-0.729,5.285c-0.323,1.567-0.79,3.002-1.382,4.295c-0.597,1.298-1.333,2.65-2.201,4.052
		c-2.173,3.35-5.517,5.944-10.031,7.784c-4.517,1.841-9.874,2.764-16.076,2.77c-5.444,0.005-10.284-0.883-14.529-2.659
		c-4.249-1.773-7.461-4.23-9.64-7.362c-1.743-2.483-2.942-5.262-3.601-8.346c-0.655-3.079-0.982-7.285-0.988-12.619l-0.083-86.843
		l22.692-0.02l0.076,83.902l0.001,2.121c0.006,3.704,0.604,6.366,1.803,7.999c1.199,1.631,3.16,2.443,5.882,2.442
		c4.569-0.005,6.854-3.271,6.846-9.803l-0.08-86.678l22.202-0.02L1567.072,227.318z"/>
</g>
</svg>
