<?xml version="1.0" encoding="utf-8"?>
<!-- Generator: Adobe Illustrator 16.0.4, SVG Export Plug-In . SVG Version: 6.00 Build 0)  -->
<!DOCTYPE svg PUBLIC "-//W3C//DTD SVG 1.1//EN" "http://www.w3.org/Graphics/SVG/1.1/DTD/svg11.dtd">
<svg version="1.1" id="Layer_1" xmlns="http://www.w3.org/2000/svg" xmlns:xlink="http://www.w3.org/1999/xlink" x="0px" y="0px"
	 width="2445.6px" height="408.926px" viewBox="0 0 2445.6 408.926" enable-background="new 0 0 2445.6 408.926"
	 xml:space="preserve">
<g>
	<defs>
		<rect id="SVGID_1_" width="2445.6" height="408.926"/>
	</defs>
	<clipPath id="SVGID_2_">
		<use xlink:href="#SVGID_1_"  overflow="visible"/>
	</clipPath>
</g>
<path fill="#40BEBC" d="M1175.933,141.383l27.828-0.116l14.744,61.131l14.387-61.255l27.668-0.115l0.484,115.222l-20.341,0.086
	l-0.274-64.936l-14.861,65l-13.996,0.061l-16.06-64.87l0.275,64.935l-19.367,0.084L1175.933,141.383z M1270.159,140.987
	l46.383-0.198l0.088,21.322l-24.085,0.101l0.091,21.157l24.083-0.101l0.094,21.316l-24.089,0.104l0.128,30.107l24.089-0.105
	l0.088,21.323l-46.385,0.197L1270.159,140.987z"/>
<g>
	<defs>
		<rect id="SVGID_3_" width="2445.6" height="408.926"/>
	</defs>
	<clipPath id="SVGID_4_">
		<use xlink:href="#SVGID_3_"  overflow="visible"/>
	</clipPath>
	<path clip-path="url(#SVGID_4_)" d="M714.331,253.377c-0.549-0.483-1.018-1.133-1.651-1.422
		c-10.496-4.726-20.306-10.52-29.412-17.625c-6.408-4.999-13.546-9.065-19.896-14.134c-5.809-4.634-11.317-9.75-16.344-15.218
		c-3.615-3.937-6.271-8.769-9.253-13.26c-2.037-3.051-4.067-6.117-5.798-9.335c-2.739-5.082-3.341-10.773-4.059-16.373
		c-1.784-13.984-3.757-27.955-5.06-41.985c-0.655-7.011,0.005-14.145,0.062-21.224c0.013-1.932-0.006-3.862,0.773-5.796
		c0.123,1.432,0.115,2.893,0.399,4.292c1.085,5.38,1.785,10.902,3.527,16.066c1.867,5.535,4.385,10.935,7.298,16.011
		c3.368,5.872,7.321,11.428,11.287,16.929c5.685,7.895,12.519,14.402,21.706,18.346c6.853,2.94,13.179,7.131,20.098,9.851
		c7.504,2.949,15.393,4.957,23.177,7.153c5.371,1.518,10.788,3.064,16.284,3.875c9.354,1.375,18.766,2.517,28.194,3.099
		c5.363,0.335,10.82-0.517,16.211-1.041c6.529-0.634,13.067-1.319,19.548-2.318c3.806-0.584,7.658-1.445,11.229-2.84
		c9.16-3.582,18.291-7.296,27.208-11.448c3.973-1.85,7.417-4.85,11.062-7.387c3.944-2.741,7.884-5.484,11.727-8.362
		c1.771-1.322,3.3-2.969,5.213-4.723c0.184,5.056,0.441,9.747,0.448,14.435c0.002,0.906-0.908,1.867-1.538,2.692
		c-0.391,0.513-1.063,0.802-1.591,1.218c-2.825,2.208-5.651,3.979-3.017,8.61c1.608,2.821,1.425,6.659,2.102,10.354
		c1.094-0.204,2.433-0.459,3.928-0.742c0.249,10.327,0.49,20.833,0.732,31.341c0.098,4.246,0.103,8.5,0.304,12.745
		c0.136,2.86-0.349,4.871-3.878,4.859c-2.83-0.004-3.541,1.675-2.912,4.303c0.569,2.392,1.031,4.829,1.25,7.273
		c0.38,4.247,1.198,5.101,5.801,5.115c-0.124,1.397-0.361,2.789-0.336,4.178c0.029,2.144-0.989,3.287-2.957,3.983
		c-7.961,2.83-15.486,6.844-24.279,7.23c-5.863,0.255-11.672,1.685-17.515,2.522c-10.889,1.547-21.842,0.902-32.545-0.806
		c-11.779-1.881-23.333-5.197-34.968-7.981c-3.537-0.841-7.006-1.991-10.507-2.999C729.032,259.687,721.681,256.531,714.331,253.377
		 M841.204,244.104c-5.867,0.846-10.946,1.434-15.942,2.432c-0.826,0.165-1.856,2.118-1.829,3.218
		c0.078,2.77,0.942,5.516,1.052,8.288c0.124,2.956,1.933,3.71,4.206,3.604c3.454-0.15,6.937-0.461,10.311-1.176
		c1.353-0.283,3.492-1.812,3.481-2.759C842.451,253.499,841.762,249.294,841.204,244.104 M823.636,187.5
		c0.974,4.29,1.834,8.542,3.001,12.71c0.168,0.599,1.876,1.239,2.75,1.101c3.865-0.63,7.655-1.805,11.535-2.251
		c2.636-0.3,2.955-1.688,2.7-3.643c-0.343-2.659-0.903-5.292-1.361-7.941c-0.52-3.027-2.554-3.757-5.184-3.186
		C832.708,185.241,828.372,186.358,823.636,187.5 M753.623,255.721c0.26-0.814,0.609-1.438,0.647-2.082
		c0.205-3.66,0.071-7.36,0.548-10.978c0.87-6.616,2.349-13.158,3.079-19.784c0.804-7.293,1.067-14.645,1.533-21.972
		c0.179-2.855-1.08-3.604-3.26-2.566c-2.116,19.211-4.2,38.123-6.289,57.037C751.544,255.533,752.419,255.611,753.623,255.721
		 M810.471,262.227c0.006-3.341,0.987-7.316-0.26-10.39c-1.219-3.007-5.338-1.821-8.322-1.767c-0.448,0.008-0.897,0.034-1.346,0.06
		c-5.148,0.323-5.322,0.506-5.038,5.469c0.074,1.347,0.486,2.739,0.243,4.017c-0.634,3.394,1.343,3.515,3.753,3.343
		C802.818,262.72,806.138,262.516,810.471,262.227 M807.465,194.061c-0.454-0.079-0.683-0.173-0.896-0.15
		c-4.1,0.431-8.205,0.839-12.288,1.381c-0.357,0.046-0.898,1.024-0.832,1.507c0.341,2.587,1.058,5.142,1.243,7.736
		c0.183,2.666,1.64,3.19,3.815,2.915c3.093-0.388,6.207-0.704,9.243-1.381c0.895-0.2,2.241-1.572,2.18-2.307
		c-0.227-2.757-0.905-5.486-1.513-8.203C808.281,194.97,807.729,194.469,807.465,194.061 M735.756,252.124
		c1.148-2.692,2.2-4.96,3.073-7.289c0.217-0.582,0.1-1.832-0.242-1.994c-2.473-1.21-5.006-2.315-7.604-3.202
		c-0.463-0.156-1.615,0.698-1.936,1.341c-0.745,1.5-1.073,3.205-1.763,4.739c-0.801,1.783-0.257,2.752,1.473,3.427
		C730.976,250.006,733.144,251.002,735.756,252.124 M768.458,259.549c3.045,0.42,6.299,0.866,10.232,1.405
		c0.353-2.87,0.707-5.75,1.166-9.489c-4.261-0.185-7.896-0.344-11.468-0.497C768.412,254.062,768.433,256.49,768.458,259.549
		 M771.401,198.736c0.162,0.983,0.33,1.701,0.39,2.431c0.148,2.03-0.456,5.226,0.538,5.827c1.594,0.968,4.224,0.257,6.419,0.188
		c5.143-0.172,4.983-0.162,4.143-5.465c-0.379-2.38-1.522-3.292-3.653-3.28C776.686,198.452,774.134,198.622,771.401,198.736
		 M738.236,198.226c-0.557,2.323-1.236,4.451-1.482,6.629c-0.08,0.686,0.824,1.892,1.554,2.189c1.846,0.75,3.831,1.168,5.783,1.608
		c0.597,0.134,1.744,0.093,1.838-0.161c0.84-2.271,1.848-4.583,2.008-6.937c0.045-0.723-2.273-1.923-3.673-2.351
		C742.285,198.601,740.152,198.511,738.236,198.226 M724.621,204.354c4.101-6.903,3.892-7.452-3.779-9.348
		c-0.634-0.156-1.319-0.178-1.974-0.153c-0.393,0.015-1.052,0.17-1.123,0.403c-0.773,2.61-1.453,5.247-2.168,7.931
		C718.88,203.611,721.719,203.977,724.621,204.354 M693.275,222.131c-3.037-1.299-5.717-2.45-8.374-3.591
		c-4.284,6.939-4.266,7.024,2.716,9.936c0.807,0.336,1.649,0.568,2.561,0.871C691.231,226.887,692.206,224.619,693.275,222.131
		 M709.175,231.836c-2.681-1.379-4.884-2.816-6.501,1.386c-1.218,3.179-0.956,4.588,2.344,5.799
		c4.977,1.821,4.695,1.918,6.593-1.744C713.329,233.969,712.257,232.443,709.175,231.836 M695.623,188.119
		c-0.87,2.499-1.58,4.038-1.894,5.652c-0.143,0.745,0.269,2.112,0.819,2.376c1.693,0.812,3.54,1.445,5.384,1.697
		c0.902,0.125,2.521-0.527,2.794-1.226c0.636-1.615,1.402-4.599,0.769-5.028C701.108,189.975,698.178,189.162,695.623,188.119
		 M649.555,195.227c0.378,0.288,0.75,0.576,1.128,0.865c0.78-1.138,2.095-2.206,2.252-3.42c0.894-6.843,1.457-13.723,2.25-20.578
		c0.291-2.489-1.01-3.033-2.521-3.201C651.611,177.826,650.581,186.529,649.555,195.227 M668.891,215.355
		c4.213-5.538,3.463-7.123-4.281-9.011c-0.823,1.922-1.649,3.845-2.6,6.059C664.354,213.41,666.5,214.33,668.891,215.355
		 M678.932,182.434c-2.273-0.977-4.403-1.89-6.579-2.824c-0.898,2.099-1.724,4.015-2.532,5.895c2.337,1.003,4.47,1.919,6.585,2.827
		C677.295,186.253,678.087,184.406,678.932,182.434 M637.124,158.586c0.989,0.866,1.931,1.629,2.8,2.47
		c0.912,0.882,1.757,1.84,2.684,2.82c4.172-5.902,3.899-7.018-2.025-9.116C639.53,155.925,638.433,157.139,637.124,158.586"/>
	<path clip-path="url(#SVGID_4_)" d="M1790.66,139.844c0.582,0.437,1.1,1.048,1.755,1.287c10.82,3.925,21.033,8.97,30.649,15.369
		c6.764,4.507,14.188,8.027,20.904,12.602c6.135,4.184,12.016,8.874,17.437,13.949c3.901,3.651,6.917,8.27,10.229,12.526
		c2.254,2.888,4.512,5.792,6.478,8.871c3.116,4.863,4.141,10.494,5.277,16.024c2.831,13.811,5.846,27.589,8.201,41.484
		c1.181,6.942,1.058,14.11,1.533,21.172c0.128,1.925,0.297,3.852-0.339,5.835c-0.225-1.419-0.328-2.875-0.716-4.248
		c-1.488-5.286-2.605-10.741-4.729-15.758c-2.274-5.379-5.191-10.578-8.477-15.416c-3.8-5.604-8.157-10.85-12.528-16.038
		c-6.264-7.44-13.567-13.421-23.024-16.659c-7.056-2.42-13.674-6.122-20.778-8.316c-7.709-2.374-15.721-3.784-23.648-5.388
		c-5.469-1.112-10.989-2.249-16.529-2.643c-9.438-0.669-18.9-1.101-28.349-0.975c-5.378,0.072-10.754,1.329-16.089,2.256
		c-6.464,1.125-12.93,2.297-19.321,3.781c-3.745,0.868-7.527,2.014-10.983,3.678c-8.864,4.255-17.689,8.646-26.269,13.453
		c-3.819,2.148-7.032,5.398-10.478,8.202c-3.725,3.028-7.447,6.054-11.064,9.22c-1.664,1.45-3.071,3.208-4.844,5.1
		c-0.56-5.03-1.173-9.686-1.53-14.357c-0.065-0.904,0.763-1.932,1.331-2.802c0.354-0.544,0.999-0.882,1.495-1.336
		c2.651-2.413,5.335-4.394,2.365-8.813c-1.82-2.69-1.925-6.532-2.874-10.168c-1.08,0.287-2.394,0.645-3.863,1.038
		c-1.021-10.278-2.053-20.738-3.085-31.199c-0.417-4.226-0.738-8.469-1.258-12.687c-0.354-2.839-0.021-4.884,3.5-5.136
		c2.818-0.208,3.403-1.937,2.578-4.509c-0.743-2.344-1.388-4.74-1.793-7.159c-0.695-4.208-1.578-4.998-6.167-4.667
		c0.016-1.405,0.149-2.806,0.024-4.19c-0.194-2.133,0.734-3.348,2.645-4.193c7.726-3.419,14.931-7.991,23.672-9.036
		c5.825-0.69,11.508-2.556,17.271-3.826c10.747-2.365,21.716-2.542,32.518-1.646c11.888,0.994,23.659,3.434,35.467,5.335
		c3.592,0.574,7.137,1.459,10.702,2.199C1775.527,134.654,1783.09,137.25,1790.66,139.844 M1664.842,158.619
		c5.788-1.282,10.804-2.253,15.707-3.622c0.816-0.226,1.701-2.25,1.588-3.346c-0.284-2.756-1.355-5.43-1.67-8.185
		c-0.346-2.938-2.206-3.552-4.465-3.281c-3.437,0.412-6.885,0.985-10.195,1.948c-1.325,0.387-3.344,2.068-3.263,3.016
		C1662.889,149.346,1663.893,153.484,1664.842,158.619 M1686.61,213.746c-1.294-4.206-2.473-8.382-3.948-12.449
		c-0.208-0.587-1.96-1.097-2.82-0.893c-3.811,0.919-7.499,2.374-11.34,3.11c-2.6,0.499-2.817,1.907-2.417,3.838
		c0.548,2.621,1.302,5.208,1.956,7.815c0.746,2.978,2.829,3.551,5.407,2.784C1677.734,216.677,1681.973,215.235,1686.61,213.746
		 M1751.299,140.458c-0.193,0.832-0.498,1.478-0.488,2.123c0.074,3.666,0.482,7.348,0.282,10.988
		c-0.376,6.661-1.354,13.296-1.587,19.959c-0.253,7.333,0.037,14.684,0.121,22.026c0.037,2.857,1.349,3.51,3.444,2.315
		c0.665-19.314,1.325-38.335,1.985-57.349C1753.386,140.493,1752.506,140.474,1751.299,140.458 M1694.123,138.24
		c0.248,3.329-0.427,7.37,1.04,10.341c1.442,2.907,5.458,1.415,8.435,1.134c0.447-0.042,0.889-0.101,1.338-0.158
		c5.109-0.71,5.267-0.903,4.61-5.832c-0.17-1.342-0.687-2.694-0.545-3.988c0.376-3.431-1.6-3.403-3.995-3.052
		C1701.721,137.172,1698.424,137.625,1694.123,138.24 M1702.242,205.988c0.458,0.041,0.697,0.118,0.906,0.081
		c4.06-0.739,8.12-1.457,12.147-2.299c0.355-0.074,0.819-1.086,0.718-1.566c-0.538-2.553-1.438-5.05-1.822-7.622
		c-0.38-2.646-1.875-3.056-4.022-2.621c-3.056,0.62-6.14,1.168-9.115,2.072c-0.879,0.268-2.117,1.735-1.996,2.464
		c0.432,2.732,1.317,5.4,2.122,8.069C1701.36,205.141,1701.95,205.598,1702.242,205.988 M1769.388,142.702
		c-0.943,2.769-1.82,5.11-2.52,7.504c-0.174,0.587,0.044,1.828,0.394,1.967c2.559,1.019,5.166,1.93,7.826,2.617
		c0.467,0.121,1.555-0.812,1.828-1.481c0.627-1.552,0.831-3.278,1.398-4.854c0.668-1.841,0.051-2.766-1.722-3.307
		C1774.313,144.457,1772.078,143.625,1769.388,142.702 M1736.218,137.751c-3.066-0.187-6.343-0.39-10.304-0.631
		c-0.134,2.887-0.275,5.788-0.451,9.55c4.267-0.136,7.901-0.25,11.473-0.365C1736.681,143.221,1736.475,140.8,1736.218,137.751
		 M1737.852,198.615c-0.229-0.968-0.457-1.67-0.569-2.393c-0.302-2.015,0.065-5.248-0.975-5.774c-1.656-0.84-4.231,0.063-6.414,0.3
		c-5.116,0.557-4.956,0.535-3.718,5.759c0.555,2.345,1.762,3.169,3.884,2.996C1732.604,199.298,1735.133,198.934,1737.852,198.615
		 M1770.963,196.633c0.385-2.36,0.902-4.532,0.98-6.72c0.031-0.692-0.963-1.824-1.714-2.069c-1.898-0.607-3.909-0.875-5.887-1.168
		c-0.605-0.089-1.744,0.04-1.82,0.297c-0.669,2.326-1.503,4.71-1.481,7.066c0.01,0.729,2.41,1.752,3.839,2.068
		C1766.897,196.563,1769.029,196.491,1770.963,196.633 M1784.081,189.5c-3.573,7.19-3.323,7.724,4.471,9.038
		c0.643,0.109,1.326,0.079,1.977,0.005c0.392-0.045,1.039-0.252,1.091-0.486c0.576-2.663,1.052-5.344,1.57-8.072
		C1789.86,189.81,1787.004,189.655,1784.081,189.5 M1814.004,169.418c3.121,1.067,5.883,2.016,8.621,2.952
		c3.745-7.243,3.724-7.325-3.455-9.704c-0.832-0.271-1.691-0.439-2.625-0.678C1815.683,164.521,1814.885,166.855,1814.004,169.418
		 M1797.417,160.938c2.775,1.173,5.082,2.437,6.381-1.875c0.972-3.26,0.608-4.643-2.776-5.603c-5.096-1.445-4.824-1.56-6.44,2.236
		C1793.116,159.119,1794.302,160.561,1797.417,160.938 M1814.215,203.514c0.68-2.559,1.274-4.146,1.47-5.781
		c0.083-0.753-0.436-2.088-1-2.31c-1.75-0.681-3.639-1.172-5.492-1.285c-0.915-0.057-2.478,0.713-2.7,1.432
		c-0.508,1.657-1.054,4.692-0.387,5.07C1808.607,202.072,1811.588,202.664,1814.215,203.514 M1859.621,192.959
		c-0.404-0.258-0.793-0.515-1.19-0.778c-0.695,1.194-1.926,2.361-1.99,3.579c-0.379,6.895-0.426,13.797-0.697,20.691
		c-0.104,2.504,1.233,2.949,2.753,3.004C1858.874,210.47,1859.248,201.714,1859.621,192.959 M1838.826,174.341
		c-3.787,5.842-2.918,7.367,4.944,8.667c0.678-1.979,1.359-3.962,2.138-6.239C1843.495,175.941,1841.288,175.185,1838.826,174.341
		 M1831.287,207.928c2.343,0.8,4.536,1.553,6.771,2.32c0.741-2.158,1.42-4.131,2.082-6.069c-2.404-0.822-4.604-1.577-6.775-2.325
		C1832.633,203.994,1831.978,205.892,1831.287,207.928 M1874.767,228.565c-1.048-0.789-2.049-1.48-2.978-2.253
		c-0.974-0.812-1.891-1.701-2.887-2.612c-3.716,6.199-3.36,7.293,2.7,8.94C1872.566,231.399,1873.572,230.107,1874.767,228.565"/>
	<path clip-path="url(#SVGID_4_)" d="M927.968,141.46l0.044,46.685l16.933-46.699l22.038-0.023l-18.562,51.112l21.117,64.459
		l-23.342,0.021l-18.175-59.566l0.057,59.583l-22.53,0.021l-0.107-115.572L927.968,141.46z M971.902,167.21
		c-0.009-9.466,2.541-16.488,7.654-21.063c5.108-4.575,12.997-6.868,23.662-6.878c5.875-0.006,10.964,0.916,15.266,2.761
		c4.299,1.848,7.483,4.51,9.556,7.989c0.762,1.306,1.388,2.668,1.882,4.079c0.494,1.415,0.901,3.079,1.23,4.978
		c0.327,1.907,0.543,4.109,0.656,6.613c0.109,2.503,0.169,5.548,0.175,9.139l0.043,48.808c0.002,3.811-0.021,6.911-0.07,9.306
		c-0.056,2.395-0.218,4.407-0.488,6.04c-0.272,1.632-0.65,3.077-1.136,4.327c-0.49,1.254-1.17,2.693-2.038,4.328
		c-1.955,3.594-5.301,6.371-10.03,8.334c-4.732,1.963-10.688,2.948-17.873,2.956c-18.502,0.016-27.924-8.791-28.263-26.421
		l-0.173-9.467L971.902,167.21z M994.483,224.649c0.004,5.008,0.521,8.407,1.558,10.201c1.035,1.794,3.024,2.691,5.962,2.688
		c4.789-0.006,7.178-3.162,7.173-9.474l-0.054-57.461c-0.003-3.48-0.55-5.958-1.637-7.427c-1.093-1.468-2.941-2.2-5.553-2.198
		c-5.007,0.005-7.507,3.056-7.501,9.15L994.483,224.649z M1077.363,177.886l-0.011-9.629c-0.001-4.79-2.452-7.183-7.348-7.179
		c-5.008,0.006-7.509,3.01-7.502,9.009l0.167,3.268l0.048,52.675c0.005,4.253,0.603,7.281,1.803,9.082
		c1.198,1.797,3.213,2.693,6.042,2.689c2.502-0.001,4.269-0.798,5.302-2.392c1.034-1.595,1.658-4.362,1.871-8.312l0.158-3.294
		l0.003-0.167c-0.002-0.221-0.028-0.573-0.084-1.068c-0.055-0.495-0.08-0.962-0.08-1.4l-0.171-2.139l0.002-0.66l-5.711,0.005
		l-0.021-18.605l28.08-0.026l0.027,29.707c0.004,5.117-0.295,9.061-0.887,11.836c-0.594,2.777-1.706,5.361-3.335,7.756
		c-2.179,3.052-5.573,5.504-10.198,7.354c-4.629,1.855-9.873,2.786-15.752,2.792c-5.659,0.004-10.607-0.862-14.855-2.6
		c-4.247-1.734-7.512-4.236-9.801-7.499c-1.854-2.392-3.11-5.058-3.763-7.996c-0.655-2.937-0.984-7.018-0.99-12.242l-0.056-59.908
		c-0.006-10.447,2.374-17.984,7.162-22.615c4.782-4.627,12.563-6.949,23.336-6.959c5.879-0.006,11.427,1.132,16.654,3.413
		c2.395,0.977,4.382,2.199,5.963,3.667c1.579,1.467,2.858,3.291,3.839,5.465c0.982,2.177,1.665,4.788,2.047,7.833
		c0.383,3.048,0.577,6.692,0.583,10.937l0.008,7.181L1077.363,177.886z M1167.52,228.08c0,2.722-0.082,5.062-0.242,7.02
		c-0.163,1.961-0.403,3.723-0.729,5.289c-0.328,1.565-0.791,2.999-1.381,4.292c-0.602,1.298-1.334,2.65-2.202,4.052
		c-2.173,3.35-5.517,5.945-10.031,7.785c-4.517,1.841-9.874,2.765-16.075,2.771c-5.445,0.005-10.286-0.885-14.537-2.66
		c-4.243-1.776-7.455-4.23-9.634-7.362c-1.746-2.481-2.941-5.265-3.598-8.346c-0.657-3.078-0.988-7.287-0.992-12.62l-0.08-86.843
		l22.69-0.021l0.078,83.904l0.001,2.122c0.003,3.701,0.604,6.364,1.801,7.997c1.2,1.633,3.161,2.446,5.878,2.444
		c4.573-0.005,6.854-3.271,6.847-9.803l-0.082-86.679l22.207-0.02L1167.52,228.08z"/>
	<path clip-path="url(#SVGID_4_)" d="M1365.967,234.524l0.019,21.71l-39.663,0.035l-0.106-115.57l22.69-0.021l0.088,93.861
		L1365.967,234.524z M1431.096,227.444c0.003,2.72-0.079,5.06-0.238,7.019c-0.162,1.96-0.407,3.721-0.732,5.289
		c-0.325,1.566-0.787,2.998-1.381,4.293c-0.601,1.299-1.332,2.65-2.202,4.053c-2.172,3.349-5.518,5.942-10.031,7.783
		c-4.515,1.841-9.871,2.767-16.076,2.77c-5.444,0.005-10.285-0.885-14.531-2.659c-4.247-1.776-7.458-4.233-9.637-7.361
		c-1.744-2.485-2.945-5.265-3.6-8.348c-0.655-3.078-0.984-7.287-0.988-12.618l-0.082-86.844l22.689-0.021l0.078,83.905l0.002,2.121
		c0.004,3.699,0.603,6.366,1.802,7.996c1.199,1.635,3.159,2.443,5.879,2.444c4.571-0.006,6.853-3.272,6.846-9.8l-0.081-86.681
		l22.204-0.021L1431.096,227.444z M1476.915,177.125l-0.011-9.634c-0.003-4.786-2.453-7.182-7.348-7.175
		c-5.01,0.004-7.507,3.008-7.501,9.007l0.165,3.271l0.048,52.672c0.005,4.257,0.605,7.281,1.805,9.081
		c1.197,1.8,3.214,2.693,6.041,2.692c2.506-0.002,4.271-0.803,5.306-2.393c1.031-1.594,1.652-4.364,1.868-8.313l0.16-3.292
		l0.001-0.168c-0.001-0.219-0.031-0.575-0.084-1.07c-0.058-0.493-0.083-0.961-0.082-1.4l-0.167-2.137l0.001-0.66l-5.713,0.006
		l-0.019-18.609l28.078-0.025l0.027,29.707c0.006,5.117-0.294,9.063-0.89,11.839c-0.595,2.773-1.707,5.363-3.336,7.755
		c-2.178,3.051-5.574,5.503-10.198,7.356c-4.622,1.853-9.874,2.783-15.747,2.789c-5.662,0.006-10.613-0.863-14.857-2.599
		c-4.246-1.734-7.513-4.236-9.802-7.498c-1.854-2.392-3.107-5.06-3.765-7.994c-0.653-2.939-0.981-7.021-0.988-12.246l-0.057-59.906
		c-0.009-10.447,2.376-17.983,7.162-22.616c4.784-4.627,12.562-6.947,23.336-6.956c5.877-0.007,11.428,1.131,16.654,3.411
		c2.395,0.977,4.38,2.198,5.963,3.665c1.577,1.471,2.859,3.291,3.842,5.468c0.979,2.176,1.66,4.788,2.048,7.831
		c0.38,3.049,0.577,6.693,0.58,10.937l0.007,7.183L1476.915,177.125z M1567.072,227.318c0,2.721-0.078,5.059-0.242,7.02
		c-0.159,1.959-0.402,3.723-0.729,5.285c-0.323,1.567-0.79,3.002-1.382,4.295c-0.597,1.298-1.333,2.65-2.201,4.052
		c-2.173,3.35-5.517,5.944-10.031,7.784c-4.517,1.841-9.874,2.764-16.076,2.77c-5.444,0.005-10.284-0.883-14.529-2.659
		c-4.249-1.773-7.461-4.23-9.64-7.362c-1.743-2.483-2.942-5.262-3.601-8.346c-0.655-3.079-0.982-7.285-0.988-12.619l-0.083-86.843
		l22.692-0.02l0.076,83.902l0.001,2.121c0.006,3.704,0.604,6.366,1.803,7.999c1.199,1.631,3.16,2.443,5.882,2.442
		c4.569-0.005,6.854-3.271,6.846-9.803l-0.08-86.678l22.202-0.02L1567.072,227.318z M1576.389,246.898
		c-0.001-3.156,1.083-5.85,3.259-8.083c2.173-2.234,4.84-3.354,7.999-3.356c3.044-0.002,5.658,1.111,7.835,3.343
		c2.181,2.229,3.27,4.922,3.273,8.076c0.004,3.047-1.056,5.606-3.176,7.672c-2.122,2.07-4.757,3.109-7.914,3.112
		c-3.157,0.002-5.822-1.032-8.003-3.096C1577.483,252.504,1576.389,249.945,1576.389,246.898 M1577.107,140.467l20.403-0.021
		l0.079,86.027l-20.402,0.02L1577.107,140.467z"/>
</g>
</svg>
