<?xml version="1.0" encoding="utf-8"?>
<!-- Generator: Adobe Illustrator 16.0.4, SVG Export Plug-In . SVG Version: 6.00 Build 0)  -->
<!DOCTYPE svg PUBLIC "-//W3C//DTD SVG 1.1//EN" "http://www.w3.org/Graphics/SVG/1.1/DTD/svg11.dtd">
<svg version="1.1" id="Layer_1" xmlns="http://www.w3.org/2000/svg" xmlns:xlink="http://www.w3.org/1999/xlink" x="0px" y="0px"
	 width="640px" height="640px" viewBox="0 0 640 640" enable-background="new 0 0 640 640" xml:space="preserve">
<g>
	<path fill="#3B4566" d="M462.505,247.586c0.488,1.992,0.979,3.998,1.614,6.592c2.879-0.953,5.328-1.761,7.737-2.555
		c-0.794-2.052-1.424-3.654-2.212-5.679C467.521,246.435,465.252,246.951,462.505,247.586z"/>
	<path fill="#3B4566" d="M466.072,289.069c-0.787-1.728-1.888-1.701-3.264-0.973c-1.953,1.033-3.944,2.025-5.792,3.243
		c-0.543,0.357-1.093,1.602-0.859,2.079c0.84,1.774,1.979,3.409,3.063,5.063c0.238,0.357,0.733,0.55,1.014,0.755
		c0.316-0.06,0.496-0.06,0.629-0.126c2.613-1.317,5.234-2.621,7.812-4.004c0.226-0.126,0.338-0.907,0.172-1.211
		C467.972,292.259,466.854,290.743,466.072,289.069z"/>
	<path fill="#3B4566" d="M451.517,252.769c-0.438-2.416-1.772-1.999-3.336-1.277c-2.138,0.993-4.289,1.966-7.097,3.25
		c0.835,2.217,1.191,5.103,2.787,6.831c1.568,1.688,3.997-0.139,5.971-0.927c0.298-0.119,0.583-0.245,0.881-0.377
		c3.336-1.509,3.402-1.675,1.967-4.898C452.305,254.497,451.683,253.676,451.517,252.769z"/>
	<path fill="#3B4566" d="M443.858,299.938c-2.409,1.39-4.635,3.124-7.097,4.402c-1.675,0.86-1.536,1.86-0.874,3.098
		c0.895,1.675,1.934,3.283,2.898,4.925c1.104,1.88,2.642,1.854,4.243,0.813c2.66-1.733,5.255-3.567,8.115-5.514
		c-1.729-2.602-3.369-5.209-5.189-7.685C445.698,299.62,444.401,299.626,443.858,299.938z"/>
	<path fill="#3B4566" d="M516.935,243.615c-3.76,0.04-3.603-0.093-3.938,2.812c-0.312,2.628,0.787,3.369,2.985,3.005
		c2.124,0.238,3.95,0.635,3.971-2.562C519.951,244.455,519.43,243.588,516.935,243.615z"/>
	<path fill="#3B4566" d="M502.882,273.216c-1.417-0.033-2.841,0.192-4.25,0.391c-0.431,0.06-1.179,0.377-1.179,0.562
		c0.014,1.721-0.072,3.515,0.41,5.11c0.158,0.497,1.999,0.708,3.031,0.636c1.47-0.093,2.905-0.569,4.25-0.861
		c-0.213-1.688-0.299-3.27-0.683-4.771C504.345,273.805,503.438,273.229,502.882,273.216z"/>
	<path fill="#3B4566" d="M512.645,271.561c-0.985,5.613-0.715,5.924,4.859,5.255c0.456-0.06,0.92-0.218,1.35-0.397
		c0.253-0.106,0.655-0.377,0.644-0.549c-0.146-1.926-0.356-3.853-0.557-5.812C516.643,270.608,514.663,271.078,512.645,271.561z"/>
	<path fill="#3B4566" d="M435.616,266.279c-0.748-1.82-2.013-3.422-2.778-5.236c-0.828-1.933-2.219-1.979-3.7-1.337
		c-2.258,0.973-4.487,2.052-6.554,3.375c-0.827,0.53-1.859,2.079-1.615,2.708c1.079,2.793,2.596,5.408,4.275,8.711
		c3.682-2.039,6.904-3.707,9.97-5.62C435.724,268.562,435.914,267,435.616,266.279z"/>
	<path fill="#3B4566" d="M480.463,244.753c0.031,0.609-0.04,1.105,0.092,1.542c0.788,2.482,1.809,4.912,2.402,7.427
		c1.086,4.614,1.748,9.327,2.934,13.914c1.305,5.044,2.979,9.988,4.508,14.973c0.604,1.939,1.629,2.118,2.812,0.88
		c-3.43-13.285-6.806-26.364-10.182-39.444C481.893,244.363,481.289,244.521,480.463,244.753z"/>
	<path fill="#3B4566" d="M500.485,248.354c0.118-1.178-0.094-2.396-0.021-3.587c0.086-1.384-0.522-1.893-1.84-1.9
		c-1.688-0.013-3.377-0.132-5.396-0.218c-0.086,2.072-0.211,3.846-0.204,5.613c0,0.437,0.396,1.238,0.661,1.264
		c1.946,0.179,3.905,0.271,5.858,0.206C499.883,249.718,500.439,248.864,500.485,248.354z"/>
	<path fill="#3B4566" d="M480.304,281.808c-1.298-0.238-2.866,0.894-4.311,1.496c-3.368,1.403-3.263,1.357-1.37,4.667
		c0.849,1.483,1.834,1.807,3.244,1.258c1.693-0.649,3.342-1.403,5.13-2.171c-0.353-0.609-0.648-1.046-0.866-1.516
		C481.515,284.23,481.117,281.959,480.304,281.808z"/>
	<path fill="#3B4566" d="M256.345,193.137c-0.768-2.595-1.721-4.329-2.853-5.183c-1.146-0.854-2.682-0.993-4.634-0.417
		c-3.732,1.105-4.931,3.932-3.581,8.486l12.055,40.681c1.104,3.74,2.236,6.163,3.409,7.274c1.172,1.112,2.853,1.344,5.044,0.695
		c3.573-1.059,4.659-3.945,3.27-8.658L256.345,193.137z"/>
	<path fill="#3B4566" d="M502.199,151.985l0.006,0.007c-0.352-0.384-0.707-0.755-1.052-1.132c-1.859-2.039-3.753-4.038-5.673-5.997
		c-0.23-0.238-0.465-0.47-0.695-0.702C497.302,146.71,499.777,149.311,502.199,151.985z"/>
	<path fill="#3B4566" d="M585.16,165.681c-3.533-4.653-7.229-9.016-11.04-13.146c-12.231-20.552-27.424-39.086-45.256-54.436
		c-15.269-13.92-32.482-25.385-51.104-34.347c-21.479-12.623-44.651-21.592-68.46-25.948c-42.653-8.3-87.709-3.237-132.369,14.589
		c-13.093,3.542-26.43,8.095-39.748,13.887c-28.854,1.78-61.031,7.135-92.333,19.368c11.77-10.869,24.504-20.407,38.061-28.403
		c73.799-45.05,177.335-46.891,277.032-4.964c0.979,0.404,2.024-0.106,2.297-1.112c0.276-1.039-0.292-2.178-1.271-2.582
		C360.23,6.218,255.498,8.144,180.852,53.73c-16.76,9.876-32.274,22.062-46.288,36.227c-27.079,12.007-53.125,29.501-75.286,54.701
		c-26.741,31.567-41.768,74.87-41.23,118.749c-0.046,13.185,1.257,26.874,3.646,40.919c-0.642,1.913-1.316,3.812-1.893,5.726
		C8.792,345.717,7.03,383.168,14.658,418.375c7.42,34.91,24.643,69.059,49.782,98.712c55.621,63.836,126.97,89.002,177.078,98.854
		c61.088,11.292,125.154,6.42,185.157-14.062c62.434-21.161,112.96-59.036,146.107-109.515
		c19.526-29.761,32.195-62.929,37.638-97.104c13.338-29.188,20.169-62.472,19.54-96.904
		C629.066,249.228,613.146,202.119,585.16,165.681z M571.287,154.772c24.479,41.244,36.736,90.676,33.726,138.5
		c-2.441-9.009-5.566-17.945-9.168-26.788c-0.643-43.342-12.788-86.129-35.082-122.17
		C564.338,147.61,567.879,151.072,571.287,154.772z M409.041,41.729c7.977,1.47,15.894,3.455,23.703,5.917
		c-28.488-6.99-59.194-9.035-91-5.884c-8.949,0.583-18.311,1.542-27.958,2.959C346.113,36.772,378.229,35.706,409.041,41.729z
		 M136.88,93.379c30.011-13.225,61.287-19.652,89.95-22.287c-15.26,7.42-30.357,16.555-44.967,27.768
		c-31.784,20.222-60.883,45.023-85.844,73.711c-7.917,9.016-15.244,18.289-21.976,27.768c4.944-15.906,11.213-31.302,18.825-45.977
		C104.771,131.399,119.664,110.867,136.88,93.379z M57.503,277.551c-5.938,23.77-8.201,47.836-6.738,71.169
		c-1.284,11.279-1.754,22.521-1.509,33.626c-10.028-23.287-17.329-45.777-21.87-67.331c3.72-17.852,9.095-34.519,15.41-49.775
		c5.805-10.717,12.133-20.804,19.003-30.21C59.343,249.022,57.9,263.254,57.503,277.551z M58.066,308.317
		c-1.437,5.977-2.74,11.993-3.873,18.062c0.397-10.048,1.517-20.162,3.265-30.283C57.569,300.169,57.788,304.247,58.066,308.317z
		 M58.522,232.779c1.84-3.336,3.733-6.619,5.613-9.744c-0.212,1.072-0.457,2.138-0.662,3.21
		C61.792,228.417,60.111,230.575,58.522,232.779z M66.916,228.324c7.043-9.121,14.482-17.646,22.135-25.503
		c-8.281,14.013-15.482,28.436-21.426,43.236c-2.032,5.097-3.8,10.213-5.461,15.383C63.09,250.293,64.691,239.239,66.916,228.324z
		 M68.849,219.408c0.516-2.158,1.06-4.296,1.622-6.447c10.425-15.985,20.599-28.668,28.35-37.498
		c15.046-17.276,31.646-33.122,49.405-47.453c-19.209,18.653-36.055,38.934-50.246,60.439
		C87.389,198.313,77.646,208.652,68.849,219.408z M62.09,147.518c19.295-21.903,41.588-37.928,64.934-49.525
		c-14.43,15.965-27.046,34.148-37.432,54.158c-9.538,18.421-17.038,38.007-22.393,58.249
		c-11.312,17.223-20.719,35.108-28.158,53.384c-5.806,10.803-10.736,21.883-14.873,33.242c-1.603-11.352-2.462-22.439-2.449-33.195
		C21.224,220.818,35.971,178.422,62.09,147.518z M26.34,302.691c-0.245,1.013-0.496,2.059-0.729,3.084
		c-0.04-0.192-0.072-0.404-0.111-0.602C25.771,304.353,26.036,303.512,26.34,302.691z M569.692,489.835
		c-32.752,49.876-82.678,87.308-144.454,108.23c-59.525,20.341-122.969,25.173-183.408,13.967
		c-49.514-9.757-119.994-34.565-174.794-97.461c-24.656-29.065-41.51-62.479-48.816-96.646
		c-7.389-34.272-5.692-70.713,4.892-105.464c0.159,0.774,0.364,1.562,0.53,2.343c-7.162,35.697-6.997,72.037,0.966,107.37
		c10.512,46.943,38.735,92.748,77.484,125.619c37.445,32.281,86.367,51.146,137.694,53.132c31.771,0.377,63.829-4.574,95.262-14.344
		c50.987-10.229,92.582-32.533,119.722-50.63c55.567-23.193,102.562-59.546,135.246-105.96c5.242-7.05,9.98-14.542,14.244-22.38
		C597.963,436.524,586.359,464.438,569.692,489.835z M375.528,571.218c14.086-6.367,27.966-13.728,41.549-22.002
		c6.108-1.801,12.134-3.72,18.084-5.816C418.554,553.154,398.431,563.149,375.528,571.218z M606.839,393.718
		c-5.526,11.98-12.151,23.293-19.852,33.652c-28.562,40.562-68.182,73.32-114.938,96.256
		c66.445-50.146,112.568-117.245,130.611-190.44c1.392-5.586,2.529-11.252,3.456-16.943c-0.237-0.536-0.489-1.065-0.802-1.556
		c-0.741-1.185-1.463-2.39-2.19-3.588c-1,6.963-2.329,13.868-4.051,20.679c-18.938,76.992-69.43,147.257-142.099,197.762
		c-1.344,0.927-2.728,1.873-4.137,2.8c-7.349,3.064-14.859,5.818-22.492,8.399c0.496-0.331,0.979-0.684,1.471-1.008
		c-11.228,5.801-22.69,10.679-34.32,14.622c1.462-0.345,2.952-0.646,4.429-1.013c-22.095,12.318-44.857,22.161-67.973,29.355
		c-38.065,7.639-81.368,8.46-127.869-4.494c-50.689-14.959-93.297-45.361-120.006-85.641c-14.59-21.617-24.444-47.122-29.423-74.42
		c-1.562-1.721-3.098-3.455-4.646-5.188c4.693,30.012,15.23,58.062,31.156,81.661c27.271,41.138,70.713,72.161,122.355,87.387
		c33.084,9.233,64.56,11.557,93.729,9.465c-19.892,3.854-39.907,5.739-59.797,5.514c-50.467-1.943-98.463-20.506-135.259-52.203
		c-38.054-32.218-65.722-77.113-75.975-123.132c-7.963-35.113-7.625-67.938-2.528-97.666c5.263,21.869,13.306,44.635,24.021,68.172
		c0.218,3.414,0.542,6.806,0.914,10.188c1.304,0.735,2.621,1.443,3.965,2.085c-0.238-1.966-0.536-3.912-0.722-5.891
		c0.212-0.009,0.437-0.033,0.648-0.135c0.907-0.401,1.225-1.549,0.754-2.548c-0.688-1.503-1.304-2.951-1.979-4.429
		c-0.457-7.405-0.563-14.88-0.312-22.394c2.131,13.396,5.533,26.457,10.193,38.975c1.489,0.55,2.979,1.093,4.475,1.615
		c-7.434-19.069-11.849-39.483-13.186-60.514c0.417-3.574,0.907-7.154,1.489-10.724c0.887-5.938,2.006-11.854,3.224-17.753
		c3.654,32.057,12.795,63.268,26.312,91.616c0.557-0.062,1.119-0.141,1.682-0.231c-3.654-9.056-6.745-18.223-9.3-27.463
		c-8.632-24.066-14.219-49.598-16.078-75.539c3.256-13.351,7.334-26.503,12.152-39.397c1.808-8.942,4.131-17.759,6.91-26.45
		c-7.93,17.243-14.582,35.036-19.666,53.245c-0.125-3.336-0.159-6.686-0.086-10.054c-0.025-2.615,0.021-5.243,0.086-7.864
		c2.603-10.26,5.832-20.473,9.83-30.534c7.864-19.54,17.885-38.491,29.768-56.561c2.469-2.297,4.95-4.441,7.439-6.626
		c2.661-4.196,5.454-8.34,8.386-12.384c-1.945,1.575-3.971,3.137-5.878,4.752c18.343-25.047,40.41-48.227,65.702-68.773
		c2.582-2.138,5.163-4.183,7.791-6.189c12.227-7.764,24.849-14.84,37.822-21.175c-13.609,8.784-26.543,18.395-38.841,28.688
		c5.335-3.415,10.763-6.711,16.429-9.776c2.582-1.39,5.176-2.647,7.784-3.945l0,0c-0.112,0.053-0.218,0.112-0.331,0.166
		c0.112-0.06,0.23-0.119,0.351-0.179c10.062-7.281,20.488-14.159,31.324-20.493c3.429-1.979,6.897-3.892,10.359-5.726
		c4.309-0.126,8.531-0.199,12.629-0.186c10.154,0.186,20.273,0.9,30.382,1.847c2.535-0.265,5.077-0.424,7.612-0.603
		c1.337-0.099,2.667-0.238,4.005-0.318c2.853-0.152,5.699-0.218,8.539-0.271c0.927-0.02,1.858-0.073,2.787-0.079
		c-0.021-0.007-0.04-0.007-0.062-0.013c-17.759-2.667-35.677-4.203-53.628-4.521c-1.146,0-2.316,0.013-3.489,0.007
		c14.159-5.203,28.608-9.565,43.258-12.974c13.602-3.217,27.076-5.481,40.361-6.845c9.312-0.609,18.185-0.847,26.463-0.801
		c60.269-0.43,116.941,21.797,157.012,60.44c5.932,6.076,11.558,12.47,16.812,19.189c-22.972-15.827-46.88-25.411-66.147-31.13
		c-27.22-8.089-56.361-12.398-86.938-13.04c4.468,1.337,8.902,2.827,13.312,4.408c0.007,0,0.021,0,0.025,0s0.021,0.007,0.026,0.014
		c25.517,1.449,49.947,5.58,72.98,12.438c21.526,6.367,48.924,17.626,74.14,37.22c6.155,8.704,11.795,17.825,16.707,27.37
		c14.271,26.636,22.167,57.368,23.152,89.637c-21.829-44.547-57.903-85.367-102.812-115.65c2.402,2.218,4.753,4.501,7.068,6.818
		c0.729,0.715,1.442,1.443,2.157,2.171c1.92,1.966,3.812,3.958,5.673,5.997c0.364,0.397,0.748,0.774,1.111,1.171
		c-0.021-0.013-0.039-0.026-0.061-0.04c0.015,0.013,0.026,0.033,0.048,0.046c-0.021-0.02-0.033-0.033-0.054-0.053
		c-11.246-8.757-23.142-16.859-35.625-24.114c-32.184-18.931-66.489-33.414-101.923-43.243c-2.66,0.119-5.269,0.166-7.977,0.344
		c-73.908,4.892-145.112,28.271-205.916,67.615c-4.706,3.038-9.564,6.361-14.516,9.909C109.649,194.6,88.547,230.721,74.13,269.158
		c-7.705,37.716-6.731,77.345,3.879,115.734c3.303,9.168,7.096,18.092,11.266,26.77c4.984-0.959,10.127-1.158,15.045-2.336
		c5.566-1.337,10.976-3.383,16.396-5.271c3.747-1.305,7.526-2.606,11.054-4.376c5.997-3.005,11.941-6.168,17.66-9.664
		c3.256-1.99,6.083-4.705,9.008-7.199c3.542-3.032,7.069-6.092,10.433-9.309c1.972-1.887,3.864-3.958,5.375-6.223
		c3.873-5.812,7.672-11.689,11.173-17.732c1.556-2.693,2.343-5.838,3.429-8.797c1.178-3.197,2.356-6.398,3.422-9.638
		c0.49-1.489,0.708-3.071,1.112-4.871c2.165,2.864,4.223,5.493,6.129,8.221c0.371,0.522,0.231,1.456,0.205,2.19
		c-0.021,0.457-0.291,0.898-0.43,1.355c-0.748,2.43-1.668,4.613,1.748,6.235c2.085,0.985,3.541,3.296,5.434,5.17
		c0.556-0.562,1.23-1.258,1.986-2.032c4.342,5.91,8.764,11.922,13.179,17.938c1.782,2.43,3.517,4.905,5.363,7.288
		c1.244,1.606,1.78,2.979-0.278,4.408c-1.648,1.149-1.377,2.414,0.053,3.687c1.305,1.158,2.568,2.39,3.693,3.728
		c1.946,2.312,2.767,2.477,5.455,0.615c0.497,0.86,0.927,1.768,1.502,2.568c0.894,1.229,0.761,2.31-0.1,3.515
		c-3.481,4.885-6.222,10.286-11.18,14.085c-3.31,2.535-6.111,5.732-9.169,8.601c-5.706,5.327-12.338,9.413-19.262,12.773
		c-7.619,3.693-15.688,6.467-23.591,9.584c-2.403,0.947-4.886,1.688-7.334,2.529c-5.562,1.158-11.121,2.31-16.682,3.468
		c-0.516-0.06-1.052-0.245-1.542-0.158c-8.029,1.522-16.091,2.146-24.278,1.723c-5.653-0.299-11.34,0.205-16.985-0.119
		c20.301,30.786,46.348,56.148,76.26,72.388c66.346,36.954,148.938,38.033,226.634,3.024
		c64.688-29.005,117.633-80.015,149.709-143.922c7.068-30.383,8.445-62.153,3.699-93.614c-1.409-0.251-2.84-0.437-4.321-0.503
		c-5.289-0.231-10.544-1.417-15.819-1.482c-5.726-0.066-11.472,0.583-17.189,1.085c-3.947,0.337-7.933,0.675-11.784,1.522
		c-6.566,1.443-13.094,3.051-19.5,5.03c-3.646,1.132-7.058,3.071-10.506,4.772c-4.17,2.065-8.34,4.164-12.396,6.46
		c-2.369,1.344-4.72,2.886-6.737,4.713c-5.177,4.68-10.308,9.446-15.179,14.443c-2.172,2.23-3.707,5.083-5.487,7.685
		c-1.926,2.813-3.853,5.62-5.679,8.507c-0.842,1.322-1.449,2.801-2.277,4.447c-1.391-3.314-2.739-6.361-3.925-9.473
		c-0.227-0.604,0.132-1.469,0.344-2.172c0.134-0.442,0.503-0.801,0.748-1.211c1.316-2.178,2.747-4.063-0.165-6.479
		c-1.773-1.463-2.621-4.058-3.998-6.341c-0.676,0.411-1.503,0.92-2.423,1.483c-2.761-6.799-5.565-13.708-8.373-20.625
		c-1.132-2.793-2.204-5.62-3.401-8.387c-0.813-1.86-1-3.323,1.352-4.203c1.873-0.708,1.926-1.999,0.848-3.587
		c-0.979-1.443-1.899-2.946-2.661-4.514c-1.315-2.721-2.078-3.085-5.137-1.939c-0.271-0.96-0.464-1.939-0.827-2.853
		c-0.562-1.417-0.173-2.429,0.959-3.389c4.574-3.879,8.56-8.439,14.306-10.915c3.825-1.635,7.319-4.051,10.987-6.076
		c6.845-3.767,14.276-6.096,21.811-7.652c8.295-1.714,16.801-2.423,25.227-3.501c2.562-0.331,5.148-0.437,7.726-0.649
		c5.681,0.238,11.353,0.49,17.031,0.735c0.482,0.179,0.952,0.49,1.448,0.523c8.155,0.497,16.128,1.88,23.965,4.302
		c5.509,1.708,11.271,2.615,16.768,4.375c2.305,0.741,4.58,1.589,6.839,2.496c-4.786-16.125-11.233-32.017-19.533-47.407
		c-9.678-17.938-21.284-34.162-34.337-48.658c38.229,29.826,68.604,67.509,86.887,107.959c0,2.224-0.06,4.468-0.14,6.712
		c-0.119,3.184-0.37,6.374-0.615,9.564c1.072,1.999,2.139,4.005,3.21,6.004c0.086-0.927,0.227-1.854,0.312-2.78
		c-0.047,1.013-0.126,2.025-0.179,3.038c1.139,2.125,2.236,4.263,3.354,6.395c0.317-4.17,0.575-8.347,0.682-12.524
		c2.226,6.123,4.283,12.292,5.951,18.488c0.827,3.137,1.528,6.294,2.244,9.439c-0.113,1-0.26,1.992-0.386,2.992
		c0.688,2.02,1.364,4.051,2.1,6.043c0.478,1.291,0.979,2.568,0.945,4.044c-0.092-0.191-0.179-0.384-0.265-0.582
		C610.712,342.359,610.817,368.32,606.839,393.718z M303.123,70.523c0.158-0.006,0.323-0.026,0.482-0.04
		C303.447,70.497,303.282,70.517,303.123,70.523z M303.771,70.477c2.827-0.159,5.653-0.212,8.479-0.271
		C309.424,70.265,306.598,70.324,303.771,70.477z M450.371,444.183l-19.018-64.198l15.225-4.508l19.018,64.198L450.371,444.183z
		 M466.74,449.339c2.118,1.187,3.526,2.952,4.224,5.311c0.675,2.275,0.449,4.413-0.683,6.428c-1.125,2.012-2.865,3.369-5.224,4.062
		c-2.35,0.702-4.573,0.519-6.651-0.542c-2.085-1.06-3.462-2.728-4.138-5.005c-0.694-2.354-0.477-4.604,0.655-6.751
		c1.132-2.145,2.873-3.566,5.229-4.27C462.425,447.902,464.622,448.154,466.74,449.339z M443.005,447.029
		c0.596,2.029,1.052,3.792,1.362,5.295c0.316,1.496,0.521,2.866,0.622,4.104c0.104,1.245,0.073,2.416-0.086,3.511
		c-0.159,1.104-0.41,2.274-0.748,3.515c-0.888,2.979-2.812,5.652-5.771,8.021c-2.966,2.369-6.767,4.236-11.393,5.606
		c-4.063,1.205-7.871,1.608-11.433,1.218c-3.567-0.391-6.5-1.516-8.822-3.369c-1.848-1.47-3.355-3.281-4.521-5.439
		c-1.171-2.15-2.344-5.216-3.521-9.2l-19.201-64.811l16.938-5.018l18.548,62.618l0.471,1.582c0.812,2.767,1.854,4.62,3.104,5.573
		c1.258,0.953,2.897,1.125,4.932,0.527c3.408-1.013,4.396-3.949,2.951-8.83l-19.161-64.683l16.566-4.911L443.005,447.029z
		 M214.894,275.513l-16.812,4.984l-25.551-86.248l16.812-4.984l10.319,34.843l2.35-38.596l16.442-4.872l-2.588,42.244l29.967,43.468
		l-17.415,5.156l-26.697-40.456L214.894,275.513z M370.684,206.044l-19.162-64.689l16.573-4.905l19.163,64.683
		c0.596,2.032,1.053,3.799,1.363,5.295c0.312,1.496,0.517,2.866,0.622,4.11c0.1,1.238,0.064,2.41-0.087,3.508
		c-0.164,1.099-0.409,2.271-0.747,3.508c-0.888,2.979-2.812,5.653-5.778,8.022c-2.966,2.369-6.758,4.236-11.385,5.613
		c-4.064,1.198-7.877,1.602-11.438,1.211c-3.561-0.391-6.5-1.509-8.814-3.369c-1.849-1.47-3.355-3.283-4.521-5.435
		c-1.172-2.158-2.344-5.222-3.527-9.207L323.75,149.58l16.932-5.017l18.555,62.617l0.463,1.582c0.82,2.767,1.854,4.62,3.11,5.573
		c1.251,0.953,2.899,1.132,4.926,0.53C371.146,213.855,372.126,210.916,370.684,206.044z M311.046,378.234l-10.471,3.104
		l-26.22-45.108l14.396,48.61l-14.496,4.296l-25.55-86.255l20.831-6.169l24.411,42.596l-2.607-49.056l20.711-6.136l25.548,86.254
		l-15.223,4.508l-14.396-48.604L311.046,378.234z M319.24,281.993l34.717-10.286l4.726,15.959l-18.022,5.341l4.691,15.833
		l18.024-5.335l4.731,15.953l-18.029,5.341l6.672,22.538l18.029-5.341l4.728,15.958l-34.718,10.287L319.24,281.993z
		 M324.117,173.193l1.589,5.361l-16.812,4.979l-2.131-7.182c-1.059-3.574-3.416-4.825-7.069-3.74
		c-3.732,1.105-4.938,3.898-3.613,8.373l0.847,2.403l11.644,39.312c0.939,3.177,2.053,5.302,3.351,6.381
		c1.291,1.079,2.992,1.304,5.104,0.682c1.865-0.556,3.005-1.536,3.43-2.959c0.417-1.416,0.277-3.621-0.438-6.612l-0.608-2.496
		l-0.032-0.125c-0.054-0.166-0.146-0.424-0.299-0.781c-0.151-0.357-0.271-0.702-0.37-1.026l-0.597-1.556l-0.146-0.497l-4.264,1.265
		l-4.116-13.887l20.955-6.208l6.571,22.174c1.126,3.819,1.773,6.825,1.938,9.029c0.173,2.204-0.086,4.375-0.78,6.526
		c-0.952,2.753-2.945,5.335-5.99,7.738c-3.044,2.403-6.751,4.256-11.139,5.554c-4.223,1.251-8.108,1.694-11.663,1.337
		c-3.555-0.364-6.54-1.509-8.969-3.442c-1.913-1.377-3.437-3.091-4.574-5.137c-1.132-2.052-2.277-5.024-3.436-8.922l-13.245-44.706
		c-2.304-7.797-2.191-13.953,0.363-18.461c2.549-4.508,7.845-7.956,15.887-10.339c4.388-1.297,8.776-1.674,13.186-1.125
		c1.998,0.205,3.753,0.682,5.256,1.423c1.502,0.748,2.858,1.827,4.07,3.236c1.211,1.41,2.297,3.204,3.256,5.395
		C322.232,167.349,323.179,170.029,324.117,173.193z M285.132,227.676c0.841,2.846,1.509,5.163,1.999,6.963
		c0.482,1.8,0.808,3.336,0.966,4.614c0.159,1.277,0.192,2.442,0.106,3.481c-0.093,1.046-0.278,2.271-0.569,3.68
		c-0.668,3.111-2.548,5.924-5.646,8.433c-3.104,2.508-7.334,4.554-12.694,6.143c-13.809,4.09-22.777-0.404-26.92-13.49l-2.211-7.029
		l-12.346-41.661c-2.092-7.069-1.74-12.875,1.072-17.415c2.807-4.541,8.188-7.989,16.146-10.346
		c4.388-1.304,8.386-1.734,12.007-1.304c3.613,0.43,6.58,1.714,8.89,3.859c0.86,0.808,1.628,1.681,2.311,2.628
		c0.675,0.946,1.351,2.098,2.012,3.442c0.662,1.35,1.311,2.952,1.946,4.792c0.635,1.847,1.35,4.104,2.145,6.785L285.132,227.676z
		 M261.051,430.435l20.751,70.044l12.669-3.744l4.799,16.195l-29.601,8.771l-25.55-86.248L261.051,430.435z M297.225,490.352
		l-19.202-64.813l16.933-5.011l18.547,62.609l0.47,1.589c0.821,2.762,1.854,4.62,3.111,5.566c1.251,0.96,2.893,1.132,4.925,0.529
		c3.407-1.015,4.395-3.951,2.95-8.823l-19.161-64.689l16.567-4.902l19.16,64.688c0.604,2.026,1.061,3.793,1.369,5.289
		c0.312,1.496,0.519,2.866,0.616,4.11c0.104,1.238,0.072,2.409-0.08,3.509c-0.165,1.099-0.409,2.271-0.754,3.508
		c-0.881,2.979-2.807,5.652-5.771,8.022s-6.759,4.243-11.393,5.611c-4.062,1.204-7.868,1.608-11.429,1.22
		c-3.562-0.393-6.5-1.518-8.817-3.376c-1.847-1.472-3.355-3.276-4.526-5.437C299.575,497.395,298.403,494.329,297.225,490.352z
		 M334.999,430.918c-2.305-7.791-2.187-13.947,0.363-18.461c2.556-4.508,7.852-7.95,15.887-10.333
		c4.389-1.304,8.783-1.675,13.186-1.125c2.007,0.205,3.753,0.675,5.257,1.423c1.503,0.748,2.858,1.827,4.076,3.237
		c1.213,1.403,2.29,3.203,3.25,5.395c0.961,2.19,1.906,4.865,2.848,8.035l1.59,5.362l-16.813,4.978l-2.131-7.188
		c-1.061-3.574-3.416-4.819-7.062-3.733c-3.739,1.105-4.944,3.898-3.613,8.373l0.841,2.403l11.644,39.311
		c0.939,3.18,2.06,5.305,3.351,6.381c1.291,1.079,2.992,1.307,5.104,0.685c1.865-0.559,3.012-1.543,3.437-2.959
		c0.417-1.417,0.271-3.621-0.438-6.619l-0.607-2.489l-0.04-0.126c-0.046-0.165-0.146-0.423-0.299-0.78
		c-0.151-0.355-0.271-0.7-0.37-1.024l-0.59-1.562l-0.146-0.487l-4.263,1.264l-4.117-13.887l20.956-6.209l6.565,22.168
		c1.132,3.817,1.773,6.831,1.945,9.035c0.165,2.202-0.093,4.375-0.78,6.524c-0.953,2.754-2.952,5.335-5.997,7.738
		c-3.038,2.402-6.751,4.249-11.141,5.553c-4.224,1.252-8.107,1.695-11.662,1.331c-3.549-0.355-6.541-1.51-8.97-3.436
		c-1.907-1.377-3.437-3.093-4.574-5.139c-1.132-2.052-2.276-5.021-3.436-8.922L334.999,430.918z M607.745,304.511
		c5.091-46.017-4.099-94.145-24.835-135.865c27.079,35.598,42.495,81.482,43.361,129.352c0.517,29.025-4.354,57.216-13.992,82.738
		C614.756,355.387,613.325,329.657,607.745,304.511z"/>
	<path fill="#3B4566" d="M493.966,143.334c0.271,0.271,0.543,0.549,0.819,0.828C494.509,143.883,494.237,143.605,493.966,143.334z"
		/>
	<path fill="#3B4566" d="M146.776,150.351c0.603-0.397,1.186-0.821,1.808-1.218c60.168-38.901,130.405-62.28,203.421-67.807
		c-19.679-4.819-39.707-8.056-59.869-9.929c-28.741,2.958-57.395,11.034-84.694,24.557c-0.006,0.006-0.013,0.006-0.02,0.013
		c0.007,0,0.014-0.007,0.02-0.007C185.214,112.032,164.86,130.288,146.776,150.351z"/>
	<path fill="#3B4566" d="M590.636,296.628c-0.568,5.09-1.291,10.167-2.211,15.224c-6.646,37.412-21.395,73.686-43.675,108.456
		c-0.053,0.112-0.111,0.227-0.157,0.346c-0.08,0.172-0.151,0.351-0.231,0.527c-0.021,0.033-0.039,0.062-0.061,0.086
		c-4.235,9.36-9.021,18.47-14.402,27.271c32.885-42.84,53.801-88.313,62.142-135.528c0.813-4.421,1.449-8.87,1.999-13.324
		C592.933,298.627,591.801,297.607,590.636,296.628z"/>
	<path fill="#3B4566" d="M388.694,80.438c-23.764-7.083-48.6-10.571-73.616-10.312c16.672,2.509,33.214,6.003,49.521,10.498
		C372.729,80.293,380.758,80.273,388.694,80.438z"/>
	<path fill="#3B4566" d="M529.732,448.816c-5.104,6.632-10.463,13.205-16.146,19.712c-25.105,27.847-52.662,51.683-81.768,71.202
		c1.33-0.695,2.667-1.312,4.004-2.032C475.875,516.087,507.562,485.036,529.732,448.816z"/>
	<path fill="#3B4566" d="M468.071,124.437c6.176,3.601,12.206,7.407,18.09,11.392c2.654,2.436,5.249,4.944,7.806,7.506
		c-0.22-0.218-0.425-0.43-0.644-0.642c-2.343-2.336-4.713-4.64-7.143-6.864c0.026,0.013,0.046,0.033,0.072,0.046
		c-24.623-22.697-53.324-39.907-84.169-51.014c-0.008,0-0.015-0.007-0.021-0.007c-0.013,0-0.02-0.007-0.031-0.007
		c-8.229-0.45-16.534-0.648-24.954-0.562C408.638,94.021,439.191,107.465,468.071,124.437z"/>
	<path fill="#3B4566" d="M124.43,438.557c0.609-0.133,1.191-0.338,1.847-0.528c-0.391-1.859-0.748-3.574-1.138-5.46
		c-2.291,0.477-4.323,0.897-6.328,1.314C119.141,439.668,119.188,439.708,124.43,438.557z"/>
	<path fill="#3B4566" d="M115.309,416.932c1.312-0.219,2.647-0.603,3.819-1.205c0.576-0.291,1.257-1.328,1.132-1.847
		c-0.292-1.198-1.059-3.25-1.602-3.243c-2.046,0.033-4.077,0.755-5.99,1.187c0.51,1.808,0.721,2.992,1.198,4.058
		C114.084,416.375,114.878,417.004,115.309,416.932z"/>
	<path fill="#3B4566" d="M555.508,391.641c-32.868,57.831-83.16,103.975-143.566,131.065
		c-78.683,35.459-162.42,34.287-229.752-3.217c-31.321-17.014-58.513-43.799-79.47-76.312c-0.093-0.007-0.186-0.014-0.278-0.024
		c24.213,41.99,58.944,74.324,99.089,95.479c44.636,17.753,94.842,24.811,145.888,20.136c23.498-2.401,46.222-6.941,67.998-13.298
		c34.136-20.871,66.392-47.711,95.383-79.854c12.63-14.482,23.786-29.271,33.503-44.351c0.093-0.203,0.191-0.408,0.292-0.613
		C548.828,411.199,552.482,401.528,555.508,391.641z"/>
	<path fill="#3B4566" d="M565.503,372.762c12.111-24.266,20.319-50.386,24.385-76.776c-1.071-0.88-2.211-1.688-3.33-2.516
		c-3.925,26.497-12.172,52.749-24.385,77.154c-0.716,1.476-1.481,2.894-2.189,4.328c-1.306,5.62-2.787,11.2-4.48,16.721
		C559.016,385.49,562.398,379.202,565.503,372.762z"/>
	<path fill="#3B4566" d="M534.677,269.443c-1.33-0.113-2.714-0.073-3.998,0.225c-0.635,0.146-1.542,0.986-1.557,1.516
		c-0.013,1.231,0.231,3.409,0.763,3.535c1.992,0.47,4.138,0.271,6.097,0.324c-0.054-1.88,0.032-3.078-0.158-4.229
		C535.729,270.283,535.107,269.476,534.677,269.443z"/>
	<path fill="#3B4566" d="M135.12,435.193c0.589,2.344,1.311,3.059,3.727,2.423c3.634-0.966,3.508-0.794,3.125-3.7
		c-0.344-2.621-1.589-3.071-3.634-2.171C136.219,432.03,134.352,432.09,135.12,435.193z"/>
	<path fill="#3B4566" d="M101.574,419.765c-0.331-1.567-0.622-2.966-0.934-4.455c-1.721,0.353-3.33,0.688-4.978,1.033
		c0.338,1.582,0.636,3.038,0.927,4.461C98.357,420.433,99.972,420.096,101.574,419.765z"/>
	<path fill="#3B4566" d="M200.915,538.367c-2.099-0.834-4.243-1.569-6.328-2.456c-48.327-20.4-88.717-55.595-113.367-98.149
		c-0.251-0.099-0.497-0.205-0.748-0.304c-1.521-0.597-3.038-1.219-4.541-1.874c24.881,45.183,66.966,82.607,117.616,103.987
		c14.43,6.209,29.569,11.114,45.104,14.984c-11.292-3.793-22.32-8.411-32.984-13.786c1,0.488,1.992,1.013,2.999,1.503
		c-2.396-1.174-4.772-2.396-7.136-3.643c-0.126-0.053-0.258-0.1-0.384-0.146C201.066,538.446,200.994,538.406,200.915,538.367z"/>
	<path fill="#3B4566" d="M145.201,405.46c1.377-0.311,2.708-0.873,4.018-1.416c0.404-0.166,1.052-0.655,1.006-0.841
		c-0.437-1.661-0.788-3.415-1.655-4.854c-0.265-0.438-2.104-0.19-3.091,0.126c-1.396,0.456-2.674,1.271-3.904,1.888
		c0.615,1.576,1.092,3.092,1.832,4.462C143.639,405.255,144.658,405.586,145.201,405.46z"/>
	<path fill="#3B4566" d="M238.659,554.538c50.471,16.905,106.188,17.706,158.817-0.173c-16.037,3.771-32.467,6.626-49.312,8.354
		C310.576,566.161,273.496,563.242,238.659,554.538z"/>
	<path fill="#3B4566" d="M108.2,438.55c0.191-4.938-0.888-5.561-6.163-3.502c0.032,0.146,0.065,0.298,0.093,0.443
		c0.788,1.291,1.622,2.535,2.429,3.812C105.75,439.053,106.935,438.808,108.2,438.55z"/>
	<path fill="#3B4566" d="M69.246,418.745c0.808,0.126,1.614,0.315,2.456,0.496c-0.748-1.635-1.449-3.283-2.151-4.938
		c-0.648,0.046-1.449,0.227-2.482,0.512c-0.086,0.688-0.179,1.423-0.271,2.188c0.219,0.517,0.45,1.026,0.682,1.536
		C68.074,418.6,68.676,418.652,69.246,418.745z"/>
	<path fill="#3B4566" d="M238.612,554.524c0.021,0.007,0.033,0.007,0.047,0.014c-3.139-1.053-6.256-2.151-9.347-3.323
		C232.384,552.387,235.495,553.492,238.612,554.524z"/>
	<path fill="#3B4566" d="M136.146,409.465c-0.423-5.679-0.768-5.917-6.003-3.896c-0.437,0.165-0.841,0.43-1.211,0.715
		c-0.225,0.172-0.542,0.527-0.49,0.688c0.609,1.833,1.291,3.647,1.967,5.5C132.499,411.371,134.299,410.432,136.146,409.465z"/>
	<path fill="#3B4566" d="M216.092,400.065c1.271,1.668,2.634,1.368,3.912,0.384c1.946-1.489,3.848-3.091,5.521-4.879
		c0.668-0.715,1.291-2.477,0.9-3.02c-1.734-2.441-3.846-4.605-6.283-7.398c-3.063,2.88-5.785,5.289-8.281,7.902
		c-0.417,0.432-0.218,1.985,0.245,2.614C213.279,397.253,214.901,398.497,216.092,400.065z"/>
	<path fill="#3B4566" d="M551.986,255.139c0.061-1.482,0.126-2.972,0.197-4.68c-1.807-0.08-3.462-0.146-5.309-0.225
		C545.473,254.973,546.372,255.834,551.986,255.139z"/>
	<path fill="#3B4566" d="M180.574,418.778c1.271,1.794,2.276,3.195,3.534,4.964c1.939-0.992,4.019-2.061,6.526-3.343
		c-0.966-1.813-1.933-3.636-3.184-5.996C184.896,416.024,182.712,417.415,180.574,418.778z"/>
	<path fill="#3B4566" d="M173.921,427.556c-0.187-0.583-0.232-1.086-0.47-1.477c-1.376-2.218-2.958-4.315-4.15-6.612
		c-2.191-4.203-3.992-8.609-6.262-12.762c-2.496-4.567-5.335-8.956-8.049-13.411c-1.06-1.728-2.093-1.653-2.939-0.165
		c6.586,12.04,13.066,23.889,19.553,35.743C172.631,428.29,173.173,427.979,173.921,427.556z"/>
	<path fill="#3B4566" d="M548.49,274.619c1.762,0.073,3.401,0.146,5.077,0.218c0.071-1.622,0.14-3.098,0.205-4.554
		c-1.809-0.073-3.455-0.146-5.084-0.218C548.616,271.667,548.558,273.09,548.49,274.619z"/>
	<path fill="#3B4566" d="M198.942,405.209c-2.865,2.283-2.893,2.456-0.708,5.229c0.597,0.754,1.397,1.396,1.781,2.235
		c1.006,2.23,2.211,1.495,3.542,0.417c1.833-1.49,3.68-2.959,6.083-4.886c-1.356-1.945-2.403-4.659-4.375-5.943
		c-1.933-1.251-3.852,1.118-5.56,2.362C199.445,404.812,199.193,405.011,198.942,405.209z"/>
	<path fill="#3B4566" d="M159.928,426.179c-1.926,0.298-3.852,0.688-5.726,1.23c-0.331,0.093-0.655,1.06-0.583,1.567
		c0.179,1.174,0.682,2.299,0.906,3.477c0.259,1.355,0.967,1.701,2.25,1.391c1.643-0.402,3.304-0.702,5.282-1.11
		c-0.43-2.039-0.733-3.779-1.178-5.494C160.769,426.812,160.193,426.132,159.928,426.179z"/>
	<path fill="#3B4566" d="M162.292,388.423c0.914,1.118,1.859,3.226,2.681,3.17c1.324-0.086,2.562-1.567,3.813-2.502
		c2.919-2.196,2.833-2.124,0.185-4.864c-1.191-1.229-2.224-1.297-3.462-0.424c-1.476,1.047-2.893,2.186-4.435,3.362
		C161.57,387.668,161.96,388.02,162.292,388.423z"/>
	<path fill="#3B4566" d="M176.986,381.062c1.191,1.476,2.25,1.185,3.402,0.139c1.642-1.482,3.33-2.934,4.819-4.562
		c0.437-0.481,0.662-1.826,0.331-2.229c-1.259-1.51-2.761-2.82-4.224-4.157c-0.317-0.284-0.84-0.351-1.165-0.483
		c-0.291,0.142-0.463,0.181-0.583,0.278c-2.204,1.92-4.428,3.826-6.586,5.806c-0.186,0.172-0.105,0.959,0.132,1.213
		C174.365,378.436,175.821,379.626,176.986,381.062z"/>
	<path fill="#3B4566" d="M195.857,365.07c1.992-1.946,3.721-4.17,5.792-6.004c1.416-1.252,1.032-2.19,0.092-3.226
		c-1.283-1.401-2.681-2.707-4.023-4.062c-1.536-1.551-3.019-1.146-4.315,0.258c-2.15,2.33-4.217,4.746-6.514,7.334
		c2.317,2.099,4.547,4.223,6.924,6.176C194.149,365.825,195.406,365.5,195.857,365.07z"/>
	<path fill="#3B4566" d="M531.143,246.236c-0.621-0.02-1.237,0.04-1.92,0.066c-0.078,1.893-0.151,3.647-0.237,5.566
		c2.343,0.1,4.407,0.192,6.46,0.278C536.544,246.461,536.511,246.408,531.143,246.236z"/>
</g>
</svg>
