<?xml version="1.0" encoding="utf-8"?>
<!-- Generator: Adobe Illustrator 16.0.4, SVG Export Plug-In . SVG Version: 6.00 Build 0)  -->
<!DOCTYPE svg PUBLIC "-//W3C//DTD SVG 1.1//EN" "http://www.w3.org/Graphics/SVG/1.1/DTD/svg11.dtd">
<svg version="1.1" id="Layer_1" xmlns="http://www.w3.org/2000/svg" xmlns:xlink="http://www.w3.org/1999/xlink" x="0px" y="0px"
	 width="32px" height="32px" viewBox="0 0 32 32" enable-background="new 0 0 32 32" xml:space="preserve">
<path fill="#31999B" d="M30.434,31.851H1.565c-0.783,0-1.417-0.635-1.417-1.416V1.566c0-0.783,0.634-1.417,1.417-1.417h28.868
	c0.783,0,1.418,0.634,1.418,1.417v28.868C31.852,31.216,31.217,31.851,30.434,31.851"/>
<path fill="#FFFFFF" d="M21.432,23.81h-3.104l-1.739-6.75c-0.064-0.24-0.175-0.735-0.329-1.489
	c-0.155-0.752-0.245-1.258-0.269-1.516c-0.036,0.316-0.123,0.824-0.264,1.525c-0.141,0.7-0.249,1.198-0.325,1.497l-1.731,6.732
	h-3.094L7.299,10.96h2.681l1.643,7.014c0.288,1.295,0.496,2.418,0.624,3.365c0.036-0.334,0.117-0.85,0.243-1.551
	c0.126-0.699,0.244-1.244,0.355-1.629l1.872-7.199h2.574l1.873,7.199c0.082,0.322,0.186,0.814,0.309,1.475
	c0.123,0.662,0.217,1.232,0.281,1.705c0.059-0.457,0.152-1.025,0.281-1.709c0.127-0.682,0.246-1.234,0.352-1.656l1.635-7.014h2.68
	L21.432,23.81z"/>
</svg>
