<svg width="44" height="56" viewBox="0 0 44 56" xmlns="http://www.w3.org/2000/svg" xmlns:xlink="http://www.w3.org/1999/xlink"><title>map-marker - FontAwesome</title><defs><path d="M964 184c0-3.305-2.695-6-6-6s-6 2.695-6 6 2.695 6 6 6 6-2.695 6-6zm6 0c0 1.43-.164 2.906-.773 4.195l-8.532 18.141c-.492 1.031-1.57 1.664-2.695 1.664-1.125 0-2.203-.633-2.672-1.664l-8.555-18.14c-.609-1.29-.773-2.766-.773-4.196 0-6.633 5.367-12 12-12s12 5.367 12 12z" id="b"/><filter x="-62.5%" y="-41.7%" width="225%" height="183.3%" filterUnits="objectBoundingBox" id="a"><feOffset in="SourceAlpha" result="shadowOffsetOuter1"/><feGaussianBlur stdDeviation="5" in="shadowOffsetOuter1" result="shadowBlurOuter1"/><feComposite in="shadowBlurOuter1" in2="SourceAlpha" operator="out" result="shadowBlurOuter1"/><feColorMatrix values="0 0 0 0 0 0 0 0 0 0 0 0 0 0 0 0 0 0 0.1 0" in="shadowBlurOuter1"/></filter></defs><g transform="translate(-936 -162)" fill="none" fill-rule="evenodd"><use fill="#000" filter="url(#a)" xlink:href="#b"/><use fill="#242B45" xlink:href="#b"/><path stroke="#FFF" d="M964.5 184c0 3.58-2.92 6.5-6.5 6.5s-6.5-2.92-6.5-6.5 2.92-6.5 6.5-6.5 6.5 2.92 6.5 6.5zm5 0c0-6.357-5.143-11.5-11.5-11.5s-11.5 5.143-11.5 11.5c0 1.604.214 2.9.726 3.982l8.557 18.147c.377.83 1.261 1.371 2.217 1.371.955 0 1.844-.541 2.243-1.377l8.532-18.141c.51-1.082.725-2.378.725-3.982z"/></g></svg>