<?xml version="1.0" encoding="UTF-8"?>
<svg width="24px" height="36px" viewBox="0 0 24 36" version="1.1" xmlns="http://www.w3.org/2000/svg" xmlns:xlink="http://www.w3.org/1999/xlink">
    <!-- Generator: Sketch 47.1 (45422) - http://www.bohemiancoding.com/sketch -->
    <title>map-marker - FontAwesome</title>
    <desc>Created with Sketch.</desc>
    <defs>
        <path d="M964.000021,184.000014 C964.000021,180.695323 961.304706,178.000007 958.000014,178.000007 C954.695323,178.000007 952.000007,180.695323 952.000007,184.000014 C952.000007,187.304706 954.695323,190.000021 958.000014,190.000021 C961.304706,190.000021 964.000021,187.304706 964.000021,184.000014 Z M970.000029,184.000014 C970.000029,185.429704 969.835966,186.906268 969.22659,188.195332 L960.69533,206.335978 C960.203142,207.36723 959.125016,208.000043 958.000014,208.000043 C956.875013,208.000043 955.796887,207.36723 955.328136,206.335978 L946.773438,188.195332 C946.164063,186.906268 946,185.429704 946,184.000014 C946,177.367194 951.367194,172 958.000014,172 C964.632835,172 970.000029,177.367194 970.000029,184.000014 Z" id="path-1"></path>
    </defs>
    <g id="Pages" stroke="none" stroke-width="1" fill="none" fill-rule="evenodd">
        <g id="index" transform="translate(-946.000000, -1022.000000)">
            <g id="Map" transform="translate(0.000000, 850.000000)">
                <g id="map-marker---FontAwesome">
                    <use fill="#242B45" fill-rule="evenodd" xlink:href="#path-1"></use>
                    <path stroke="#FFFFFF" stroke-width="1" d="M964.500021,184.000014 C964.500021,187.580848 961.580848,190.500021 958.000014,190.500021 C954.41918,190.500021 951.500007,187.580848 951.500007,184.000014 C951.500007,180.41918 954.41918,177.500007 958.000014,177.500007 C961.580848,177.500007 964.500021,180.41918 964.500021,184.000014 Z M969.500029,184.000014 C969.500029,177.643336 964.356692,172.5 958.000014,172.5 C951.643336,172.5 946.5,177.643336 946.5,184.000014 C946.5,185.604222 946.714192,186.900082 947.225675,187.982068 L955.783319,206.129077 C956.160375,206.9586 957.044364,207.500043 958.000014,207.500043 C958.954595,207.500043 959.844155,206.958571 960.242868,206.123193 L968.774554,187.981642 C969.285837,186.900082 969.500029,185.604222 969.500029,184.000014 Z"></path>
                </g>
            </g>
        </g>
    </g>
</svg>