<?xml version="1.0" encoding="utf-8"?>
<!-- Generator: Adobe Illustrator 16.0.4, SVG Export Plug-In . SVG Version: 6.00 Build 0)  -->
<svg version="1.2" baseProfile="tiny" id="Layer_1" xmlns="http://www.w3.org/2000/svg" xmlns:xlink="http://www.w3.org/1999/xlink"
	 x="0px" y="0px" width="60px" height="70px" viewBox="0 0 60 70" xml:space="preserve">
<path fill="#FFFFFF" d="M54.463,12.414C48.497,2.641,35.769-0.235,25.282,2.655C13.974,5.771,4.506,15.862,2.707,27.485
	c-1.914,12.369,5.47,24.226,18.067,26.423c3.795,0.662,9.683,0.232,12.929-2.377c0.287,0.109,0.52,0.355,0.653,0.822
	c0.345,1.201,0.264,2.533,0.273,3.771c0.032,4.098-2.179,7.42-3.724,11.016c-0.17,0.396,0.008,0.766,0.284,0.959
	c0.2,0.234,0.508,0.375,0.894,0.289c4.096-0.924,7.315-4.629,9.719-7.846c3.059-4.096,4.893-9.09,3.809-14.127
	C55.254,38.055,61.765,24.372,54.463,12.414 M42.816,44.793c-0.395,0.342-0.547,1-0.395,1.488c1.479,4.721,0.381,8.471-2.203,12.574
	c-1.681,2.67-4.088,5.785-7.094,7.209c1.101-2.012,2.14-3.906,2.778-6.254c0.593-2.172,0.718-4.566,0.349-6.791
	c-0.15-0.91-0.67-3.229-2.061-3.109c-0.01,0-0.021,0.002-0.03,0.004c-0.148-0.064-0.321-0.066-0.494,0.055
	c-0.012,0.008-0.025,0.014-0.038,0.021c-0.691,0.137-1.341,0.42-1.867,0.85c-1.672,0.506-3.598,0.6-5.181,0.764
	c-2.542,0.262-4.873,0.105-7.347-0.598c-5.952-1.691-10.865-6.51-12.737-12.365C2.739,26.885,8.939,15.063,18.919,8.751
	c9.39-5.939,22.454-5.948,30.582,2.199C60.195,21.669,52.259,36.584,42.816,44.793"/>
<path fill="#FFFFFF" d="M33.563,15.848c-2.916,1.081-5.689,4.696-5.75,7.94c-0.212,0.559-0.396,1.15-0.475,1.73
	c-0.014,0.024-0.024,0.052-0.037,0.074c-0.254-0.294-0.495-0.645-0.669-0.84c-0.569-0.638-1.321-1.065-2.052-1.49
	c-1.999-1.166-3.989-1.607-6.269-1.229c-4.017,0.665-5.922,5.123-5.363,8.729c0.657,4.236,6.038,7.181,9.445,8.888
	c3.437,1.725,9.527,4.406,12.628,0.947c2.634-2.936,4.979-6.773,6.714-10.299c1.555-3.161,2.771-7.441,1.084-10.802
	C41.008,15.883,37.337,14.449,33.563,15.848 M38.683,30.541c-0.126-0.174-0.259-0.344-0.396-0.505
	c0.002-0.03-0.003-0.06-0.007-0.091c0.337-0.336,0.654-0.696,0.944-1.088c0.102,0.047,0.212,0.066,0.324,0.067
	C39.282,29.469,38.993,30.008,38.683,30.541 M20.229,35.217c0.214-0.104,0.432-0.238,0.652-0.412c0.534,0.176,1.09,0.369,1.631,0.58
	c-0.275,0.205-0.469,0.51-0.671,0.814C21.294,35.893,20.755,35.568,20.229,35.217 M19.304,31.994c0.8-1.236,1.506-1.404,2.119-0.489
	c0.059,0.061,0.121,0.117,0.183,0.173c-0.306,0.371-0.624,0.729-0.948,1.074c-0.461-0.186-0.912-0.391-1.341-0.641
	C19.312,32.072,19.308,32.033,19.304,31.994 M23.623,36.799c-0.102-0.064-0.187-0.129-0.27-0.203
	c0.043-0.066,0.08-0.135,0.115-0.203c0.135,0.301,0.283,0.586,0.444,0.854c-0.13-0.059-0.263-0.127-0.395-0.189
	C23.672,37.107,23.751,36.881,23.623,36.799 M39.808,21.278c0.025,0.598-0.056,1.209-0.152,1.781
	c-0.217-0.571-0.438-1.13-0.672-1.677C39.263,21.468,39.575,21.432,39.808,21.278 M35.982,21.878
	c0.313-0.217,0.617-0.442,0.905-0.676c0.15,0.324,0.297,0.653,0.438,0.987c-0.114-0.019-0.228-0.034-0.346-0.041
	C36.656,22.042,36.319,21.959,35.982,21.878 M37.178,28.187c0.126-0.795,0.18-1.592,0.062-2.388
	c-0.023-0.163-0.068-0.319-0.104-0.48c0.201-0.014,0.421-0.037,0.64-0.057c0.165,0.212,0.294,0.432,0.336,0.657
	c0.065,0.353,0.133,0.686,0.209,1.013c-0.055,0.096-0.111,0.193-0.169,0.288C37.833,27.55,37.509,27.872,37.178,28.187
	 M38.251,17.895c-0.4-0.204-0.801-0.278-1.198-0.27c-0.056-0.088-0.109-0.178-0.165-0.266c0.797,0.124,1.489,0.489,2.07,1.007
	c-0.096,0.083-0.187,0.181-0.265,0.307C38.696,18.36,38.572,18.059,38.251,17.895 M35.392,26.612
	c-0.348-0.138-0.779-0.274-1.264-0.401c0.409-0.151,0.814-0.319,1.201-0.496C35.369,26.005,35.39,26.304,35.392,26.612 M34.516,24.1
	c-0.866,0.288-1.789,0.471-2.42,0.623c-0.165,0.04-0.332,0.068-0.498,0.094c0.397-0.312,0.819-0.601,1.226-0.893
	c0.331-0.238,0.719-0.486,1.134-0.746c0.037,0.011,0.073,0.024,0.111,0.035c0.174,0.155,0.326,0.319,0.46,0.493
	C34.505,23.85,34.502,23.979,34.516,24.1 M31.137,22.792c-0.208,0.136-0.432,0.288-0.654,0.447c0.135-0.285,0.276-0.564,0.427-0.835
	C30.956,22.548,31.029,22.683,31.137,22.792 M29.848,32.314c-0.074,0.042-0.15,0.076-0.228,0.106
	c-0.043-0.426-0.123-0.864-0.232-1.308c0.197-0.16,0.422-0.304,0.661-0.432c0.411,0.257,0.758,0.503,1.062,0.757
	C30.661,31.782,30.233,32.101,29.848,32.314 M29.429,34.539c0.274-0.111,0.559-0.254,0.848-0.422
	c-0.235,0.367-0.413,0.727-0.503,1.062c-0.098-0.043-0.199-0.082-0.295-0.127c-0.031-0.021-0.062-0.041-0.093-0.064
	c-0.019-0.072-0.034-0.148-0.049-0.225C29.37,34.689,29.401,34.615,29.429,34.539 M26.71,32.374
	c-0.067,0.335-0.216,0.809-0.418,1.238c-0.114-0.013-0.223-0.021-0.35-0.042c0.059-0.392,0.435-1.006,0.766-1.285
	C26.709,32.313,26.709,32.342,26.71,32.374 M25.077,28.64c0.174,0.068,0.354,0.135,0.516,0.206c0.159,0.069,0.305,0.15,0.44,0.239
	c-0.332-0.147-0.674-0.256-1.01-0.319C25.041,28.724,25.062,28.68,25.077,28.64 M26.817,36.52c0.356-0.064,0.668-0.162,0.949-0.279
	c0.202,0.357,0.445,0.689,0.723,0.982c-0.359,0.453-0.57,1.039-0.434,1.564c-0.357-0.109-0.712-0.225-1.065-0.348
	c0.08-0.139,0.141-0.291,0.146-0.455C27.153,37.434,27.031,36.951,26.817,36.52 M29.703,39.201c0.001,0.006,0.003,0.01,0.004,0.012
	c-0.003,0-0.006,0-0.009,0C29.7,39.209,29.702,39.205,29.703,39.201 M30.37,28.386c-0.71-0.482-1.368-0.859-1.58-0.775
	c1.096-0.44,2.563-0.354,3.899-0.005C31.928,27.833,31.13,28.083,30.37,28.386 M35.189,28.872c-0.038,0.243-0.078,0.488-0.121,0.734
	c-0.106-0.05-0.221-0.084-0.346-0.086c-0.629-0.006-1.291,0.292-1.946,0.705c-0.079-0.073-0.154-0.153-0.238-0.221
	c-0.057-0.046-0.156-0.125-0.283-0.227C33.225,29.453,34.216,29.187,35.189,28.872 M34.693,31.97
	c-0.027,0.223-0.05,0.443-0.067,0.662c-0.047,0.024-0.091,0.058-0.136,0.086c-0.046-0.107-0.09-0.216-0.14-0.321
	C34.466,32.254,34.582,32.112,34.693,31.97 M33.155,36.037c-0.061,0.248-0.194,0.43-0.41,0.514
	c-0.047-0.035-0.096-0.066-0.145-0.098C32.789,36.328,32.976,36.188,33.155,36.037 M35.186,35.527
	c0.023,0.016,0.052,0.02,0.077,0.033c-0.027,0.035-0.054,0.072-0.079,0.109C35.183,35.623,35.187,35.572,35.186,35.527
	 M36.395,32.199c0.039-0.342,0.095-0.686,0.164-1.029c0.119-0.012,0.239-0.045,0.35-0.115c0.064-0.039,0.123-0.088,0.187-0.13
	c0.163,0.389,0.375,0.766,0.585,1.12c0.012,0.019,0.027,0.026,0.04,0.045c-0.171,0.259-0.346,0.516-0.521,0.771
	C37.108,32.511,36.863,32.256,36.395,32.199 M34.769,17.565c0.071-0.022,0.138-0.033,0.208-0.052
	c-0.378,0.351-0.757,0.697-1.134,1.044c0.06-0.193,0.042-0.4-0.044-0.581C34.118,17.812,34.442,17.671,34.769,17.565 M24.603,26.296
	c-0.064-0.016-0.126-0.039-0.189-0.052c0.012-0.031,0.006-0.066,0.006-0.101C24.483,26.192,24.54,26.246,24.603,26.296
	 M21.478,24.756c0.591,0.135,1.175,0.369,1.734,0.654c-1.125-0.379-2.352-0.328-3.457,0.045c-0.566-0.062-1.121-0.097-1.655-0.092
	c-0.639,0.007-1.075,0.756-0.877,1.288c-0.257-0.059-0.488-0.104-0.713-0.144C17.622,25.131,19.541,24.316,21.478,24.756
	 M16.373,31.641c-0.843-1.188-0.99-2.431-0.686-3.534c0.058,0.037,0.105,0.082,0.177,0.111c0.204,0.085,0.411,0.16,0.616,0.239
	c-0.347,0.954-0.347,2.056,0.171,3.225c0.108,0.245,0.241,0.408,0.392,0.505c0.193,0.358,0.45,0.693,0.737,0.991
	c0.007,0.031,0.017,0.056,0.022,0.087C17.27,32.75,16.777,32.211,16.373,31.641 M31.327,39.412c0.01-0.035,0.028-0.061,0.035-0.098
	c-0.001-0.086,0.01-0.385,0.002-0.412c-0.019-0.07-0.012-0.033-0.009-0.055c0.017-0.125,0.046-0.25,0.077-0.375
	c0.048-0.004,0.094,0.002,0.142-0.004c0.435,0.139,0.891,0.223,1.373,0.221C32.473,39.176,32,39.391,31.327,39.412"/>
<path fill="#FFFFFF" d="M31.375,39.238c-0.002,0.027-0.009,0.051-0.013,0.076C31.362,39.355,31.365,39.352,31.375,39.238"/>
</svg>
