<?xml version="1.0" encoding="utf-8"?>
<!-- Generator: Adobe Illustrator 16.0.4, SVG Export Plug-In . SVG Version: 6.00 Build 0)  -->
<svg version="1.2" baseProfile="tiny" id="Layer_1" xmlns="http://www.w3.org/2000/svg" xmlns:xlink="http://www.w3.org/1999/xlink"
	 x="0px" y="0px" width="1000px" height="1000px" viewBox="0 0 1000 1000" xml:space="preserve">
<g>
	<path fill="#FFFFFF" d="M309.751,152.121c3.775-2.036,7.583-3.896,11.418-5.801C317.345,148.214,313.535,150.08,309.751,152.121z"
		/>
	<path fill="#FFFFFF" d="M831.512,703.609c-8.077,10.484-16.542,20.879-25.518,31.159c-39.69,44.016-83.251,81.697-129.246,112.551
		c2.095-1.099,4.213-2.077,6.319-3.218C746.388,809.947,796.468,760.862,831.512,703.609z"/>
	<path fill="#FFFFFF" d="M322.048,145.885c0.001-0.001,0.003-0.002,0.004-0.003c-0.294,0.147-0.588,0.292-0.883,0.438
		C321.463,146.174,321.755,146.03,322.048,145.885z"/>
	<path fill="#FFFFFF" d="M103.649,656.078c1.262,0.202,2.523,0.493,3.841,0.773c-1.176-2.579-2.312-5.179-3.414-7.793
		c-1.015,0.082-2.278,0.364-3.872,0.805c-0.138,1.112-0.283,2.267-0.439,3.511c0.34,0.788,0.675,1.58,1.021,2.365
		C101.764,655.835,102.719,655.929,103.649,656.078z"/>
	<path fill="#FFFFFF" d="M682.754,415.087c-1.187-2.877-3.189-5.414-4.403-8.281c-1.304-3.05-3.5-3.123-5.849-2.114
		c-3.568,1.538-7.095,3.249-10.348,5.335c-1.309,0.837-2.945,3.291-2.559,4.285c1.705,4.41,4.102,8.543,6.754,13.769
		c5.821-3.222,10.912-5.859,15.755-8.888C682.911,418.692,683.221,416.228,682.754,415.087z"/>
	<path fill="#FFFFFF" d="M725.255,385.536c0.769,3.15,1.538,6.32,2.546,10.421c4.547-1.501,8.423-2.778,12.231-4.039
		c-1.25-3.238-2.245-5.774-3.488-8.976C733.179,383.716,729.591,384.537,725.255,385.536z"/>
	<path fill="#FFFFFF" d="M695.77,468.29c-3.809,2.197-7.312,4.939-11.215,6.953c-2.638,1.359-2.429,2.945-1.382,4.896
		c1.424,2.647,3.055,5.195,4.593,7.789c1.748,2.966,4.171,2.924,6.702,1.282c4.206-2.737,8.312-5.634,12.828-8.71
		c-2.728-4.118-5.32-8.24-8.205-12.147C698.678,467.788,696.635,467.793,695.77,468.29z"/>
	<path fill="#FFFFFF" d="M730.894,451.105c-1.251-2.726-2.993-2.689-5.163-1.538c-3.093,1.637-6.236,3.207-9.149,5.127
		c-0.863,0.564-1.727,2.537-1.372,3.285c1.334,2.804,3.141,5.394,4.849,8.009c0.377,0.56,1.158,0.863,1.597,1.193
		c0.507-0.1,0.79-0.095,1.005-0.199c4.134-2.087,8.274-4.148,12.346-6.335c0.355-0.193,0.534-1.433,0.271-1.915
		C733.885,456.154,732.122,453.753,730.894,451.105z"/>
	<path fill="#FFFFFF" d="M707.876,393.729c-0.68-3.814-2.799-3.155-5.263-2.014c-3.386,1.564-6.79,3.102-11.227,5.131
		c1.328,3.505,1.883,8.067,4.409,10.797c2.475,2.673,6.325-0.214,9.438-1.459c0.465-0.188,0.925-0.392,1.386-0.596
		c5.278-2.385,5.388-2.647,3.111-7.743C709.121,396.459,708.138,395.167,707.876,393.729z"/>
	<path fill="#FFFFFF" d="M322.077,145.869c-35.125,25.408-67.302,54.259-95.885,85.971c0.949-0.622,1.873-1.292,2.854-1.925
		c95.105-61.483,206.125-98.437,321.546-107.178c-31.118-7.612-62.777-12.729-94.635-15.694
		c-45.248,4.659-90.377,17.241-133.359,38.449c-0.181,0.131-0.364,0.259-0.544,0.39
		C322.061,145.877,322.069,145.873,322.077,145.869z"/>
	<path fill="#FFFFFF" d="M371.353,870.702c-2.365-0.784-4.726-1.597-7.077-2.433c81.639,29.096,172.503,31.29,258.182,2.177
		c-25.34,5.964-51.319,10.475-77.946,13.209C485.076,889.102,426.444,884.472,371.353,870.702z"/>
	<path fill="#FFFFFF" d="M478.908,105.391c4.405-0.188,8.811-0.329,13.213-0.373C487.727,105.06,483.319,105.201,478.908,105.391z"
		/>
	<path fill="#FFFFFF" d="M311.769,845.164c-3.322-1.319-6.714-2.485-10.002-3.881c-76.4-32.256-140.278-87.887-179.241-155.17
		c-0.377-0.152-0.754-0.309-1.132-0.457c-2.45-0.957-4.898-1.93-7.305-2.982c39.324,71.443,105.947,130.589,186.031,164.39
		c22.814,9.818,46.742,17.571,71.3,23.691c-18.654-6.262-36.873-13.887-54.432-22.886c2.335,1.173,4.678,2.327,7.033,3.463
		c-3.826-1.862-7.619-3.799-11.387-5.786c-0.172-0.068-0.346-0.134-0.518-0.202C312,845.282,311.884,845.225,311.769,845.164z"/>
	<path fill="#FFFFFF" d="M927.787,463.013c-0.895,8.062-2.045,16.104-3.503,24.109c-10.51,59.129-33.825,116.464-69.044,171.431
		c-0.064,0.145-0.132,0.287-0.197,0.432c-0.142,0.315-0.276,0.633-0.419,0.948c-0.016,0.022-0.03,0.046-0.046,0.068
		c-6.698,14.821-14.284,29.227-22.815,43.168c51.988-67.713,85.041-139.592,98.234-214.222c1.285-6.995,2.354-14.018,3.224-21.059
		C931.461,466.2,929.645,464.573,927.787,463.013z"/>
	<path fill="#FFFFFF" d="M989.937,465.789c-1.422-77.658-26.573-152.121-70.81-209.717c-5.598-7.355-11.437-14.25-17.453-20.778
		c-19.339-32.482-43.355-61.782-71.531-86.04c-24.139-22.008-51.346-40.125-80.777-54.291
		c-33.952-19.953-70.576-34.134-108.22-41.014c-67.411-13.121-138.634-5.122-209.227,23.054
		c-20.695,5.603-41.777,12.801-62.828,21.95c-45.609,2.82-96.46,11.284-145.946,30.619c18.605-17.184,38.73-32.26,60.168-44.9
		c116.64-71.203,280.294-74.112,437.885-7.841c1.555,0.632,3.199-0.172,3.628-1.758c0.438-1.648-0.456-3.448-2.01-4.08
		C563.596,4.017,398.046,7.066,280.051,79.117c-26.489,15.616-51.016,34.873-73.168,57.268
		c-42.792,18.978-83.973,46.632-118.997,86.462c-42.267,49.896-66.016,118.337-65.174,187.7
		c-0.068,20.842,1.993,42.473,5.765,64.675c-1.015,3.028-2.082,6.031-2.987,9.055c-17.399,56.369-20.188,115.565-8.13,171.22
		c11.724,55.18,38.95,109.151,78.688,156.024c87.912,100.901,200.688,140.686,279.896,156.249
		c96.562,17.854,197.833,10.153,292.671-22.218c98.688-33.448,178.544-93.315,230.936-173.109
		c30.869-47.039,50.891-99.468,59.501-153.486C980.123,572.822,990.933,520.211,989.937,465.789z M897.191,238.835
		c38.687,65.192,58.072,143.327,53.307,218.919c-3.865-14.245-8.799-28.37-14.484-42.347
		c-1.025-68.504-20.225-136.135-55.464-193.109C886.201,227.514,891.803,232.986,897.191,238.835z M640.748,60.148
		c12.601,2.328,25.115,5.467,37.467,9.359c-45.042-11.054-93.574-14.281-143.846-9.307c-14.142,0.92-28.945,2.443-44.192,4.682
		C541.273,52.317,592.033,50.633,640.748,60.148z M210.553,141.789c47.435-20.899,96.876-31.064,142.176-35.228
		c-24.121,11.729-47.989,26.172-71.078,43.891c-50.233,31.968-96.23,71.167-135.692,116.512
		c-12.513,14.25-24.085,28.913-34.728,43.891c7.811-25.142,17.718-49.473,29.751-72.674
		C159.799,201.891,183.334,169.436,210.553,141.789z M85.08,432.905c-9.382,37.572-12.96,75.607-10.651,112.489
		c-2.029,17.834-2.772,35.598-2.38,53.155c-15.852-36.812-27.391-72.365-34.569-106.426c5.883-28.223,14.368-54.562,24.354-78.684
		c9.17-16.934,19.178-32.879,30.033-47.746C87.991,387.812,85.715,410.306,85.08,432.905z M85.978,481.537
		c-2.281,9.447-4.339,18.957-6.126,28.545c0.628-15.876,2.401-31.868,5.158-47.866C85.19,468.656,85.53,475.102,85.978,481.537z
		 M86.691,362.131c2.911-5.268,5.898-10.457,8.87-15.395c-0.335,1.694-0.714,3.374-1.046,5.074
		C91.862,355.237,89.208,358.653,86.691,362.131z M99.958,355.095c11.138-14.417,22.892-27.898,34.992-40.317
		c-13.094,22.15-24.472,44.953-33.871,68.342c-3.217,8.056-6.002,16.143-8.631,24.315C93.913,389.815,96.44,372.343,99.958,355.095z
		 M103.021,340.997c0.808-3.406,1.674-6.785,2.561-10.185c16.478-25.267,32.559-45.313,44.809-59.276
		c23.776-27.308,50.022-52.35,78.088-75.001c-30.358,29.478-56.982,61.535-79.419,95.529
		C132.319,307.657,116.926,324,103.021,340.997z M92.331,227.368c30.496-34.622,65.739-59.951,102.639-78.287
		c-22.806,25.241-42.745,53.983-59.158,85.611c-15.088,29.112-26.941,60.076-35.406,92.066c-17.878,27.229-32.74,55.493-44.5,84.386
		c-9.178,17.069-16.973,34.59-23.518,52.538c-2.529-17.943-3.892-35.468-3.869-52.465C27.737,343.225,51.05,276.217,92.331,227.368z
		 M35.823,472.638c-0.388,1.601-0.78,3.259-1.154,4.881c-0.052-0.309-0.115-0.639-0.172-0.958
		C34.928,475.263,35.349,473.935,35.823,472.638z M894.669,768.447c-51.763,78.841-130.677,138.007-228.325,171.073
		c-94.091,32.152-194.372,39.79-289.906,22.081c-78.265-15.426-189.671-54.635-276.291-154.05
		C61.176,761.604,34.533,708.79,22.984,654.78c-11.67-54.17-9-111.767,7.741-166.7c0.246,1.23,0.575,2.475,0.826,3.709
		c-11.321,56.424-11.049,113.859,1.53,169.714c16.615,74.201,61.232,146.598,122.475,198.555
		c59.192,51.025,136.519,80.845,217.651,83.988c50.216,0.597,100.88-7.23,150.579-22.673
		c80.583-16.164,146.329-51.429,189.226-80.032c87.845-36.656,162.119-94.116,213.773-167.48
		c8.287-11.143,15.776-22.992,22.524-35.38C939.352,684.181,921.014,728.302,894.669,768.447z M587.77,897.085
		c22.259-10.061,44.199-21.699,65.669-34.773c9.658-2.851,19.179-5.885,28.588-9.2C655.781,868.537,623.976,884.336,587.77,897.085z
		 M953.391,616.524c-8.736,18.938-19.22,36.817-31.376,53.186c-45.153,64.116-107.775,115.896-181.684,152.154
		c105.033-79.266,177.933-185.33,206.447-301.026c2.198-8.826,4.007-17.768,5.479-26.759c-0.383-0.855-0.781-1.699-1.272-2.483
		c-1.179-1.872-2.313-3.783-3.462-5.681c-1.584,11.015-3.68,21.932-6.403,32.696c-29.935,121.706-109.755,232.762-224.607,312.597
		c-2.127,1.459-4.306,2.956-6.545,4.426c-11.612,4.839-23.483,9.191-35.539,13.276c0.772-0.523,1.536-1.078,2.32-1.59
		c-17.754,9.165-35.874,16.871-54.258,23.111c2.318-0.543,4.666-1.024,6.999-1.6c-34.924,19.47-70.9,35.022-107.43,46.401
		c-60.176,12.073-128.625,13.371-202.122-7.104c-80.123-23.646-147.476-71.706-189.688-135.37
		c-23.1-34.236-38.833-74.577-46.69-117.826c-2.396-2.633-4.778-5.276-7.154-7.927c7.426,47.404,24.079,91.718,49.243,129.001
		c43.098,65.03,111.77,114.063,193.401,138.123c52.287,14.6,102.039,18.267,148.148,14.961c-31.443,6.09-63.082,9.076-94.521,8.716
		c-79.768-3.071-155.624-32.409-213.788-82.52C98.733,804.37,54.998,733.396,38.796,660.661c-12.582-55.505-12.053-107.384-4-154.37
		c8.323,34.568,21.038,70.548,37.969,107.749c0.352,5.407,0.824,10.785,1.408,16.134c2.023,1.137,4.077,2.213,6.158,3.215
		c-0.366-3.075-0.699-6.161-0.987-9.258c0.334-0.011,0.69-0.053,1.02-0.215c1.433-0.638,1.935-2.443,1.192-4.027
		c-1.09-2.37-2.061-4.662-3.134-7c-0.713-11.703-0.884-23.515-0.481-35.391c3.364,21.188,8.734,41.835,16.103,61.628
		c2.334,0.864,4.68,1.699,7.027,2.522c-11.749-30.14-18.677-62.414-20.791-95.646c0.656-5.65,1.428-11.306,2.354-16.95
		c1.404-9.38,3.168-18.739,5.098-28.06c5.773,50.674,20.22,100.015,41.589,144.835c0.883-0.095,1.768-0.206,2.657-0.349
		c-5.779-14.324-10.664-28.829-14.7-43.444c-13.643-38.047-22.475-78.402-25.416-119.399c5.148-21.104,11.592-41.893,19.21-62.278
		c2.851-14.136,6.528-28.072,10.92-41.81c-12.529,27.26-23.042,55.384-31.079,84.167c-0.196-5.273-0.253-10.567-0.142-15.898
		c-0.034-4.132,0.032-8.281,0.142-12.424c4.111-16.223,9.212-32.361,15.532-48.269c12.43-30.886,28.268-60.84,47.053-89.403
		c3.905-3.631,7.829-7.015,11.755-10.468c4.214-6.633,8.621-13.188,13.267-19.582c-3.081,2.491-6.286,4.97-9.296,7.518
		c28.989-39.591,63.879-76.231,103.854-108.712c4.079-3.379,8.164-6.607,12.312-9.782c19.327-12.273,39.279-23.458,59.789-33.47
		c-21.522,13.884-41.96,29.075-61.4,45.35c8.436-5.404,17.01-10.614,25.973-15.453c4.259-2.297,8.542-4.505,12.846-6.629
		c15.744-11.374,32.047-22.117,48.994-32.02c5.42-3.129,10.902-6.153,16.374-9.05c6.814-0.205,13.486-0.314,19.968-0.294
		c16.042,0.294,32.048,1.418,48.024,2.915c7.652-0.793,15.31-1.322,22.951-1.651c-7.605,0.326-15.213,0.845-22.818,1.62
		c11.944-1.225,23.899-1.892,35.827-2.021c-28.007-4.203-56.256-6.617-84.562-7.123c-1.812,0.005-3.659,0.021-5.516,0.016
		c22.377-8.229,45.22-15.118,68.371-20.512c21.505-5.08,42.8-8.663,63.809-10.812c14.715-0.968,28.741-1.346,41.828-1.272
		c95.258-0.68,184.834,34.453,248.164,95.54c9.375,9.599,18.271,19.707,26.575,30.331c-36.305-25.015-74.098-40.166-104.543-49.205
		c-43.028-12.791-89.1-19.597-137.428-20.617c7.068,2.118,14.072,4.467,21.045,6.966c0.014,0.001,0.026,0.001,0.04,0.001
		c0.016,0.006,0.032,0.012,0.048,0.018c40.335,2.293,78.954,8.832,115.354,19.667c34.024,10.065,77.328,27.862,117.186,58.826
		c9.731,13.758,18.646,28.175,26.403,43.263c22.563,42.101,35.039,90.679,36.608,141.684
		c-34.506-70.403-91.533-134.928-162.502-182.791c2.039,1.879,4.055,3.788,6.059,5.715c0.279,0.268,0.557,0.536,0.835,0.804
		c1.439,1.394,2.87,2.8,4.291,4.219c1.808,1.796,3.594,3.618,5.367,5.455c0.15,0.155,0.302,0.309,0.451,0.464
		c2.805,2.915,5.583,5.862,8.3,8.881c-0.037-0.029-0.076-0.058-0.113-0.088c0.027,0.031,0.057,0.062,0.084,0.092
		c-0.028-0.032-0.059-0.062-0.088-0.095c-17.773-13.84-36.567-26.644-56.305-38.109c-50.868-29.923-105.086-52.811-161.094-68.347
		c-4.21,0.188-8.338,0.256-12.607,0.538c-116.835,7.738-229.371,44.686-325.488,106.875c-7.434,4.802-15.116,10.055-22.945,15.667
		c-42.034,50.744-75.389,107.833-98.184,168.59c-12.168,59.615-10.638,122.261,6.136,182.944
		c5.214,14.478,11.145,28.607,17.722,42.306c7.9-1.534,16.07-1.817,23.87-3.693c8.796-2.113,17.345-5.341,25.916-8.329
		c5.914-2.057,11.891-4.121,17.467-6.91c9.484-4.75,18.875-9.751,27.919-15.281c5.147-3.144,9.618-7.438,14.237-11.383
		c5.598-4.786,11.171-9.62,16.487-14.71c3.125-2.982,6.115-6.252,8.5-9.835c6.118-9.182,12.128-18.472,17.658-28.023
		c2.462-4.26,3.701-9.234,5.42-13.906c1.862-5.059,3.722-10.116,5.407-15.232c0.776-2.354,1.125-4.854,1.755-7.701
		c3.424,4.53,6.675,8.679,9.696,12.989c0.586,0.833,0.366,2.302,0.319,3.464c-0.029,0.722-0.463,1.422-0.679,2.145
		c-1.178,3.845-2.638,7.293,2.765,9.855c3.29,1.564,5.591,5.21,8.592,8.171c0.874-0.889,1.941-1.987,3.133-3.207
		c6.872,9.339,13.851,18.844,20.832,28.35c2.822,3.844,5.56,7.753,8.477,11.524c1.964,2.543,2.812,4.702-0.439,6.962
		c-2.605,1.82-2.179,3.82,0.089,5.834c2.061,1.83,4.054,3.777,5.828,5.886c3.081,3.655,4.381,3.918,8.624,0.972
		c0.784,1.36,1.462,2.794,2.377,4.06c1.407,1.951,1.206,3.657-0.155,5.562c-5.503,7.721-9.842,16.253-17.679,22.265
		c-5.228,4.007-9.649,9.055-14.483,13.585c-9.021,8.429-19.507,14.878-30.449,20.193c-12.04,5.844-24.799,10.227-37.289,15.149
		c-3.795,1.502-7.724,2.674-11.593,4.002c-8.789,1.826-17.58,3.651-26.369,5.477c-0.813-0.089-1.663-0.387-2.432-0.24
		c-12.691,2.401-25.438,3.386-38.385,2.711c-8.932-0.472-17.93,0.331-26.858-0.181c32.087,48.67,73.268,88.741,120.558,114.411
		c104.862,58.413,235.416,60.122,358.232,4.786c102.247-45.852,185.927-126.472,236.624-227.489
		c11.18-48.032,13.441-98.25,5.939-147.98c-2.249-0.411-4.553-0.685-6.924-0.787c-8.36-0.361-16.662-2.244-25.006-2.349
		c-9.051-0.104-18.121,0.921-27.161,1.715c-6.239,0.54-12.543,1.073-18.633,2.407c-10.368,2.281-20.692,4.823-30.823,7.957
		c-5.766,1.789-11.153,4.849-16.594,7.543c-6.603,3.265-13.193,6.582-19.597,10.207c-3.756,2.124-7.46,4.562-10.651,7.45
		c-8.193,7.396-16.296,14.93-24.001,22.829c-3.433,3.526-5.848,8.04-8.668,12.158c-3.052,4.442-6.094,8.878-8.982,13.438
		c-1.33,2.088-2.28,4.426-3.59,7.026c-2.201-5.236-4.34-10.049-6.214-14.968c-0.355-0.951,0.209-2.322,0.544-3.442
		c0.21-0.694,0.796-1.26,1.188-1.909c2.085-3.437,4.346-6.422-0.257-10.237c-2.815-2.318-4.144-6.418-6.325-10.028
		c-1.071,0.647-2.369,1.454-3.828,2.343c-4.364-10.74-8.795-21.668-13.23-32.602c-1.79-4.416-3.485-8.878-5.389-13.251
		c-1.283-2.945-1.57-5.252,2.135-6.644c2.971-1.119,3.049-3.165,1.344-5.67c-1.543-2.286-2.996-4.661-4.2-7.135
		c-2.093-4.306-3.29-4.876-8.13-3.066c-0.424-1.518-0.721-3.066-1.297-4.514c-0.891-2.235-0.277-3.84,1.505-5.352
		c7.23-6.137,13.54-13.346,22.611-17.248c6.053-2.595,11.57-6.408,17.373-9.605c10.812-5.963,22.562-9.641,34.479-12.105
		c13.109-2.71,26.553-3.824,39.863-5.529c4.047-0.523,8.15-0.697,12.22-1.031c8.971,0.382,17.938,0.774,26.91,1.16
		c0.764,0.283,1.517,0.78,2.296,0.827c12.896,0.785,25.488,2.971,37.87,6.801c8.715,2.705,17.821,4.132,26.507,6.92
		c3.666,1.183,7.307,2.504,10.9,3.945c-7.567-25.493-17.844-50.599-30.975-74.938c-15.294-28.354-33.629-54.001-54.269-76.908
		c60.416,47.148,108.438,106.703,137.334,170.643c0.004,3.516-0.085,7.062-0.211,10.614c-0.188,5.096-0.482,10.199-0.879,15.305
		c1.681,3.137,3.364,6.273,5.042,9.413c0.148-1.503,0.289-3.007,0.42-4.51c-0.067,1.615-0.154,3.229-0.241,4.844
		c1.785,3.341,3.561,6.687,5.317,10.041c0.51-6.583,0.859-13.174,1.029-19.766c3.521,9.678,6.773,19.424,9.405,29.217
		c1.313,4.959,2.418,9.951,3.546,14.919c-0.183,1.604-0.381,3.205-0.585,4.805c1.087,3.168,2.142,6.354,3.301,9.488
		c0.755,2.029,1.543,4.048,1.485,6.387c-0.128-0.272-0.251-0.547-0.374-0.823C959.523,535.415,959.672,576.411,953.391,616.524z
		 M706.076,696.292l-30.064-101.477l24.069-7.131l30.06,101.477L706.076,696.292z M731.944,704.441
		c3.35,1.868,5.57,4.666,6.681,8.386c1.062,3.6,0.701,6.983-1.077,10.165c-1.783,3.18-4.532,5.32-8.256,6.43
		c-3.725,1.099-7.23,0.806-10.52-0.869c-3.29-1.674-5.472-4.31-6.533-7.904c-1.099-3.725-0.764-7.281,1.025-10.672
		c1.787-3.396,4.545-5.645,8.269-6.749C725.128,702.166,728.602,702.569,731.944,704.441z M694.42,700.785
		c0.953,3.212,1.675,6.001,2.167,8.369c0.491,2.371,0.814,4.531,0.977,6.492c0.163,1.962,0.111,3.814-0.13,5.546
		c-0.256,1.742-0.653,3.594-1.191,5.551c-1.394,4.707-4.438,8.936-9.125,12.681c-4.687,3.745-10.683,6.696-18.006,8.866
		c-6.419,1.899-12.439,2.538-18.068,1.92c-5.63-0.611-10.274-2.391-13.938-5.325c-2.918-2.322-5.303-5.184-7.155-8.595
		c-1.841-3.406-3.694-8.25-5.561-14.543l-30.347-102.439l26.763-7.931l29.321,98.971l0.738,2.507
		c1.298,4.368,2.928,7.296,4.916,8.809c1.978,1.507,4.572,1.779,7.786,0.832c5.393-1.602,6.946-6.246,4.665-13.952l-30.289-102.245
		l26.188-7.759L694.42,700.785z M333.86,429.683l-26.575,7.879L266.9,301.228l26.575-7.873l16.314,55.07l3.711-61.003l25.995-7.7
		l-4.097,66.772l47.37,68.703l-27.535,8.156L313.04,359.4L333.86,429.683z M580.111,319.873l-30.295-102.247l26.198-7.758
		l30.29,102.247c0.953,3.212,1.663,6,2.159,8.364c0.486,2.371,0.821,4.536,0.979,6.498c0.163,1.962,0.114,3.814-0.13,5.546
		c-0.257,1.742-0.655,3.588-1.188,5.545c-1.395,4.708-4.437,8.94-9.123,12.681c-4.687,3.745-10.688,6.701-18.007,8.872
		c-6.418,1.9-12.438,2.538-18.078,1.921c-5.624-0.617-10.264-2.391-13.933-5.326c-2.924-2.323-5.303-5.189-7.149-8.595
		s-3.705-8.255-5.566-14.548l-30.347-102.44l26.768-7.931l29.316,98.976l0.743,2.5c1.293,4.369,2.93,7.298,4.912,8.81
		c1.983,1.507,4.577,1.784,7.784,0.837C580.838,332.224,582.392,327.579,580.111,319.873z M485.846,592.052l-16.56,4.908
		l-41.437-71.298l22.761,76.827l-22.916,6.789l-40.389-136.332l32.926-9.752l38.589,67.327l-4.12-77.538l32.735-9.699
		l40.388,136.334l-24.069,7.129l-22.762-76.831L485.846,592.052z M498.795,439.921l54.88-16.259l7.472,25.225l-28.499,8.443
		l7.418,25.032l28.499-8.438l7.471,25.22l-28.501,8.443l10.559,35.625l28.498-8.449l7.472,25.23l-54.888,16.26L498.795,439.921z
		 M506.501,267.952l2.511,8.469l-26.572,7.874l-3.366-11.357c-1.671-5.649-5.396-7.623-11.171-5.912
		c-5.909,1.753-7.813,6.168-5.715,13.24l1.334,3.799l18.409,62.137c1.486,5.017,3.246,8.38,5.289,10.087
		c2.04,1.705,4.731,2.061,8.066,1.071c2.954-0.874,4.761-2.427,5.425-4.671c0.664-2.239,0.436-5.723-0.691-10.457l-0.96-3.945
		l-0.055-0.193c-0.079-0.261-0.233-0.67-0.471-1.234c-0.237-0.566-0.429-1.109-0.58-1.623l-0.947-2.464l-0.23-0.78l-6.735,1.994
		l-6.508-21.945l33.128-9.815l10.378,35.045c1.79,6.037,2.804,10.792,3.078,14.276c0.259,3.479-0.147,6.917-1.236,10.312
		c-1.507,4.357-4.654,8.433-9.469,12.23c-4.818,3.804-10.682,6.728-17.618,8.778c-6.673,1.978-12.814,2.678-18.434,2.113
		c-5.616-0.57-10.339-2.385-14.177-5.44c-3.019-2.171-5.43-4.881-7.224-8.119c-1.797-3.238-3.607-7.941-5.433-14.104l-20.936-70.664
		c-3.646-12.326-3.463-22.05,0.573-29.181c4.03-7.125,12.403-12.576,25.11-16.338c6.936-2.055,13.876-2.646,20.838-1.777
		c3.167,0.318,5.937,1.071,8.315,2.249c2.373,1.182,4.521,2.888,6.435,5.111c1.917,2.229,3.63,5.068,5.139,8.533
		C503.519,258.714,505.016,262.946,506.501,267.952z M444.882,354.07c1.331,4.494,2.385,8.161,3.157,11.001
		c0.771,2.846,1.281,5.278,1.53,7.298c0.249,2.019,0.306,3.855,0.167,5.503c-0.144,1.648-0.442,3.584-0.897,5.817
		c-1.057,4.918-4.036,9.359-8.932,13.324c-4.902,3.966-11.585,7.203-20.06,9.715c-21.825,6.465-36.01-0.644-42.552-21.329
		l-3.502-11.111l-19.511-65.851c-3.306-11.169-2.743-20.345,1.696-27.522c4.433-7.178,12.942-12.634,25.524-16.357
		c6.928-2.057,13.255-2.742,18.974-2.062c5.715,0.679,10.402,2.714,14.059,6.099c1.352,1.276,2.568,2.663,3.641,4.154
		c1.075,1.497,2.137,3.316,3.186,5.446c1.049,2.134,2.072,4.662,3.079,7.575c0.999,2.914,2.132,6.487,3.388,10.724L444.882,354.07z
		 M406.821,674.556l32.798,110.72l20.022-5.927l7.585,25.607l-46.789,13.857l-40.383-136.328L406.821,674.556z M463.992,769.264
		l-30.347-102.445l26.764-7.926l29.319,98.972l0.743,2.506c1.295,4.362,2.927,7.303,4.913,8.805
		c1.982,1.511,4.577,1.783,7.787,0.836c5.393-1.601,6.947-6.245,4.662-13.946l-30.29-102.251l26.192-7.758l30.291,102.25
		c0.951,3.208,1.669,5.996,2.159,8.36c0.491,2.37,0.822,4.535,0.982,6.497c0.157,1.961,0.117,3.813-0.136,5.546
		c-0.257,1.741-0.648,3.593-1.186,5.551c-1.397,4.707-4.442,8.934-9.125,12.68c-4.682,3.74-10.687,6.701-18.001,8.867
		c-6.424,1.904-12.444,2.542-18.077,1.926c-5.628-0.618-10.271-2.396-13.933-5.332c-2.924-2.322-5.31-5.184-7.156-8.595
		C467.709,780.4,465.854,775.551,463.992,769.264z M523.713,675.324c-3.651-12.318-3.464-22.045,0.57-29.18
		c4.032-7.125,12.402-12.57,25.114-16.338c6.928-2.057,13.875-2.646,20.836-1.773c3.166,0.319,5.938,1.067,8.314,2.244
		c2.374,1.188,4.52,2.888,6.434,5.117c1.915,2.223,3.63,5.069,5.147,8.525c1.507,3.463,3.013,7.697,4.494,12.703l2.511,8.474
		l-26.575,7.873l-3.369-11.361c-1.669-5.65-5.393-7.623-11.169-5.907c-5.911,1.748-7.81,6.163-5.712,13.236l1.334,3.803
		l18.409,62.138c1.485,5.017,3.242,8.375,5.288,10.081c2.04,1.71,4.729,2.062,8.062,1.077c2.96-0.879,4.76-2.438,5.43-4.677
		c0.658-2.239,0.429-5.723-0.691-10.458l-0.957-3.939l-0.058-0.198c-0.078-0.256-0.241-0.67-0.471-1.235
		c-0.241-0.558-0.435-1.103-0.586-1.62l-0.94-2.465l-0.231-0.779l-6.736,1.998l-6.509-21.95l33.124-9.813l10.378,35.043
		c1.79,6.038,2.816,10.798,3.078,14.277c0.261,3.483-0.147,6.921-1.234,10.315c-1.508,4.358-4.656,8.433-9.469,12.232
		c-4.813,3.796-10.683,6.722-17.608,8.776c-6.681,1.979-12.828,2.679-18.436,2.108c-5.618-0.569-10.344-2.38-14.177-5.435
		c-3.023-2.177-5.431-4.886-7.23-8.119c-1.795-3.243-3.604-7.941-5.431-14.104L523.713,675.324z M961.986,596.002
		c3.918-40.072,1.648-80.735-7.163-120.482c8.048-72.736-6.485-148.815-39.266-214.76c42.803,56.268,67.182,128.794,68.552,204.465
		C984.915,511.103,977.214,555.658,961.986,596.002z"/>
	<path fill="#FFFFFF" d="M399.385,299.476c-1.216-4.106-2.725-6.843-4.52-8.193c-1.8-1.355-4.238-1.574-7.319-0.664
		c-5.906,1.752-7.792,6.22-5.663,13.414l19.053,64.313c1.75,5.907,3.543,9.736,5.394,11.488c1.846,1.757,4.504,2.124,7.97,1.099
		c5.649-1.674,7.368-6.23,5.163-13.68L399.385,299.476z"/>
	<path fill="#FFFFFF" d="M872.254,613.234c-51.947,91.411-131.452,164.346-226.935,207.175
		c-124.358,56.048-256.729,54.196-363.152-5.085c-49.476-26.877-92.455-69.163-125.567-120.5c-0.171-0.019-0.342-0.039-0.513-0.057
		c38.254,66.308,93.146,117.346,156.546,150.778c70.573,28.092,149.971,39.255,230.701,31.858
		c37.139-3.798,73.062-10.976,107.478-21.015c53.962-32.987,104.945-75.419,150.769-126.226
		c19.988-22.906,37.64-46.31,52.998-70.162c0.154-0.34,0.312-0.677,0.465-1.017C861.721,644.088,867.479,628.828,872.254,613.234z"
		/>
	<path fill="#FFFFFF" d="M364.276,868.27c-2.551-0.909-5.093-1.842-7.626-2.803C359.179,866.431,361.722,867.363,364.276,868.27z"/>
	<path fill="#FFFFFF" d="M753.382,439.633c-2.049-0.382-4.535,1.412-6.805,2.36c-5.335,2.223-5.169,2.15-2.176,7.375
		c1.343,2.349,2.909,2.856,5.136,1.993c2.668-1.03,5.278-2.223,8.1-3.431c-0.55-0.968-1.017-1.654-1.372-2.396
		C755.302,443.462,754.67,439.869,753.382,439.633z"/>
	<path fill="#FFFFFF" d="M570.502,121.632c12.837-0.528,25.527-0.554,38.077-0.297c-37.661-11.221-77.014-16.779-116.662-16.345
		c0.068,0.01,0.136,0.019,0.204,0.029C518.512,108.988,544.68,114.518,570.502,121.632z"/>
	<path fill="#FFFFFF" d="M590.224,127.418c49.875,15.39,98.182,36.635,143.818,63.461c9.773,5.691,19.298,11.713,28.595,18.006
		c8.799,8.069,17.239,16.586,25.346,25.533c0.001,0.001,0.003,0.001,0.004,0.002c-2.689-2.979-5.419-5.91-8.187-8.793
		c-0.149-0.156-0.301-0.309-0.451-0.464c-1.771-1.84-3.563-3.654-5.367-5.455c-1.424-1.415-2.848-2.829-4.291-4.219
		c-0.278-0.269-0.557-0.536-0.835-0.804c-2.044-1.956-4.103-3.892-6.182-5.8c0.041,0.028,0.082,0.057,0.123,0.085
		c-38.916-35.881-84.285-63.087-133.049-80.65c-0.013,0-0.026-0.001-0.039-0.002c-0.016-0.006-0.032-0.012-0.049-0.017
		C616.662,127.601,603.529,127.276,590.224,127.418z"/>
	<path fill="#FFFFFF" d="M753.633,381.063c0.057,0.957-0.067,1.747,0.152,2.438c1.244,3.923,2.851,7.757,3.794,11.739
		c1.708,7.287,2.767,14.741,4.629,21.987c2.061,7.972,4.708,15.793,7.135,23.666c0.946,3.066,2.564,3.348,4.442,1.397
		c-5.426-20.999-10.756-41.677-16.087-62.352C755.889,380.44,754.936,380.697,753.633,381.063z"/>
	<path fill="#FFFFFF" d="M250.711,608.149c1.443,1.768,2.945,5.095,4.245,5.012c2.087-0.137,4.049-2.48,6.021-3.955
		c4.619-3.469,4.48-3.354,0.295-7.689c-1.878-1.947-3.516-2.052-5.469-0.67c-2.336,1.658-4.573,3.452-7.013,5.314
		C249.573,606.962,250.188,607.517,250.711,608.149z"/>
	<path fill="#FFFFFF" d="M269.094,670.003c-0.285-0.919-0.367-1.715-0.743-2.332c-2.168-3.5-4.671-6.817-6.557-10.447
		c-3.458-6.644-6.304-13.611-9.893-20.177c-3.952-7.219-8.438-14.15-12.723-21.192c-1.671-2.735-3.311-2.614-4.648-0.262
		c10.41,19.027,20.658,37.759,30.901,56.499C267.062,671.165,267.917,670.673,269.094,670.003z"/>
	<path fill="#FFFFFF" d="M223.702,635.086c2.179-0.498,4.273-1.388,6.354-2.239c0.636-0.263,1.663-1.037,1.584-1.329
		c-0.685-2.631-1.248-5.404-2.613-7.669c-0.424-0.696-3.327-0.309-4.889,0.199c-2.21,0.717-4.229,2.008-6.173,2.976
		c0.981,2.495,1.724,4.891,2.898,7.052C221.232,634.756,222.839,635.284,223.702,635.086z"/>
	<path fill="#FFFFFF" d="M303.771,571.236c3.151-3.07,5.879-6.586,9.16-9.488c2.23-1.973,1.634-3.453,0.141-5.091
		c-2.026-2.224-4.234-4.284-6.358-6.424c-2.428-2.454-4.766-1.815-6.819,0.403c-3.403,3.682-6.673,7.502-10.292,11.597
		c3.654,3.316,7.18,6.676,10.933,9.757C301.075,572.435,303.058,571.922,303.771,571.236z"/>
	<path fill="#FFFFFF" d="M207.772,682.083c0.923,3.704,2.069,4.828,5.883,3.824c5.747-1.527,5.553-1.256,4.941-5.843
		c-0.55-4.149-2.514-4.86-5.74-3.438C209.504,677.082,206.556,677.176,207.772,682.083z"/>
	<path fill="#FFFFFF" d="M273.94,596.515c1.884,2.333,3.561,1.878,5.383,0.226c2.595-2.345,5.255-4.642,7.611-7.215
		c0.693-0.758,1.052-2.889,0.521-3.52c-1.983-2.392-4.36-4.463-6.667-6.571c-0.505-0.456-1.334-0.56-1.839-0.77
		c-0.467,0.22-0.74,0.283-0.92,0.44c-3.494,3.033-7.005,6.052-10.413,9.175c-0.298,0.271-0.166,1.517,0.206,1.921
		C269.8,592.361,272.102,594.249,273.94,596.515z"/>
	<path fill="#FFFFFF" d="M888.042,583.395c19.136-38.342,32.211-79.599,38.643-121.297c-1.739-1.421-3.524-2.785-5.333-4.123
		c-6.202,41.914-19.252,83.443-38.572,122.046c-1.126,2.333-2.344,4.566-3.464,6.837c-2.05,8.883-4.403,17.703-7.073,26.43
		C877.788,603.514,883.135,593.579,888.042,583.395z"/>
	<path fill="#FFFFFF" d="M308.646,634.682c-4.525,3.61-4.567,3.887-1.115,8.266c0.934,1.193,2.208,2.213,2.807,3.543
		c1.601,3.524,3.497,2.363,5.6,0.658c2.898-2.354,5.82-4.677,9.618-7.727c-2.142-3.075-3.798-7.366-6.919-9.39
		c-3.057-1.983-6.081,1.762-8.791,3.729C309.44,634.055,309.043,634.368,308.646,634.682z"/>
	<path fill="#FFFFFF" d="M154.74,657.695c-0.518-2.485-0.978-4.692-1.469-7.047c-2.718,0.56-5.266,1.094-7.866,1.633
		c0.523,2.504,0.997,4.802,1.462,7.051C149.661,658.747,152.211,658.219,154.74,657.695z"/>
	<path fill="#FFFFFF" d="M190.87,687.398c0.96-0.21,1.883-0.539,2.917-0.843c-0.615-2.939-1.174-5.65-1.794-8.631
		c-3.625,0.764-6.833,1.423-10.008,2.087C182.508,689.15,182.579,689.214,190.87,687.398z"/>
	<path fill="#FFFFFF" d="M176.453,653.211c2.077-0.339,4.183-0.945,6.042-1.898c0.911-0.465,1.98-2.108,1.779-2.925
		c-0.452-1.893-1.666-5.132-2.524-5.121c-3.235,0.053-6.453,1.188-9.474,1.873c0.808,2.855,1.143,4.729,1.893,6.414
		C174.518,652.333,175.775,653.326,176.453,653.211z"/>
	<path fill="#FFFFFF" d="M209.384,641.415c-0.667-8.982-1.213-9.354-9.487-6.163c-0.683,0.263-1.329,0.681-1.912,1.131
		c-0.353,0.266-0.86,0.831-0.774,1.087c0.968,2.899,2.038,5.766,3.105,8.69C203.629,644.429,206.475,642.938,209.384,641.415z"/>
	<path fill="#FFFFFF" d="M279.614,656.136c2.011,2.83,3.594,5.049,5.585,7.842c3.071-1.569,6.351-3.254,10.313-5.284
		c-1.522-2.866-3.05-5.742-5.03-9.479C286.444,651.783,282.997,653.975,279.614,656.136z"/>
	<path fill="#FFFFFF" d="M804.498,423.432c-1.56,8.872-1.119,9.37,7.684,8.307c0.728-0.088,1.455-0.339,2.131-0.623
		c0.406-0.172,1.034-0.601,1.019-0.868c-0.224-3.049-0.564-6.089-0.872-9.191C810.817,421.93,807.694,422.668,804.498,423.432z"/>
	<path fill="#FFFFFF" d="M811.278,379.259c-5.944,0.062-5.688-0.146-6.216,4.451c-0.492,4.149,1.246,5.326,4.713,4.745
		c3.365,0.377,6.247,1.005,6.273-4.049C816.059,380.587,815.226,379.216,811.278,379.259z"/>
	<path fill="#FFFFFF" d="M783.791,388.932c0.54-0.021,1.413-1.371,1.497-2.177c0.178-1.868-0.146-3.792-0.036-5.67
		c0.13-2.192-0.821-2.992-2.904-3.008c-2.678-0.021-5.347-0.208-8.53-0.346c-0.138,3.28-0.341,6.079-0.331,8.878
		c0,0.685,0.628,1.957,1.047,1.993C777.613,388.884,780.711,389.036,783.791,388.932z"/>
	<path fill="#FFFFFF" d="M839.316,420.083c-2.098-0.178-4.288-0.11-6.319,0.361c-1.005,0.226-2.438,1.554-2.447,2.396
		c-0.021,1.946,0.356,5.383,1.191,5.583c3.15,0.748,6.546,0.435,9.643,0.518c-0.079-2.971,0.058-4.871-0.257-6.69
		C840.981,421.413,839.998,420.141,839.316,420.083z"/>
	<path fill="#FFFFFF" d="M789.065,426.048c-2.239-0.047-4.489,0.303-6.708,0.617c-0.68,0.094-1.861,0.596-1.861,0.895
		c0.016,2.72-0.124,5.55,0.649,8.077c0.24,0.78,3.149,1.12,4.786,1.005c2.316-0.146,4.589-0.9,6.712-1.366
		c-0.334-2.663-0.466-5.163-1.078-7.543C791.378,426.979,789.95,426.074,789.065,426.048z"/>
	<path fill="#FFFFFF" d="M335.751,626.558c2.017,2.638,4.164,2.166,6.186,0.607c3.082-2.359,6.084-4.886,8.729-7.71
		c1.059-1.131,2.042-3.915,1.425-4.777c-2.739-3.855-6.076-7.275-9.929-11.691c-4.85,4.552-9.142,8.359-13.097,12.491
		c-0.651,0.681-0.342,3.14,0.39,4.134C331.308,622.106,333.869,624.078,335.751,626.558z"/>
	<path fill="#FFFFFF" d="M866.677,397.474c0.105-2.343,0.209-4.693,0.323-7.392c-2.866-0.125-5.48-0.235-8.395-0.36
		C856.381,397.212,857.806,398.578,866.677,397.474z"/>
	<path fill="#FFFFFF" d="M833.74,383.402c-0.982-0.031-1.962,0.062-3.043,0.104c-0.12,2.998-0.241,5.765-0.373,8.804
		c3.699,0.152,6.973,0.299,10.217,0.434C842.267,383.763,842.221,383.68,833.74,383.402z"/>
	<path fill="#FFFFFF" d="M861.163,428.266c2.774,0.115,5.378,0.23,8.025,0.346c0.114-2.559,0.214-4.897,0.313-7.194
		c-2.852-0.12-5.456-0.235-8.036-0.35C861.362,423.604,861.258,425.854,861.163,428.266z"/>
	<path fill="#FFFFFF" d="M165.211,687.382c0.311-7.805-1.397-8.782-9.733-5.534c0.049,0.235,0.098,0.474,0.147,0.71
		c1.233,2.028,2.488,4.036,3.751,6.037C161.3,688.192,163.184,687.802,165.211,687.382z"/>
	<path fill="#FFFFFF" d="M246.984,667.828c-3.052,0.477-6.092,1.088-9.053,1.945c-0.525,0.151-1.035,1.68-0.917,2.479
		c0.279,1.857,1.075,3.636,1.428,5.493c0.409,2.151,1.533,2.694,3.558,2.203c2.595-0.639,5.229-1.114,8.352-1.764
		c-0.674-3.217-1.167-5.974-1.862-8.678C248.312,668.833,247.403,667.755,246.984,667.828z"/>
</g>
</svg>
