<?xml version="1.0" encoding="utf-8"?>
<!-- Generator: Adobe Illustrator 16.0.4, SVG Export Plug-In . SVG Version: 6.00 Build 0)  -->
<!DOCTYPE svg PUBLIC "-//W3C//DTD SVG 1.1//EN" "http://www.w3.org/Graphics/SVG/1.1/DTD/svg11.dtd">
<svg version="1.1" id="Layer_1" xmlns="http://www.w3.org/2000/svg" xmlns:xlink="http://www.w3.org/1999/xlink" x="0px" y="0px"
	 width="160px" height="140px" viewBox="0 0 160 140" enable-background="new 0 0 160 140" xml:space="preserve">
<path fill="#FFFFFF" d="M154.277,106.74c-0.004-6.409-0.395-12.764-0.977-19.149c-1.095-12.021-2.71-24.019-2.191-36.142
	c0.302-7.032,1.129-15.125-4.588-20.369c-3.176-2.915-7.576-3.497-11.676-3.933c-6.486-0.691-13.08,0.132-19.465,1.271
	c-12.753,2.275-25.498,6.179-37.682,10.506c-10.275,3.651-21.646,6.174-32.669,7.251c0.014-0.094,0.037-0.179,0.042-0.279
	c0.306-5.597-0.408-11.11-1.106-16.653c-0.658-5.211-0.562-10.574-1.425-15.74c-1.103-6.579-4.598-13.752-11.847-8.901
	c-7.666,5.131-14.299,11.983-19.117,19.835c-1.832,2.454-3.438,4.984-4.729,7.537c-1.71,3.381-2.639,7.431-1.176,10.79
	c0.247,3.466,0.941,7.063,1.304,10.349c0.737,6.686,1.612,13.377,1.436,20.12C8.252,79.42,7.39,85.544,7.711,91.743
	c0.33,6.366,1.692,12.739,3.026,18.954c2.053,9.555,2.474,20.951,12.863,25.05c4.054,1.601,8.935,1.153,13.188,1.056
	c6.276-0.146,12.539,0.413,18.819,0.082c6.031-0.318,11.989-1.634,17.951-2.527c6.623-0.99,13.256-1.332,19.85-2.625
	c11.836-2.321,22.83-7.024,34.388-10.207c5.097-1.402,10.114-1.534,15.343-1.129c2.978,0.231,7.865,1.492,10.252-0.883
	C156.518,116.398,154.277,110.396,154.277,106.74 M133.05,33.79c0.06-0.227,0.204-0.475,0.359-0.731
	c4.016,0.142,8.258,0.959,10.342,4.226c1.851,2.903,1.498,7.087,1.487,10.366c0,0.249,0.009,0.494,0.009,0.742
	c-3.304-1.701-7.661-2.647-11.079-3.157c0.4-2.337-0.855-5.213-1.223-7.422C132.729,36.501,132.713,35.079,133.05,33.79
	 M128.473,33.112c-0.496,1.416-0.58,3.004-0.5,4.639c0.094,1.82,0.176,4.728,0.892,6.939c-2.271-0.128-4.554-0.122-6.839-0.006
	c-0.086-0.207-0.168-0.415-0.234-0.628c-0.455-1.44-0.695-2.959-0.948-4.445c-0.319-1.866-0.571-3.828-1.157-5.659
	C122.592,33.517,125.52,33.218,128.473,33.112 M109.279,36.054c2.205-0.548,4.423-1.04,6.646-1.463
	c-0.116,2.345,0.128,4.721,0.437,7.031c0.143,1.06,0.254,2.309,0.525,3.492c-2.402,0.277-4.799,0.645-7.188,1.082
	c0.207-1.811-0.426-3.927-0.706-5.666c-0.226-1.398-0.491-2.812-0.778-4.214C108.568,36.229,108.926,36.142,109.279,36.054
	 M104.375,37.265c-0.021,0.831,0.037,1.667,0.156,2.564c0.267,1.966,0.464,3.93,0.552,5.913c0.022,0.533,0.063,0.963,0.153,1.34
	c-2.99,0.639-5.955,1.345-8.875,2.059c-0.215-1.118-0.498-2.229-0.696-3.313c-0.255-1.393-0.399-2.794-0.603-4.195
	c-0.09-0.617-0.063-1.295-0.138-1.94C98.061,38.833,101.221,38.043,104.375,37.265 M89.361,41.314c0.512-0.16,1.029-0.3,1.543-0.454
	c-0.168,1.297-0.041,2.714,0.053,3.709c0.168,1.824,0.298,3.85,0.624,5.772c-2.289,0.591-4.569,1.209-6.843,1.857
	c-0.274-3.047,0.281-6.171-0.528-9.085C85.927,42.475,87.643,41.853,89.361,41.314 M97.113,54.546
	c0.031,1.441,0.279,2.911,0.402,4.178c0.476,4.972,0.851,9.958,1.441,14.918c0.609,5.139,1.484,10.236,1.982,15.389
	c0.449,4.636-0.086,10.408,1.414,14.908c-4.041,0.965-8.08,1.961-12.125,2.957c-11.235,2.768-22.5,4.811-33.917,6.287
	c-0.036-0.099-0.06-0.193-0.105-0.293c-1.577-3.297-0.735-7.981-0.702-11.529c0.062-6.191-1.059-12.631-1.576-18.809
	c-0.439-5.219-1.882-10.377-2.815-15.55c10.166-1.82,19.954-5.488,29.881-8.255C86.307,57.268,91.689,55.825,97.113,54.546
	 M72,47.089c2.836-0.604,5.626-1.547,8.396-2.561c0.002,0.01,0.003,0.02,0.003,0.03c0.111,1.166-0.282,2.559-0.399,3.728
	c-0.164,1.619-0.401,3.58-0.06,5.312c-2.122,0.632-4.244,1.272-6.364,1.914c-0.25-1.185-0.604-2.371-0.83-3.521
	c-0.326-1.634-0.629-3.245-1.079-4.828C71.775,47.138,71.889,47.113,72,47.089 M67.981,47.962c0.055,1.57,0.248,3.122,0.465,4.7
	c0.165,1.203,0.207,2.831,0.555,4.232c-2.893,0.866-5.788,1.716-8.697,2.52c-0.008-0.013-0.013-0.025-0.021-0.039
	c-1.765-2.77-1.041-6.321-1.731-9.408C61.711,49.333,64.852,48.646,67.981,47.962 M54.778,50.686
	c-0.034,0.34-0.064,0.671-0.068,0.958c-0.003,1.309,0.082,2.634,0.153,3.941c0.087,1.564,0.232,3.514,1.022,4.999
	c-0.725,0.186-1.446,0.382-2.173,0.559c-1.897,0.462-3.802,0.832-5.712,1.132c0.247-3.174-0.141-7.214-1.324-10.358
	C49.384,51.602,52.084,51.173,54.778,50.686 M42.805,52.289c0.169,1.254,0.429,2.507,0.593,3.735
	c0.308,2.28,0.285,4.512,0.332,6.789c-2.55,0.244-5.11,0.361-7.688,0.343c-1.191-3.531-1.888-7.068-2.4-10.724
	c0.879,0.033,1.757,0.058,2.632,0.07C38.456,52.53,40.633,52.45,42.805,52.289 M39.153,42.225c0.181-0.362,0.345-0.726,0.494-1.09
	c0.055,1.581,0.049,3.167-0.046,4.761c-0.014,0.246,0.004,0.471,0.043,0.684c-1.792,0.092-3.585,0.114-5.377,0.077
	c0.207-0.637,0.331-1.351,0.387-2.115c0.458,0.319,0.989,0.477,1.53,0.456C37.864,45.378,39.246,43.777,39.153,42.225 M35.843,8.68
	c1.047,1.751,1.486,3.83,1.685,5.974c-0.746-2.053-1.878-3.992-3.063-5.768c-0.16-0.243-0.35-0.437-0.548-0.604
	C34.678,7.932,35.382,7.913,35.843,8.68 M33.823,25.874c0.162,1.416,0.383,2.826,0.592,4.236c-0.387,0.195-0.747,0.498-1.044,0.931
	c-0.139,0.199-0.282,0.409-0.432,0.623c-0.489-1.403-1.002-2.767-1.658-3.959c0.742-1.244,1.533-2.46,2.341-3.665
	C33.684,24.636,33.75,25.246,33.823,25.874 M31.463,16.836c0.122,0.328,0.244,0.658,0.368,0.99c-1.151,1.18-2.275,2.386-3.383,3.604
	C29.471,19.912,30.476,18.382,31.463,16.836 M27.244,43.754c0.63,0.089,1.29,0.181,1.968,0.258c-0.01,0.06-0.015,0.121-0.024,0.18
	c-0.022,0.142-0.03,0.252-0.024,0.341c-1.037-0.06-2.104-0.299-3.159-0.616C26.41,43.929,26.823,43.869,27.244,43.754
	 M27.163,38.045c0.055-0.632,0.151-1.259,0.328-1.875c0.07-0.325,0.157-0.645,0.253-0.964c0.138,0.451,0.278,0.9,0.406,1.352
	c0.058,0.201,0.109,0.406,0.162,0.609C27.937,37.492,27.552,37.788,27.163,38.045 M29.688,52.2
	c-0.085,3.546,0.531,7.339,1.587,10.748c-2.354-0.219-4.643-0.623-6.903-1.127c-0.051-0.483-0.259-0.976-0.648-1.456
	c-0.823-1.014-0.88-2.997-1.016-4.23c-0.18-1.595-0.161-3.273-0.307-4.912C24.802,51.69,27.244,51.999,29.688,52.2 M17.854,25.736
	c0.793-1.217,1.893-2.498,2.41-3.866c0.07-0.19,0.17-0.521,0.287-0.917c2.872-3.302,5.938-6.469,9.171-9.393
	c0.036,0.133,0.071,0.267,0.11,0.402c-0.101,0.057-0.197,0.121-0.291,0.197c-6.319,5.184-9.662,13.291-15.39,18.98
	C15.324,29.158,16.86,27.265,17.854,25.736 M22.184,36.996c-0.044,0.321-0.08,0.643-0.1,0.965c-0.207-0.029-0.416-0.059-0.622-0.089
	c-0.03-0.004-0.061-0.009-0.091-0.013C21.651,37.583,21.92,37.293,22.184,36.996 M14.34,36.066c-0.101,0.381-0.18,0.769-0.25,1.163
	c-0.847,0.096-1.676,0.298-2.48,0.652C12.585,37.34,13.484,36.723,14.34,36.066 M10.202,40.414
	c-0.367-0.749-0.484-1.596-0.411-2.498c0.511,0.27,1.142,0.307,1.736,0.004C10.685,38.315,10.136,39.449,10.202,40.414
	 M12.428,55.536c-0.382-2.575-0.818-5.145-1.292-7.705c2.259,1.098,4.789,1.815,7.11,2.428c-0.208,1.565-0.174,3.207-0.134,4.734
	c0.043,1.564,0.063,3.58,0.494,5.386c-1.54-0.415-3.086-0.84-4.648-1.245c-0.19-0.666-0.649-1.067-1.167-1.215
	C12.669,57.122,12.545,56.326,12.428,55.536 M20.998,126.121c-2.089-3.293-2.792-7.745-3.505-11.846
	c1.364,0.812,2.814,1.484,4.094,2.104c0.781,0.38,1.58,0.703,2.385,1.001c-0.41,2.926,0.596,6.213,1.165,8.98
	c0.184,0.886,0.257,2.127,0.434,3.365C23.774,129.085,22.181,127.986,20.998,126.121 M34.633,130.525
	c-1.535,0.051-3.123,0.098-4.678,0.008c-0.228-1.385-0.671-2.793-0.963-4.016c-0.634-2.646-1.116-5.474-1.84-8.156
	c2.524,0.632,5.117,0.979,7.726,1.16c0.007,2.981,0.521,6.082,0.952,8.976c0.074,0.512,0.058,1.237,0.062,2.015
	C35.473,130.52,35.052,130.516,34.633,130.525 M40.288,130.521c-0.065-1.359-0.344-2.723-0.591-4.082
	c-0.394-2.176-0.607-4.535-1.137-6.746c0.034,0.002,0.065,0.002,0.1,0.005c2.354,0.054,4.729,0.018,7.112-0.095
	c0.052,1.153,0.373,2.367,0.551,3.354c0.318,1.771,0.507,3.61,0.726,5.396c0.1,0.822,0.104,1.596,0.157,2.345
	C44.899,130.65,42.593,130.57,40.288,130.521 M16.555,109.583c-1.321-5.892-2.45-11.822-2.98-17.841
	c-0.544-6.149,0.456-12.364,0.64-18.512c0.095-3.259-0.204-6.562-0.633-9.847c9.501,4.789,21.7,5.466,31.947,4.42
	c0.141-0.014,0.28-0.035,0.42-0.05c-0.025,5.969,1.812,12.02,2.301,17.938c0.476,5.76,1.398,11.675,1.267,17.455
	c-0.083,3.58-0.287,7.33,0.803,10.762c-0.615,0.068-1.229,0.145-1.848,0.21C37.627,115.27,26.228,114.939,16.555,109.583
	 M51.558,130.713c0.096-2.061-0.589-4.376-0.91-6.206c-0.25-1.418-0.469-3.42-0.941-5.149c2.691-0.209,5.394-0.496,8.089-0.847
	c-0.181,1.523,0.134,3.148,0.261,4.691c0.188,2.325,0.554,4.69,0.725,7.006C56.393,130.479,53.991,130.67,51.558,130.713
	 M70.327,128.555c-2.453,0.362-4.887,0.756-7.321,1.105c-0.2-1.689-0.537-3.395-0.766-5.075c-0.277-2.067-0.424-4.463-1.04-6.552
	c2.988-0.441,5.964-0.938,8.909-1.475c-0.087,2.064,0.072,4.195,0.284,6.127c0.19,1.767-0.015,3.893,0.2,5.83
	C70.505,128.527,70.417,128.541,70.327,128.555 M83.146,126.766c-2.691,0.383-5.399,0.752-8.118,1.127
	c-0.106-2.312-0.565-4.695-0.967-6.865c-0.3-1.627-0.229-3.484-0.681-5.074c1.463-0.277,2.919-0.561,4.361-0.844
	c1.67-0.328,3.334-0.68,4.994-1.043c0.02,1.699,0.293,3.461,0.291,5.056C83.023,121.659,83.756,124.268,83.146,126.766
	 M87.562,126.107c0.103-2.094-0.305-4.184-0.547-6.291c-0.233-2.024-0.146-4.445-0.697-6.549c3.037-0.697,6.068-1.43,9.096-2.172
	c0.016,1.532,0.146,3.069,0.143,4.629c-0.007,2.933,0.236,5.94,0.692,8.846C93.357,125.163,90.466,125.656,87.562,126.107
	 M106.059,122.143c-1.832,0.547-3.664,1.027-5.496,1.471c0.117-2.614-0.486-5.281-0.647-7.887c-0.117-1.865-0.368-3.724-0.636-5.576
	c3.008-0.738,6.016-1.476,9.029-2.178c-0.002,1.983,0.406,4.033,0.709,5.943c0.33,2.079,0.621,4.918,2.096,6.6
	C109.422,121.086,107.736,121.641,106.059,122.143 M123.641,116.415c-3.08,0.862-6.129,1.903-9.158,2.946
	c-0.08-2.09-1.258-4.436-1.729-6.475c-0.433-1.854-0.839-3.787-0.997-5.699c3.014-0.672,6.035-1.312,9.075-1.869
	c0.712-0.131,1.433-0.266,2.157-0.405c0.186,1.403,0.65,2.848,0.924,4.167c0.275,1.352,0.466,2.701,0.523,4.08
	C124.504,114.766,124.005,115.016,123.641,116.415 M136.464,114.332c-2.36,0.027-4.698,0.3-7.021,0.727
	c0.436-3.431-0.795-8.104-2.059-10.973c3.197-0.579,6.465-1.077,9.696-1.22c-0.073,0.958-0.011,1.926,0.033,2.922
	c0.125,2.829-0.068,5.729,0.136,8.56C136.986,114.343,136.727,114.329,136.464,114.332 M129.691,98.422
	c-7.358,1.094-14.604,2.578-21.819,4.229c0.257-3.95-0.44-8.209-0.876-12.041c-0.559-4.909-1.154-9.782-1.904-14.67
	c-0.773-5.032-1.188-10.104-1.924-15.143c-0.318-2.186-0.409-4.965-1.029-7.379c6.441-1.373,12.935-2.459,19.438-3.028
	c4.166-0.363,8.442-0.212,12.569,0.442c2.258,0.358,4.531,0.954,6.633,1.857c0.938,0.403,1.794,0.941,2.645,1.491
	c0.602,0.414,1.146,0.889,1.641,1.423c0.017-0.612,0.055-0.605,0.119,0.018c0.041,0.256,0.131,0.479,0.248,0.681
	c0.082,2.045,0.178,4.091,0.278,6.152c0.579,12.022,1.715,24.06,3.039,36.021C143.154,96.079,134.723,97.677,129.691,98.422
	 M142.096,114.723c0.225-2.957-0.125-6.009-0.453-8.935c-0.1-0.89-0.209-1.896-0.382-2.877c2.646,0.182,5.235,0.681,7.708,1.677
	c-0.042,1.204-0.095,2.403-0.097,3.566c0,1.14,0.254,2.324,0.45,3.438c0.26,1.457-0.702,3.771,0.822,3.712
	C147.49,115.409,144.793,115.036,142.096,114.723"/>
</svg>
