<?xml version="1.0" encoding="utf-8"?>
<!-- Generator: Adobe Illustrator 16.0.4, SVG Export Plug-In . SVG Version: 6.00 Build 0)  -->
<svg version="1.2" baseProfile="tiny" id="Layer_1" xmlns="http://www.w3.org/2000/svg" xmlns:xlink="http://www.w3.org/1999/xlink"
	 x="0px" y="0px" width="55px" height="75px" viewBox="0 0 55 75" xml:space="preserve">
<path fill="#FFFFFF" d="M53.675,61.249c-0.652-5.453-0.672-10.947-0.759-16.432c-0.087-5.416-0.321-10.784-0.157-16.205
	c0.083-2.752-0.083-5.472-0.159-8.22c-0.072-2.678,0.062-5.35-0.125-8.025c-0.118-1.694-0.353-3.345-1.625-4.569
	c-0.365-0.351-0.812-0.573-1.298-0.712c0.009-0.021,0.021-0.038,0.029-0.06c0.843-2.376-1.924-5.46-4.435-4.562
	c-2.271,0.812-3.522,2.681-4.174,4.835c-0.22-0.006-0.439-0.008-0.66-0.016c0.724-2.298-0.939-5.715-3.67-5.526
	c-2.821,0.196-4.158,2.386-4.821,4.902c-0.243-0.015-0.487-0.029-0.73-0.041c0.015-0.045,0.028-0.092,0.036-0.143
	c0.348-2.274-0.793-4.31-3.034-4.955c-2.445-0.704-4.291,1.288-5.177,3.299c-0.235,0.536-0.417,1.083-0.562,1.637
	c-0.279-0.01-0.559-0.014-0.837-0.027c0.406-1.248-0.449-3.133-1.168-3.899c-1.5-1.601-4.181-1.027-5.381,0.607
	c-0.658,0.897-1.018,1.953-1.223,3.058c-0.108,0.004-0.216,0.005-0.325,0.01c-0.153,0.007-0.307,0.012-0.461,0.02
	c0.287-1.741-0.682-3.673-2.528-4.121C8.034,1.518,6.377,2.696,5.129,4.693c-0.396,0.631-0.689,1.308-0.901,2.01
	c-0.731,0.14-1.419,0.402-1.96,0.953C2.084,7.843,1.991,8.138,2.073,8.395c0.233,0.731,0.312,1.487,0.54,2.209
	c-0.602,0.173-1.153,0.417-1.512,0.775c-0.919,0.918-0.217,3.589-0.19,4.69c0.118,4.977,0.313,9.929,0.324,14.913
	c0.011,5.166,0.003,10.31,0.353,15.468c0.284,4.189,0.364,8.402,0.918,12.566c0.037,0.932,0.12,1.873,0.242,2.836
	c0.379,2.988,0.02,6.037,0.328,9.043c0.173,1.686,1.048,2.799,2.811,2.725c1.289-0.055,2.568-0.381,3.858-0.486
	c1.63-0.131,3.267-0.139,4.899-0.25c6.252-0.422,12.534,0.498,18.791,0.531c3.085,0.016,6.162-0.146,9.235-0.41
	c2.308-0.197,4.794-0.361,6.809-1.625c1.384-0.865,0.999-2.248,0.694-3.605c1.299-0.08,2.946-0.395,3.776-1.49
	C54.962,64.946,53.852,62.724,53.675,61.249 M43.623,6.58c0.337-0.705,0.836-1.268,1.479-1.705c0.996-0.678,2.879,0.159,2.389,1.575
	c-0.059,0.166-0.076,0.319-0.062,0.459c-0.685,0.037-1.354,0.13-1.93,0.202C44.777,7.2,44.053,7.25,43.328,7.28
	C43.417,7.043,43.513,6.81,43.623,6.58 M41.339,16.3c0.926,0.782,2.463,0.719,2.73-0.396c0.024,0.012,0.05,0.02,0.073,0.033
	c1.146,0.61,0.072,1.674-0.666,1.919c-0.733,0.243-1.851,0.248-2.264-0.526C41.038,17.001,41.123,16.638,41.339,16.3 M35.127,4.686
	c0.677-0.813,1.715-0.898,2.526-0.206c0.81,0.69,0.602,1.779,0.842,2.707c-1.479-0.1-2.959-0.239-4.438-0.363
	C34.287,6.04,34.622,5.293,35.127,4.686 M33.659,8.95c0.009-0.088,0.021-0.178,0.033-0.267c2.287,0.171,4.569,0.374,6.863,0.479
	c-0.04,0.252-0.079,0.525-0.116,0.813c-2.049-0.027-4.098-0.067-6.146-0.084c-0.243-0.003-0.486-0.001-0.728-0.003
	C33.597,9.517,33.633,9.192,33.659,8.95 M26.197,3.894c1.963-1.476,2.703,1.292,3.004,2.582c0.006,0.03,0.019,0.058,0.029,0.086
	c-1.538-0.026-3.076-0.03-4.614-0.05C24.914,5.532,25.379,4.507,26.197,3.894 M24.241,8.276c1.331,0.07,2.661,0.126,3.99,0.139
	c1.069,0.01,2.138,0.055,3.202,0.115c-0.067,0.445-0.119,0.896-0.152,1.353c-2.385,0.005-4.771,0.026-7.156,0.02
	C24.131,9.334,24.175,8.78,24.241,8.276 M24.347,15.861c0.692,0.466,1.503,0.554,2.362-0.11c0.024-0.018,0.043-0.042,0.064-0.063
	c0.959,0.456,0.945,1.676-0.027,2.197c-0.85,0.455-2.404,0.227-2.738-0.787C23.84,16.583,24.026,16.18,24.347,15.861 M17.558,3.763
	c0.948-0.361,1.686,0.449,1.769,1.253c0.046,0.446-0.19,1.249,0.155,0.799c-0.127,0.166-0.184,0.334-0.191,0.497
	c-1.13-0.062-2.253-0.118-3.383-0.138C16.121,5.169,16.542,4.149,17.558,3.763 M15.648,7.919c2.129-0.003,4.263,0.115,6.396,0.237
	c-0.062,0.573-0.083,1.15-0.067,1.729c-0.979-0.012-1.957-0.029-2.936-0.06c-1.182-0.038-2.352-0.067-3.516-0.081
	C15.533,9.14,15.58,8.524,15.648,7.919 M14.862,15.487c0.359,0.354,0.806,0.567,1.355,0.556c0.309-0.006,0.518-0.196,0.621-0.474
	c0.017-0.04,0.026-0.075,0.035-0.11c0.288,0.166,0.537,0.39,0.716,0.682c0.502,0.826-0.338,1.294-1.004,1.433
	c-0.602,0.126-1.627-0.004-2.019-0.544C14.252,16.599,14.473,15.959,14.862,15.487 M7.512,4.66c1.328-1.548,4.131-0.68,3.494,1.562
	c-0.008,0.026-0.008,0.051-0.013,0.077C9.455,6.352,7.921,6.398,6.382,6.5C6.667,5.837,7.036,5.216,7.512,4.66 M5.876,8.116
	c0.645-0.035,1.29-0.041,1.876-0.12c1.872-0.252,3.866-0.042,5.778-0.049c-0.044,0.604-0.065,1.207-0.085,1.79
	c-2.569,0.012-5.124,0.113-7.719,0.379C5.694,9.447,5.746,8.775,5.876,8.116 M5.887,16.342c0.127-0.163,0.347-0.399,0.6-0.62
	c0.544,0.294,1.15,0.367,1.797,0.067c0.1-0.047,0.148-0.136,0.168-0.231c0.284,0.233,0.518,0.526,0.642,0.853
	c0.261,0.686-0.919,1.173-1.414,1.298C6.949,17.893,5.099,17.359,5.887,16.342 M3.877,8.481c-0.062,0.617-0.07,1.239-0.028,1.857
	c-0.036,0.007-0.072,0.012-0.109,0.018c-0.108-0.572-0.103-1.17-0.14-1.76C3.689,8.551,3.784,8.519,3.877,8.481 M28.046,70.718
	c-6.811-0.32-13.546-0.855-20.351,0.039c-0.562,0.076-1.109,0.18-1.661,0.303c-0.972,0.219-0.704-1.266-0.779-2.037
	c-0.161-1.648-0.34-3.295-0.52-4.941c-0.322-2.947-0.675-5.914-1.191-8.836C3.124,48.981,2.766,42.677,2.779,36.4
	c0.012-6.315,0.038-12.609-0.214-18.917c-0.055-1.354,0.123-2.711,0.045-4.063c-0.06-1.018,0.693-1.083,1.514-1.231
	c0.174,0.683,0.529,1.519,1.019,2.231c-0.411,0.328-0.764,0.705-0.99,1.045c-0.89,1.326-0.189,2.877,1.019,3.674
	c1.332,0.877,3.204,0.69,4.476-0.184c1.576-1.083,1.964-2.979,0.5-4.34c-0.565-0.525-1.397-0.845-2.14-1.007
	c-0.354-0.079-0.753-0.114-1.118-0.051c-0.325-0.431-0.604-0.905-0.813-1.527c-0.025-0.076-0.043-0.154-0.066-0.23
	c2.441-0.401,5.04-0.332,7.476-0.291c0.072,0.82,0.23,1.748,0.526,2.552c-0.179,0.107-0.351,0.229-0.503,0.351
	c-0.787,0.631-1.13,1.735-0.936,2.714c0.385,1.942,2.649,2.624,4.379,2.347c2.129-0.342,3.316-2.303,2.263-4.28
	c-0.561-1.057-1.87-1.69-3.022-1.695c-0.081-0.001-0.164,0.005-0.248,0.016c-0.172-0.652-0.269-1.395-0.323-1.965
	c2.172,0.037,4.342,0.079,6.512,0.117c0.028,0.191,0.054,0.381,0.088,0.572c0.142,0.764,0.535,1.762,1.101,2.57
	c-0.06,0.069-0.115,0.142-0.164,0.219c-0.756,0.814-0.792,2.097-0.292,3.047c0.916,1.74,3.718,1.861,5.158,0.799
	c1.995-1.473,1.043-4.172-1.046-4.907c-0.572-0.2-1.27-0.227-1.926-0.092c-0.42-0.576-0.672-1.342-0.805-2.171
	c2.337,0.038,4.676,0.064,7.015,0.075c0.054,0.915,0.201,1.811,0.479,2.639c0.104,0.316,0.283,0.645,0.509,0.952
	c-0.196,0.292-0.35,0.624-0.459,0.966c-0.288,0.907,0.082,1.879,0.768,2.494c1.378,1.233,3.899,1.208,5.154-0.181
	c1.456-1.608,0.508-3.709-1.357-4.33c-0.65-0.217-1.547-0.206-2.316,0.041c-0.384-0.643-0.521-1.605-0.542-2.567
	c2.258,0.012,4.516,0.06,6.774,0.099c-0.05,1.21,0.031,2.449,0.4,3.402c-0.066,0.082-0.135,0.166-0.199,0.25
	c-0.093,0.12-0.148,0.237-0.186,0.354c-0.211,0.36-0.336,0.768-0.321,1.236c0.067,1.979,2.49,2.358,3.993,1.94
	c1.862-0.52,3.028-3.041,1.092-4.316c-0.681-0.447-1.558-0.636-2.387-0.548c-0.032-0.229-0.039-0.498-0.054-0.784
	c-0.028-0.501-0.013-1.005,0.01-1.508c1.014,0.004,2.026-0.007,3.042-0.045c2.002-0.075,2.07,0.862,2.061,2.577
	c-0.03,6.023-0.38,12.116-0.622,18.138c-0.248,6.188,0.05,12.324,0.238,18.518c0.185,6.021-0.193,12.369,0.959,18.303
	C48.625,71.091,29.93,70.808,28.046,70.718 M33.567,16.53c0.786,0.407,1.646,0.389,2.24-0.529c0.478,0.204,0.831,0.584,0.654,1.159
	c-0.261,0.845-1.548,0.782-2.196,0.594C33.537,17.542,33.403,17.038,33.567,16.53 M50.121,65.44
	c-0.075,0.004-0.143,0.018-0.211,0.031c-0.018-0.77-0.004-1.547-0.057-2.299c-0.108-1.547-0.227-3.088-0.27-4.637
	c-0.172-6.164-0.27-12.32-0.646-18.475c-0.186-3.017,0.109-6.018,0.21-9.031c0.109-3.355,0.124-6.711,0.221-10.066
	c0.072-2.484,0.358-4.975,0.284-7.46c-0.057-1.84-0.68-3.136-2.56-3.486c-1.378-0.256-2.925-0.098-4.377-0.041
	c0.025-0.262,0.057-0.522,0.1-0.781c1.525-0.058,3.029-0.258,4.562-0.363c3.475-0.236,3.206,3.235,3.275,5.734
	c0.255,9.128-0.235,18.244,0.026,27.37c0.129,4.469,0.043,8.938,0.243,13.404c0.099,2.203,0.28,4.395,0.533,6.584
	c0.102,0.883,0.179,1.672,0.467,2.508C52.24,65.358,50.816,65.405,50.121,65.44"/>
<path fill="#FFFFFF" d="M15.217,26.664c2.889-0.065,5.757-0.25,8.648-0.219c6.047,0.069,12.087,0.402,18.134,0.397
	c0.042-0.967,0.117-1.929,0.262-2.871c-0.193,0.026-0.382,0.087-0.546,0.188c-5.697-0.037-11.388-0.256-17.083-0.347
	c-2.908-0.047-5.792,0.07-8.696,0.199c-1.438,0.063-2.865,0.032-4.301-0.005c-1.679-0.042-3.325,0.396-4.996,0.47
	c-0.011,0-0.019,0.003-0.028,0.004c0.207,0.901,0.277,1.896,0.33,2.562c1.334-0.077,2.646-0.321,3.979-0.412
	C12.341,26.534,13.791,26.695,15.217,26.664"/>
<path fill="#FFFFFF" d="M33.138,30.784c-3.065-0.037-6.123-0.188-9.185,0.02c-3.027,0.204-6.091,0.016-9.12,0.007
	c-2.598-0.007-5.17-0.282-7.727,0.225c0.005,0.861,0.001,1.725-0.009,2.587c0.047-0.006,0.093-0.007,0.143-0.019
	c2.715-0.624,5.593-0.193,8.353-0.183c3.016,0.013,6.037,0.158,9.05-0.041c2.823-0.185,5.67-0.014,8.495,0.041
	c2.887,0.056,5.775-0.233,8.657,0.01c0.029,0.003,0.056-0.002,0.086-0.001c0.004-0.469,0.011-0.938,0.024-1.408
	c0.013-0.396,0.019-0.795,0.023-1.197c-0.045-0.008-0.087-0.021-0.134-0.026C38.918,30.524,36.022,30.819,33.138,30.784"/>
<path fill="#FFFFFF" d="M26.406,40.245c3.282,0.027,6.562,0.096,9.837-0.174c1.322-0.107,2.722-0.164,4.038,0.012
	c0.577,0.078,1.172,0.152,1.723,0.004c-0.025-0.896-0.053-1.793-0.075-2.687c-0.208,0.004-0.428,0.062-0.651,0.213
	c-0.309,0.207-1.973-0.17-2.391-0.168c-1.363,0.004-2.711,0.098-4.069,0.191c-3.305,0.227-6.63,0.104-9.939,0.104
	c-5.9-0.002-11.812-0.736-17.711-0.264c-0.028,0.002-0.055,0.01-0.082,0.014c0.01,0.738,0.031,1.476,0.072,2.214
	c0.004,0,0.007,0,0.01,0.002c3.038,0.207,6.146,0.164,9.194,0.236C19.712,40.019,23.057,40.218,26.406,40.245"/>
<path fill="#FFFFFF" d="M24.745,47.351c5.77,0.037,11.536-0.217,17.299-0.219c0.013-0.846,0.022-1.689,0.024-2.533
	c-5.54,0.131-11.062,0.285-16.608,0.297c-5.912,0.012-11.888-0.256-17.775,0.342c-0.036,0.004-0.072,0.01-0.109,0.016
	c0.064,0.748,0.128,1.494,0.195,2.24C13.41,47.149,19.094,47.317,24.745,47.351"/>
<path fill="#FFFFFF" d="M14.265,54.915c3.573-0.057,7.13,0.176,10.697,0.348c3.757,0.18,7.522,0.168,11.282,0.172
	c1.504,0.002,3.006-0.191,4.51-0.094c0.402,0.027,0.809,0.055,1.211,0.047c-0.012-0.9-0.012-1.803-0.005-2.705
	c-0.565,0.078-1.429-0.129-1.884-0.145c-1.524-0.053-3.067,0.135-4.596,0.135c-3.271,0.002-6.542-0.014-9.811-0.123
	c-3.105-0.105-6.202-0.34-9.311-0.385c-1.657-0.025-3.307,0.121-4.964,0.037c-0.802-0.041-1.686,0.332-2.463,0.061
	c-0.255-0.09-0.502-0.066-0.72,0.025c0.043,0.465,0.087,0.93,0.129,1.396c0.027,0.309,0.052,0.615,0.08,0.924
	c0.467,0.205,0.961,0.258,1.537,0.289C11.376,54.972,12.844,54.938,14.265,54.915"/>
<path fill="#FFFFFF" d="M41.42,61.009c0.264,0.02,0.538,0.039,0.812,0.043c-0.079-0.877-0.137-1.756-0.18-2.633
	c-0.809,0.059-2.195-0.156-2.636-0.137c-1.617,0.061-3.233,0.094-4.851,0.143c-3.414,0.107-6.81,0.418-10.229,0.348
	c-3.361-0.07-6.7-0.363-10.067-0.342c-1.515,0.012-4.113-0.451-5.496,0.588c0.035,0.488,0.076,0.977,0.105,1.465
	c0.014,0.227,0.031,0.455,0.052,0.688c0.165,0.033,0.337,0.031,0.502-0.01c1.128-0.287,2.297-0.137,3.451-0.129
	c1.646,0.012,3.291,0.014,4.935,0.082c3.404,0.139,6.781,0.42,10.19,0.322c3.145-0.09,6.277-0.311,9.424-0.354
	C38.765,61.065,40.09,60.907,41.42,61.009"/>
<path fill="#FFFFFF" d="M43.248,65.062c-1.247,0.016-3.511-0.434-4.162,0.969c-0.269,0.578-0.157,1.217,0.412,1.57
	c0.633,0.391,1.219,0.158,1.904,0.154c0.615-0.004,1.23,0.111,1.846,0.139C45.069,67.974,45.079,65.038,43.248,65.062"/>
</svg>
